<?xml version="1.0" encoding="utf-8" standalone="no"?>
<!DOCTYPE svg PUBLIC "-//W3C//DTD SVG 1.1//EN"
  "http://www.w3.org/Graphics/SVG/1.1/DTD/svg11.dtd">
<!-- Created with matplotlib (http://matplotlib.org/) -->
<svg height="289.363281pt" version="1.1" viewBox="0 0 568.0535 289.363281" width="568.0535pt" xmlns="http://www.w3.org/2000/svg" xmlns:xlink="http://www.w3.org/1999/xlink">
 <defs>
  <style type="text/css">
*{stroke-linecap:butt;stroke-linejoin:round;}
  </style>
 </defs>
 <g id="figure_1">
  <g id="patch_1">
   <path d="M 0 289.363281 
L 568.0535 289.363281 
L 568.0535 0 
L 0 0 
z
" style="fill:#ffffff;"/>
  </g>
  <g id="axes_1">
   <g id="patch_2">
    <path d="M 63.35875 113.207031 
L 551.30975 113.207031 
L 551.30975 31.207031 
L 63.35875 31.207031 
z
" style="fill:#ffffff;"/>
   </g>
   <g id="patch_3">
    <path clip-path="url(#pcdb804a88e)" d="M 188.37099 48.288634 
L 180.305684 50.338634 
L 180.305684 48.391134 
L 164.175072 48.391134 
L 164.175072 48.186134 
L 180.305684 48.186134 
L 180.305684 46.238634 
z
" style="fill:#ff7f0e;stroke:#ff7f0e;stroke-linejoin:miter;"/>
   </g>
   <g id="patch_4">
    <path clip-path="url(#pcdb804a88e)" d="M 188.37099 91.893006 
L 180.305684 93.943006 
L 180.305684 91.995506 
L 164.175072 91.995506 
L 164.175072 91.790506 
L 180.305684 91.790506 
L 180.305684 89.843006 
z
" style="fill:#ff7f0e;stroke:#ff7f0e;stroke-linejoin:miter;"/>
   </g>
   <g id="patch_5">
    <path clip-path="url(#pcdb804a88e)" d="M 349.677105 48.288634 
L 341.6118 50.338634 
L 341.6118 48.391134 
L 325.481188 48.391134 
L 325.481188 48.186134 
L 341.6118 48.186134 
L 341.6118 46.238634 
z
" style="fill:#ff7f0e;stroke:#ff7f0e;stroke-linejoin:miter;"/>
   </g>
   <g id="patch_6">
    <path clip-path="url(#pcdb804a88e)" d="M 349.677105 91.893006 
L 341.6118 93.943006 
L 341.6118 91.995506 
L 325.481188 91.995506 
L 325.481188 91.790506 
L 341.6118 91.790506 
L 341.6118 89.843006 
z
" style="fill:#ff7f0e;stroke:#ff7f0e;stroke-linejoin:miter;"/>
   </g>
   <g id="patch_7">
    <path clip-path="url(#pcdb804a88e)" d="M 498.885262 48.288634 
L 490.819957 50.338634 
L 490.819957 48.391134 
L 474.689345 48.391134 
L 474.689345 48.186134 
L 490.819957 48.186134 
L 490.819957 46.238634 
z
" style="fill:#ff7f0e;stroke:#ff7f0e;stroke-linejoin:miter;"/>
   </g>
   <g id="patch_8">
    <path clip-path="url(#pcdb804a88e)" d="M 498.885262 91.893006 
L 490.819957 93.943006 
L 490.819957 91.995506 
L 474.689345 91.995506 
L 474.689345 91.790506 
L 490.819957 91.790506 
L 490.819957 89.843006 
z
" style="fill:#ff7f0e;stroke:#ff7f0e;stroke-linejoin:miter;"/>
   </g>
   <g id="matplotlib.axis_1">
    <g id="xtick_1">
     <g id="line2d_1">
      <defs>
       <path d="M 0 0 
L 0 3.5 
" id="mf014c91353" style="stroke:#000000;stroke-width:0.8;"/>
      </defs>
      <g>
       <use style="stroke:#000000;stroke-width:0.8;" x="67.391403" xlink:href="#mf014c91353" y="113.207031"/>
      </g>
     </g>
     <g id="text_1">
      <!-- 0 -->
      <defs>
       <path d="M 31.78125 66.40625 
Q 24.171875 66.40625 20.328125 58.90625 
Q 16.5 51.421875 16.5 36.375 
Q 16.5 21.390625 20.328125 13.890625 
Q 24.171875 6.390625 31.78125 6.390625 
Q 39.453125 6.390625 43.28125 13.890625 
Q 47.125 21.390625 47.125 36.375 
Q 47.125 51.421875 43.28125 58.90625 
Q 39.453125 66.40625 31.78125 66.40625 
z
M 31.78125 74.21875 
Q 44.046875 74.21875 50.515625 64.515625 
Q 56.984375 54.828125 56.984375 36.375 
Q 56.984375 17.96875 50.515625 8.265625 
Q 44.046875 -1.421875 31.78125 -1.421875 
Q 19.53125 -1.421875 13.0625 8.265625 
Q 6.59375 17.96875 6.59375 36.375 
Q 6.59375 54.828125 13.0625 64.515625 
Q 19.53125 74.21875 31.78125 74.21875 
z
" id="DejaVuSans-30"/>
      </defs>
      <g transform="translate(64.210153 127.805469)scale(0.1 -0.1)">
       <use xlink:href="#DejaVuSans-30"/>
      </g>
     </g>
    </g>
    <g id="xtick_2">
     <g id="line2d_2">
      <g>
       <use style="stroke:#000000;stroke-width:0.8;" x="115.783238" xlink:href="#mf014c91353" y="113.207031"/>
      </g>
     </g>
     <g id="text_2">
      <!-- 12 -->
      <defs>
       <path d="M 12.40625 8.296875 
L 28.515625 8.296875 
L 28.515625 63.921875 
L 10.984375 60.40625 
L 10.984375 69.390625 
L 28.421875 72.90625 
L 38.28125 72.90625 
L 38.28125 8.296875 
L 54.390625 8.296875 
L 54.390625 0 
L 12.40625 0 
z
" id="DejaVuSans-31"/>
       <path d="M 19.1875 8.296875 
L 53.609375 8.296875 
L 53.609375 0 
L 7.328125 0 
L 7.328125 8.296875 
Q 12.9375 14.109375 22.625 23.890625 
Q 32.328125 33.6875 34.8125 36.53125 
Q 39.546875 41.84375 41.421875 45.53125 
Q 43.3125 49.21875 43.3125 52.78125 
Q 43.3125 58.59375 39.234375 62.25 
Q 35.15625 65.921875 28.609375 65.921875 
Q 23.96875 65.921875 18.8125 64.3125 
Q 13.671875 62.703125 7.8125 59.421875 
L 7.8125 69.390625 
Q 13.765625 71.78125 18.9375 73 
Q 24.125 74.21875 28.421875 74.21875 
Q 39.75 74.21875 46.484375 68.546875 
Q 53.21875 62.890625 53.21875 53.421875 
Q 53.21875 48.921875 51.53125 44.890625 
Q 49.859375 40.875 45.40625 35.40625 
Q 44.1875 33.984375 37.640625 27.21875 
Q 31.109375 20.453125 19.1875 8.296875 
z
" id="DejaVuSans-32"/>
      </defs>
      <g transform="translate(109.420738 127.805469)scale(0.1 -0.1)">
       <use xlink:href="#DejaVuSans-31"/>
       <use x="63.623047" xlink:href="#DejaVuSans-32"/>
      </g>
     </g>
    </g>
    <g id="xtick_3">
     <g id="line2d_3">
      <g>
       <use style="stroke:#000000;stroke-width:0.8;" x="164.175072" xlink:href="#mf014c91353" y="113.207031"/>
      </g>
     </g>
     <g id="text_3">
      <!-- 24 -->
      <defs>
       <path d="M 37.796875 64.3125 
L 12.890625 25.390625 
L 37.796875 25.390625 
z
M 35.203125 72.90625 
L 47.609375 72.90625 
L 47.609375 25.390625 
L 58.015625 25.390625 
L 58.015625 17.1875 
L 47.609375 17.1875 
L 47.609375 0 
L 37.796875 0 
L 37.796875 17.1875 
L 4.890625 17.1875 
L 4.890625 26.703125 
z
" id="DejaVuSans-34"/>
      </defs>
      <g transform="translate(157.812572 127.805469)scale(0.1 -0.1)">
       <use xlink:href="#DejaVuSans-32"/>
       <use x="63.623047" xlink:href="#DejaVuSans-34"/>
      </g>
     </g>
    </g>
    <g id="xtick_4">
     <g id="line2d_4">
      <g>
       <use style="stroke:#000000;stroke-width:0.8;" x="212.566907" xlink:href="#mf014c91353" y="113.207031"/>
      </g>
     </g>
     <g id="text_4">
      <!-- 36 -->
      <defs>
       <path d="M 40.578125 39.3125 
Q 47.65625 37.796875 51.625 33 
Q 55.609375 28.21875 55.609375 21.1875 
Q 55.609375 10.40625 48.1875 4.484375 
Q 40.765625 -1.421875 27.09375 -1.421875 
Q 22.515625 -1.421875 17.65625 -0.515625 
Q 12.796875 0.390625 7.625 2.203125 
L 7.625 11.71875 
Q 11.71875 9.328125 16.59375 8.109375 
Q 21.484375 6.890625 26.8125 6.890625 
Q 36.078125 6.890625 40.9375 10.546875 
Q 45.796875 14.203125 45.796875 21.1875 
Q 45.796875 27.640625 41.28125 31.265625 
Q 36.765625 34.90625 28.71875 34.90625 
L 20.21875 34.90625 
L 20.21875 43.015625 
L 29.109375 43.015625 
Q 36.375 43.015625 40.234375 45.921875 
Q 44.09375 48.828125 44.09375 54.296875 
Q 44.09375 59.90625 40.109375 62.90625 
Q 36.140625 65.921875 28.71875 65.921875 
Q 24.65625 65.921875 20.015625 65.03125 
Q 15.375 64.15625 9.8125 62.3125 
L 9.8125 71.09375 
Q 15.4375 72.65625 20.34375 73.4375 
Q 25.25 74.21875 29.59375 74.21875 
Q 40.828125 74.21875 47.359375 69.109375 
Q 53.90625 64.015625 53.90625 55.328125 
Q 53.90625 49.265625 50.4375 45.09375 
Q 46.96875 40.921875 40.578125 39.3125 
z
" id="DejaVuSans-33"/>
       <path d="M 33.015625 40.375 
Q 26.375 40.375 22.484375 35.828125 
Q 18.609375 31.296875 18.609375 23.390625 
Q 18.609375 15.53125 22.484375 10.953125 
Q 26.375 6.390625 33.015625 6.390625 
Q 39.65625 6.390625 43.53125 10.953125 
Q 47.40625 15.53125 47.40625 23.390625 
Q 47.40625 31.296875 43.53125 35.828125 
Q 39.65625 40.375 33.015625 40.375 
z
M 52.59375 71.296875 
L 52.59375 62.3125 
Q 48.875 64.0625 45.09375 64.984375 
Q 41.3125 65.921875 37.59375 65.921875 
Q 27.828125 65.921875 22.671875 59.328125 
Q 17.53125 52.734375 16.796875 39.40625 
Q 19.671875 43.65625 24.015625 45.921875 
Q 28.375 48.1875 33.59375 48.1875 
Q 44.578125 48.1875 50.953125 41.515625 
Q 57.328125 34.859375 57.328125 23.390625 
Q 57.328125 12.15625 50.6875 5.359375 
Q 44.046875 -1.421875 33.015625 -1.421875 
Q 20.359375 -1.421875 13.671875 8.265625 
Q 6.984375 17.96875 6.984375 36.375 
Q 6.984375 53.65625 15.1875 63.9375 
Q 23.390625 74.21875 37.203125 74.21875 
Q 40.921875 74.21875 44.703125 73.484375 
Q 48.484375 72.75 52.59375 71.296875 
z
" id="DejaVuSans-36"/>
      </defs>
      <g transform="translate(206.204407 127.805469)scale(0.1 -0.1)">
       <use xlink:href="#DejaVuSans-33"/>
       <use x="63.623047" xlink:href="#DejaVuSans-36"/>
      </g>
     </g>
    </g>
    <g id="xtick_5">
     <g id="line2d_5">
      <g>
       <use style="stroke:#000000;stroke-width:0.8;" x="260.958742" xlink:href="#mf014c91353" y="113.207031"/>
      </g>
     </g>
     <g id="text_5">
      <!-- 48 -->
      <defs>
       <path d="M 31.78125 34.625 
Q 24.75 34.625 20.71875 30.859375 
Q 16.703125 27.09375 16.703125 20.515625 
Q 16.703125 13.921875 20.71875 10.15625 
Q 24.75 6.390625 31.78125 6.390625 
Q 38.8125 6.390625 42.859375 10.171875 
Q 46.921875 13.96875 46.921875 20.515625 
Q 46.921875 27.09375 42.890625 30.859375 
Q 38.875 34.625 31.78125 34.625 
z
M 21.921875 38.8125 
Q 15.578125 40.375 12.03125 44.71875 
Q 8.5 49.078125 8.5 55.328125 
Q 8.5 64.0625 14.71875 69.140625 
Q 20.953125 74.21875 31.78125 74.21875 
Q 42.671875 74.21875 48.875 69.140625 
Q 55.078125 64.0625 55.078125 55.328125 
Q 55.078125 49.078125 51.53125 44.71875 
Q 48 40.375 41.703125 38.8125 
Q 48.828125 37.15625 52.796875 32.3125 
Q 56.78125 27.484375 56.78125 20.515625 
Q 56.78125 9.90625 50.3125 4.234375 
Q 43.84375 -1.421875 31.78125 -1.421875 
Q 19.734375 -1.421875 13.25 4.234375 
Q 6.78125 9.90625 6.78125 20.515625 
Q 6.78125 27.484375 10.78125 32.3125 
Q 14.796875 37.15625 21.921875 38.8125 
z
M 18.3125 54.390625 
Q 18.3125 48.734375 21.84375 45.5625 
Q 25.390625 42.390625 31.78125 42.390625 
Q 38.140625 42.390625 41.71875 45.5625 
Q 45.3125 48.734375 45.3125 54.390625 
Q 45.3125 60.0625 41.71875 63.234375 
Q 38.140625 66.40625 31.78125 66.40625 
Q 25.390625 66.40625 21.84375 63.234375 
Q 18.3125 60.0625 18.3125 54.390625 
z
" id="DejaVuSans-38"/>
      </defs>
      <g transform="translate(254.596242 127.805469)scale(0.1 -0.1)">
       <use xlink:href="#DejaVuSans-34"/>
       <use x="63.623047" xlink:href="#DejaVuSans-38"/>
      </g>
     </g>
    </g>
    <g id="xtick_6">
     <g id="line2d_6">
      <g>
       <use style="stroke:#000000;stroke-width:0.8;" x="309.350576" xlink:href="#mf014c91353" y="113.207031"/>
      </g>
     </g>
     <g id="text_6">
      <!-- 60 -->
      <g transform="translate(302.988076 127.805469)scale(0.1 -0.1)">
       <use xlink:href="#DejaVuSans-36"/>
       <use x="63.623047" xlink:href="#DejaVuSans-30"/>
      </g>
     </g>
    </g>
    <g id="xtick_7">
     <g id="line2d_7">
      <g>
       <use style="stroke:#000000;stroke-width:0.8;" x="357.742411" xlink:href="#mf014c91353" y="113.207031"/>
      </g>
     </g>
     <g id="text_7">
      <!-- 72 -->
      <defs>
       <path d="M 8.203125 72.90625 
L 55.078125 72.90625 
L 55.078125 68.703125 
L 28.609375 0 
L 18.3125 0 
L 43.21875 64.59375 
L 8.203125 64.59375 
z
" id="DejaVuSans-37"/>
      </defs>
      <g transform="translate(351.379911 127.805469)scale(0.1 -0.1)">
       <use xlink:href="#DejaVuSans-37"/>
       <use x="63.623047" xlink:href="#DejaVuSans-32"/>
      </g>
     </g>
    </g>
    <g id="xtick_8">
     <g id="line2d_8">
      <g>
       <use style="stroke:#000000;stroke-width:0.8;" x="406.134246" xlink:href="#mf014c91353" y="113.207031"/>
      </g>
     </g>
     <g id="text_8">
      <!-- 84 -->
      <g transform="translate(399.771746 127.805469)scale(0.1 -0.1)">
       <use xlink:href="#DejaVuSans-38"/>
       <use x="63.623047" xlink:href="#DejaVuSans-34"/>
      </g>
     </g>
    </g>
    <g id="xtick_9">
     <g id="line2d_9">
      <g>
       <use style="stroke:#000000;stroke-width:0.8;" x="454.526081" xlink:href="#mf014c91353" y="113.207031"/>
      </g>
     </g>
     <g id="text_9">
      <!-- 96 -->
      <defs>
       <path d="M 10.984375 1.515625 
L 10.984375 10.5 
Q 14.703125 8.734375 18.5 7.8125 
Q 22.3125 6.890625 25.984375 6.890625 
Q 35.75 6.890625 40.890625 13.453125 
Q 46.046875 20.015625 46.78125 33.40625 
Q 43.953125 29.203125 39.59375 26.953125 
Q 35.25 24.703125 29.984375 24.703125 
Q 19.046875 24.703125 12.671875 31.3125 
Q 6.296875 37.9375 6.296875 49.421875 
Q 6.296875 60.640625 12.9375 67.421875 
Q 19.578125 74.21875 30.609375 74.21875 
Q 43.265625 74.21875 49.921875 64.515625 
Q 56.59375 54.828125 56.59375 36.375 
Q 56.59375 19.140625 48.40625 8.859375 
Q 40.234375 -1.421875 26.421875 -1.421875 
Q 22.703125 -1.421875 18.890625 -0.6875 
Q 15.09375 0.046875 10.984375 1.515625 
z
M 30.609375 32.421875 
Q 37.25 32.421875 41.125 36.953125 
Q 45.015625 41.5 45.015625 49.421875 
Q 45.015625 57.28125 41.125 61.84375 
Q 37.25 66.40625 30.609375 66.40625 
Q 23.96875 66.40625 20.09375 61.84375 
Q 16.21875 57.28125 16.21875 49.421875 
Q 16.21875 41.5 20.09375 36.953125 
Q 23.96875 32.421875 30.609375 32.421875 
z
" id="DejaVuSans-39"/>
      </defs>
      <g transform="translate(448.163581 127.805469)scale(0.1 -0.1)">
       <use xlink:href="#DejaVuSans-39"/>
       <use x="63.623047" xlink:href="#DejaVuSans-36"/>
      </g>
     </g>
    </g>
    <g id="xtick_10">
     <g id="line2d_10">
      <g>
       <use style="stroke:#000000;stroke-width:0.8;" x="502.917915" xlink:href="#mf014c91353" y="113.207031"/>
      </g>
     </g>
     <g id="text_10">
      <!-- 108 -->
      <g transform="translate(493.374165 127.805469)scale(0.1 -0.1)">
       <use xlink:href="#DejaVuSans-31"/>
       <use x="63.623047" xlink:href="#DejaVuSans-30"/>
       <use x="127.246094" xlink:href="#DejaVuSans-38"/>
      </g>
     </g>
    </g>
    <g id="xtick_11">
     <g id="line2d_11">
      <g>
       <use style="stroke:#000000;stroke-width:0.8;" x="551.30975" xlink:href="#mf014c91353" y="113.207031"/>
      </g>
     </g>
     <g id="text_11">
      <!-- 120 -->
      <g transform="translate(541.766 127.805469)scale(0.1 -0.1)">
       <use xlink:href="#DejaVuSans-31"/>
       <use x="63.623047" xlink:href="#DejaVuSans-32"/>
       <use x="127.246094" xlink:href="#DejaVuSans-30"/>
      </g>
     </g>
    </g>
    <g id="text_12">
     <!-- Elapsed Time (Hours) -->
     <defs>
      <path d="M 9.8125 72.90625 
L 55.90625 72.90625 
L 55.90625 64.59375 
L 19.671875 64.59375 
L 19.671875 43.015625 
L 54.390625 43.015625 
L 54.390625 34.71875 
L 19.671875 34.71875 
L 19.671875 8.296875 
L 56.78125 8.296875 
L 56.78125 0 
L 9.8125 0 
z
" id="DejaVuSans-45"/>
      <path d="M 9.421875 75.984375 
L 18.40625 75.984375 
L 18.40625 0 
L 9.421875 0 
z
" id="DejaVuSans-6c"/>
      <path d="M 34.28125 27.484375 
Q 23.390625 27.484375 19.1875 25 
Q 14.984375 22.515625 14.984375 16.5 
Q 14.984375 11.71875 18.140625 8.90625 
Q 21.296875 6.109375 26.703125 6.109375 
Q 34.1875 6.109375 38.703125 11.40625 
Q 43.21875 16.703125 43.21875 25.484375 
L 43.21875 27.484375 
z
M 52.203125 31.203125 
L 52.203125 0 
L 43.21875 0 
L 43.21875 8.296875 
Q 40.140625 3.328125 35.546875 0.953125 
Q 30.953125 -1.421875 24.3125 -1.421875 
Q 15.921875 -1.421875 10.953125 3.296875 
Q 6 8.015625 6 15.921875 
Q 6 25.140625 12.171875 29.828125 
Q 18.359375 34.515625 30.609375 34.515625 
L 43.21875 34.515625 
L 43.21875 35.40625 
Q 43.21875 41.609375 39.140625 45 
Q 35.0625 48.390625 27.6875 48.390625 
Q 23 48.390625 18.546875 47.265625 
Q 14.109375 46.140625 10.015625 43.890625 
L 10.015625 52.203125 
Q 14.9375 54.109375 19.578125 55.046875 
Q 24.21875 56 28.609375 56 
Q 40.484375 56 46.34375 49.84375 
Q 52.203125 43.703125 52.203125 31.203125 
z
" id="DejaVuSans-61"/>
      <path d="M 18.109375 8.203125 
L 18.109375 -20.796875 
L 9.078125 -20.796875 
L 9.078125 54.6875 
L 18.109375 54.6875 
L 18.109375 46.390625 
Q 20.953125 51.265625 25.265625 53.625 
Q 29.59375 56 35.59375 56 
Q 45.5625 56 51.78125 48.09375 
Q 58.015625 40.1875 58.015625 27.296875 
Q 58.015625 14.40625 51.78125 6.484375 
Q 45.5625 -1.421875 35.59375 -1.421875 
Q 29.59375 -1.421875 25.265625 0.953125 
Q 20.953125 3.328125 18.109375 8.203125 
z
M 48.6875 27.296875 
Q 48.6875 37.203125 44.609375 42.84375 
Q 40.53125 48.484375 33.40625 48.484375 
Q 26.265625 48.484375 22.1875 42.84375 
Q 18.109375 37.203125 18.109375 27.296875 
Q 18.109375 17.390625 22.1875 11.75 
Q 26.265625 6.109375 33.40625 6.109375 
Q 40.53125 6.109375 44.609375 11.75 
Q 48.6875 17.390625 48.6875 27.296875 
z
" id="DejaVuSans-70"/>
      <path d="M 44.28125 53.078125 
L 44.28125 44.578125 
Q 40.484375 46.53125 36.375 47.5 
Q 32.28125 48.484375 27.875 48.484375 
Q 21.1875 48.484375 17.84375 46.4375 
Q 14.5 44.390625 14.5 40.28125 
Q 14.5 37.15625 16.890625 35.375 
Q 19.28125 33.59375 26.515625 31.984375 
L 29.59375 31.296875 
Q 39.15625 29.25 43.1875 25.515625 
Q 47.21875 21.78125 47.21875 15.09375 
Q 47.21875 7.46875 41.1875 3.015625 
Q 35.15625 -1.421875 24.609375 -1.421875 
Q 20.21875 -1.421875 15.453125 -0.5625 
Q 10.6875 0.296875 5.421875 2 
L 5.421875 11.28125 
Q 10.40625 8.6875 15.234375 7.390625 
Q 20.0625 6.109375 24.8125 6.109375 
Q 31.15625 6.109375 34.5625 8.28125 
Q 37.984375 10.453125 37.984375 14.40625 
Q 37.984375 18.0625 35.515625 20.015625 
Q 33.0625 21.96875 24.703125 23.78125 
L 21.578125 24.515625 
Q 13.234375 26.265625 9.515625 29.90625 
Q 5.8125 33.546875 5.8125 39.890625 
Q 5.8125 47.609375 11.28125 51.796875 
Q 16.75 56 26.8125 56 
Q 31.78125 56 36.171875 55.265625 
Q 40.578125 54.546875 44.28125 53.078125 
z
" id="DejaVuSans-73"/>
      <path d="M 56.203125 29.59375 
L 56.203125 25.203125 
L 14.890625 25.203125 
Q 15.484375 15.921875 20.484375 11.0625 
Q 25.484375 6.203125 34.421875 6.203125 
Q 39.59375 6.203125 44.453125 7.46875 
Q 49.3125 8.734375 54.109375 11.28125 
L 54.109375 2.78125 
Q 49.265625 0.734375 44.1875 -0.34375 
Q 39.109375 -1.421875 33.890625 -1.421875 
Q 20.796875 -1.421875 13.15625 6.1875 
Q 5.515625 13.8125 5.515625 26.8125 
Q 5.515625 40.234375 12.765625 48.109375 
Q 20.015625 56 32.328125 56 
Q 43.359375 56 49.78125 48.890625 
Q 56.203125 41.796875 56.203125 29.59375 
z
M 47.21875 32.234375 
Q 47.125 39.59375 43.09375 43.984375 
Q 39.0625 48.390625 32.421875 48.390625 
Q 24.90625 48.390625 20.390625 44.140625 
Q 15.875 39.890625 15.1875 32.171875 
z
" id="DejaVuSans-65"/>
      <path d="M 45.40625 46.390625 
L 45.40625 75.984375 
L 54.390625 75.984375 
L 54.390625 0 
L 45.40625 0 
L 45.40625 8.203125 
Q 42.578125 3.328125 38.25 0.953125 
Q 33.9375 -1.421875 27.875 -1.421875 
Q 17.96875 -1.421875 11.734375 6.484375 
Q 5.515625 14.40625 5.515625 27.296875 
Q 5.515625 40.1875 11.734375 48.09375 
Q 17.96875 56 27.875 56 
Q 33.9375 56 38.25 53.625 
Q 42.578125 51.265625 45.40625 46.390625 
z
M 14.796875 27.296875 
Q 14.796875 17.390625 18.875 11.75 
Q 22.953125 6.109375 30.078125 6.109375 
Q 37.203125 6.109375 41.296875 11.75 
Q 45.40625 17.390625 45.40625 27.296875 
Q 45.40625 37.203125 41.296875 42.84375 
Q 37.203125 48.484375 30.078125 48.484375 
Q 22.953125 48.484375 18.875 42.84375 
Q 14.796875 37.203125 14.796875 27.296875 
z
" id="DejaVuSans-64"/>
      <path id="DejaVuSans-20"/>
      <path d="M -0.296875 72.90625 
L 61.375 72.90625 
L 61.375 64.59375 
L 35.5 64.59375 
L 35.5 0 
L 25.59375 0 
L 25.59375 64.59375 
L -0.296875 64.59375 
z
" id="DejaVuSans-54"/>
      <path d="M 9.421875 54.6875 
L 18.40625 54.6875 
L 18.40625 0 
L 9.421875 0 
z
M 9.421875 75.984375 
L 18.40625 75.984375 
L 18.40625 64.59375 
L 9.421875 64.59375 
z
" id="DejaVuSans-69"/>
      <path d="M 52 44.1875 
Q 55.375 50.25 60.0625 53.125 
Q 64.75 56 71.09375 56 
Q 79.640625 56 84.28125 50.015625 
Q 88.921875 44.046875 88.921875 33.015625 
L 88.921875 0 
L 79.890625 0 
L 79.890625 32.71875 
Q 79.890625 40.578125 77.09375 44.375 
Q 74.3125 48.1875 68.609375 48.1875 
Q 61.625 48.1875 57.5625 43.546875 
Q 53.515625 38.921875 53.515625 30.90625 
L 53.515625 0 
L 44.484375 0 
L 44.484375 32.71875 
Q 44.484375 40.625 41.703125 44.40625 
Q 38.921875 48.1875 33.109375 48.1875 
Q 26.21875 48.1875 22.15625 43.53125 
Q 18.109375 38.875 18.109375 30.90625 
L 18.109375 0 
L 9.078125 0 
L 9.078125 54.6875 
L 18.109375 54.6875 
L 18.109375 46.1875 
Q 21.1875 51.21875 25.484375 53.609375 
Q 29.78125 56 35.6875 56 
Q 41.65625 56 45.828125 52.96875 
Q 50 49.953125 52 44.1875 
z
" id="DejaVuSans-6d"/>
      <path d="M 31 75.875 
Q 24.46875 64.65625 21.28125 53.65625 
Q 18.109375 42.671875 18.109375 31.390625 
Q 18.109375 20.125 21.3125 9.0625 
Q 24.515625 -2 31 -13.1875 
L 23.1875 -13.1875 
Q 15.875 -1.703125 12.234375 9.375 
Q 8.59375 20.453125 8.59375 31.390625 
Q 8.59375 42.28125 12.203125 53.3125 
Q 15.828125 64.359375 23.1875 75.875 
z
" id="DejaVuSans-28"/>
      <path d="M 9.8125 72.90625 
L 19.671875 72.90625 
L 19.671875 43.015625 
L 55.515625 43.015625 
L 55.515625 72.90625 
L 65.375 72.90625 
L 65.375 0 
L 55.515625 0 
L 55.515625 34.71875 
L 19.671875 34.71875 
L 19.671875 0 
L 9.8125 0 
z
" id="DejaVuSans-48"/>
      <path d="M 30.609375 48.390625 
Q 23.390625 48.390625 19.1875 42.75 
Q 14.984375 37.109375 14.984375 27.296875 
Q 14.984375 17.484375 19.15625 11.84375 
Q 23.34375 6.203125 30.609375 6.203125 
Q 37.796875 6.203125 41.984375 11.859375 
Q 46.1875 17.53125 46.1875 27.296875 
Q 46.1875 37.015625 41.984375 42.703125 
Q 37.796875 48.390625 30.609375 48.390625 
z
M 30.609375 56 
Q 42.328125 56 49.015625 48.375 
Q 55.71875 40.765625 55.71875 27.296875 
Q 55.71875 13.875 49.015625 6.21875 
Q 42.328125 -1.421875 30.609375 -1.421875 
Q 18.84375 -1.421875 12.171875 6.21875 
Q 5.515625 13.875 5.515625 27.296875 
Q 5.515625 40.765625 12.171875 48.375 
Q 18.84375 56 30.609375 56 
z
" id="DejaVuSans-6f"/>
      <path d="M 8.5 21.578125 
L 8.5 54.6875 
L 17.484375 54.6875 
L 17.484375 21.921875 
Q 17.484375 14.15625 20.5 10.265625 
Q 23.53125 6.390625 29.59375 6.390625 
Q 36.859375 6.390625 41.078125 11.03125 
Q 45.3125 15.671875 45.3125 23.6875 
L 45.3125 54.6875 
L 54.296875 54.6875 
L 54.296875 0 
L 45.3125 0 
L 45.3125 8.40625 
Q 42.046875 3.421875 37.71875 1 
Q 33.40625 -1.421875 27.6875 -1.421875 
Q 18.265625 -1.421875 13.375 4.4375 
Q 8.5 10.296875 8.5 21.578125 
z
M 31.109375 56 
z
" id="DejaVuSans-75"/>
      <path d="M 41.109375 46.296875 
Q 39.59375 47.171875 37.8125 47.578125 
Q 36.03125 48 33.890625 48 
Q 26.265625 48 22.1875 43.046875 
Q 18.109375 38.09375 18.109375 28.8125 
L 18.109375 0 
L 9.078125 0 
L 9.078125 54.6875 
L 18.109375 54.6875 
L 18.109375 46.1875 
Q 20.953125 51.171875 25.484375 53.578125 
Q 30.03125 56 36.53125 56 
Q 37.453125 56 38.578125 55.875 
Q 39.703125 55.765625 41.0625 55.515625 
z
" id="DejaVuSans-72"/>
      <path d="M 8.015625 75.875 
L 15.828125 75.875 
Q 23.140625 64.359375 26.78125 53.3125 
Q 30.421875 42.28125 30.421875 31.390625 
Q 30.421875 20.453125 26.78125 9.375 
Q 23.140625 -1.703125 15.828125 -13.1875 
L 8.015625 -13.1875 
Q 14.5 -2 17.703125 9.0625 
Q 20.90625 20.125 20.90625 31.390625 
Q 20.90625 42.671875 17.703125 53.65625 
Q 14.5 64.65625 8.015625 75.875 
z
" id="DejaVuSans-29"/>
     </defs>
     <g transform="translate(253.576437 141.483594)scale(0.1 -0.1)">
      <use xlink:href="#DejaVuSans-45"/>
      <use x="63.183594" xlink:href="#DejaVuSans-6c"/>
      <use x="90.966797" xlink:href="#DejaVuSans-61"/>
      <use x="152.246094" xlink:href="#DejaVuSans-70"/>
      <use x="215.722656" xlink:href="#DejaVuSans-73"/>
      <use x="267.822266" xlink:href="#DejaVuSans-65"/>
      <use x="329.345703" xlink:href="#DejaVuSans-64"/>
      <use x="392.822266" xlink:href="#DejaVuSans-20"/>
      <use x="424.609375" xlink:href="#DejaVuSans-54"/>
      <use x="485.646484" xlink:href="#DejaVuSans-69"/>
      <use x="513.429688" xlink:href="#DejaVuSans-6d"/>
      <use x="610.841797" xlink:href="#DejaVuSans-65"/>
      <use x="672.365234" xlink:href="#DejaVuSans-20"/>
      <use x="704.152344" xlink:href="#DejaVuSans-28"/>
      <use x="743.166016" xlink:href="#DejaVuSans-48"/>
      <use x="818.361328" xlink:href="#DejaVuSans-6f"/>
      <use x="879.542969" xlink:href="#DejaVuSans-75"/>
      <use x="942.921875" xlink:href="#DejaVuSans-72"/>
      <use x="984.035156" xlink:href="#DejaVuSans-73"/>
      <use x="1036.134766" xlink:href="#DejaVuSans-29"/>
     </g>
    </g>
   </g>
   <g id="matplotlib.axis_2">
    <g id="ytick_1">
     <g id="line2d_12">
      <defs>
       <path d="M 0 0 
L -3.5 0 
" id="med4d375b78" style="stroke:#000000;stroke-width:0.8;"/>
      </defs>
      <g>
       <use style="stroke:#000000;stroke-width:0.8;" x="63.35875" xlink:href="#med4d375b78" y="113.207031"/>
      </g>
     </g>
     <g id="text_13">
      <!-- −1.0 -->
      <defs>
       <path d="M 10.59375 35.5 
L 73.1875 35.5 
L 73.1875 27.203125 
L 10.59375 27.203125 
z
" id="DejaVuSans-2212"/>
       <path d="M 10.6875 12.40625 
L 21 12.40625 
L 21 0 
L 10.6875 0 
z
" id="DejaVuSans-2e"/>
      </defs>
      <g transform="translate(32.075938 117.00625)scale(0.1 -0.1)">
       <use xlink:href="#DejaVuSans-2212"/>
       <use x="83.789062" xlink:href="#DejaVuSans-31"/>
       <use x="147.412109" xlink:href="#DejaVuSans-2e"/>
       <use x="179.199219" xlink:href="#DejaVuSans-30"/>
      </g>
     </g>
    </g>
    <g id="ytick_2">
     <g id="line2d_13">
      <g>
       <use style="stroke:#000000;stroke-width:0.8;" x="63.35875" xlink:href="#med4d375b78" y="92.707031"/>
      </g>
     </g>
     <g id="text_14">
      <!-- −0.5 -->
      <defs>
       <path d="M 10.796875 72.90625 
L 49.515625 72.90625 
L 49.515625 64.59375 
L 19.828125 64.59375 
L 19.828125 46.734375 
Q 21.96875 47.46875 24.109375 47.828125 
Q 26.265625 48.1875 28.421875 48.1875 
Q 40.625 48.1875 47.75 41.5 
Q 54.890625 34.8125 54.890625 23.390625 
Q 54.890625 11.625 47.5625 5.09375 
Q 40.234375 -1.421875 26.90625 -1.421875 
Q 22.3125 -1.421875 17.546875 -0.640625 
Q 12.796875 0.140625 7.71875 1.703125 
L 7.71875 11.625 
Q 12.109375 9.234375 16.796875 8.0625 
Q 21.484375 6.890625 26.703125 6.890625 
Q 35.15625 6.890625 40.078125 11.328125 
Q 45.015625 15.765625 45.015625 23.390625 
Q 45.015625 31 40.078125 35.4375 
Q 35.15625 39.890625 26.703125 39.890625 
Q 22.75 39.890625 18.8125 39.015625 
Q 14.890625 38.140625 10.796875 36.28125 
z
" id="DejaVuSans-35"/>
      </defs>
      <g transform="translate(32.075938 96.50625)scale(0.1 -0.1)">
       <use xlink:href="#DejaVuSans-2212"/>
       <use x="83.789062" xlink:href="#DejaVuSans-30"/>
       <use x="147.412109" xlink:href="#DejaVuSans-2e"/>
       <use x="179.199219" xlink:href="#DejaVuSans-35"/>
      </g>
     </g>
    </g>
    <g id="ytick_3">
     <g id="line2d_14">
      <g>
       <use style="stroke:#000000;stroke-width:0.8;" x="63.35875" xlink:href="#med4d375b78" y="72.207031"/>
      </g>
     </g>
     <g id="text_15">
      <!-- 0.0 -->
      <g transform="translate(40.455625 76.00625)scale(0.1 -0.1)">
       <use xlink:href="#DejaVuSans-30"/>
       <use x="63.623047" xlink:href="#DejaVuSans-2e"/>
       <use x="95.410156" xlink:href="#DejaVuSans-30"/>
      </g>
     </g>
    </g>
    <g id="ytick_4">
     <g id="line2d_15">
      <g>
       <use style="stroke:#000000;stroke-width:0.8;" x="63.35875" xlink:href="#med4d375b78" y="51.707031"/>
      </g>
     </g>
     <g id="text_16">
      <!-- 0.5 -->
      <g transform="translate(40.455625 55.50625)scale(0.1 -0.1)">
       <use xlink:href="#DejaVuSans-30"/>
       <use x="63.623047" xlink:href="#DejaVuSans-2e"/>
       <use x="95.410156" xlink:href="#DejaVuSans-35"/>
      </g>
     </g>
    </g>
    <g id="ytick_5">
     <g id="line2d_16">
      <g>
       <use style="stroke:#000000;stroke-width:0.8;" x="63.35875" xlink:href="#med4d375b78" y="31.207031"/>
      </g>
     </g>
     <g id="text_17">
      <!-- 1.0 -->
      <g transform="translate(40.455625 35.00625)scale(0.1 -0.1)">
       <use xlink:href="#DejaVuSans-31"/>
       <use x="63.623047" xlink:href="#DejaVuSans-2e"/>
       <use x="95.410156" xlink:href="#DejaVuSans-30"/>
      </g>
     </g>
    </g>
    <g id="text_18">
     <!-- p53 Nuclear Fluorescence -->
     <defs>
      <path d="M 9.8125 72.90625 
L 23.09375 72.90625 
L 55.421875 11.921875 
L 55.421875 72.90625 
L 64.984375 72.90625 
L 64.984375 0 
L 51.703125 0 
L 19.390625 60.984375 
L 19.390625 0 
L 9.8125 0 
z
" id="DejaVuSans-4e"/>
      <path d="M 48.78125 52.59375 
L 48.78125 44.1875 
Q 44.96875 46.296875 41.140625 47.34375 
Q 37.3125 48.390625 33.40625 48.390625 
Q 24.65625 48.390625 19.8125 42.84375 
Q 14.984375 37.3125 14.984375 27.296875 
Q 14.984375 17.28125 19.8125 11.734375 
Q 24.65625 6.203125 33.40625 6.203125 
Q 37.3125 6.203125 41.140625 7.25 
Q 44.96875 8.296875 48.78125 10.40625 
L 48.78125 2.09375 
Q 45.015625 0.34375 40.984375 -0.53125 
Q 36.96875 -1.421875 32.421875 -1.421875 
Q 20.0625 -1.421875 12.78125 6.34375 
Q 5.515625 14.109375 5.515625 27.296875 
Q 5.515625 40.671875 12.859375 48.328125 
Q 20.21875 56 33.015625 56 
Q 37.15625 56 41.109375 55.140625 
Q 45.0625 54.296875 48.78125 52.59375 
z
" id="DejaVuSans-63"/>
      <path d="M 9.8125 72.90625 
L 51.703125 72.90625 
L 51.703125 64.59375 
L 19.671875 64.59375 
L 19.671875 43.109375 
L 48.578125 43.109375 
L 48.578125 34.8125 
L 19.671875 34.8125 
L 19.671875 0 
L 9.8125 0 
z
" id="DejaVuSans-46"/>
      <path d="M 54.890625 33.015625 
L 54.890625 0 
L 45.90625 0 
L 45.90625 32.71875 
Q 45.90625 40.484375 42.875 44.328125 
Q 39.84375 48.1875 33.796875 48.1875 
Q 26.515625 48.1875 22.3125 43.546875 
Q 18.109375 38.921875 18.109375 30.90625 
L 18.109375 0 
L 9.078125 0 
L 9.078125 54.6875 
L 18.109375 54.6875 
L 18.109375 46.1875 
Q 21.34375 51.125 25.703125 53.5625 
Q 30.078125 56 35.796875 56 
Q 45.21875 56 50.046875 50.171875 
Q 54.890625 44.34375 54.890625 33.015625 
z
" id="DejaVuSans-6e"/>
     </defs>
     <g transform="translate(14.798438 137.214062)rotate(-90)scale(0.1 -0.1)">
      <use xlink:href="#DejaVuSans-70"/>
      <use x="63.476562" xlink:href="#DejaVuSans-35"/>
      <use x="127.099609" xlink:href="#DejaVuSans-33"/>
      <use x="190.722656" xlink:href="#DejaVuSans-20"/>
      <use x="222.509766" xlink:href="#DejaVuSans-4e"/>
      <use x="297.314453" xlink:href="#DejaVuSans-75"/>
      <use x="360.693359" xlink:href="#DejaVuSans-63"/>
      <use x="415.673828" xlink:href="#DejaVuSans-6c"/>
      <use x="443.457031" xlink:href="#DejaVuSans-65"/>
      <use x="504.980469" xlink:href="#DejaVuSans-61"/>
      <use x="566.259766" xlink:href="#DejaVuSans-72"/>
      <use x="607.373047" xlink:href="#DejaVuSans-20"/>
      <use x="639.160156" xlink:href="#DejaVuSans-46"/>
      <use x="696.679688" xlink:href="#DejaVuSans-6c"/>
      <use x="724.462891" xlink:href="#DejaVuSans-75"/>
      <use x="787.841797" xlink:href="#DejaVuSans-6f"/>
      <use x="849.023438" xlink:href="#DejaVuSans-72"/>
      <use x="890.105469" xlink:href="#DejaVuSans-65"/>
      <use x="951.628906" xlink:href="#DejaVuSans-73"/>
      <use x="1003.728516" xlink:href="#DejaVuSans-63"/>
      <use x="1058.708984" xlink:href="#DejaVuSans-65"/>
      <use x="1120.232422" xlink:href="#DejaVuSans-6e"/>
      <use x="1183.611328" xlink:href="#DejaVuSans-63"/>
      <use x="1238.591797" xlink:href="#DejaVuSans-65"/>
     </g>
     <!-- (Detrended) -->
     <defs>
      <path d="M 19.671875 64.796875 
L 19.671875 8.109375 
L 31.59375 8.109375 
Q 46.6875 8.109375 53.6875 14.9375 
Q 60.6875 21.78125 60.6875 36.53125 
Q 60.6875 51.171875 53.6875 57.984375 
Q 46.6875 64.796875 31.59375 64.796875 
z
M 9.8125 72.90625 
L 30.078125 72.90625 
Q 51.265625 72.90625 61.171875 64.09375 
Q 71.09375 55.28125 71.09375 36.53125 
Q 71.09375 17.671875 61.125 8.828125 
Q 51.171875 0 30.078125 0 
L 9.8125 0 
z
" id="DejaVuSans-44"/>
      <path d="M 18.3125 70.21875 
L 18.3125 54.6875 
L 36.8125 54.6875 
L 36.8125 47.703125 
L 18.3125 47.703125 
L 18.3125 18.015625 
Q 18.3125 11.328125 20.140625 9.421875 
Q 21.96875 7.515625 27.59375 7.515625 
L 36.8125 7.515625 
L 36.8125 0 
L 27.59375 0 
Q 17.1875 0 13.234375 3.875 
Q 9.28125 7.765625 9.28125 18.015625 
L 9.28125 47.703125 
L 2.6875 47.703125 
L 2.6875 54.6875 
L 9.28125 54.6875 
L 9.28125 70.21875 
z
" id="DejaVuSans-74"/>
     </defs>
     <g transform="translate(25.99625 102.719531)rotate(-90)scale(0.1 -0.1)">
      <use xlink:href="#DejaVuSans-28"/>
      <use x="39.013672" xlink:href="#DejaVuSans-44"/>
      <use x="116.015625" xlink:href="#DejaVuSans-65"/>
      <use x="177.539062" xlink:href="#DejaVuSans-74"/>
      <use x="216.748047" xlink:href="#DejaVuSans-72"/>
      <use x="257.830078" xlink:href="#DejaVuSans-65"/>
      <use x="319.353516" xlink:href="#DejaVuSans-6e"/>
      <use x="382.732422" xlink:href="#DejaVuSans-64"/>
      <use x="446.208984" xlink:href="#DejaVuSans-65"/>
      <use x="507.732422" xlink:href="#DejaVuSans-64"/>
      <use x="571.208984" xlink:href="#DejaVuSans-29"/>
     </g>
    </g>
   </g>
   <g id="line2d_17">
    <path clip-path="url(#pcdb804a88e)" d="M 67.391403 84.751912 
L 69.407729 87.180998 
L 71.424056 88.309205 
L 73.440382 87.389003 
L 75.456709 85.003254 
L 77.473035 80.48394 
L 81.505688 64.267292 
L 83.522014 56.337963 
L 85.538341 54.416729 
L 87.554667 56.464615 
L 89.570994 63.583515 
L 91.58732 69.859739 
L 93.603647 77.691166 
L 95.619973 84.627371 
L 97.6363 87.010201 
L 99.652626 87.087082 
L 101.668952 85.231522 
L 103.685279 81.627106 
L 105.701605 79.002081 
L 107.717932 74.941244 
L 109.734258 70.326104 
L 111.750585 67.303104 
L 113.766911 65.453651 
L 115.783238 62.217353 
L 117.799564 57.804747 
L 119.81589 58.275119 
L 121.832217 59.0074 
L 123.848543 58.545955 
L 125.86487 62.089739 
L 127.881196 72.95585 
L 129.897523 82.688221 
L 131.913849 86.517031 
L 133.930176 87.907337 
L 135.946502 85.820465 
L 137.962829 83.518438 
L 139.979155 77.80124 
L 141.995481 73.06543 
L 144.011808 67.630668 
L 146.028134 60.98375 
L 148.044461 56.249233 
L 150.060787 55.858571 
L 152.077114 57.231169 
L 154.09344 62.233311 
L 156.109767 71.835533 
L 158.126093 82.324604 
L 162.158746 84.219795 
L 164.175072 82.912675 
L 166.191399 83.142322 
L 168.207725 81.773503 
L 170.224052 81.011436 
L 172.240378 79.518424 
L 174.256705 73.570665 
L 176.273031 66.775142 
L 178.289357 58.960109 
L 180.305684 53.420476 
L 182.32201 52.43384 
L 184.338337 58.992527 
L 186.354663 74.802266 
L 188.37099 83.753866 
L 190.387316 87.463121 
L 192.403643 86.621254 
L 194.419969 84.25349 
L 196.436295 81.12315 
L 200.468948 70.241532 
L 202.485275 63.618213 
L 204.501601 56.242368 
L 206.517928 52.544751 
L 208.534254 57.072188 
L 210.550581 66.159327 
L 212.566907 76.629394 
L 214.583233 84.376831 
L 216.59956 88.567249 
L 218.615886 86.828517 
L 220.632213 82.800347 
L 222.648539 79.710921 
L 224.664866 75.19091 
L 226.681192 70.196008 
L 228.697519 68.138296 
L 230.713845 64.250134 
L 232.730171 59.447678 
L 234.746498 56.154534 
L 236.762824 54.281607 
L 238.779151 56.687593 
L 240.795477 66.085306 
L 242.811804 81.718216 
L 244.82813 86.664538 
L 246.844457 86.487218 
L 248.860783 85.055863 
L 250.87711 84.264082 
L 252.893436 81.520792 
L 254.909762 74.820053 
L 256.926089 65.806622 
L 258.942415 57.498621 
L 260.958742 53.278373 
L 262.975068 62.619017 
L 264.991395 75.3714 
L 267.007721 84.331284 
L 269.024048 85.652466 
L 271.040374 83.664024 
L 273.0567 80.88792 
L 275.073027 73.672072 
L 277.089353 67.647746 
L 279.10568 60.915707 
L 281.122006 55.391026 
L 283.138333 51.614391 
L 285.154659 56.642964 
L 289.187312 83.524379 
L 291.203638 86.679735 
L 295.236291 84.812935 
L 297.252618 82.616135 
L 299.268944 79.534075 
L 303.301597 68.016728 
L 305.317924 61.218766 
L 309.350576 52.905691 
L 311.366903 55.030213 
L 313.383229 61.500228 
L 315.399556 76.826109 
L 317.415882 83.76013 
L 319.432209 84.183927 
L 321.448535 83.898191 
L 323.464862 84.970905 
L 325.481188 83.09418 
L 327.497514 82.104246 
L 329.513841 80.014213 
L 331.530167 76.937065 
L 333.546494 72.625261 
L 335.56282 66.665584 
L 337.579147 64.295058 
L 339.595473 63.309069 
L 341.6118 58.393225 
L 343.628126 57.661755 
L 345.644452 58.02038 
L 349.677105 62.831573 
L 351.693432 67.84922 
L 353.709758 76.088379 
L 355.726085 83.778876 
L 357.742411 86.419981 
L 359.758738 85.742669 
L 361.775064 85.810825 
L 365.807717 80.432119 
L 367.824043 75.895811 
L 369.84037 67.939369 
L 371.856696 58.09654 
L 373.873023 53.271294 
L 375.889349 53.25668 
L 377.905676 62.724142 
L 379.922002 76.117936 
L 381.938329 84.820006 
L 383.954655 86.266675 
L 385.970981 86.669681 
L 387.987308 83.667315 
L 390.003634 81.021626 
L 392.019961 75.29512 
L 394.036287 71.909555 
L 396.052614 71.538392 
L 398.06894 69.437903 
L 400.085267 72.432566 
L 402.101593 75.123983 
L 404.117919 75.861238 
L 406.134246 69.059725 
L 408.150572 65.506912 
L 410.166899 59.707651 
L 412.183225 54.753597 
L 414.199552 58.357207 
L 416.215878 58.465093 
L 418.232205 61.910242 
L 420.248531 64.152015 
L 422.264857 71.151414 
L 424.281184 77.381924 
L 426.29751 83.109853 
L 428.313837 85.315451 
L 430.330163 85.309912 
L 432.34649 84.991574 
L 434.362816 84.296703 
L 436.379143 80.684811 
L 438.395469 76.133825 
L 440.411795 71.979661 
L 442.428122 68.438828 
L 444.444448 61.042563 
L 446.460775 55.549345 
L 448.477101 53.417768 
L 450.493428 54.470857 
L 452.509754 66.941002 
L 454.526081 73.391138 
L 456.542407 83.341469 
L 458.558733 86.215233 
L 460.57506 85.732728 
L 462.591386 84.369879 
L 464.607713 85.312018 
L 466.624039 85.236953 
L 468.640366 69.925836 
L 470.656692 66.281608 
L 472.673019 60.390129 
L 474.689345 65.710187 
L 476.705671 62.151842 
L 478.721998 55.466256 
L 480.738324 53.204034 
L 482.754651 60.815385 
L 486.787304 83.091639 
L 488.80363 85.11299 
L 490.819957 83.127308 
L 492.836283 82.8877 
L 494.85261 82.988176 
L 496.868936 82.488263 
L 498.885262 81.265642 
L 502.917915 74.793425 
L 504.934242 69.000431 
L 506.950568 63.790627 
L 508.966895 61.922199 
L 510.983221 59.388407 
L 512.999548 57.380512 
L 515.015874 52.603262 
L 517.0322 56.516151 
L 519.048527 73.985877 
L 521.064853 83.941093 
L 523.08118 84.603149 
L 527.113833 84.668438 
L 529.130159 83.504811 
L 531.146486 80.336598 
L 533.162812 77.438328 
L 535.179138 71.797311 
L 537.195465 64.913208 
L 539.211791 59.191708 
L 541.228118 56.691869 
L 543.244444 52.826906 
L 545.260771 53.926532 
L 549.293424 81.997036 
L 549.293424 81.997036 
" style="fill:none;stroke:#1f77b4;stroke-linecap:square;stroke-width:1.5;"/>
   </g>
   <g id="line2d_18">
    <path clip-path="url(#pcdb804a88e)" d="M 67.391403 99.653106 
L 164.175072 99.653106 
" style="fill:none;stroke:#ff7f0e;stroke-linecap:square;stroke-width:1.5;"/>
   </g>
   <g id="line2d_19">
    <path clip-path="url(#pcdb804a88e)" d="M 67.391403 40.528534 
L 164.175072 40.528534 
" style="fill:none;stroke:#ff7f0e;stroke-linecap:square;stroke-width:1.5;"/>
   </g>
   <g id="line2d_20">
    <path clip-path="url(#pcdb804a88e)" d="M 67.391403 99.653106 
L 67.391403 40.528534 
" style="fill:none;stroke:#ff7f0e;stroke-linecap:square;stroke-width:1.5;"/>
   </g>
   <g id="line2d_21">
    <path clip-path="url(#pcdb804a88e)" d="M 164.175072 99.653106 
L 164.175072 40.528534 
" style="fill:none;stroke:#ff7f0e;stroke-linecap:square;stroke-width:1.5;"/>
   </g>
   <g id="line2d_22">
    <path clip-path="url(#pcdb804a88e)" d="M 228.697519 99.653106 
L 325.481188 99.653106 
" style="fill:none;stroke:#ff7f0e;stroke-linecap:square;stroke-width:1.5;"/>
   </g>
   <g id="line2d_23">
    <path clip-path="url(#pcdb804a88e)" d="M 228.697519 40.528534 
L 325.481188 40.528534 
" style="fill:none;stroke:#ff7f0e;stroke-linecap:square;stroke-width:1.5;"/>
   </g>
   <g id="line2d_24">
    <path clip-path="url(#pcdb804a88e)" d="M 228.697519 99.653106 
L 228.697519 40.528534 
" style="fill:none;stroke:#ff7f0e;stroke-linecap:square;stroke-width:1.5;"/>
   </g>
   <g id="line2d_25">
    <path clip-path="url(#pcdb804a88e)" d="M 325.481188 99.653106 
L 325.481188 40.528534 
" style="fill:none;stroke:#ff7f0e;stroke-linecap:square;stroke-width:1.5;"/>
   </g>
   <g id="line2d_26">
    <path clip-path="url(#pcdb804a88e)" d="M 377.905676 99.653106 
L 474.689345 99.653106 
" style="fill:none;stroke:#ff7f0e;stroke-linecap:square;stroke-width:1.5;"/>
   </g>
   <g id="line2d_27">
    <path clip-path="url(#pcdb804a88e)" d="M 377.905676 40.528534 
L 474.689345 40.528534 
" style="fill:none;stroke:#ff7f0e;stroke-linecap:square;stroke-width:1.5;"/>
   </g>
   <g id="line2d_28">
    <path clip-path="url(#pcdb804a88e)" d="M 377.905676 99.653106 
L 377.905676 40.528534 
" style="fill:none;stroke:#ff7f0e;stroke-linecap:square;stroke-width:1.5;"/>
   </g>
   <g id="line2d_29">
    <path clip-path="url(#pcdb804a88e)" d="M 474.689345 99.653106 
L 474.689345 40.528534 
" style="fill:none;stroke:#ff7f0e;stroke-linecap:square;stroke-width:1.5;"/>
   </g>
   <g id="patch_9">
    <path d="M 63.35875 113.207031 
L 63.35875 31.207031 
" style="fill:none;stroke:#000000;stroke-linecap:square;stroke-linejoin:miter;stroke-width:0.8;"/>
   </g>
   <g id="patch_10">
    <path d="M 551.30975 113.207031 
L 551.30975 31.207031 
" style="fill:none;stroke:#000000;stroke-linecap:square;stroke-linejoin:miter;stroke-width:0.8;"/>
   </g>
   <g id="patch_11">
    <path d="M 63.35875 113.207031 
L 551.30975 113.207031 
" style="fill:none;stroke:#000000;stroke-linecap:square;stroke-linejoin:miter;stroke-width:0.8;"/>
   </g>
   <g id="patch_12">
    <path d="M 63.35875 31.207031 
L 551.30975 31.207031 
" style="fill:none;stroke:#000000;stroke-linecap:square;stroke-linejoin:miter;stroke-width:0.8;"/>
   </g>
   <g id="text_19">
    <!-- 0 Divisions Detrended Block Extraction And Scoring -->
    <defs>
     <path d="M 2.984375 54.6875 
L 12.5 54.6875 
L 29.59375 8.796875 
L 46.6875 54.6875 
L 56.203125 54.6875 
L 35.6875 0 
L 23.484375 0 
z
" id="DejaVuSans-76"/>
     <path d="M 19.671875 34.8125 
L 19.671875 8.109375 
L 35.5 8.109375 
Q 43.453125 8.109375 47.28125 11.40625 
Q 51.125 14.703125 51.125 21.484375 
Q 51.125 28.328125 47.28125 31.5625 
Q 43.453125 34.8125 35.5 34.8125 
z
M 19.671875 64.796875 
L 19.671875 42.828125 
L 34.28125 42.828125 
Q 41.5 42.828125 45.03125 45.53125 
Q 48.578125 48.25 48.578125 53.8125 
Q 48.578125 59.328125 45.03125 62.0625 
Q 41.5 64.796875 34.28125 64.796875 
z
M 9.8125 72.90625 
L 35.015625 72.90625 
Q 46.296875 72.90625 52.390625 68.21875 
Q 58.5 63.53125 58.5 54.890625 
Q 58.5 48.1875 55.375 44.234375 
Q 52.25 40.28125 46.1875 39.3125 
Q 53.46875 37.75 57.5 32.78125 
Q 61.53125 27.828125 61.53125 20.40625 
Q 61.53125 10.640625 54.890625 5.3125 
Q 48.25 0 35.984375 0 
L 9.8125 0 
z
" id="DejaVuSans-42"/>
     <path d="M 9.078125 75.984375 
L 18.109375 75.984375 
L 18.109375 31.109375 
L 44.921875 54.6875 
L 56.390625 54.6875 
L 27.390625 29.109375 
L 57.625 0 
L 45.90625 0 
L 18.109375 26.703125 
L 18.109375 0 
L 9.078125 0 
z
" id="DejaVuSans-6b"/>
     <path d="M 54.890625 54.6875 
L 35.109375 28.078125 
L 55.90625 0 
L 45.3125 0 
L 29.390625 21.484375 
L 13.484375 0 
L 2.875 0 
L 24.125 28.609375 
L 4.6875 54.6875 
L 15.28125 54.6875 
L 29.78125 35.203125 
L 44.28125 54.6875 
z
" id="DejaVuSans-78"/>
     <path d="M 34.1875 63.1875 
L 20.796875 26.90625 
L 47.609375 26.90625 
z
M 28.609375 72.90625 
L 39.796875 72.90625 
L 67.578125 0 
L 57.328125 0 
L 50.6875 18.703125 
L 17.828125 18.703125 
L 11.1875 0 
L 0.78125 0 
z
" id="DejaVuSans-41"/>
     <path d="M 53.515625 70.515625 
L 53.515625 60.890625 
Q 47.90625 63.578125 42.921875 64.890625 
Q 37.9375 66.21875 33.296875 66.21875 
Q 25.25 66.21875 20.875 63.09375 
Q 16.5 59.96875 16.5 54.203125 
Q 16.5 49.359375 19.40625 46.890625 
Q 22.3125 44.4375 30.421875 42.921875 
L 36.375 41.703125 
Q 47.40625 39.59375 52.65625 34.296875 
Q 57.90625 29 57.90625 20.125 
Q 57.90625 9.515625 50.796875 4.046875 
Q 43.703125 -1.421875 29.984375 -1.421875 
Q 24.8125 -1.421875 18.96875 -0.25 
Q 13.140625 0.921875 6.890625 3.21875 
L 6.890625 13.375 
Q 12.890625 10.015625 18.65625 8.296875 
Q 24.421875 6.59375 29.984375 6.59375 
Q 38.421875 6.59375 43.015625 9.90625 
Q 47.609375 13.234375 47.609375 19.390625 
Q 47.609375 24.75 44.3125 27.78125 
Q 41.015625 30.8125 33.5 32.328125 
L 27.484375 33.5 
Q 16.453125 35.6875 11.515625 40.375 
Q 6.59375 45.0625 6.59375 53.421875 
Q 6.59375 63.09375 13.40625 68.65625 
Q 20.21875 74.21875 32.171875 74.21875 
Q 37.3125 74.21875 42.625 73.28125 
Q 47.953125 72.359375 53.515625 70.515625 
z
" id="DejaVuSans-53"/>
     <path d="M 45.40625 27.984375 
Q 45.40625 37.75 41.375 43.109375 
Q 37.359375 48.484375 30.078125 48.484375 
Q 22.859375 48.484375 18.828125 43.109375 
Q 14.796875 37.75 14.796875 27.984375 
Q 14.796875 18.265625 18.828125 12.890625 
Q 22.859375 7.515625 30.078125 7.515625 
Q 37.359375 7.515625 41.375 12.890625 
Q 45.40625 18.265625 45.40625 27.984375 
z
M 54.390625 6.78125 
Q 54.390625 -7.171875 48.1875 -13.984375 
Q 42 -20.796875 29.203125 -20.796875 
Q 24.46875 -20.796875 20.265625 -20.09375 
Q 16.0625 -19.390625 12.109375 -17.921875 
L 12.109375 -9.1875 
Q 16.0625 -11.328125 19.921875 -12.34375 
Q 23.78125 -13.375 27.78125 -13.375 
Q 36.625 -13.375 41.015625 -8.765625 
Q 45.40625 -4.15625 45.40625 5.171875 
L 45.40625 9.625 
Q 42.625 4.78125 38.28125 2.390625 
Q 33.9375 0 27.875 0 
Q 17.828125 0 11.671875 7.65625 
Q 5.515625 15.328125 5.515625 27.984375 
Q 5.515625 40.671875 11.671875 48.328125 
Q 17.828125 56 27.875 56 
Q 33.9375 56 38.28125 53.609375 
Q 42.625 51.21875 45.40625 46.390625 
L 45.40625 54.6875 
L 54.390625 54.6875 
z
" id="DejaVuSans-67"/>
    </defs>
    <g transform="translate(152.147063 25.207031)scale(0.12 -0.12)">
     <use xlink:href="#DejaVuSans-30"/>
     <use x="63.623047" xlink:href="#DejaVuSans-20"/>
     <use x="95.410156" xlink:href="#DejaVuSans-44"/>
     <use x="172.412109" xlink:href="#DejaVuSans-69"/>
     <use x="200.195312" xlink:href="#DejaVuSans-76"/>
     <use x="259.375" xlink:href="#DejaVuSans-69"/>
     <use x="287.158203" xlink:href="#DejaVuSans-73"/>
     <use x="339.257812" xlink:href="#DejaVuSans-69"/>
     <use x="367.041016" xlink:href="#DejaVuSans-6f"/>
     <use x="428.222656" xlink:href="#DejaVuSans-6e"/>
     <use x="491.601562" xlink:href="#DejaVuSans-73"/>
     <use x="543.701172" xlink:href="#DejaVuSans-20"/>
     <use x="575.488281" xlink:href="#DejaVuSans-44"/>
     <use x="652.490234" xlink:href="#DejaVuSans-65"/>
     <use x="714.013672" xlink:href="#DejaVuSans-74"/>
     <use x="753.222656" xlink:href="#DejaVuSans-72"/>
     <use x="794.304688" xlink:href="#DejaVuSans-65"/>
     <use x="855.828125" xlink:href="#DejaVuSans-6e"/>
     <use x="919.207031" xlink:href="#DejaVuSans-64"/>
     <use x="982.683594" xlink:href="#DejaVuSans-65"/>
     <use x="1044.207031" xlink:href="#DejaVuSans-64"/>
     <use x="1107.683594" xlink:href="#DejaVuSans-20"/>
     <use x="1139.470703" xlink:href="#DejaVuSans-42"/>
     <use x="1208.074219" xlink:href="#DejaVuSans-6c"/>
     <use x="1235.857422" xlink:href="#DejaVuSans-6f"/>
     <use x="1297.039062" xlink:href="#DejaVuSans-63"/>
     <use x="1352.019531" xlink:href="#DejaVuSans-6b"/>
     <use x="1409.929688" xlink:href="#DejaVuSans-20"/>
     <use x="1441.716797" xlink:href="#DejaVuSans-45"/>
     <use x="1504.900391" xlink:href="#DejaVuSans-78"/>
     <use x="1564.080078" xlink:href="#DejaVuSans-74"/>
     <use x="1603.289062" xlink:href="#DejaVuSans-72"/>
     <use x="1644.402344" xlink:href="#DejaVuSans-61"/>
     <use x="1705.681641" xlink:href="#DejaVuSans-63"/>
     <use x="1760.662109" xlink:href="#DejaVuSans-74"/>
     <use x="1799.871094" xlink:href="#DejaVuSans-69"/>
     <use x="1827.654297" xlink:href="#DejaVuSans-6f"/>
     <use x="1888.835938" xlink:href="#DejaVuSans-6e"/>
     <use x="1952.214844" xlink:href="#DejaVuSans-20"/>
     <use x="1984.001953" xlink:href="#DejaVuSans-41"/>
     <use x="2052.410156" xlink:href="#DejaVuSans-6e"/>
     <use x="2115.789062" xlink:href="#DejaVuSans-64"/>
     <use x="2179.265625" xlink:href="#DejaVuSans-20"/>
     <use x="2211.052734" xlink:href="#DejaVuSans-53"/>
     <use x="2274.529297" xlink:href="#DejaVuSans-63"/>
     <use x="2329.509766" xlink:href="#DejaVuSans-6f"/>
     <use x="2390.691406" xlink:href="#DejaVuSans-72"/>
     <use x="2431.804688" xlink:href="#DejaVuSans-69"/>
     <use x="2459.587891" xlink:href="#DejaVuSans-6e"/>
     <use x="2522.966797" xlink:href="#DejaVuSans-67"/>
    </g>
   </g>
  </g>
  <g id="axes_2">
   <g id="patch_13">
    <path d="M 63.35875 251.807031 
L 196.322417 251.807031 
L 196.322417 169.807031 
L 63.35875 169.807031 
z
" style="fill:#ffffff;"/>
   </g>
   <g id="matplotlib.axis_3">
    <g id="xtick_12">
     <g id="line2d_30">
      <g>
       <use style="stroke:#000000;stroke-width:0.8;" x="69.402553" xlink:href="#mf014c91353" y="251.807031"/>
      </g>
     </g>
     <g id="text_20">
      <!-- 0 -->
      <g transform="translate(66.221303 266.405469)scale(0.1 -0.1)">
       <use xlink:href="#DejaVuSans-30"/>
      </g>
     </g>
    </g>
    <g id="xtick_13">
     <g id="line2d_31">
      <g>
       <use style="stroke:#000000;stroke-width:0.8;" x="120.839175" xlink:href="#mf014c91353" y="251.807031"/>
      </g>
     </g>
     <g id="text_21">
      <!-- 10 -->
      <g transform="translate(114.476675 266.405469)scale(0.1 -0.1)">
       <use xlink:href="#DejaVuSans-31"/>
       <use x="63.623047" xlink:href="#DejaVuSans-30"/>
      </g>
     </g>
    </g>
    <g id="xtick_14">
     <g id="line2d_32">
      <g>
       <use style="stroke:#000000;stroke-width:0.8;" x="172.275796" xlink:href="#mf014c91353" y="251.807031"/>
      </g>
     </g>
     <g id="text_22">
      <!-- 20 -->
      <g transform="translate(165.913296 266.405469)scale(0.1 -0.1)">
       <use xlink:href="#DejaVuSans-32"/>
       <use x="63.623047" xlink:href="#DejaVuSans-30"/>
      </g>
     </g>
    </g>
    <g id="text_23">
     <!-- Elapsed Time (Hours) -->
     <g transform="translate(76.082771 280.083594)scale(0.1 -0.1)">
      <use xlink:href="#DejaVuSans-45"/>
      <use x="63.183594" xlink:href="#DejaVuSans-6c"/>
      <use x="90.966797" xlink:href="#DejaVuSans-61"/>
      <use x="152.246094" xlink:href="#DejaVuSans-70"/>
      <use x="215.722656" xlink:href="#DejaVuSans-73"/>
      <use x="267.822266" xlink:href="#DejaVuSans-65"/>
      <use x="329.345703" xlink:href="#DejaVuSans-64"/>
      <use x="392.822266" xlink:href="#DejaVuSans-20"/>
      <use x="424.609375" xlink:href="#DejaVuSans-54"/>
      <use x="485.646484" xlink:href="#DejaVuSans-69"/>
      <use x="513.429688" xlink:href="#DejaVuSans-6d"/>
      <use x="610.841797" xlink:href="#DejaVuSans-65"/>
      <use x="672.365234" xlink:href="#DejaVuSans-20"/>
      <use x="704.152344" xlink:href="#DejaVuSans-28"/>
      <use x="743.166016" xlink:href="#DejaVuSans-48"/>
      <use x="818.361328" xlink:href="#DejaVuSans-6f"/>
      <use x="879.542969" xlink:href="#DejaVuSans-75"/>
      <use x="942.921875" xlink:href="#DejaVuSans-72"/>
      <use x="984.035156" xlink:href="#DejaVuSans-73"/>
      <use x="1036.134766" xlink:href="#DejaVuSans-29"/>
     </g>
    </g>
   </g>
   <g id="matplotlib.axis_4">
    <g id="ytick_6">
     <g id="line2d_33">
      <g>
       <use style="stroke:#000000;stroke-width:0.8;" x="63.35875" xlink:href="#med4d375b78" y="251.807031"/>
      </g>
     </g>
     <g id="text_24">
      <!-- −1.0 -->
      <g transform="translate(32.075938 255.60625)scale(0.1 -0.1)">
       <use xlink:href="#DejaVuSans-2212"/>
       <use x="83.789062" xlink:href="#DejaVuSans-31"/>
       <use x="147.412109" xlink:href="#DejaVuSans-2e"/>
       <use x="179.199219" xlink:href="#DejaVuSans-30"/>
      </g>
     </g>
    </g>
    <g id="ytick_7">
     <g id="line2d_34">
      <g>
       <use style="stroke:#000000;stroke-width:0.8;" x="63.35875" xlink:href="#med4d375b78" y="231.307031"/>
      </g>
     </g>
     <g id="text_25">
      <!-- −0.5 -->
      <g transform="translate(32.075938 235.10625)scale(0.1 -0.1)">
       <use xlink:href="#DejaVuSans-2212"/>
       <use x="83.789062" xlink:href="#DejaVuSans-30"/>
       <use x="147.412109" xlink:href="#DejaVuSans-2e"/>
       <use x="179.199219" xlink:href="#DejaVuSans-35"/>
      </g>
     </g>
    </g>
    <g id="ytick_8">
     <g id="line2d_35">
      <g>
       <use style="stroke:#000000;stroke-width:0.8;" x="63.35875" xlink:href="#med4d375b78" y="210.807031"/>
      </g>
     </g>
     <g id="text_26">
      <!-- 0.0 -->
      <g transform="translate(40.455625 214.60625)scale(0.1 -0.1)">
       <use xlink:href="#DejaVuSans-30"/>
       <use x="63.623047" xlink:href="#DejaVuSans-2e"/>
       <use x="95.410156" xlink:href="#DejaVuSans-30"/>
      </g>
     </g>
    </g>
    <g id="ytick_9">
     <g id="line2d_36">
      <g>
       <use style="stroke:#000000;stroke-width:0.8;" x="63.35875" xlink:href="#med4d375b78" y="190.307031"/>
      </g>
     </g>
     <g id="text_27">
      <!-- 0.5 -->
      <g transform="translate(40.455625 194.10625)scale(0.1 -0.1)">
       <use xlink:href="#DejaVuSans-30"/>
       <use x="63.623047" xlink:href="#DejaVuSans-2e"/>
       <use x="95.410156" xlink:href="#DejaVuSans-35"/>
      </g>
     </g>
    </g>
    <g id="ytick_10">
     <g id="line2d_37">
      <g>
       <use style="stroke:#000000;stroke-width:0.8;" x="63.35875" xlink:href="#med4d375b78" y="169.807031"/>
      </g>
     </g>
     <g id="text_28">
      <!-- 1.0 -->
      <g transform="translate(40.455625 173.60625)scale(0.1 -0.1)">
       <use xlink:href="#DejaVuSans-31"/>
       <use x="63.623047" xlink:href="#DejaVuSans-2e"/>
       <use x="95.410156" xlink:href="#DejaVuSans-30"/>
      </g>
     </g>
    </g>
    <g id="text_29">
     <!-- p53 Nuclear Fluorescence -->
     <g transform="translate(14.798438 275.814062)rotate(-90)scale(0.1 -0.1)">
      <use xlink:href="#DejaVuSans-70"/>
      <use x="63.476562" xlink:href="#DejaVuSans-35"/>
      <use x="127.099609" xlink:href="#DejaVuSans-33"/>
      <use x="190.722656" xlink:href="#DejaVuSans-20"/>
      <use x="222.509766" xlink:href="#DejaVuSans-4e"/>
      <use x="297.314453" xlink:href="#DejaVuSans-75"/>
      <use x="360.693359" xlink:href="#DejaVuSans-63"/>
      <use x="415.673828" xlink:href="#DejaVuSans-6c"/>
      <use x="443.457031" xlink:href="#DejaVuSans-65"/>
      <use x="504.980469" xlink:href="#DejaVuSans-61"/>
      <use x="566.259766" xlink:href="#DejaVuSans-72"/>
      <use x="607.373047" xlink:href="#DejaVuSans-20"/>
      <use x="639.160156" xlink:href="#DejaVuSans-46"/>
      <use x="696.679688" xlink:href="#DejaVuSans-6c"/>
      <use x="724.462891" xlink:href="#DejaVuSans-75"/>
      <use x="787.841797" xlink:href="#DejaVuSans-6f"/>
      <use x="849.023438" xlink:href="#DejaVuSans-72"/>
      <use x="890.105469" xlink:href="#DejaVuSans-65"/>
      <use x="951.628906" xlink:href="#DejaVuSans-73"/>
      <use x="1003.728516" xlink:href="#DejaVuSans-63"/>
      <use x="1058.708984" xlink:href="#DejaVuSans-65"/>
      <use x="1120.232422" xlink:href="#DejaVuSans-6e"/>
      <use x="1183.611328" xlink:href="#DejaVuSans-63"/>
      <use x="1238.591797" xlink:href="#DejaVuSans-65"/>
     </g>
     <!-- (Detrended) -->
     <g transform="translate(25.99625 241.319531)rotate(-90)scale(0.1 -0.1)">
      <use xlink:href="#DejaVuSans-28"/>
      <use x="39.013672" xlink:href="#DejaVuSans-44"/>
      <use x="116.015625" xlink:href="#DejaVuSans-65"/>
      <use x="177.539062" xlink:href="#DejaVuSans-74"/>
      <use x="216.748047" xlink:href="#DejaVuSans-72"/>
      <use x="257.830078" xlink:href="#DejaVuSans-65"/>
      <use x="319.353516" xlink:href="#DejaVuSans-6e"/>
      <use x="382.732422" xlink:href="#DejaVuSans-64"/>
      <use x="446.208984" xlink:href="#DejaVuSans-65"/>
      <use x="507.732422" xlink:href="#DejaVuSans-64"/>
      <use x="571.208984" xlink:href="#DejaVuSans-29"/>
     </g>
    </g>
   </g>
   <g id="line2d_38">
    <path clip-path="url(#pb32d2a6857)" d="M 69.402553 223.351912 
L 71.974384 225.780998 
L 74.546215 226.909205 
L 77.118046 225.989003 
L 79.689877 223.603254 
L 82.261708 219.08394 
L 84.833539 210.752794 
L 87.405371 202.867292 
L 89.977202 194.937963 
L 92.549033 193.016729 
L 95.120864 195.064615 
L 97.692695 202.183515 
L 100.264526 208.459739 
L 102.836357 216.291166 
L 105.408188 223.227371 
L 107.980019 225.610201 
L 110.55185 225.687082 
L 113.123681 223.831522 
L 115.695512 220.227106 
L 118.267343 217.602081 
L 120.839175 213.541244 
L 123.411006 208.926104 
L 125.982837 205.903104 
L 128.554668 204.053651 
L 131.126499 200.817353 
L 133.69833 196.404747 
L 136.270161 196.875119 
L 138.841992 197.6074 
L 141.413823 197.145955 
L 143.985654 200.689739 
L 146.557485 211.55585 
L 149.129316 221.288221 
L 151.701147 225.117031 
L 154.272979 226.507337 
L 156.84481 224.420465 
L 159.416641 222.118438 
L 161.988472 216.40124 
L 164.560303 211.66543 
L 167.132134 206.230668 
L 169.703965 199.58375 
L 172.275796 194.849233 
L 174.847627 194.458571 
L 177.419458 195.831169 
L 179.991289 200.833311 
L 182.56312 210.435533 
L 185.134951 220.924604 
L 187.706783 221.886586 
L 190.278614 222.819795 
" style="fill:none;stroke:#1f77b4;stroke-linecap:square;stroke-width:1.5;"/>
   </g>
   <g id="patch_14">
    <path d="M 63.35875 251.807031 
L 63.35875 169.807031 
" style="fill:none;stroke:#000000;stroke-linecap:square;stroke-linejoin:miter;stroke-width:0.8;"/>
   </g>
   <g id="patch_15">
    <path d="M 196.322417 251.807031 
L 196.322417 169.807031 
" style="fill:none;stroke:#000000;stroke-linecap:square;stroke-linejoin:miter;stroke-width:0.8;"/>
   </g>
   <g id="patch_16">
    <path d="M 63.35875 251.807031 
L 196.322417 251.807031 
" style="fill:none;stroke:#000000;stroke-linecap:square;stroke-linejoin:miter;stroke-width:0.8;"/>
   </g>
   <g id="patch_17">
    <path d="M 63.35875 169.807031 
L 196.322417 169.807031 
" style="fill:none;stroke:#000000;stroke-linecap:square;stroke-linejoin:miter;stroke-width:0.8;"/>
   </g>
   <g id="text_30">
    <!-- Score = 0.511 -->
    <defs>
     <path d="M 10.59375 45.40625 
L 73.1875 45.40625 
L 73.1875 37.203125 
L 10.59375 37.203125 
z
M 10.59375 25.484375 
L 73.1875 25.484375 
L 73.1875 17.1875 
L 10.59375 17.1875 
z
" id="DejaVuSans-3d"/>
    </defs>
    <g transform="translate(86.886208 163.807031)scale(0.12 -0.12)">
     <use xlink:href="#DejaVuSans-53"/>
     <use x="63.476562" xlink:href="#DejaVuSans-63"/>
     <use x="118.457031" xlink:href="#DejaVuSans-6f"/>
     <use x="179.638672" xlink:href="#DejaVuSans-72"/>
     <use x="220.720703" xlink:href="#DejaVuSans-65"/>
     <use x="282.244141" xlink:href="#DejaVuSans-20"/>
     <use x="314.03125" xlink:href="#DejaVuSans-3d"/>
     <use x="397.820312" xlink:href="#DejaVuSans-20"/>
     <use x="429.607422" xlink:href="#DejaVuSans-30"/>
     <use x="493.230469" xlink:href="#DejaVuSans-2e"/>
     <use x="525.017578" xlink:href="#DejaVuSans-35"/>
     <use x="588.640625" xlink:href="#DejaVuSans-31"/>
     <use x="652.263672" xlink:href="#DejaVuSans-31"/>
    </g>
   </g>
  </g>
  <g id="axes_3">
   <g id="patch_18">
    <path d="M 240.852417 251.807031 
L 373.816083 251.807031 
L 373.816083 169.807031 
L 240.852417 169.807031 
z
" style="fill:#ffffff;"/>
   </g>
   <g id="matplotlib.axis_5">
    <g id="xtick_15">
     <g id="line2d_39">
      <g>
       <use style="stroke:#000000;stroke-width:0.8;" x="246.89622" xlink:href="#mf014c91353" y="251.807031"/>
      </g>
     </g>
     <g id="text_31">
      <!-- 40 -->
      <g transform="translate(240.53372 266.405469)scale(0.1 -0.1)">
       <use xlink:href="#DejaVuSans-34"/>
       <use x="63.623047" xlink:href="#DejaVuSans-30"/>
      </g>
     </g>
    </g>
    <g id="xtick_16">
     <g id="line2d_40">
      <g>
       <use style="stroke:#000000;stroke-width:0.8;" x="298.332841" xlink:href="#mf014c91353" y="251.807031"/>
      </g>
     </g>
     <g id="text_32">
      <!-- 50 -->
      <g transform="translate(291.970341 266.405469)scale(0.1 -0.1)">
       <use xlink:href="#DejaVuSans-35"/>
       <use x="63.623047" xlink:href="#DejaVuSans-30"/>
      </g>
     </g>
    </g>
    <g id="xtick_17">
     <g id="line2d_41">
      <g>
       <use style="stroke:#000000;stroke-width:0.8;" x="349.769463" xlink:href="#mf014c91353" y="251.807031"/>
      </g>
     </g>
     <g id="text_33">
      <!-- 60 -->
      <g transform="translate(343.406963 266.405469)scale(0.1 -0.1)">
       <use xlink:href="#DejaVuSans-36"/>
       <use x="63.623047" xlink:href="#DejaVuSans-30"/>
      </g>
     </g>
    </g>
    <g id="text_34">
     <!-- Elapsed Time (Hours) -->
     <g transform="translate(253.576437 280.083594)scale(0.1 -0.1)">
      <use xlink:href="#DejaVuSans-45"/>
      <use x="63.183594" xlink:href="#DejaVuSans-6c"/>
      <use x="90.966797" xlink:href="#DejaVuSans-61"/>
      <use x="152.246094" xlink:href="#DejaVuSans-70"/>
      <use x="215.722656" xlink:href="#DejaVuSans-73"/>
      <use x="267.822266" xlink:href="#DejaVuSans-65"/>
      <use x="329.345703" xlink:href="#DejaVuSans-64"/>
      <use x="392.822266" xlink:href="#DejaVuSans-20"/>
      <use x="424.609375" xlink:href="#DejaVuSans-54"/>
      <use x="485.646484" xlink:href="#DejaVuSans-69"/>
      <use x="513.429688" xlink:href="#DejaVuSans-6d"/>
      <use x="610.841797" xlink:href="#DejaVuSans-65"/>
      <use x="672.365234" xlink:href="#DejaVuSans-20"/>
      <use x="704.152344" xlink:href="#DejaVuSans-28"/>
      <use x="743.166016" xlink:href="#DejaVuSans-48"/>
      <use x="818.361328" xlink:href="#DejaVuSans-6f"/>
      <use x="879.542969" xlink:href="#DejaVuSans-75"/>
      <use x="942.921875" xlink:href="#DejaVuSans-72"/>
      <use x="984.035156" xlink:href="#DejaVuSans-73"/>
      <use x="1036.134766" xlink:href="#DejaVuSans-29"/>
     </g>
    </g>
   </g>
   <g id="matplotlib.axis_6">
    <g id="ytick_11">
     <g id="line2d_42">
      <g>
       <use style="stroke:#000000;stroke-width:0.8;" x="240.852417" xlink:href="#med4d375b78" y="251.807031"/>
      </g>
     </g>
     <g id="text_35">
      <!-- −1.0 -->
      <g transform="translate(209.569604 255.60625)scale(0.1 -0.1)">
       <use xlink:href="#DejaVuSans-2212"/>
       <use x="83.789062" xlink:href="#DejaVuSans-31"/>
       <use x="147.412109" xlink:href="#DejaVuSans-2e"/>
       <use x="179.199219" xlink:href="#DejaVuSans-30"/>
      </g>
     </g>
    </g>
    <g id="ytick_12">
     <g id="line2d_43">
      <g>
       <use style="stroke:#000000;stroke-width:0.8;" x="240.852417" xlink:href="#med4d375b78" y="231.307031"/>
      </g>
     </g>
     <g id="text_36">
      <!-- −0.5 -->
      <g transform="translate(209.569604 235.10625)scale(0.1 -0.1)">
       <use xlink:href="#DejaVuSans-2212"/>
       <use x="83.789062" xlink:href="#DejaVuSans-30"/>
       <use x="147.412109" xlink:href="#DejaVuSans-2e"/>
       <use x="179.199219" xlink:href="#DejaVuSans-35"/>
      </g>
     </g>
    </g>
    <g id="ytick_13">
     <g id="line2d_44">
      <g>
       <use style="stroke:#000000;stroke-width:0.8;" x="240.852417" xlink:href="#med4d375b78" y="210.807031"/>
      </g>
     </g>
     <g id="text_37">
      <!-- 0.0 -->
      <g transform="translate(217.949292 214.60625)scale(0.1 -0.1)">
       <use xlink:href="#DejaVuSans-30"/>
       <use x="63.623047" xlink:href="#DejaVuSans-2e"/>
       <use x="95.410156" xlink:href="#DejaVuSans-30"/>
      </g>
     </g>
    </g>
    <g id="ytick_14">
     <g id="line2d_45">
      <g>
       <use style="stroke:#000000;stroke-width:0.8;" x="240.852417" xlink:href="#med4d375b78" y="190.307031"/>
      </g>
     </g>
     <g id="text_38">
      <!-- 0.5 -->
      <g transform="translate(217.949292 194.10625)scale(0.1 -0.1)">
       <use xlink:href="#DejaVuSans-30"/>
       <use x="63.623047" xlink:href="#DejaVuSans-2e"/>
       <use x="95.410156" xlink:href="#DejaVuSans-35"/>
      </g>
     </g>
    </g>
    <g id="ytick_15">
     <g id="line2d_46">
      <g>
       <use style="stroke:#000000;stroke-width:0.8;" x="240.852417" xlink:href="#med4d375b78" y="169.807031"/>
      </g>
     </g>
     <g id="text_39">
      <!-- 1.0 -->
      <g transform="translate(217.949292 173.60625)scale(0.1 -0.1)">
       <use xlink:href="#DejaVuSans-31"/>
       <use x="63.623047" xlink:href="#DejaVuSans-2e"/>
       <use x="95.410156" xlink:href="#DejaVuSans-30"/>
      </g>
     </g>
    </g>
   </g>
   <g id="line2d_47">
    <path clip-path="url(#pb3b71b40bc)" d="M 246.89622 206.738296 
L 249.468051 202.850134 
L 252.039882 198.047678 
L 254.611713 194.754534 
L 257.183544 192.881607 
L 259.755375 195.287593 
L 262.327206 204.685306 
L 264.899037 220.318216 
L 267.470868 225.264538 
L 270.042699 225.087218 
L 272.61453 223.655863 
L 275.186362 222.864082 
L 277.758193 220.120792 
L 280.330024 213.420053 
L 282.901855 204.406622 
L 285.473686 196.098621 
L 288.045517 191.878373 
L 290.617348 201.219017 
L 293.189179 213.9714 
L 295.76101 222.931284 
L 298.332841 224.252466 
L 300.904672 222.264024 
L 303.476503 219.48792 
L 306.048334 212.272072 
L 308.620166 206.247746 
L 311.191997 199.515707 
L 313.763828 193.991026 
L 316.335659 190.214391 
L 318.90749 195.242964 
L 321.479321 208.915984 
L 324.051152 222.124379 
L 326.622983 225.279735 
L 329.194814 224.344384 
L 331.766645 223.412935 
L 334.338476 221.216135 
L 336.910307 218.134075 
L 339.482138 212.446205 
L 342.05397 206.616728 
L 344.625801 199.818766 
L 347.197632 195.546393 
L 349.769463 191.505691 
L 352.341294 193.630213 
L 354.913125 200.100228 
L 357.484956 215.426109 
L 360.056787 222.36013 
L 362.628618 222.783927 
L 365.200449 222.498191 
L 367.77228 223.570905 
" style="fill:none;stroke:#1f77b4;stroke-linecap:square;stroke-width:1.5;"/>
   </g>
   <g id="patch_19">
    <path d="M 240.852417 251.807031 
L 240.852417 169.807031 
" style="fill:none;stroke:#000000;stroke-linecap:square;stroke-linejoin:miter;stroke-width:0.8;"/>
   </g>
   <g id="patch_20">
    <path d="M 373.816083 251.807031 
L 373.816083 169.807031 
" style="fill:none;stroke:#000000;stroke-linecap:square;stroke-linejoin:miter;stroke-width:0.8;"/>
   </g>
   <g id="patch_21">
    <path d="M 240.852417 251.807031 
L 373.816083 251.807031 
" style="fill:none;stroke:#000000;stroke-linecap:square;stroke-linejoin:miter;stroke-width:0.8;"/>
   </g>
   <g id="patch_22">
    <path d="M 240.852417 169.807031 
L 373.816083 169.807031 
" style="fill:none;stroke:#000000;stroke-linecap:square;stroke-linejoin:miter;stroke-width:0.8;"/>
   </g>
   <g id="text_40">
    <!-- Score = 0.571 -->
    <g transform="translate(264.379875 163.807031)scale(0.12 -0.12)">
     <use xlink:href="#DejaVuSans-53"/>
     <use x="63.476562" xlink:href="#DejaVuSans-63"/>
     <use x="118.457031" xlink:href="#DejaVuSans-6f"/>
     <use x="179.638672" xlink:href="#DejaVuSans-72"/>
     <use x="220.720703" xlink:href="#DejaVuSans-65"/>
     <use x="282.244141" xlink:href="#DejaVuSans-20"/>
     <use x="314.03125" xlink:href="#DejaVuSans-3d"/>
     <use x="397.820312" xlink:href="#DejaVuSans-20"/>
     <use x="429.607422" xlink:href="#DejaVuSans-30"/>
     <use x="493.230469" xlink:href="#DejaVuSans-2e"/>
     <use x="525.017578" xlink:href="#DejaVuSans-35"/>
     <use x="588.640625" xlink:href="#DejaVuSans-37"/>
     <use x="652.263672" xlink:href="#DejaVuSans-31"/>
    </g>
   </g>
  </g>
  <g id="axes_4">
   <g id="patch_23">
    <path d="M 418.346083 251.807031 
L 551.30975 251.807031 
L 551.30975 169.807031 
L 418.346083 169.807031 
z
" style="fill:#ffffff;"/>
   </g>
   <g id="matplotlib.axis_7">
    <g id="xtick_18">
     <g id="line2d_48">
      <g>
       <use style="stroke:#000000;stroke-width:0.8;" x="439.820873" xlink:href="#mf014c91353" y="251.807031"/>
      </g>
     </g>
     <g id="text_41">
      <!-- 80 -->
      <g transform="translate(433.458373 266.405469)scale(0.1 -0.1)">
       <use xlink:href="#DejaVuSans-38"/>
       <use x="63.623047" xlink:href="#DejaVuSans-30"/>
      </g>
     </g>
    </g>
    <g id="xtick_19">
     <g id="line2d_49">
      <g>
       <use style="stroke:#000000;stroke-width:0.8;" x="491.257494" xlink:href="#mf014c91353" y="251.807031"/>
      </g>
     </g>
     <g id="text_42">
      <!-- 90 -->
      <g transform="translate(484.894994 266.405469)scale(0.1 -0.1)">
       <use xlink:href="#DejaVuSans-39"/>
       <use x="63.623047" xlink:href="#DejaVuSans-30"/>
      </g>
     </g>
    </g>
    <g id="xtick_20">
     <g id="line2d_50">
      <g>
       <use style="stroke:#000000;stroke-width:0.8;" x="542.694116" xlink:href="#mf014c91353" y="251.807031"/>
      </g>
     </g>
     <g id="text_43">
      <!-- 100 -->
      <g transform="translate(533.150366 266.405469)scale(0.1 -0.1)">
       <use xlink:href="#DejaVuSans-31"/>
       <use x="63.623047" xlink:href="#DejaVuSans-30"/>
       <use x="127.246094" xlink:href="#DejaVuSans-30"/>
      </g>
     </g>
    </g>
    <g id="text_44">
     <!-- Elapsed Time (Hours) -->
     <g transform="translate(431.070104 280.083594)scale(0.1 -0.1)">
      <use xlink:href="#DejaVuSans-45"/>
      <use x="63.183594" xlink:href="#DejaVuSans-6c"/>
      <use x="90.966797" xlink:href="#DejaVuSans-61"/>
      <use x="152.246094" xlink:href="#DejaVuSans-70"/>
      <use x="215.722656" xlink:href="#DejaVuSans-73"/>
      <use x="267.822266" xlink:href="#DejaVuSans-65"/>
      <use x="329.345703" xlink:href="#DejaVuSans-64"/>
      <use x="392.822266" xlink:href="#DejaVuSans-20"/>
      <use x="424.609375" xlink:href="#DejaVuSans-54"/>
      <use x="485.646484" xlink:href="#DejaVuSans-69"/>
      <use x="513.429688" xlink:href="#DejaVuSans-6d"/>
      <use x="610.841797" xlink:href="#DejaVuSans-65"/>
      <use x="672.365234" xlink:href="#DejaVuSans-20"/>
      <use x="704.152344" xlink:href="#DejaVuSans-28"/>
      <use x="743.166016" xlink:href="#DejaVuSans-48"/>
      <use x="818.361328" xlink:href="#DejaVuSans-6f"/>
      <use x="879.542969" xlink:href="#DejaVuSans-75"/>
      <use x="942.921875" xlink:href="#DejaVuSans-72"/>
      <use x="984.035156" xlink:href="#DejaVuSans-73"/>
      <use x="1036.134766" xlink:href="#DejaVuSans-29"/>
     </g>
    </g>
   </g>
   <g id="matplotlib.axis_8">
    <g id="ytick_16">
     <g id="line2d_51">
      <g>
       <use style="stroke:#000000;stroke-width:0.8;" x="418.346083" xlink:href="#med4d375b78" y="251.807031"/>
      </g>
     </g>
     <g id="text_45">
      <!-- −1.0 -->
      <g transform="translate(387.063271 255.60625)scale(0.1 -0.1)">
       <use xlink:href="#DejaVuSans-2212"/>
       <use x="83.789062" xlink:href="#DejaVuSans-31"/>
       <use x="147.412109" xlink:href="#DejaVuSans-2e"/>
       <use x="179.199219" xlink:href="#DejaVuSans-30"/>
      </g>
     </g>
    </g>
    <g id="ytick_17">
     <g id="line2d_52">
      <g>
       <use style="stroke:#000000;stroke-width:0.8;" x="418.346083" xlink:href="#med4d375b78" y="231.307031"/>
      </g>
     </g>
     <g id="text_46">
      <!-- −0.5 -->
      <g transform="translate(387.063271 235.10625)scale(0.1 -0.1)">
       <use xlink:href="#DejaVuSans-2212"/>
       <use x="83.789062" xlink:href="#DejaVuSans-30"/>
       <use x="147.412109" xlink:href="#DejaVuSans-2e"/>
       <use x="179.199219" xlink:href="#DejaVuSans-35"/>
      </g>
     </g>
    </g>
    <g id="ytick_18">
     <g id="line2d_53">
      <g>
       <use style="stroke:#000000;stroke-width:0.8;" x="418.346083" xlink:href="#med4d375b78" y="210.807031"/>
      </g>
     </g>
     <g id="text_47">
      <!-- 0.0 -->
      <g transform="translate(395.442958 214.60625)scale(0.1 -0.1)">
       <use xlink:href="#DejaVuSans-30"/>
       <use x="63.623047" xlink:href="#DejaVuSans-2e"/>
       <use x="95.410156" xlink:href="#DejaVuSans-30"/>
      </g>
     </g>
    </g>
    <g id="ytick_19">
     <g id="line2d_54">
      <g>
       <use style="stroke:#000000;stroke-width:0.8;" x="418.346083" xlink:href="#med4d375b78" y="190.307031"/>
      </g>
     </g>
     <g id="text_48">
      <!-- 0.5 -->
      <g transform="translate(395.442958 194.10625)scale(0.1 -0.1)">
       <use xlink:href="#DejaVuSans-30"/>
       <use x="63.623047" xlink:href="#DejaVuSans-2e"/>
       <use x="95.410156" xlink:href="#DejaVuSans-35"/>
      </g>
     </g>
    </g>
    <g id="ytick_20">
     <g id="line2d_55">
      <g>
       <use style="stroke:#000000;stroke-width:0.8;" x="418.346083" xlink:href="#med4d375b78" y="169.807031"/>
      </g>
     </g>
     <g id="text_49">
      <!-- 1.0 -->
      <g transform="translate(395.442958 173.60625)scale(0.1 -0.1)">
       <use xlink:href="#DejaVuSans-31"/>
       <use x="63.623047" xlink:href="#DejaVuSans-2e"/>
       <use x="95.410156" xlink:href="#DejaVuSans-30"/>
      </g>
     </g>
    </g>
   </g>
   <g id="line2d_56">
    <path clip-path="url(#p67d87c2700)" d="M 424.389886 201.324142 
L 426.961717 214.717936 
L 429.533549 223.420006 
L 432.10538 224.866675 
L 434.677211 225.269681 
L 437.249042 222.267315 
L 439.820873 219.621626 
L 442.392704 213.89512 
L 444.964535 210.509555 
L 447.536366 210.138392 
L 450.108197 208.037903 
L 452.680028 211.032566 
L 455.251859 213.723983 
L 457.82369 214.461238 
L 460.395521 207.659725 
L 462.967353 204.106912 
L 465.539184 198.307651 
L 468.111015 193.353597 
L 470.682846 196.957207 
L 473.254677 197.065093 
L 475.826508 200.510242 
L 478.398339 202.752015 
L 480.97017 209.751414 
L 483.542001 215.981924 
L 486.113832 221.709853 
L 488.685663 223.915451 
L 491.257494 223.909912 
L 493.829325 223.591574 
L 496.401157 222.896703 
L 498.972988 219.284811 
L 501.544819 214.733825 
L 504.11665 210.579661 
L 506.688481 207.038828 
L 509.260312 199.642563 
L 511.832143 194.149345 
L 514.403974 192.017768 
L 516.975805 193.070857 
L 519.547636 205.541002 
L 522.119467 211.991138 
L 524.691298 221.941469 
L 527.263129 224.815233 
L 529.834961 224.332728 
L 532.406792 222.969879 
L 534.978623 223.912018 
L 537.550454 223.836953 
L 540.122285 208.525836 
L 542.694116 204.881608 
L 545.265947 198.990129 
" style="fill:none;stroke:#1f77b4;stroke-linecap:square;stroke-width:1.5;"/>
   </g>
   <g id="patch_24">
    <path d="M 418.346083 251.807031 
L 418.346083 169.807031 
" style="fill:none;stroke:#000000;stroke-linecap:square;stroke-linejoin:miter;stroke-width:0.8;"/>
   </g>
   <g id="patch_25">
    <path d="M 551.30975 251.807031 
L 551.30975 169.807031 
" style="fill:none;stroke:#000000;stroke-linecap:square;stroke-linejoin:miter;stroke-width:0.8;"/>
   </g>
   <g id="patch_26">
    <path d="M 418.346083 251.807031 
L 551.30975 251.807031 
" style="fill:none;stroke:#000000;stroke-linecap:square;stroke-linejoin:miter;stroke-width:0.8;"/>
   </g>
   <g id="patch_27">
    <path d="M 418.346083 169.807031 
L 551.30975 169.807031 
" style="fill:none;stroke:#000000;stroke-linecap:square;stroke-linejoin:miter;stroke-width:0.8;"/>
   </g>
   <g id="text_50">
    <!-- Score = 0.254 -->
    <g transform="translate(441.873542 163.807031)scale(0.12 -0.12)">
     <use xlink:href="#DejaVuSans-53"/>
     <use x="63.476562" xlink:href="#DejaVuSans-63"/>
     <use x="118.457031" xlink:href="#DejaVuSans-6f"/>
     <use x="179.638672" xlink:href="#DejaVuSans-72"/>
     <use x="220.720703" xlink:href="#DejaVuSans-65"/>
     <use x="282.244141" xlink:href="#DejaVuSans-20"/>
     <use x="314.03125" xlink:href="#DejaVuSans-3d"/>
     <use x="397.820312" xlink:href="#DejaVuSans-20"/>
     <use x="429.607422" xlink:href="#DejaVuSans-30"/>
     <use x="493.230469" xlink:href="#DejaVuSans-2e"/>
     <use x="525.017578" xlink:href="#DejaVuSans-32"/>
     <use x="588.640625" xlink:href="#DejaVuSans-35"/>
     <use x="652.263672" xlink:href="#DejaVuSans-34"/>
    </g>
   </g>
  </g>
 </g>
 <defs>
  <clipPath id="pcdb804a88e">
   <rect height="82" width="487.951" x="63.35875" y="31.207031"/>
  </clipPath>
  <clipPath id="pb32d2a6857">
   <rect height="82" width="132.963667" x="63.35875" y="169.807031"/>
  </clipPath>
  <clipPath id="pb3b71b40bc">
   <rect height="82" width="132.963667" x="240.852417" y="169.807031"/>
  </clipPath>
  <clipPath id="p67d87c2700">
   <rect height="82" width="132.963667" x="418.346083" y="169.807031"/>
  </clipPath>
 </defs>
</svg>
