<?xml version="1.0" encoding="utf-8" standalone="no"?>
<!DOCTYPE svg PUBLIC "-//W3C//DTD SVG 1.1//EN"
  "http://www.w3.org/Graphics/SVG/1.1/DTD/svg11.dtd">
<!-- Created with matplotlib (https://matplotlib.org/) -->
<svg height="481.07625pt" version="1.1" viewBox="0 0 1053.759751 481.07625" width="1053.759751pt" xmlns="http://www.w3.org/2000/svg" xmlns:xlink="http://www.w3.org/1999/xlink">
 <metadata>
  <rdf:RDF xmlns:cc="http://creativecommons.org/ns#" xmlns:dc="http://purl.org/dc/elements/1.1/" xmlns:rdf="http://www.w3.org/1999/02/22-rdf-syntax-ns#">
   <cc:Work>
    <dc:type rdf:resource="http://purl.org/dc/dcmitype/StillImage"/>
    <dc:date>2021-04-06T21:12:49.138055</dc:date>
    <dc:format>image/svg+xml</dc:format>
    <dc:creator>
     <cc:Agent>
      <dc:title>Matplotlib v3.3.3, https://matplotlib.org/</dc:title>
     </cc:Agent>
    </dc:creator>
   </cc:Work>
  </rdf:RDF>
 </metadata>
 <defs>
  <style type="text/css">*{stroke-linecap:butt;stroke-linejoin:round;}</style>
 </defs>
 <g id="figure_1">
  <g id="patch_1">
   <path d="M -0 481.07625 
L 1053.759751 481.07625 
L 1053.759751 0 
L -0 0 
z
" style="fill:none;"/>
  </g>
  <g id="axes_1">
   <g id="patch_2">
    <path d="M 38.482813 219.990852 
L 333.894577 219.990852 
L 333.894577 22.318125 
L 38.482813 22.318125 
z
" style="fill:#ffffff;"/>
   </g>
   <g id="matplotlib.axis_1">
    <g id="xtick_1">
     <g id="line2d_1">
      <defs>
       <path d="M 0 0 
L 0 3.5 
" id="mee30af71fd" style="stroke:#000000;stroke-width:0.8;"/>
      </defs>
      <g>
       <use style="stroke:#000000;stroke-width:0.8;" x="51.91062" xlink:href="#mee30af71fd" y="219.990852"/>
      </g>
     </g>
     <g id="text_1">
      <!-- 0 -->
      <g transform="translate(48.72937 234.58929)scale(0.1 -0.1)">
       <defs>
        <path d="M 31.78125 66.40625 
Q 24.171875 66.40625 20.328125 58.90625 
Q 16.5 51.421875 16.5 36.375 
Q 16.5 21.390625 20.328125 13.890625 
Q 24.171875 6.390625 31.78125 6.390625 
Q 39.453125 6.390625 43.28125 13.890625 
Q 47.125 21.390625 47.125 36.375 
Q 47.125 51.421875 43.28125 58.90625 
Q 39.453125 66.40625 31.78125 66.40625 
z
M 31.78125 74.21875 
Q 44.046875 74.21875 50.515625 64.515625 
Q 56.984375 54.828125 56.984375 36.375 
Q 56.984375 17.96875 50.515625 8.265625 
Q 44.046875 -1.421875 31.78125 -1.421875 
Q 19.53125 -1.421875 13.0625 8.265625 
Q 6.59375 17.96875 6.59375 36.375 
Q 6.59375 54.828125 13.0625 64.515625 
Q 19.53125 74.21875 31.78125 74.21875 
z
" id="DejaVuSans-48"/>
       </defs>
       <use xlink:href="#DejaVuSans-48"/>
      </g>
     </g>
    </g>
    <g id="xtick_2">
     <g id="line2d_2">
      <g>
       <use style="stroke:#000000;stroke-width:0.8;" x="108.093915" xlink:href="#mee30af71fd" y="219.990852"/>
      </g>
     </g>
     <g id="text_2">
      <!-- 50 -->
      <g transform="translate(101.731415 234.58929)scale(0.1 -0.1)">
       <defs>
        <path d="M 10.796875 72.90625 
L 49.515625 72.90625 
L 49.515625 64.59375 
L 19.828125 64.59375 
L 19.828125 46.734375 
Q 21.96875 47.46875 24.109375 47.828125 
Q 26.265625 48.1875 28.421875 48.1875 
Q 40.625 48.1875 47.75 41.5 
Q 54.890625 34.8125 54.890625 23.390625 
Q 54.890625 11.625 47.5625 5.09375 
Q 40.234375 -1.421875 26.90625 -1.421875 
Q 22.3125 -1.421875 17.546875 -0.640625 
Q 12.796875 0.140625 7.71875 1.703125 
L 7.71875 11.625 
Q 12.109375 9.234375 16.796875 8.0625 
Q 21.484375 6.890625 26.703125 6.890625 
Q 35.15625 6.890625 40.078125 11.328125 
Q 45.015625 15.765625 45.015625 23.390625 
Q 45.015625 31 40.078125 35.4375 
Q 35.15625 39.890625 26.703125 39.890625 
Q 22.75 39.890625 18.8125 39.015625 
Q 14.890625 38.140625 10.796875 36.28125 
z
" id="DejaVuSans-53"/>
       </defs>
       <use xlink:href="#DejaVuSans-53"/>
       <use x="63.623047" xlink:href="#DejaVuSans-48"/>
      </g>
     </g>
    </g>
    <g id="xtick_3">
     <g id="line2d_3">
      <g>
       <use style="stroke:#000000;stroke-width:0.8;" x="164.27721" xlink:href="#mee30af71fd" y="219.990852"/>
      </g>
     </g>
     <g id="text_3">
      <!-- 100 -->
      <g transform="translate(154.73346 234.58929)scale(0.1 -0.1)">
       <defs>
        <path d="M 12.40625 8.296875 
L 28.515625 8.296875 
L 28.515625 63.921875 
L 10.984375 60.40625 
L 10.984375 69.390625 
L 28.421875 72.90625 
L 38.28125 72.90625 
L 38.28125 8.296875 
L 54.390625 8.296875 
L 54.390625 0 
L 12.40625 0 
z
" id="DejaVuSans-49"/>
       </defs>
       <use xlink:href="#DejaVuSans-49"/>
       <use x="63.623047" xlink:href="#DejaVuSans-48"/>
       <use x="127.246094" xlink:href="#DejaVuSans-48"/>
      </g>
     </g>
    </g>
    <g id="xtick_4">
     <g id="line2d_4">
      <g>
       <use style="stroke:#000000;stroke-width:0.8;" x="220.460505" xlink:href="#mee30af71fd" y="219.990852"/>
      </g>
     </g>
     <g id="text_4">
      <!-- 150 -->
      <g transform="translate(210.916755 234.58929)scale(0.1 -0.1)">
       <use xlink:href="#DejaVuSans-49"/>
       <use x="63.623047" xlink:href="#DejaVuSans-53"/>
       <use x="127.246094" xlink:href="#DejaVuSans-48"/>
      </g>
     </g>
    </g>
    <g id="xtick_5">
     <g id="line2d_5">
      <g>
       <use style="stroke:#000000;stroke-width:0.8;" x="276.6438" xlink:href="#mee30af71fd" y="219.990852"/>
      </g>
     </g>
     <g id="text_5">
      <!-- 200 -->
      <g transform="translate(267.10005 234.58929)scale(0.1 -0.1)">
       <defs>
        <path d="M 19.1875 8.296875 
L 53.609375 8.296875 
L 53.609375 0 
L 7.328125 0 
L 7.328125 8.296875 
Q 12.9375 14.109375 22.625 23.890625 
Q 32.328125 33.6875 34.8125 36.53125 
Q 39.546875 41.84375 41.421875 45.53125 
Q 43.3125 49.21875 43.3125 52.78125 
Q 43.3125 58.59375 39.234375 62.25 
Q 35.15625 65.921875 28.609375 65.921875 
Q 23.96875 65.921875 18.8125 64.3125 
Q 13.671875 62.703125 7.8125 59.421875 
L 7.8125 69.390625 
Q 13.765625 71.78125 18.9375 73 
Q 24.125 74.21875 28.421875 74.21875 
Q 39.75 74.21875 46.484375 68.546875 
Q 53.21875 62.890625 53.21875 53.421875 
Q 53.21875 48.921875 51.53125 44.890625 
Q 49.859375 40.875 45.40625 35.40625 
Q 44.1875 33.984375 37.640625 27.21875 
Q 31.109375 20.453125 19.1875 8.296875 
z
" id="DejaVuSans-50"/>
       </defs>
       <use xlink:href="#DejaVuSans-50"/>
       <use x="63.623047" xlink:href="#DejaVuSans-48"/>
       <use x="127.246094" xlink:href="#DejaVuSans-48"/>
      </g>
     </g>
    </g>
    <g id="xtick_6">
     <g id="line2d_6">
      <g>
       <use style="stroke:#000000;stroke-width:0.8;" x="332.827095" xlink:href="#mee30af71fd" y="219.990852"/>
      </g>
     </g>
     <g id="text_6">
      <!-- 250 -->
      <g transform="translate(323.283345 234.58929)scale(0.1 -0.1)">
       <use xlink:href="#DejaVuSans-50"/>
       <use x="63.623047" xlink:href="#DejaVuSans-53"/>
       <use x="127.246094" xlink:href="#DejaVuSans-48"/>
      </g>
     </g>
    </g>
   </g>
   <g id="matplotlib.axis_2">
    <g id="ytick_1">
     <g id="line2d_7">
      <defs>
       <path d="M 0 0 
L -3.5 0 
" id="m2fdce2fc10" style="stroke:#000000;stroke-width:0.8;"/>
      </defs>
      <g>
       <use style="stroke:#000000;stroke-width:0.8;" x="38.482813" xlink:href="#m2fdce2fc10" y="200.049146"/>
      </g>
     </g>
     <g id="text_7">
      <!-- −0.4 -->
      <g transform="translate(7.2 203.848365)scale(0.1 -0.1)">
       <defs>
        <path d="M 10.59375 35.5 
L 73.1875 35.5 
L 73.1875 27.203125 
L 10.59375 27.203125 
z
" id="DejaVuSans-8722"/>
        <path d="M 10.6875 12.40625 
L 21 12.40625 
L 21 0 
L 10.6875 0 
z
" id="DejaVuSans-46"/>
        <path d="M 37.796875 64.3125 
L 12.890625 25.390625 
L 37.796875 25.390625 
z
M 35.203125 72.90625 
L 47.609375 72.90625 
L 47.609375 25.390625 
L 58.015625 25.390625 
L 58.015625 17.1875 
L 47.609375 17.1875 
L 47.609375 0 
L 37.796875 0 
L 37.796875 17.1875 
L 4.890625 17.1875 
L 4.890625 26.703125 
z
" id="DejaVuSans-52"/>
       </defs>
       <use xlink:href="#DejaVuSans-8722"/>
       <use x="83.789062" xlink:href="#DejaVuSans-48"/>
       <use x="147.412109" xlink:href="#DejaVuSans-46"/>
       <use x="179.199219" xlink:href="#DejaVuSans-52"/>
      </g>
     </g>
    </g>
    <g id="ytick_2">
     <g id="line2d_8">
      <g>
       <use style="stroke:#000000;stroke-width:0.8;" x="38.482813" xlink:href="#m2fdce2fc10" y="164.320533"/>
      </g>
     </g>
     <g id="text_8">
      <!-- −0.2 -->
      <g transform="translate(7.2 168.119751)scale(0.1 -0.1)">
       <use xlink:href="#DejaVuSans-8722"/>
       <use x="83.789062" xlink:href="#DejaVuSans-48"/>
       <use x="147.412109" xlink:href="#DejaVuSans-46"/>
       <use x="179.199219" xlink:href="#DejaVuSans-50"/>
      </g>
     </g>
    </g>
    <g id="ytick_3">
     <g id="line2d_9">
      <g>
       <use style="stroke:#000000;stroke-width:0.8;" x="38.482813" xlink:href="#m2fdce2fc10" y="128.591919"/>
      </g>
     </g>
     <g id="text_9">
      <!-- 0.0 -->
      <g transform="translate(15.579688 132.391138)scale(0.1 -0.1)">
       <use xlink:href="#DejaVuSans-48"/>
       <use x="63.623047" xlink:href="#DejaVuSans-46"/>
       <use x="95.410156" xlink:href="#DejaVuSans-48"/>
      </g>
     </g>
    </g>
    <g id="ytick_4">
     <g id="line2d_10">
      <g>
       <use style="stroke:#000000;stroke-width:0.8;" x="38.482813" xlink:href="#m2fdce2fc10" y="92.863305"/>
      </g>
     </g>
     <g id="text_10">
      <!-- 0.2 -->
      <g transform="translate(15.579688 96.662524)scale(0.1 -0.1)">
       <use xlink:href="#DejaVuSans-48"/>
       <use x="63.623047" xlink:href="#DejaVuSans-46"/>
       <use x="95.410156" xlink:href="#DejaVuSans-50"/>
      </g>
     </g>
    </g>
    <g id="ytick_5">
     <g id="line2d_11">
      <g>
       <use style="stroke:#000000;stroke-width:0.8;" x="38.482813" xlink:href="#m2fdce2fc10" y="57.134692"/>
      </g>
     </g>
     <g id="text_11">
      <!-- 0.4 -->
      <g transform="translate(15.579688 60.933911)scale(0.1 -0.1)">
       <use xlink:href="#DejaVuSans-48"/>
       <use x="63.623047" xlink:href="#DejaVuSans-46"/>
       <use x="95.410156" xlink:href="#DejaVuSans-52"/>
      </g>
     </g>
    </g>
   </g>
   <g id="line2d_12">
    <path clip-path="url(#p7719b99cb8)" d="M 51.91062 124.851429 
L 53.034286 69.565712 
L 54.157952 39.602369 
L 55.281618 108.990557 
L 56.405284 188.276819 
L 57.528949 192.545634 
L 58.652615 189.029776 
L 59.776281 179.641649 
L 60.899947 154.003328 
L 62.023613 115.521964 
L 63.147279 70.951506 
L 64.270945 49.822703 
L 65.394611 104.0933 
L 66.518277 174.175671 
L 67.641943 186.43137 
L 68.765608 177.836372 
L 69.889274 152.289371 
L 71.01294 104.287219 
L 72.136606 79.462312 
L 73.260272 44.565044 
L 74.383938 51.800428 
L 76.63127 181.20366 
L 77.754936 193.364009 
L 78.878602 190.556859 
L 80.002267 182.151737 
L 81.125933 147.037804 
L 82.249599 121.91664 
L 83.373265 78.315091 
L 84.496931 48.835545 
L 85.620597 48.0147 
L 86.744263 87.273814 
L 87.867929 130.977495 
L 88.991595 183.685878 
L 90.115261 193.676321 
L 91.238926 184.235471 
L 92.362592 160.525426 
L 93.486258 124.263617 
L 94.609924 92.197979 
L 95.73359 52.342522 
L 96.857256 36.469711 
L 99.104588 186.504563 
L 100.228254 192.427968 
L 101.35192 184.272208 
L 102.475585 163.226399 
L 103.599251 127.972681 
L 104.722917 98.502137 
L 105.846583 55.966503 
L 106.970249 64.410217 
L 108.093915 140.582756 
L 109.217581 182.817424 
L 110.341247 185.442042 
L 111.464913 162.137427 
L 112.588579 123.556041 
L 114.83591 37.26722 
L 115.959576 72.979897 
L 117.083242 165.589058 
L 118.206908 187.778991 
L 119.330574 186.895739 
L 120.45424 182.342607 
L 122.701572 153.905501 
L 123.825237 127.95156 
L 124.948903 91.271809 
L 126.072569 46.225032 
L 127.196235 32.78254 
L 128.319901 103.240652 
L 129.443567 160.579297 
L 130.567233 179.038934 
L 131.690899 184.820407 
L 132.814565 183.002026 
L 133.938231 172.784945 
L 135.061896 152.880393 
L 138.432894 57.325068 
L 139.55656 40.414937 
L 140.680226 46.229285 
L 141.803892 108.648813 
L 142.927558 178.40518 
L 144.051224 195.22374 
L 145.17489 186.67508 
L 146.298555 187.734 
L 147.422221 170.408676 
L 150.793219 68.88003 
L 151.916885 56.121952 
L 153.040551 74.095654 
L 154.164217 108.113893 
L 155.287883 129.878798 
L 156.411549 166.877426 
L 157.535214 192.84936 
L 158.65888 202.423826 
L 160.906212 174.495559 
L 162.029878 147.873413 
L 163.153544 127.497188 
L 164.27721 110.610553 
L 165.400876 75.306382 
L 166.524542 44.157418 
L 167.648208 59.952584 
L 168.771873 86.854813 
L 171.019205 119.017064 
L 172.142871 106.413175 
L 173.266537 109.03785 
L 174.390203 127.688187 
L 176.637535 103.39924 
L 177.761201 132.496699 
L 178.884867 165.377633 
L 180.008532 183.958423 
L 181.132198 174.637741 
L 183.37953 94.458506 
L 184.503196 75.616238 
L 185.626862 113.087645 
L 186.750528 165.824622 
L 187.874194 211.005728 
L 188.99786 206.487789 
L 190.121525 167.549111 
L 191.245191 142.061854 
L 193.492523 98.748998 
L 194.616189 80.91636 
L 195.739855 60.002357 
L 196.863521 63.770835 
L 200.234519 202.738188 
L 201.358184 201.386078 
L 202.48185 181.812022 
L 203.605516 150.989788 
L 204.729182 115.90589 
L 205.852848 67.993035 
L 206.976514 34.79588 
L 208.10018 50.236822 
L 209.223846 131.026185 
L 210.347512 184.677786 
L 211.471178 185.14507 
L 212.594843 193.047029 
L 213.718509 182.144396 
L 214.842175 172.458744 
L 217.089507 134.154539 
L 219.336839 112.111174 
L 220.460505 109.593202 
L 221.584171 137.969671 
L 222.707837 130.034814 
L 223.831502 117.129361 
L 224.955168 111.667333 
L 226.078834 124.658079 
L 227.2025 140.266928 
L 228.326166 160.89376 
L 229.449832 123.594654 
L 230.573498 113.52011 
L 231.697164 127.175117 
L 232.82083 112.705868 
L 233.944496 31.303249 
L 235.068161 51.923144 
L 236.191827 74.901786 
L 237.315493 89.987933 
L 238.439159 91.11803 
L 239.562825 121.124488 
L 241.810157 168.271342 
L 244.057489 191.512373 
L 245.181155 192.205526 
L 246.30482 186.128258 
L 247.428486 175.64336 
L 251.92315 97.392098 
L 253.046816 91.338594 
L 254.170482 79.943155 
L 255.294148 73.42695 
L 256.417814 63.735946 
L 257.541479 75.592524 
L 258.665145 73.853288 
L 259.788811 92.140332 
L 260.912477 139.987356 
L 262.036143 182.665366 
L 263.159809 193.377344 
L 264.283475 191.193829 
L 265.407141 178.190917 
L 266.530807 168.32571 
L 267.654472 131.175663 
L 268.778138 82.722425 
L 269.901804 53.227523 
L 271.02547 74.817472 
L 272.149136 112.463314 
L 273.272802 163.984293 
L 274.396468 191.798179 
L 275.520134 194.484563 
L 276.6438 185.136617 
L 277.767466 153.288869 
L 280.014797 73.416182 
L 281.138463 38.665268 
L 282.262129 45.752044 
L 284.509461 140.293214 
L 285.633127 144.640628 
L 286.756793 151.76978 
L 287.880459 161.924006 
L 289.004125 176.430719 
L 290.12779 193.280854 
L 291.251456 195.191479 
L 292.375122 176.523278 
L 293.498788 150.311508 
L 295.74612 66.147103 
L 296.869786 49.69644 
L 297.993452 59.702181 
L 300.240784 92.310887 
L 301.364449 126.739755 
L 302.488115 167.242566 
L 303.611781 196.135231 
L 304.735447 197.217714 
L 305.859113 168.825748 
L 306.982779 125.800012 
L 308.106445 89.084509 
L 309.230111 65.47986 
L 310.353777 67.172571 
L 311.477443 75.570504 
L 312.601108 102.893285 
L 313.724774 162.06153 
L 314.84844 203.242037 
L 315.972106 203.854651 
L 318.219438 180.786013 
L 319.343104 164.866939 
L 320.46677 156.281485 
L 320.46677 156.281485 
" style="fill:none;stroke:#1f77b4;stroke-linecap:square;stroke-width:1.5;"/>
   </g>
   <g id="patch_3">
    <path d="M 38.482813 219.990852 
L 38.482813 22.318125 
" style="fill:none;stroke:#000000;stroke-linecap:square;stroke-linejoin:miter;stroke-width:0.8;"/>
   </g>
   <g id="patch_4">
    <path d="M 333.894577 219.990852 
L 333.894577 22.318125 
" style="fill:none;stroke:#000000;stroke-linecap:square;stroke-linejoin:miter;stroke-width:0.8;"/>
   </g>
   <g id="patch_5">
    <path d="M 38.482813 219.990852 
L 333.894577 219.990852 
" style="fill:none;stroke:#000000;stroke-linecap:square;stroke-linejoin:miter;stroke-width:0.8;"/>
   </g>
   <g id="patch_6">
    <path d="M 38.482813 22.318125 
L 333.894577 22.318125 
" style="fill:none;stroke:#000000;stroke-linecap:square;stroke-linejoin:miter;stroke-width:0.8;"/>
   </g>
   <g id="text_12">
    <!-- p53 -->
    <g transform="translate(174.744632 16.318125)scale(0.12 -0.12)">
     <defs>
      <path d="M 18.109375 8.203125 
L 18.109375 -20.796875 
L 9.078125 -20.796875 
L 9.078125 54.6875 
L 18.109375 54.6875 
L 18.109375 46.390625 
Q 20.953125 51.265625 25.265625 53.625 
Q 29.59375 56 35.59375 56 
Q 45.5625 56 51.78125 48.09375 
Q 58.015625 40.1875 58.015625 27.296875 
Q 58.015625 14.40625 51.78125 6.484375 
Q 45.5625 -1.421875 35.59375 -1.421875 
Q 29.59375 -1.421875 25.265625 0.953125 
Q 20.953125 3.328125 18.109375 8.203125 
z
M 48.6875 27.296875 
Q 48.6875 37.203125 44.609375 42.84375 
Q 40.53125 48.484375 33.40625 48.484375 
Q 26.265625 48.484375 22.1875 42.84375 
Q 18.109375 37.203125 18.109375 27.296875 
Q 18.109375 17.390625 22.1875 11.75 
Q 26.265625 6.109375 33.40625 6.109375 
Q 40.53125 6.109375 44.609375 11.75 
Q 48.6875 17.390625 48.6875 27.296875 
z
" id="DejaVuSans-112"/>
      <path d="M 40.578125 39.3125 
Q 47.65625 37.796875 51.625 33 
Q 55.609375 28.21875 55.609375 21.1875 
Q 55.609375 10.40625 48.1875 4.484375 
Q 40.765625 -1.421875 27.09375 -1.421875 
Q 22.515625 -1.421875 17.65625 -0.515625 
Q 12.796875 0.390625 7.625 2.203125 
L 7.625 11.71875 
Q 11.71875 9.328125 16.59375 8.109375 
Q 21.484375 6.890625 26.8125 6.890625 
Q 36.078125 6.890625 40.9375 10.546875 
Q 45.796875 14.203125 45.796875 21.1875 
Q 45.796875 27.640625 41.28125 31.265625 
Q 36.765625 34.90625 28.71875 34.90625 
L 20.21875 34.90625 
L 20.21875 43.015625 
L 29.109375 43.015625 
Q 36.375 43.015625 40.234375 45.921875 
Q 44.09375 48.828125 44.09375 54.296875 
Q 44.09375 59.90625 40.109375 62.90625 
Q 36.140625 65.921875 28.71875 65.921875 
Q 24.65625 65.921875 20.015625 65.03125 
Q 15.375 64.15625 9.8125 62.3125 
L 9.8125 71.09375 
Q 15.4375 72.65625 20.34375 73.4375 
Q 25.25 74.21875 29.59375 74.21875 
Q 40.828125 74.21875 47.359375 69.109375 
Q 53.90625 64.015625 53.90625 55.328125 
Q 53.90625 49.265625 50.4375 45.09375 
Q 46.96875 40.921875 40.578125 39.3125 
z
" id="DejaVuSans-51"/>
     </defs>
     <use xlink:href="#DejaVuSans-112"/>
     <use x="63.476562" xlink:href="#DejaVuSans-53"/>
     <use x="127.099609" xlink:href="#DejaVuSans-51"/>
    </g>
   </g>
  </g>
  <g id="axes_2">
   <g id="patch_7">
    <path d="M 38.482813 457.198125 
L 333.894577 457.198125 
L 333.894577 259.525398 
L 38.482813 259.525398 
z
" style="fill:#ffffff;"/>
   </g>
   <g id="matplotlib.axis_3">
    <g id="xtick_7">
     <g id="line2d_13">
      <g>
       <use style="stroke:#000000;stroke-width:0.8;" x="51.91062" xlink:href="#mee30af71fd" y="457.198125"/>
      </g>
     </g>
     <g id="text_13">
      <!-- 0 -->
      <g transform="translate(48.72937 471.796562)scale(0.1 -0.1)">
       <use xlink:href="#DejaVuSans-48"/>
      </g>
     </g>
    </g>
    <g id="xtick_8">
     <g id="line2d_14">
      <g>
       <use style="stroke:#000000;stroke-width:0.8;" x="108.093915" xlink:href="#mee30af71fd" y="457.198125"/>
      </g>
     </g>
     <g id="text_14">
      <!-- 50 -->
      <g transform="translate(101.731415 471.796562)scale(0.1 -0.1)">
       <use xlink:href="#DejaVuSans-53"/>
       <use x="63.623047" xlink:href="#DejaVuSans-48"/>
      </g>
     </g>
    </g>
    <g id="xtick_9">
     <g id="line2d_15">
      <g>
       <use style="stroke:#000000;stroke-width:0.8;" x="164.27721" xlink:href="#mee30af71fd" y="457.198125"/>
      </g>
     </g>
     <g id="text_15">
      <!-- 100 -->
      <g transform="translate(154.73346 471.796562)scale(0.1 -0.1)">
       <use xlink:href="#DejaVuSans-49"/>
       <use x="63.623047" xlink:href="#DejaVuSans-48"/>
       <use x="127.246094" xlink:href="#DejaVuSans-48"/>
      </g>
     </g>
    </g>
    <g id="xtick_10">
     <g id="line2d_16">
      <g>
       <use style="stroke:#000000;stroke-width:0.8;" x="220.460505" xlink:href="#mee30af71fd" y="457.198125"/>
      </g>
     </g>
     <g id="text_16">
      <!-- 150 -->
      <g transform="translate(210.916755 471.796562)scale(0.1 -0.1)">
       <use xlink:href="#DejaVuSans-49"/>
       <use x="63.623047" xlink:href="#DejaVuSans-53"/>
       <use x="127.246094" xlink:href="#DejaVuSans-48"/>
      </g>
     </g>
    </g>
    <g id="xtick_11">
     <g id="line2d_17">
      <g>
       <use style="stroke:#000000;stroke-width:0.8;" x="276.6438" xlink:href="#mee30af71fd" y="457.198125"/>
      </g>
     </g>
     <g id="text_17">
      <!-- 200 -->
      <g transform="translate(267.10005 471.796562)scale(0.1 -0.1)">
       <use xlink:href="#DejaVuSans-50"/>
       <use x="63.623047" xlink:href="#DejaVuSans-48"/>
       <use x="127.246094" xlink:href="#DejaVuSans-48"/>
      </g>
     </g>
    </g>
    <g id="xtick_12">
     <g id="line2d_18">
      <g>
       <use style="stroke:#000000;stroke-width:0.8;" x="332.827095" xlink:href="#mee30af71fd" y="457.198125"/>
      </g>
     </g>
     <g id="text_18">
      <!-- 250 -->
      <g transform="translate(323.283345 471.796562)scale(0.1 -0.1)">
       <use xlink:href="#DejaVuSans-50"/>
       <use x="63.623047" xlink:href="#DejaVuSans-53"/>
       <use x="127.246094" xlink:href="#DejaVuSans-48"/>
      </g>
     </g>
    </g>
   </g>
   <g id="matplotlib.axis_4">
    <g id="ytick_6">
     <g id="line2d_19">
      <g>
       <use style="stroke:#000000;stroke-width:0.8;" x="38.482813" xlink:href="#m2fdce2fc10" y="429.314014"/>
      </g>
     </g>
     <g id="text_19">
      <!-- −0.4 -->
      <g transform="translate(7.2 433.113232)scale(0.1 -0.1)">
       <use xlink:href="#DejaVuSans-8722"/>
       <use x="83.789062" xlink:href="#DejaVuSans-48"/>
       <use x="147.412109" xlink:href="#DejaVuSans-46"/>
       <use x="179.199219" xlink:href="#DejaVuSans-52"/>
      </g>
     </g>
    </g>
    <g id="ytick_7">
     <g id="line2d_20">
      <g>
       <use style="stroke:#000000;stroke-width:0.8;" x="38.482813" xlink:href="#m2fdce2fc10" y="400.90891"/>
      </g>
     </g>
     <g id="text_20">
      <!-- −0.2 -->
      <g transform="translate(7.2 404.708129)scale(0.1 -0.1)">
       <use xlink:href="#DejaVuSans-8722"/>
       <use x="83.789062" xlink:href="#DejaVuSans-48"/>
       <use x="147.412109" xlink:href="#DejaVuSans-46"/>
       <use x="179.199219" xlink:href="#DejaVuSans-50"/>
      </g>
     </g>
    </g>
    <g id="ytick_8">
     <g id="line2d_21">
      <g>
       <use style="stroke:#000000;stroke-width:0.8;" x="38.482813" xlink:href="#m2fdce2fc10" y="372.503807"/>
      </g>
     </g>
     <g id="text_21">
      <!-- 0.0 -->
      <g transform="translate(15.579688 376.303026)scale(0.1 -0.1)">
       <use xlink:href="#DejaVuSans-48"/>
       <use x="63.623047" xlink:href="#DejaVuSans-46"/>
       <use x="95.410156" xlink:href="#DejaVuSans-48"/>
      </g>
     </g>
    </g>
    <g id="ytick_9">
     <g id="line2d_22">
      <g>
       <use style="stroke:#000000;stroke-width:0.8;" x="38.482813" xlink:href="#m2fdce2fc10" y="344.098704"/>
      </g>
     </g>
     <g id="text_22">
      <!-- 0.2 -->
      <g transform="translate(15.579688 347.897922)scale(0.1 -0.1)">
       <use xlink:href="#DejaVuSans-48"/>
       <use x="63.623047" xlink:href="#DejaVuSans-46"/>
       <use x="95.410156" xlink:href="#DejaVuSans-50"/>
      </g>
     </g>
    </g>
    <g id="ytick_10">
     <g id="line2d_23">
      <g>
       <use style="stroke:#000000;stroke-width:0.8;" x="38.482813" xlink:href="#m2fdce2fc10" y="315.6936"/>
      </g>
     </g>
     <g id="text_23">
      <!-- 0.4 -->
      <g transform="translate(15.579688 319.492819)scale(0.1 -0.1)">
       <use xlink:href="#DejaVuSans-48"/>
       <use x="63.623047" xlink:href="#DejaVuSans-46"/>
       <use x="95.410156" xlink:href="#DejaVuSans-52"/>
      </g>
     </g>
    </g>
    <g id="ytick_11">
     <g id="line2d_24">
      <g>
       <use style="stroke:#000000;stroke-width:0.8;" x="38.482813" xlink:href="#m2fdce2fc10" y="287.288497"/>
      </g>
     </g>
     <g id="text_24">
      <!-- 0.6 -->
      <g transform="translate(15.579688 291.087716)scale(0.1 -0.1)">
       <defs>
        <path d="M 33.015625 40.375 
Q 26.375 40.375 22.484375 35.828125 
Q 18.609375 31.296875 18.609375 23.390625 
Q 18.609375 15.53125 22.484375 10.953125 
Q 26.375 6.390625 33.015625 6.390625 
Q 39.65625 6.390625 43.53125 10.953125 
Q 47.40625 15.53125 47.40625 23.390625 
Q 47.40625 31.296875 43.53125 35.828125 
Q 39.65625 40.375 33.015625 40.375 
z
M 52.59375 71.296875 
L 52.59375 62.3125 
Q 48.875 64.0625 45.09375 64.984375 
Q 41.3125 65.921875 37.59375 65.921875 
Q 27.828125 65.921875 22.671875 59.328125 
Q 17.53125 52.734375 16.796875 39.40625 
Q 19.671875 43.65625 24.015625 45.921875 
Q 28.375 48.1875 33.59375 48.1875 
Q 44.578125 48.1875 50.953125 41.515625 
Q 57.328125 34.859375 57.328125 23.390625 
Q 57.328125 12.15625 50.6875 5.359375 
Q 44.046875 -1.421875 33.015625 -1.421875 
Q 20.359375 -1.421875 13.671875 8.265625 
Q 6.984375 17.96875 6.984375 36.375 
Q 6.984375 53.65625 15.1875 63.9375 
Q 23.390625 74.21875 37.203125 74.21875 
Q 40.921875 74.21875 44.703125 73.484375 
Q 48.484375 72.75 52.59375 71.296875 
z
" id="DejaVuSans-54"/>
       </defs>
       <use xlink:href="#DejaVuSans-48"/>
       <use x="63.623047" xlink:href="#DejaVuSans-46"/>
       <use x="95.410156" xlink:href="#DejaVuSans-54"/>
      </g>
     </g>
    </g>
   </g>
   <g id="line2d_25">
    <path clip-path="url(#p2e9fa5a5ed)" d="M 51.91062 341.903165 
L 53.034286 386.739056 
L 54.157952 408.949275 
L 55.281618 399.09832 
L 56.405284 384.96877 
L 57.528949 381.053346 
L 58.652615 367.333304 
L 59.776281 389.512044 
L 60.899947 384.925559 
L 62.023613 448.213001 
L 64.270945 345.44743 
L 65.394611 383.096262 
L 66.518277 366.767284 
L 67.641943 360.294963 
L 68.765608 384.108605 
L 69.889274 336.637931 
L 71.01294 373.311815 
L 72.136606 383.922262 
L 73.260272 396.799714 
L 74.383938 406.849654 
L 76.63127 363.236559 
L 77.754936 335.925949 
L 78.878602 326.076309 
L 80.002267 355.657025 
L 81.125933 325.127195 
L 82.249599 381.51264 
L 83.373265 386.193176 
L 84.496931 407.822589 
L 85.620597 420.207522 
L 86.744263 406.978274 
L 87.867929 365.31572 
L 88.991595 353.793443 
L 90.115261 338.54166 
L 91.238926 319.622536 
L 92.362592 328.439032 
L 93.486258 349.751681 
L 94.609924 408.926727 
L 95.73359 421.715176 
L 96.857256 416.813544 
L 97.980922 393.412202 
L 99.104588 375.843108 
L 100.228254 340.465063 
L 101.35192 348.723619 
L 102.475585 358.922437 
L 103.599251 377.833156 
L 104.722917 399.207656 
L 105.846583 405.641814 
L 106.970249 405.225682 
L 108.093915 381.430008 
L 109.217581 366.847137 
L 110.341247 360.588179 
L 111.464913 355.544103 
L 112.588579 362.060577 
L 113.712244 372.545645 
L 114.83591 377.050464 
L 115.959576 385.551329 
L 117.083242 362.686419 
L 118.206908 349.369589 
L 119.330574 319.108958 
L 120.45424 315.014081 
L 121.577906 329.422699 
L 122.701572 356.878574 
L 123.825237 394.087235 
L 124.948903 408.957557 
L 126.072569 415.909194 
L 127.196235 423.991644 
L 128.319901 420.061602 
L 129.443567 392.138594 
L 130.567233 352.605575 
L 131.690899 320.824423 
L 132.814565 313.631028 
L 133.938231 322.543404 
L 135.061896 336.864051 
L 136.185562 375.7973 
L 137.309228 404.822814 
L 138.432894 415.882506 
L 139.55656 418.860072 
L 140.680226 404.495123 
L 141.803892 400.246643 
L 142.927558 384.088274 
L 144.051224 338.361523 
L 145.17489 268.510522 
L 146.298555 330.98854 
L 147.422221 338.480242 
L 148.545887 362.106507 
L 149.669553 381.694159 
L 150.793219 398.126519 
L 151.916885 416.292667 
L 153.040551 411.038839 
L 154.164217 420.813459 
L 155.287883 414.973915 
L 156.411549 383.009188 
L 157.535214 376.385991 
L 158.65888 351.521294 
L 159.782546 347.57856 
L 160.906212 394.937131 
L 163.153544 346.200385 
L 164.27721 404.351858 
L 165.400876 404.918409 
L 166.524542 385.948961 
L 167.648208 376.402298 
L 168.771873 328.013345 
L 169.895539 319.093232 
L 171.019205 355.981974 
L 172.142871 362.604595 
L 173.266537 346.249283 
L 174.390203 340.66146 
L 175.513869 331.251223 
L 176.637535 318.249156 
L 177.761201 358.425196 
L 178.884867 351.340703 
L 180.008532 374.835013 
L 181.132198 383.499088 
L 182.255864 374.971957 
L 183.37953 378.35534 
L 184.503196 373.919498 
L 185.626862 375.70394 
L 186.750528 374.203415 
L 187.874194 382.224185 
L 188.99786 357.941457 
L 190.121525 346.695544 
L 191.245191 376.971874 
L 192.368857 383.280178 
L 193.492523 386.454406 
L 194.616189 394.731042 
L 195.739855 386.879873 
L 196.863521 377.288405 
L 197.987187 390.503592 
L 199.110853 351.135677 
L 200.234519 403.476507 
L 201.358184 423.861768 
L 202.48185 380.536392 
L 203.605516 384.031824 
L 204.729182 431.724469 
L 205.852848 410.964522 
L 206.976514 388.144435 
L 208.10018 395.70169 
L 210.347512 356.215963 
L 211.471178 315.214439 
L 212.594843 308.968463 
L 213.718509 322.762434 
L 214.842175 328.691561 
L 215.965841 335.912445 
L 217.089507 344.130996 
L 218.213173 374.064472 
L 219.336839 388.465267 
L 220.460505 373.198818 
L 221.584171 407.550462 
L 222.707837 412.764247 
L 223.831502 404.247432 
L 224.955168 397.907305 
L 226.078834 382.89938 
L 228.326166 423.031162 
L 229.449832 362.452516 
L 230.573498 376.051374 
L 231.697164 410.913501 
L 232.82083 405.83818 
L 233.944496 300.390547 
L 235.068161 302.110481 
L 236.191827 341.583527 
L 237.315493 392.619979 
L 238.439159 373.808573 
L 239.562825 365.748356 
L 240.686491 347.93951 
L 241.810157 340.682083 
L 242.933823 324.34285 
L 244.057489 341.852147 
L 245.181155 350.57378 
L 246.30482 385.621895 
L 247.428486 408.902794 
L 248.552152 414.908474 
L 249.675818 412.931464 
L 250.799484 414.162268 
L 251.92315 407.248327 
L 253.046816 415.530605 
L 255.294148 384.530902 
L 256.417814 370.045624 
L 257.541479 380.974071 
L 258.665145 379.071844 
L 259.788811 373.684962 
L 260.912477 369.048857 
L 262.036143 354.959312 
L 263.159809 344.255612 
L 264.283475 325.133469 
L 265.407141 313.747299 
L 266.530807 338.302086 
L 267.654472 369.193637 
L 268.778138 407.102058 
L 269.901804 391.207145 
L 271.02547 423.318756 
L 272.149136 395.203427 
L 273.272802 383.670258 
L 274.396468 363.736379 
L 275.520134 299.14387 
L 276.6438 322.667601 
L 277.767466 337.485273 
L 278.891131 317.598521 
L 280.014797 355.633112 
L 281.138463 388.386188 
L 283.385795 354.506424 
L 284.509461 388.926816 
L 285.633127 391.87649 
L 286.756793 389.251235 
L 287.880459 355.525253 
L 289.004125 343.743932 
L 290.12779 378.806192 
L 291.251456 369.838655 
L 292.375122 359.542706 
L 293.498788 376.498895 
L 294.622454 370.290745 
L 295.74612 361.726661 
L 296.869786 385.611095 
L 297.993452 405.549016 
L 299.117118 430.947606 
L 300.240784 425.925247 
L 301.364449 411.950599 
L 302.488115 390.126197 
L 303.611781 396.874833 
L 304.735447 392.81277 
L 305.859113 359.649648 
L 306.982779 357.339569 
L 308.106445 373.893923 
L 309.230111 411.795422 
L 310.353777 385.389648 
L 312.601108 357.020117 
L 313.724774 332.676833 
L 314.84844 326.859946 
L 315.972106 327.011135 
L 317.095772 316.810906 
L 318.219438 311.334687 
L 319.343104 327.907675 
L 320.46677 340.306155 
L 320.46677 340.306155 
" style="fill:none;stroke:#1f77b4;stroke-linecap:square;stroke-width:1.5;"/>
   </g>
   <g id="patch_8">
    <path d="M 38.482813 457.198125 
L 38.482813 259.525398 
" style="fill:none;stroke:#000000;stroke-linecap:square;stroke-linejoin:miter;stroke-width:0.8;"/>
   </g>
   <g id="patch_9">
    <path d="M 333.894577 457.198125 
L 333.894577 259.525398 
" style="fill:none;stroke:#000000;stroke-linecap:square;stroke-linejoin:miter;stroke-width:0.8;"/>
   </g>
   <g id="patch_10">
    <path d="M 38.482813 457.198125 
L 333.894577 457.198125 
" style="fill:none;stroke:#000000;stroke-linecap:square;stroke-linejoin:miter;stroke-width:0.8;"/>
   </g>
   <g id="patch_11">
    <path d="M 38.482813 259.525398 
L 333.894577 259.525398 
" style="fill:none;stroke:#000000;stroke-linecap:square;stroke-linejoin:miter;stroke-width:0.8;"/>
   </g>
   <g id="text_25">
    <!-- p21 -->
    <g transform="translate(174.744632 253.525398)scale(0.12 -0.12)">
     <use xlink:href="#DejaVuSans-112"/>
     <use x="63.476562" xlink:href="#DejaVuSans-50"/>
     <use x="127.099609" xlink:href="#DejaVuSans-49"/>
    </g>
   </g>
  </g>
  <g id="axes_3">
   <g id="patch_12">
    <path d="M 392.97693 219.990852 
L 688.388695 219.990852 
L 688.388695 22.318125 
L 392.97693 22.318125 
z
" style="fill:#ffffff;"/>
   </g>
   <g id="matplotlib.axis_5">
    <g id="xtick_13">
     <g id="line2d_26">
      <g>
       <use style="stroke:#000000;stroke-width:0.8;" x="406.404738" xlink:href="#mee30af71fd" y="219.990852"/>
      </g>
     </g>
     <g id="text_26">
      <!-- 0 -->
      <g transform="translate(403.223488 234.58929)scale(0.1 -0.1)">
       <use xlink:href="#DejaVuSans-48"/>
      </g>
     </g>
    </g>
    <g id="xtick_14">
     <g id="line2d_27">
      <g>
       <use style="stroke:#000000;stroke-width:0.8;" x="462.588033" xlink:href="#mee30af71fd" y="219.990852"/>
      </g>
     </g>
     <g id="text_27">
      <!-- 50 -->
      <g transform="translate(456.225533 234.58929)scale(0.1 -0.1)">
       <use xlink:href="#DejaVuSans-53"/>
       <use x="63.623047" xlink:href="#DejaVuSans-48"/>
      </g>
     </g>
    </g>
    <g id="xtick_15">
     <g id="line2d_28">
      <g>
       <use style="stroke:#000000;stroke-width:0.8;" x="518.771327" xlink:href="#mee30af71fd" y="219.990852"/>
      </g>
     </g>
     <g id="text_28">
      <!-- 100 -->
      <g transform="translate(509.227577 234.58929)scale(0.1 -0.1)">
       <use xlink:href="#DejaVuSans-49"/>
       <use x="63.623047" xlink:href="#DejaVuSans-48"/>
       <use x="127.246094" xlink:href="#DejaVuSans-48"/>
      </g>
     </g>
    </g>
    <g id="xtick_16">
     <g id="line2d_29">
      <g>
       <use style="stroke:#000000;stroke-width:0.8;" x="574.954622" xlink:href="#mee30af71fd" y="219.990852"/>
      </g>
     </g>
     <g id="text_29">
      <!-- 150 -->
      <g transform="translate(565.410872 234.58929)scale(0.1 -0.1)">
       <use xlink:href="#DejaVuSans-49"/>
       <use x="63.623047" xlink:href="#DejaVuSans-53"/>
       <use x="127.246094" xlink:href="#DejaVuSans-48"/>
      </g>
     </g>
    </g>
    <g id="xtick_17">
     <g id="line2d_30">
      <g>
       <use style="stroke:#000000;stroke-width:0.8;" x="631.137917" xlink:href="#mee30af71fd" y="219.990852"/>
      </g>
     </g>
     <g id="text_30">
      <!-- 200 -->
      <g transform="translate(621.594167 234.58929)scale(0.1 -0.1)">
       <use xlink:href="#DejaVuSans-50"/>
       <use x="63.623047" xlink:href="#DejaVuSans-48"/>
       <use x="127.246094" xlink:href="#DejaVuSans-48"/>
      </g>
     </g>
    </g>
    <g id="xtick_18">
     <g id="line2d_31">
      <g>
       <use style="stroke:#000000;stroke-width:0.8;" x="687.321212" xlink:href="#mee30af71fd" y="219.990852"/>
      </g>
     </g>
     <g id="text_31">
      <!-- 250 -->
      <g transform="translate(677.777462 234.58929)scale(0.1 -0.1)">
       <use xlink:href="#DejaVuSans-50"/>
       <use x="63.623047" xlink:href="#DejaVuSans-53"/>
       <use x="127.246094" xlink:href="#DejaVuSans-48"/>
      </g>
     </g>
    </g>
    <g id="text_32">
     <!-- p53 -->
     <g transform="translate(531.146094 248.267415)scale(0.1 -0.1)">
      <use xlink:href="#DejaVuSans-112"/>
      <use x="63.476562" xlink:href="#DejaVuSans-53"/>
      <use x="127.099609" xlink:href="#DejaVuSans-51"/>
     </g>
    </g>
   </g>
   <g id="matplotlib.axis_6">
    <g id="ytick_12">
     <g id="line2d_32">
      <g>
       <use style="stroke:#000000;stroke-width:0.8;" x="392.97693" xlink:href="#m2fdce2fc10" y="211.005728"/>
      </g>
     </g>
     <g id="text_33">
      <!-- 0 -->
      <g transform="translate(379.61443 214.804947)scale(0.1 -0.1)">
       <use xlink:href="#DejaVuSans-48"/>
      </g>
     </g>
    </g>
    <g id="ytick_13">
     <g id="line2d_33">
      <g>
       <use style="stroke:#000000;stroke-width:0.8;" x="392.97693" xlink:href="#m2fdce2fc10" y="173.411067"/>
      </g>
     </g>
     <g id="text_34">
      <!-- 50 -->
      <g transform="translate(373.25193 177.210286)scale(0.1 -0.1)">
       <use xlink:href="#DejaVuSans-53"/>
       <use x="63.623047" xlink:href="#DejaVuSans-48"/>
      </g>
     </g>
    </g>
    <g id="ytick_14">
     <g id="line2d_34">
      <g>
       <use style="stroke:#000000;stroke-width:0.8;" x="392.97693" xlink:href="#m2fdce2fc10" y="135.816406"/>
      </g>
     </g>
     <g id="text_35">
      <!-- 100 -->
      <g transform="translate(366.88943 139.615625)scale(0.1 -0.1)">
       <use xlink:href="#DejaVuSans-49"/>
       <use x="63.623047" xlink:href="#DejaVuSans-48"/>
       <use x="127.246094" xlink:href="#DejaVuSans-48"/>
      </g>
     </g>
    </g>
    <g id="ytick_15">
     <g id="line2d_35">
      <g>
       <use style="stroke:#000000;stroke-width:0.8;" x="392.97693" xlink:href="#m2fdce2fc10" y="98.221745"/>
      </g>
     </g>
     <g id="text_36">
      <!-- 150 -->
      <g transform="translate(366.88943 102.020964)scale(0.1 -0.1)">
       <use xlink:href="#DejaVuSans-49"/>
       <use x="63.623047" xlink:href="#DejaVuSans-53"/>
       <use x="127.246094" xlink:href="#DejaVuSans-48"/>
      </g>
     </g>
    </g>
    <g id="ytick_16">
     <g id="line2d_36">
      <g>
       <use style="stroke:#000000;stroke-width:0.8;" x="392.97693" xlink:href="#m2fdce2fc10" y="60.627085"/>
      </g>
     </g>
     <g id="text_37">
      <!-- 200 -->
      <g transform="translate(366.88943 64.426303)scale(0.1 -0.1)">
       <use xlink:href="#DejaVuSans-50"/>
       <use x="63.623047" xlink:href="#DejaVuSans-48"/>
       <use x="127.246094" xlink:href="#DejaVuSans-48"/>
      </g>
     </g>
    </g>
    <g id="ytick_17">
     <g id="line2d_37">
      <g>
       <use style="stroke:#000000;stroke-width:0.8;" x="392.97693" xlink:href="#m2fdce2fc10" y="23.032424"/>
      </g>
     </g>
     <g id="text_38">
      <!-- 250 -->
      <g transform="translate(366.88943 26.831642)scale(0.1 -0.1)">
       <use xlink:href="#DejaVuSans-50"/>
       <use x="63.623047" xlink:href="#DejaVuSans-53"/>
       <use x="127.246094" xlink:href="#DejaVuSans-48"/>
      </g>
     </g>
    </g>
    <g id="text_39">
     <!-- p21 -->
     <g transform="translate(360.809743 130.691207)rotate(-90)scale(0.1 -0.1)">
      <use xlink:href="#DejaVuSans-112"/>
      <use x="63.476562" xlink:href="#DejaVuSans-50"/>
      <use x="127.099609" xlink:href="#DejaVuSans-49"/>
     </g>
    </g>
   </g>
   <g id="line2d_38">
    <path clip-path="url(#p5efd56f2e0)" d="M 406.404738 211.005728 
L 408.652069 211.005728 
L 410.899401 209.501942 
L 414.270399 209.501942 
L 415.394065 208.750049 
L 415.394065 207.246262 
L 416.517731 206.494369 
L 419.888728 206.494369 
L 421.012394 205.742476 
L 421.012394 204.990583 
L 423.259726 203.486796 
L 424.383392 203.486796 
L 425.507058 202.734903 
L 425.507058 199.72733 
L 426.630724 198.975437 
L 428.878056 198.975437 
L 430.001722 198.223544 
L 430.001722 197.47165 
L 432.249053 195.967864 
L 434.496385 195.967864 
L 438.991049 192.960291 
L 440.114715 192.960291 
L 441.23838 192.208398 
L 441.23838 191.456505 
L 442.362046 190.704611 
L 442.362046 189.952718 
L 444.609378 188.448932 
L 445.733044 188.448932 
L 449.104042 186.193252 
L 449.104042 185.441359 
L 467.082696 173.411067 
L 467.082696 167.395922 
L 468.206362 166.644028 
L 468.206362 165.892135 
L 470.453694 164.388349 
L 470.453694 163.636456 
L 471.57736 162.884562 
L 471.57736 162.132669 
L 476.072023 159.125096 
L 477.195689 159.125096 
L 491.803346 149.350484 
L 492.927012 149.350484 
L 496.29801 147.094805 
L 496.29801 145.591018 
L 497.421675 144.839125 
L 497.421675 143.335339 
L 498.545341 142.583445 
L 500.792673 142.583445 
L 503.040005 141.079659 
L 503.040005 140.327766 
L 505.287337 138.823979 
L 508.658334 138.823979 
L 509.782 138.072086 
L 509.782 136.5683 
L 512.029332 135.064513 
L 515.40033 135.064513 
L 517.647662 133.560727 
L 518.771327 133.560727 
L 521.018659 132.05694 
L 522.142325 132.05694 
L 523.265991 131.305047 
L 523.265991 127.545581 
L 524.389657 126.793688 
L 530.007986 126.793688 
L 533.378984 124.538008 
L 535.626316 124.538008 
L 536.749982 123.786115 
L 536.749982 120.026649 
L 543.491977 115.515289 
L 544.615643 115.515289 
L 545.739309 114.763396 
L 545.739309 113.25961 
L 546.862975 112.507717 
L 552.481304 112.507717 
L 553.60497 111.755823 
L 553.60497 109.500144 
L 554.728636 108.748251 
L 555.852302 108.748251 
L 558.099634 107.244464 
L 558.099634 105.740678 
L 560.346966 104.236891 
L 560.346966 101.981212 
L 563.717963 99.725532 
L 563.717963 98.221745 
L 565.965295 96.717959 
L 568.212627 96.717959 
L 570.459959 95.214173 
L 570.459959 92.958493 
L 571.583625 92.2066 
L 579.449286 92.2066 
L 580.572952 91.454706 
L 585.067615 91.454706 
L 590.685945 87.69524 
L 594.056943 87.69524 
L 595.180609 86.943347 
L 603.04627 86.943347 
L 607.540933 83.935774 
L 608.664599 83.935774 
L 609.788265 83.183881 
L 613.159263 83.183881 
L 614.282929 82.431988 
L 614.282929 81.680095 
L 617.653927 79.424415 
L 618.777592 79.424415 
L 619.901258 78.672522 
L 619.901258 76.416842 
L 622.14859 74.913056 
L 622.14859 71.15359 
L 623.272256 70.401696 
L 623.272256 68.89791 
L 627.76692 65.890337 
L 627.76692 65.138444 
L 628.890586 64.386551 
L 631.137917 64.386551 
L 632.261583 63.634657 
L 632.261583 62.882764 
L 634.508915 61.378978 
L 634.508915 59.875191 
L 635.632581 59.123298 
L 636.756247 59.123298 
L 639.003579 57.619512 
L 639.003579 56.115725 
L 641.25091 54.611939 
L 646.86924 54.611939 
L 650.240238 52.356259 
L 654.734901 52.356259 
L 655.858567 51.604366 
L 655.858567 47.093007 
L 660.353231 44.085434 
L 660.353231 41.829754 
L 661.476897 41.077861 
L 661.476897 36.566501 
L 663.724228 35.062715 
L 663.724228 33.558929 
L 667.095226 31.303249 
L 674.960887 31.303249 
L 674.960887 31.303249 
" style="fill:none;stroke:#1f77b4;stroke-linecap:square;stroke-width:1.5;"/>
   </g>
   <g id="patch_13">
    <path d="M 392.97693 219.990852 
L 392.97693 22.318125 
" style="fill:none;stroke:#000000;stroke-linecap:square;stroke-linejoin:miter;stroke-width:0.8;"/>
   </g>
   <g id="patch_14">
    <path d="M 688.388695 219.990852 
L 688.388695 22.318125 
" style="fill:none;stroke:#000000;stroke-linecap:square;stroke-linejoin:miter;stroke-width:0.8;"/>
   </g>
   <g id="patch_15">
    <path d="M 392.97693 219.990852 
L 688.388695 219.990852 
" style="fill:none;stroke:#000000;stroke-linecap:square;stroke-linejoin:miter;stroke-width:0.8;"/>
   </g>
   <g id="patch_16">
    <path d="M 392.97693 22.318125 
L 688.388695 22.318125 
" style="fill:none;stroke:#000000;stroke-linecap:square;stroke-linejoin:miter;stroke-width:0.8;"/>
   </g>
  </g>
  <g id="axes_4">
   <g id="patch_17">
    <path d="M 392.97693 457.198125 
L 688.388695 457.198125 
L 688.388695 259.525398 
L 392.97693 259.525398 
z
" style="fill:#ffffff;"/>
   </g>
   <g id="matplotlib.axis_7">
    <g id="xtick_19">
     <g id="line2d_39">
      <g>
       <use style="stroke:#000000;stroke-width:0.8;" x="406.404738" xlink:href="#mee30af71fd" y="457.198125"/>
      </g>
     </g>
     <g id="text_40">
      <!-- 0 -->
      <g transform="translate(403.223488 471.796562)scale(0.1 -0.1)">
       <use xlink:href="#DejaVuSans-48"/>
      </g>
     </g>
    </g>
    <g id="xtick_20">
     <g id="line2d_40">
      <g>
       <use style="stroke:#000000;stroke-width:0.8;" x="447.468369" xlink:href="#mee30af71fd" y="457.198125"/>
      </g>
     </g>
     <g id="text_41">
      <!-- 50 -->
      <g transform="translate(441.105869 471.796562)scale(0.1 -0.1)">
       <use xlink:href="#DejaVuSans-53"/>
       <use x="63.623047" xlink:href="#DejaVuSans-48"/>
      </g>
     </g>
    </g>
    <g id="xtick_21">
     <g id="line2d_41">
      <g>
       <use style="stroke:#000000;stroke-width:0.8;" x="488.532001" xlink:href="#mee30af71fd" y="457.198125"/>
      </g>
     </g>
     <g id="text_42">
      <!-- 100 -->
      <g transform="translate(478.988251 471.796562)scale(0.1 -0.1)">
       <use xlink:href="#DejaVuSans-49"/>
       <use x="63.623047" xlink:href="#DejaVuSans-48"/>
       <use x="127.246094" xlink:href="#DejaVuSans-48"/>
      </g>
     </g>
    </g>
    <g id="xtick_22">
     <g id="line2d_42">
      <g>
       <use style="stroke:#000000;stroke-width:0.8;" x="529.595632" xlink:href="#mee30af71fd" y="457.198125"/>
      </g>
     </g>
     <g id="text_43">
      <!-- 150 -->
      <g transform="translate(520.051882 471.796562)scale(0.1 -0.1)">
       <use xlink:href="#DejaVuSans-49"/>
       <use x="63.623047" xlink:href="#DejaVuSans-53"/>
       <use x="127.246094" xlink:href="#DejaVuSans-48"/>
      </g>
     </g>
    </g>
    <g id="xtick_23">
     <g id="line2d_43">
      <g>
       <use style="stroke:#000000;stroke-width:0.8;" x="570.659263" xlink:href="#mee30af71fd" y="457.198125"/>
      </g>
     </g>
     <g id="text_44">
      <!-- 200 -->
      <g transform="translate(561.115513 471.796562)scale(0.1 -0.1)">
       <use xlink:href="#DejaVuSans-50"/>
       <use x="63.623047" xlink:href="#DejaVuSans-48"/>
       <use x="127.246094" xlink:href="#DejaVuSans-48"/>
      </g>
     </g>
    </g>
    <g id="xtick_24">
     <g id="line2d_44">
      <g>
       <use style="stroke:#000000;stroke-width:0.8;" x="611.722895" xlink:href="#mee30af71fd" y="457.198125"/>
      </g>
     </g>
     <g id="text_45">
      <!-- 250 -->
      <g transform="translate(602.179145 471.796562)scale(0.1 -0.1)">
       <use xlink:href="#DejaVuSans-50"/>
       <use x="63.623047" xlink:href="#DejaVuSans-53"/>
       <use x="127.246094" xlink:href="#DejaVuSans-48"/>
      </g>
     </g>
    </g>
    <g id="xtick_25">
     <g id="line2d_45">
      <g>
       <use style="stroke:#000000;stroke-width:0.8;" x="652.786526" xlink:href="#mee30af71fd" y="457.198125"/>
      </g>
     </g>
     <g id="text_46">
      <!-- 300 -->
      <g transform="translate(643.242776 471.796562)scale(0.1 -0.1)">
       <use xlink:href="#DejaVuSans-51"/>
       <use x="63.623047" xlink:href="#DejaVuSans-48"/>
       <use x="127.246094" xlink:href="#DejaVuSans-48"/>
      </g>
     </g>
    </g>
   </g>
   <g id="matplotlib.axis_8">
    <g id="ytick_18">
     <g id="line2d_46">
      <g>
       <use style="stroke:#000000;stroke-width:0.8;" x="392.97693" xlink:href="#m2fdce2fc10" y="429.314014"/>
      </g>
     </g>
     <g id="text_47">
      <!-- −0.4 -->
      <g transform="translate(361.694118 433.113232)scale(0.1 -0.1)">
       <use xlink:href="#DejaVuSans-8722"/>
       <use x="83.789062" xlink:href="#DejaVuSans-48"/>
       <use x="147.412109" xlink:href="#DejaVuSans-46"/>
       <use x="179.199219" xlink:href="#DejaVuSans-52"/>
      </g>
     </g>
    </g>
    <g id="ytick_19">
     <g id="line2d_47">
      <g>
       <use style="stroke:#000000;stroke-width:0.8;" x="392.97693" xlink:href="#m2fdce2fc10" y="400.90891"/>
      </g>
     </g>
     <g id="text_48">
      <!-- −0.2 -->
      <g transform="translate(361.694118 404.708129)scale(0.1 -0.1)">
       <use xlink:href="#DejaVuSans-8722"/>
       <use x="83.789062" xlink:href="#DejaVuSans-48"/>
       <use x="147.412109" xlink:href="#DejaVuSans-46"/>
       <use x="179.199219" xlink:href="#DejaVuSans-50"/>
      </g>
     </g>
    </g>
    <g id="ytick_20">
     <g id="line2d_48">
      <g>
       <use style="stroke:#000000;stroke-width:0.8;" x="392.97693" xlink:href="#m2fdce2fc10" y="372.503807"/>
      </g>
     </g>
     <g id="text_49">
      <!-- 0.0 -->
      <g transform="translate(370.073805 376.303026)scale(0.1 -0.1)">
       <use xlink:href="#DejaVuSans-48"/>
       <use x="63.623047" xlink:href="#DejaVuSans-46"/>
       <use x="95.410156" xlink:href="#DejaVuSans-48"/>
      </g>
     </g>
    </g>
    <g id="ytick_21">
     <g id="line2d_49">
      <g>
       <use style="stroke:#000000;stroke-width:0.8;" x="392.97693" xlink:href="#m2fdce2fc10" y="344.098704"/>
      </g>
     </g>
     <g id="text_50">
      <!-- 0.2 -->
      <g transform="translate(370.073805 347.897922)scale(0.1 -0.1)">
       <use xlink:href="#DejaVuSans-48"/>
       <use x="63.623047" xlink:href="#DejaVuSans-46"/>
       <use x="95.410156" xlink:href="#DejaVuSans-50"/>
      </g>
     </g>
    </g>
    <g id="ytick_22">
     <g id="line2d_50">
      <g>
       <use style="stroke:#000000;stroke-width:0.8;" x="392.97693" xlink:href="#m2fdce2fc10" y="315.6936"/>
      </g>
     </g>
     <g id="text_51">
      <!-- 0.4 -->
      <g transform="translate(370.073805 319.492819)scale(0.1 -0.1)">
       <use xlink:href="#DejaVuSans-48"/>
       <use x="63.623047" xlink:href="#DejaVuSans-46"/>
       <use x="95.410156" xlink:href="#DejaVuSans-52"/>
      </g>
     </g>
    </g>
    <g id="ytick_23">
     <g id="line2d_51">
      <g>
       <use style="stroke:#000000;stroke-width:0.8;" x="392.97693" xlink:href="#m2fdce2fc10" y="287.288497"/>
      </g>
     </g>
     <g id="text_52">
      <!-- 0.6 -->
      <g transform="translate(370.073805 291.087716)scale(0.1 -0.1)">
       <use xlink:href="#DejaVuSans-48"/>
       <use x="63.623047" xlink:href="#DejaVuSans-46"/>
       <use x="95.410156" xlink:href="#DejaVuSans-54"/>
      </g>
     </g>
    </g>
   </g>
   <g id="line2d_52">
    <path clip-path="url(#p0565ce9c77)" d="M 406.404738 369.530028 
L 407.22601 325.576559 
L 408.047283 301.754984 
L 408.868556 356.920255 
L 409.689828 419.954732 
L 410.511101 423.348542 
L 411.332373 420.55335 
L 412.153646 413.089565 
L 412.974919 392.706486 
L 414.617464 392.706486 
L 415.438737 362.11288 
L 416.260009 326.678299 
L 417.081282 309.880394 
L 417.902554 353.026818 
L 418.723827 408.743981 
L 419.5451 408.743981 
L 420.366372 418.487555 
L 421.187645 411.654326 
L 422.008918 391.343849 
L 422.83019 353.180989 
L 426.115281 353.180989 
L 426.936553 333.444593 
L 427.757826 305.700429 
L 428.579099 311.452732 
L 429.400371 363.544588 
L 430.221644 363.544588 
L 431.042917 414.331401 
L 431.864189 423.99917 
L 432.685462 421.767418 
L 433.506734 415.085145 
L 434.328007 387.168727 
L 435.14928 367.1968 
L 435.970552 332.532525 
L 436.791825 309.09558 
L 437.613098 308.442988 
L 438.43437 339.654924 
L 439.255643 339.654924 
L 440.076915 374.400397 
L 440.898188 374.400397 
L 441.719461 416.304824 
L 442.540733 424.247465 
L 443.362006 416.741763 
L 444.183279 397.891709 
L 445.825824 343.569753 
L 446.647096 343.569753 
L 447.468369 311.88371 
L 448.289642 299.264446 
L 449.932187 418.545746 
L 450.75346 423.254994 
L 451.574732 416.77097 
L 452.396005 400.039048 
L 453.217277 372.011498 
L 454.03855 348.581709 
L 454.859823 314.764862 
L 455.681095 321.477817 
L 456.502368 382.03681 
L 457.323641 415.614382 
L 458.144913 417.701016 
L 458.966186 399.173289 
L 459.787459 368.500163 
L 466.35764 368.500163 
L 467.178912 334.72233 
L 468.000185 334.72233 
L 468.821457 299.898485 
L 469.64273 328.290918 
L 470.464003 328.290918 
L 471.285275 401.917419 
L 472.106548 401.917419 
L 472.927821 419.558946 
L 473.749093 418.85674 
L 474.570366 415.236891 
L 476.212911 392.628711 
L 477.034184 371.994706 
L 477.855456 342.833426 
L 478.676729 307.02016 
L 479.498002 296.333056 
L 480.319274 352.348943 
L 481.140547 397.934539 
L 481.96182 412.610392 
L 482.783092 417.206802 
L 483.604365 415.761145 
L 484.425637 407.638321 
L 485.24691 391.813726 
L 487.710728 315.844954 
L 488.532001 302.400995 
L 489.353273 307.023541 
L 490.174546 356.64856 
L 491.817091 356.64856 
L 492.638364 412.106542 
L 494.280909 412.106542 
L 495.102182 425.4777 
L 495.923454 418.681311 
L 496.744727 419.523177 
L 497.565999 405.74913 
L 498.387272 379.619134 
L 499.208545 379.619134 
L 500.85109 325.031426 
L 501.672363 314.888448 
L 502.493635 329.177971 
L 503.314908 356.223286 
L 504.136181 373.526907 
L 505.778726 373.526907 
L 506.599998 402.941702 
L 507.421271 423.590011 
L 508.242544 431.201941 
L 509.885089 408.9983 
L 510.706362 387.833056 
L 511.527634 371.633469 
L 512.348907 358.208191 
L 513.991452 305.376357 
L 514.812725 317.933892 
L 515.633997 339.321809 
L 519.74036 339.321809 
L 521.382906 364.891568 
L 522.204178 354.871175 
L 523.025451 356.957854 
L 523.846724 371.785318 
L 525.489269 352.475024 
L 527.131814 401.749331 
L 527.953087 416.521504 
L 528.774359 409.111338 
L 529.595632 378.547999 
L 533.701995 378.547999 
L 534.523268 345.366927 
L 535.34454 330.386872 
L 536.165813 360.177538 
L 536.987086 402.104697 
L 537.808358 438.024759 
L 538.629631 434.432889 
L 539.450904 403.475707 
L 540.272176 383.212728 
L 541.914721 383.212728 
L 543.557267 348.77797 
L 544.378539 334.600596 
L 545.199812 317.973463 
L 546.021085 320.969493 
L 547.66363 398.14868 
L 550.127448 398.14868 
L 550.94872 431.451866 
L 551.769993 430.376906 
L 552.591266 414.815063 
L 553.412538 390.310649 
L 555.055084 390.310649 
L 555.876356 362.41811 
L 556.697629 324.326243 
L 559.161447 324.326243 
L 559.982719 297.93371 
L 560.803992 310.209628 
L 561.625265 374.439107 
L 563.26781 374.439107 
L 564.089082 417.093414 
L 564.910355 417.464916 
L 565.731628 423.747163 
L 567.374173 407.378983 
L 568.195446 391.582453 
L 570.659263 391.582453 
L 571.480536 376.926223 
L 573.123081 359.40122 
L 573.944354 357.399372 
L 574.765627 379.959345 
L 575.586899 373.650943 
L 576.408172 363.390799 
L 577.229444 359.048356 
L 578.050717 369.37631 
L 578.87199 381.785718 
L 579.693262 398.184544 
L 580.514535 368.530862 
L 581.335808 360.521358 
L 582.15708 371.377415 
L 582.978353 359.874016 
L 583.799626 295.156985 
L 585.442171 329.818866 
L 586.263443 341.812714 
L 587.084716 342.711168 
L 587.905989 366.567021 
L 589.548534 404.049898 
L 591.191079 422.527074 
L 592.012352 423.078148 
L 592.833624 418.246574 
L 593.654897 409.910829 
L 596.939988 347.699202 
L 597.76126 342.886521 
L 598.582533 333.826874 
L 599.403805 328.646335 
L 600.225078 320.941756 
L 601.046351 330.368019 
L 601.867623 328.985284 
L 602.688896 343.523922 
L 603.510169 343.523922 
L 605.152714 415.493492 
L 605.973987 424.009772 
L 606.795259 422.273825 
L 607.616532 411.936198 
L 610.08035 411.936198 
L 610.901622 404.093122 
L 611.722895 374.557945 
L 615.829258 374.557945 
L 616.650531 336.036461 
L 618.293076 336.036461 
L 619.114349 312.587307 
L 619.935621 329.751834 
L 620.756894 359.68118 
L 621.578166 400.641592 
L 622.399439 400.641592 
L 623.220712 422.754298 
L 624.041984 424.890036 
L 624.863257 417.458196 
L 625.68453 392.138474 
L 626.505802 392.138474 
L 628.148348 328.637775 
L 629.790893 328.637775 
L 630.612165 301.009966 
L 631.433438 306.644123 
L 633.075983 381.806616 
L 634.718529 381.806616 
L 635.539801 385.262915 
L 636.361074 390.930761 
L 637.182346 399.003614 
L 638.003619 410.536799 
L 638.824892 423.933059 
L 639.646164 425.452052 
L 640.467437 410.610385 
L 641.28871 389.7714 
L 642.931255 322.858683 
L 643.752527 309.780012 
L 644.5738 317.734815 
L 646.216345 343.659518 
L 647.037618 371.031292 
L 651.965254 371.031292 
L 652.786526 403.231997 
L 653.607799 426.202357 
L 654.429072 427.062957 
L 655.250344 404.490665 
L 657.714162 404.490665 
L 658.535435 370.284174 
L 663.463071 370.284174 
L 664.284343 341.09447 
L 665.105616 322.328209 
L 666.748161 322.328209 
L 667.569434 323.673955 
L 668.390706 330.350513 
L 669.211979 352.072777 
L 670.033252 399.11295 
L 670.854524 431.852439 
L 671.675797 432.339481 
L 673.318342 413.999361 
L 674.139615 401.343317 
L 674.960887 394.517675 
L 674.960887 394.517675 
" style="fill:none;stroke:#1f77b4;stroke-linecap:square;stroke-width:1.5;"/>
   </g>
   <g id="line2d_53">
    <path clip-path="url(#p0565ce9c77)" d="M 406.404738 341.903165 
L 408.047283 341.903165 
L 408.868556 386.739056 
L 409.689828 408.949275 
L 412.153646 408.949275 
L 412.974919 399.09832 
L 413.796191 384.96877 
L 414.617464 381.053346 
L 415.438737 367.333304 
L 417.902554 367.333304 
L 418.723827 389.512044 
L 419.5451 384.925559 
L 420.366372 448.213001 
L 421.187645 395.300529 
L 422.008918 395.300529 
L 422.83019 345.44743 
L 423.651463 383.096262 
L 424.472735 366.767284 
L 425.294008 360.294963 
L 426.115281 384.108605 
L 426.936553 336.637931 
L 428.579099 336.637931 
L 429.400371 373.311815 
L 430.221644 383.922262 
L 431.042917 396.799714 
L 431.864189 406.849654 
L 433.506734 406.849654 
L 435.14928 363.236559 
L 435.970552 335.925949 
L 436.791825 326.076309 
L 437.613098 326.076309 
L 438.43437 355.657025 
L 439.255643 325.127195 
L 440.076915 381.51264 
L 440.898188 386.193176 
L 441.719461 407.822589 
L 442.540733 420.207522 
L 443.362006 420.207522 
L 444.183279 406.978274 
L 445.004551 365.31572 
L 445.825824 353.793443 
L 446.647096 338.54166 
L 447.468369 319.622536 
L 448.289642 328.439032 
L 449.110914 349.751681 
L 449.932187 408.926727 
L 450.75346 421.715176 
L 451.574732 416.813544 
L 452.396005 393.412202 
L 453.217277 375.843108 
L 454.03855 340.465063 
L 454.859823 348.723619 
L 455.681095 358.922437 
L 457.323641 399.207656 
L 458.144913 405.641814 
L 458.966186 405.225682 
L 459.787459 381.430008 
L 460.608731 366.847137 
L 461.430004 360.588179 
L 462.251276 355.544103 
L 463.072549 362.060577 
L 463.893822 372.545645 
L 464.715094 377.050464 
L 465.536367 385.551329 
L 466.35764 362.686419 
L 467.178912 349.369589 
L 468.000185 319.108958 
L 468.821457 315.014081 
L 469.64273 329.422699 
L 470.464003 356.878574 
L 471.285275 394.087235 
L 472.106548 408.957557 
L 472.927821 415.909194 
L 473.749093 423.991644 
L 474.570366 420.061602 
L 475.391638 392.138594 
L 476.212911 392.138594 
L 477.034184 352.605575 
L 477.855456 320.824423 
L 478.676729 313.631028 
L 479.498002 322.543404 
L 480.319274 336.864051 
L 481.140547 375.7973 
L 481.96182 404.822814 
L 482.783092 415.882506 
L 483.604365 418.860072 
L 484.425637 404.495123 
L 485.24691 400.246643 
L 486.068183 384.088274 
L 486.889455 338.361523 
L 487.710728 338.361523 
L 488.532001 268.510522 
L 489.353273 330.98854 
L 490.174546 338.480242 
L 490.995818 362.106507 
L 491.817091 381.694159 
L 493.459636 416.292667 
L 494.280909 411.038839 
L 495.102182 420.813459 
L 496.744727 420.813459 
L 497.565999 414.973915 
L 498.387272 383.009188 
L 499.208545 376.385991 
L 500.029817 351.521294 
L 500.85109 347.57856 
L 503.314908 347.57856 
L 504.136181 394.937131 
L 505.778726 346.200385 
L 506.599998 404.351858 
L 507.421271 404.918409 
L 509.885089 404.918409 
L 510.706362 385.948961 
L 511.527634 376.402298 
L 512.348907 376.402298 
L 513.170179 328.013345 
L 513.991452 319.093232 
L 514.812725 319.093232 
L 515.633997 355.981974 
L 516.45527 362.604595 
L 517.276543 346.249283 
L 518.097815 340.66146 
L 518.919088 331.251223 
L 519.74036 318.249156 
L 520.561633 358.425196 
L 524.667996 358.425196 
L 525.489269 351.340703 
L 526.310541 374.835013 
L 527.131814 383.499088 
L 528.774359 383.499088 
L 529.595632 374.971957 
L 530.416905 378.35534 
L 531.238177 373.919498 
L 532.05945 375.70394 
L 532.880723 374.203415 
L 533.701995 382.224185 
L 534.523268 357.941457 
L 535.34454 346.695544 
L 536.165813 376.971874 
L 536.987086 383.280178 
L 537.808358 386.454406 
L 538.629631 394.731042 
L 539.450904 394.731042 
L 540.272176 386.879873 
L 541.093449 377.288405 
L 541.914721 390.503592 
L 542.735994 351.135677 
L 546.842357 351.135677 
L 547.66363 403.476507 
L 548.484902 423.861768 
L 549.306175 380.536392 
L 550.127448 384.031824 
L 550.94872 431.724469 
L 551.769993 431.724469 
L 553.412538 388.144435 
L 554.233811 395.70169 
L 555.876356 356.215963 
L 556.697629 315.214439 
L 557.518901 308.968463 
L 558.340174 322.762434 
L 559.161447 328.691561 
L 559.982719 335.912445 
L 560.803992 344.130996 
L 561.625265 374.064472 
L 562.446537 388.465267 
L 563.26781 373.198818 
L 564.089082 407.550462 
L 564.910355 412.764247 
L 566.5529 412.764247 
L 567.374173 404.247432 
L 568.195446 397.907305 
L 569.016718 382.89938 
L 570.659263 423.031162 
L 571.480536 362.452516 
L 577.229444 362.452516 
L 578.050717 376.051374 
L 581.335808 376.051374 
L 582.15708 410.913501 
L 582.978353 405.83818 
L 583.799626 300.390547 
L 584.620898 302.110481 
L 585.442171 341.583527 
L 587.905989 341.583527 
L 588.727261 392.619979 
L 594.47617 392.619979 
L 595.297442 373.808573 
L 596.118715 365.748356 
L 596.939988 347.93951 
L 597.76126 340.682083 
L 598.582533 340.682083 
L 599.403805 324.34285 
L 601.867623 324.34285 
L 602.688896 341.852147 
L 603.510169 350.57378 
L 604.331441 385.621895 
L 605.152714 408.902794 
L 605.973987 414.908474 
L 606.795259 414.908474 
L 607.616532 412.931464 
L 608.437804 414.162268 
L 609.259077 407.248327 
L 610.08035 415.530605 
L 611.722895 384.530902 
L 612.544168 370.045624 
L 613.36544 380.974071 
L 614.186713 379.071844 
L 615.007985 373.684962 
L 615.829258 369.048857 
L 616.650531 354.959312 
L 617.471803 344.255612 
L 618.293076 325.133469 
L 619.114349 313.747299 
L 619.935621 338.302086 
L 620.756894 369.193637 
L 621.578166 407.102058 
L 622.399439 391.207145 
L 623.220712 423.318756 
L 624.863257 423.318756 
L 625.68453 395.203427 
L 626.505802 383.670258 
L 627.327075 363.736379 
L 628.148348 299.14387 
L 628.96962 322.667601 
L 629.790893 337.485273 
L 630.612165 317.598521 
L 631.433438 317.598521 
L 632.254711 355.633112 
L 633.075983 388.386188 
L 634.718529 354.506424 
L 635.539801 388.926816 
L 636.361074 391.87649 
L 640.467437 391.87649 
L 641.28871 389.251235 
L 642.109982 355.525253 
L 642.931255 343.743932 
L 646.216345 343.743932 
L 647.037618 378.806192 
L 647.858891 369.838655 
L 648.680163 359.542706 
L 649.501436 376.498895 
L 650.322708 370.290745 
L 651.143981 361.726661 
L 651.965254 385.611095 
L 652.786526 405.549016 
L 653.607799 430.947606 
L 654.429072 425.925247 
L 655.250344 411.950599 
L 656.071617 390.126197 
L 656.89289 396.874833 
L 657.714162 392.81277 
L 658.535435 359.649648 
L 659.356707 357.339569 
L 660.17798 373.893923 
L 660.999253 411.795422 
L 661.820525 385.389648 
L 663.463071 357.020117 
L 664.284343 332.676833 
L 665.105616 326.859946 
L 665.926888 327.011135 
L 666.748161 316.810906 
L 667.569434 311.334687 
L 668.390706 327.907675 
L 669.211979 340.306155 
L 674.960887 340.306155 
L 674.960887 340.306155 
" style="fill:none;stroke:#ff7f0e;stroke-linecap:square;stroke-width:1.5;"/>
   </g>
   <g id="patch_18">
    <path d="M 392.97693 457.198125 
L 392.97693 259.525398 
" style="fill:none;stroke:#000000;stroke-linecap:square;stroke-linejoin:miter;stroke-width:0.8;"/>
   </g>
   <g id="patch_19">
    <path d="M 688.388695 457.198125 
L 688.388695 259.525398 
" style="fill:none;stroke:#000000;stroke-linecap:square;stroke-linejoin:miter;stroke-width:0.8;"/>
   </g>
   <g id="patch_20">
    <path d="M 392.97693 457.198125 
L 688.388695 457.198125 
" style="fill:none;stroke:#000000;stroke-linecap:square;stroke-linejoin:miter;stroke-width:0.8;"/>
   </g>
   <g id="patch_21">
    <path d="M 392.97693 259.525398 
L 688.388695 259.525398 
" style="fill:none;stroke:#000000;stroke-linecap:square;stroke-linejoin:miter;stroke-width:0.8;"/>
   </g>
   <g id="text_53">
    <!-- Aligned -->
    <g transform="translate(518.132187 253.525398)scale(0.12 -0.12)">
     <defs>
      <path d="M 34.1875 63.1875 
L 20.796875 26.90625 
L 47.609375 26.90625 
z
M 28.609375 72.90625 
L 39.796875 72.90625 
L 67.578125 0 
L 57.328125 0 
L 50.6875 18.703125 
L 17.828125 18.703125 
L 11.1875 0 
L 0.78125 0 
z
" id="DejaVuSans-65"/>
      <path d="M 9.421875 75.984375 
L 18.40625 75.984375 
L 18.40625 0 
L 9.421875 0 
z
" id="DejaVuSans-108"/>
      <path d="M 9.421875 54.6875 
L 18.40625 54.6875 
L 18.40625 0 
L 9.421875 0 
z
M 9.421875 75.984375 
L 18.40625 75.984375 
L 18.40625 64.59375 
L 9.421875 64.59375 
z
" id="DejaVuSans-105"/>
      <path d="M 45.40625 27.984375 
Q 45.40625 37.75 41.375 43.109375 
Q 37.359375 48.484375 30.078125 48.484375 
Q 22.859375 48.484375 18.828125 43.109375 
Q 14.796875 37.75 14.796875 27.984375 
Q 14.796875 18.265625 18.828125 12.890625 
Q 22.859375 7.515625 30.078125 7.515625 
Q 37.359375 7.515625 41.375 12.890625 
Q 45.40625 18.265625 45.40625 27.984375 
z
M 54.390625 6.78125 
Q 54.390625 -7.171875 48.1875 -13.984375 
Q 42 -20.796875 29.203125 -20.796875 
Q 24.46875 -20.796875 20.265625 -20.09375 
Q 16.0625 -19.390625 12.109375 -17.921875 
L 12.109375 -9.1875 
Q 16.0625 -11.328125 19.921875 -12.34375 
Q 23.78125 -13.375 27.78125 -13.375 
Q 36.625 -13.375 41.015625 -8.765625 
Q 45.40625 -4.15625 45.40625 5.171875 
L 45.40625 9.625 
Q 42.625 4.78125 38.28125 2.390625 
Q 33.9375 0 27.875 0 
Q 17.828125 0 11.671875 7.65625 
Q 5.515625 15.328125 5.515625 27.984375 
Q 5.515625 40.671875 11.671875 48.328125 
Q 17.828125 56 27.875 56 
Q 33.9375 56 38.28125 53.609375 
Q 42.625 51.21875 45.40625 46.390625 
L 45.40625 54.6875 
L 54.390625 54.6875 
z
" id="DejaVuSans-103"/>
      <path d="M 54.890625 33.015625 
L 54.890625 0 
L 45.90625 0 
L 45.90625 32.71875 
Q 45.90625 40.484375 42.875 44.328125 
Q 39.84375 48.1875 33.796875 48.1875 
Q 26.515625 48.1875 22.3125 43.546875 
Q 18.109375 38.921875 18.109375 30.90625 
L 18.109375 0 
L 9.078125 0 
L 9.078125 54.6875 
L 18.109375 54.6875 
L 18.109375 46.1875 
Q 21.34375 51.125 25.703125 53.5625 
Q 30.078125 56 35.796875 56 
Q 45.21875 56 50.046875 50.171875 
Q 54.890625 44.34375 54.890625 33.015625 
z
" id="DejaVuSans-110"/>
      <path d="M 56.203125 29.59375 
L 56.203125 25.203125 
L 14.890625 25.203125 
Q 15.484375 15.921875 20.484375 11.0625 
Q 25.484375 6.203125 34.421875 6.203125 
Q 39.59375 6.203125 44.453125 7.46875 
Q 49.3125 8.734375 54.109375 11.28125 
L 54.109375 2.78125 
Q 49.265625 0.734375 44.1875 -0.34375 
Q 39.109375 -1.421875 33.890625 -1.421875 
Q 20.796875 -1.421875 13.15625 6.1875 
Q 5.515625 13.8125 5.515625 26.8125 
Q 5.515625 40.234375 12.765625 48.109375 
Q 20.015625 56 32.328125 56 
Q 43.359375 56 49.78125 48.890625 
Q 56.203125 41.796875 56.203125 29.59375 
z
M 47.21875 32.234375 
Q 47.125 39.59375 43.09375 43.984375 
Q 39.0625 48.390625 32.421875 48.390625 
Q 24.90625 48.390625 20.390625 44.140625 
Q 15.875 39.890625 15.1875 32.171875 
z
" id="DejaVuSans-101"/>
      <path d="M 45.40625 46.390625 
L 45.40625 75.984375 
L 54.390625 75.984375 
L 54.390625 0 
L 45.40625 0 
L 45.40625 8.203125 
Q 42.578125 3.328125 38.25 0.953125 
Q 33.9375 -1.421875 27.875 -1.421875 
Q 17.96875 -1.421875 11.734375 6.484375 
Q 5.515625 14.40625 5.515625 27.296875 
Q 5.515625 40.1875 11.734375 48.09375 
Q 17.96875 56 27.875 56 
Q 33.9375 56 38.25 53.625 
Q 42.578125 51.265625 45.40625 46.390625 
z
M 14.796875 27.296875 
Q 14.796875 17.390625 18.875 11.75 
Q 22.953125 6.109375 30.078125 6.109375 
Q 37.203125 6.109375 41.296875 11.75 
Q 45.40625 17.390625 45.40625 27.296875 
Q 45.40625 37.203125 41.296875 42.84375 
Q 37.203125 48.484375 30.078125 48.484375 
Q 22.953125 48.484375 18.875 42.84375 
Q 14.796875 37.203125 14.796875 27.296875 
z
" id="DejaVuSans-100"/>
     </defs>
     <use xlink:href="#DejaVuSans-65"/>
     <use x="68.408203" xlink:href="#DejaVuSans-108"/>
     <use x="96.191406" xlink:href="#DejaVuSans-105"/>
     <use x="123.974609" xlink:href="#DejaVuSans-103"/>
     <use x="187.451172" xlink:href="#DejaVuSans-110"/>
     <use x="250.830078" xlink:href="#DejaVuSans-101"/>
     <use x="312.353516" xlink:href="#DejaVuSans-100"/>
    </g>
   </g>
   <g id="legend_1">
    <g id="patch_22">
     <path d="M 630.315257 296.881648 
L 681.388695 296.881648 
Q 683.388695 296.881648 683.388695 294.881648 
L 683.388695 266.525398 
Q 683.388695 264.525398 681.388695 264.525398 
L 630.315257 264.525398 
Q 628.315257 264.525398 628.315257 266.525398 
L 628.315257 294.881648 
Q 628.315257 296.881648 630.315257 296.881648 
z
" style="fill:#ffffff;opacity:0.8;stroke:#cccccc;stroke-linejoin:miter;"/>
    </g>
    <g id="line2d_54">
     <path d="M 632.315257 272.623835 
L 652.315257 272.623835 
" style="fill:none;stroke:#1f77b4;stroke-linecap:square;stroke-width:1.5;"/>
    </g>
    <g id="line2d_55"/>
    <g id="text_54">
     <!-- p53 -->
     <g transform="translate(660.315257 276.123835)scale(0.1 -0.1)">
      <use xlink:href="#DejaVuSans-112"/>
      <use x="63.476562" xlink:href="#DejaVuSans-53"/>
      <use x="127.099609" xlink:href="#DejaVuSans-51"/>
     </g>
    </g>
    <g id="line2d_56">
     <path d="M 632.315257 287.30196 
L 652.315257 287.30196 
" style="fill:none;stroke:#ff7f0e;stroke-linecap:square;stroke-width:1.5;"/>
    </g>
    <g id="line2d_57"/>
    <g id="text_55">
     <!-- p21 -->
     <g transform="translate(660.315257 290.80196)scale(0.1 -0.1)">
      <use xlink:href="#DejaVuSans-112"/>
      <use x="63.476562" xlink:href="#DejaVuSans-50"/>
      <use x="127.099609" xlink:href="#DejaVuSans-49"/>
     </g>
    </g>
   </g>
  </g>
  <g id="axes_5">
   <g id="patch_23">
    <path d="M 747.471048 219.990852 
L 1042.882812 219.990852 
L 1042.882812 22.318125 
L 747.471048 22.318125 
z
" style="fill:#ffffff;"/>
   </g>
   <g id="patch_24">
    <path clip-path="url(#p279b157c3f)" d="M 760.898855 219.990852 
L 787.75447 219.990852 
L 787.75447 189.776326 
L 760.898855 189.776326 
z
" style="fill:#1f77b4;"/>
   </g>
   <g id="patch_25">
    <path clip-path="url(#p279b157c3f)" d="M 787.75447 219.990852 
L 814.610085 219.990852 
L 814.610085 138.644051 
L 787.75447 138.644051 
z
" style="fill:#1f77b4;"/>
   </g>
   <g id="patch_26">
    <path clip-path="url(#p279b157c3f)" d="M 814.610085 219.990852 
L 841.4657 219.990852 
L 841.4657 45.676278 
L 814.610085 45.676278 
z
" style="fill:#1f77b4;"/>
   </g>
   <g id="patch_27">
    <path clip-path="url(#p279b157c3f)" d="M 841.4657 219.990852 
L 868.321315 219.990852 
L 868.321315 154.913411 
L 841.4657 154.913411 
z
" style="fill:#1f77b4;"/>
   </g>
   <g id="patch_28">
    <path clip-path="url(#p279b157c3f)" d="M 868.321315 219.990852 
L 895.17693 219.990852 
L 895.17693 154.913411 
L 868.321315 154.913411 
z
" style="fill:#1f77b4;"/>
   </g>
   <g id="patch_29">
    <path clip-path="url(#p279b157c3f)" d="M 895.17693 219.990852 
L 922.032545 219.990852 
L 922.032545 147.940828 
L 895.17693 147.940828 
z
" style="fill:#1f77b4;"/>
   </g>
   <g id="patch_30">
    <path clip-path="url(#p279b157c3f)" d="M 922.032545 219.990852 
L 948.88816 219.990852 
L 948.88816 31.731112 
L 922.032545 31.731112 
z
" style="fill:#1f77b4;"/>
   </g>
   <g id="patch_31">
    <path clip-path="url(#p279b157c3f)" d="M 948.88816 219.990852 
L 975.743775 219.990852 
L 975.743775 201.397298 
L 948.88816 201.397298 
z
" style="fill:#1f77b4;"/>
   </g>
   <g id="patch_32">
    <path clip-path="url(#p279b157c3f)" d="M 975.743775 219.990852 
L 1002.59939 219.990852 
L 1002.59939 180.479549 
L 975.743775 180.479549 
z
" style="fill:#1f77b4;"/>
   </g>
   <g id="patch_33">
    <path clip-path="url(#p279b157c3f)" d="M 1002.59939 219.990852 
L 1029.455005 219.990852 
L 1029.455005 192.10052 
L 1002.59939 192.10052 
z
" style="fill:#1f77b4;"/>
   </g>
   <g id="matplotlib.axis_9">
    <g id="xtick_26">
     <g id="line2d_58">
      <g>
       <use style="stroke:#000000;stroke-width:0.8;" x="771.641101" xlink:href="#mee30af71fd" y="219.990852"/>
      </g>
     </g>
     <g id="text_56">
      <!-- −10 -->
      <g transform="translate(761.088758 234.58929)scale(0.1 -0.1)">
       <use xlink:href="#DejaVuSans-8722"/>
       <use x="83.789062" xlink:href="#DejaVuSans-49"/>
       <use x="147.412109" xlink:href="#DejaVuSans-48"/>
      </g>
     </g>
    </g>
    <g id="xtick_27">
     <g id="line2d_59">
      <g>
       <use style="stroke:#000000;stroke-width:0.8;" x="825.352331" xlink:href="#mee30af71fd" y="219.990852"/>
      </g>
     </g>
     <g id="text_57">
      <!-- −5 -->
      <g transform="translate(817.981237 234.58929)scale(0.1 -0.1)">
       <use xlink:href="#DejaVuSans-8722"/>
       <use x="83.789062" xlink:href="#DejaVuSans-53"/>
      </g>
     </g>
    </g>
    <g id="xtick_28">
     <g id="line2d_60">
      <g>
       <use style="stroke:#000000;stroke-width:0.8;" x="879.063561" xlink:href="#mee30af71fd" y="219.990852"/>
      </g>
     </g>
     <g id="text_58">
      <!-- 0 -->
      <g transform="translate(875.882311 234.58929)scale(0.1 -0.1)">
       <use xlink:href="#DejaVuSans-48"/>
      </g>
     </g>
    </g>
    <g id="xtick_29">
     <g id="line2d_61">
      <g>
       <use style="stroke:#000000;stroke-width:0.8;" x="932.774791" xlink:href="#mee30af71fd" y="219.990852"/>
      </g>
     </g>
     <g id="text_59">
      <!-- 5 -->
      <g transform="translate(929.593541 234.58929)scale(0.1 -0.1)">
       <use xlink:href="#DejaVuSans-53"/>
      </g>
     </g>
    </g>
    <g id="xtick_30">
     <g id="line2d_62">
      <g>
       <use style="stroke:#000000;stroke-width:0.8;" x="986.486021" xlink:href="#mee30af71fd" y="219.990852"/>
      </g>
     </g>
     <g id="text_60">
      <!-- 10 -->
      <g transform="translate(980.123521 234.58929)scale(0.1 -0.1)">
       <use xlink:href="#DejaVuSans-49"/>
       <use x="63.623047" xlink:href="#DejaVuSans-48"/>
      </g>
     </g>
    </g>
    <g id="xtick_31">
     <g id="line2d_63">
      <g>
       <use style="stroke:#000000;stroke-width:0.8;" x="1040.197251" xlink:href="#mee30af71fd" y="219.990852"/>
      </g>
     </g>
     <g id="text_61">
      <!-- 15 -->
      <g transform="translate(1033.834751 234.58929)scale(0.1 -0.1)">
       <use xlink:href="#DejaVuSans-49"/>
       <use x="63.623047" xlink:href="#DejaVuSans-53"/>
      </g>
     </g>
    </g>
   </g>
   <g id="matplotlib.axis_10">
    <g id="ytick_24">
     <g id="line2d_64">
      <g>
       <use style="stroke:#000000;stroke-width:0.8;" x="747.471048" xlink:href="#m2fdce2fc10" y="219.990852"/>
      </g>
     </g>
     <g id="text_62">
      <!-- 0 -->
      <g transform="translate(734.108548 223.790071)scale(0.1 -0.1)">
       <use xlink:href="#DejaVuSans-48"/>
      </g>
     </g>
    </g>
    <g id="ytick_25">
     <g id="line2d_65">
      <g>
       <use style="stroke:#000000;stroke-width:0.8;" x="747.471048" xlink:href="#m2fdce2fc10" y="196.748909"/>
      </g>
     </g>
     <g id="text_63">
      <!-- 10 -->
      <g transform="translate(727.746048 200.548128)scale(0.1 -0.1)">
       <use xlink:href="#DejaVuSans-49"/>
       <use x="63.623047" xlink:href="#DejaVuSans-48"/>
      </g>
     </g>
    </g>
    <g id="ytick_26">
     <g id="line2d_66">
      <g>
       <use style="stroke:#000000;stroke-width:0.8;" x="747.471048" xlink:href="#m2fdce2fc10" y="173.506966"/>
      </g>
     </g>
     <g id="text_64">
      <!-- 20 -->
      <g transform="translate(727.746048 177.306185)scale(0.1 -0.1)">
       <use xlink:href="#DejaVuSans-50"/>
       <use x="63.623047" xlink:href="#DejaVuSans-48"/>
      </g>
     </g>
    </g>
    <g id="ytick_27">
     <g id="line2d_67">
      <g>
       <use style="stroke:#000000;stroke-width:0.8;" x="747.471048" xlink:href="#m2fdce2fc10" y="150.265023"/>
      </g>
     </g>
     <g id="text_65">
      <!-- 30 -->
      <g transform="translate(727.746048 154.064241)scale(0.1 -0.1)">
       <use xlink:href="#DejaVuSans-51"/>
       <use x="63.623047" xlink:href="#DejaVuSans-48"/>
      </g>
     </g>
    </g>
    <g id="ytick_28">
     <g id="line2d_68">
      <g>
       <use style="stroke:#000000;stroke-width:0.8;" x="747.471048" xlink:href="#m2fdce2fc10" y="127.023079"/>
      </g>
     </g>
     <g id="text_66">
      <!-- 40 -->
      <g transform="translate(727.746048 130.822298)scale(0.1 -0.1)">
       <use xlink:href="#DejaVuSans-52"/>
       <use x="63.623047" xlink:href="#DejaVuSans-48"/>
      </g>
     </g>
    </g>
    <g id="ytick_29">
     <g id="line2d_69">
      <g>
       <use style="stroke:#000000;stroke-width:0.8;" x="747.471048" xlink:href="#m2fdce2fc10" y="103.781136"/>
      </g>
     </g>
     <g id="text_67">
      <!-- 50 -->
      <g transform="translate(727.746048 107.580355)scale(0.1 -0.1)">
       <use xlink:href="#DejaVuSans-53"/>
       <use x="63.623047" xlink:href="#DejaVuSans-48"/>
      </g>
     </g>
    </g>
    <g id="ytick_30">
     <g id="line2d_70">
      <g>
       <use style="stroke:#000000;stroke-width:0.8;" x="747.471048" xlink:href="#m2fdce2fc10" y="80.539193"/>
      </g>
     </g>
     <g id="text_68">
      <!-- 60 -->
      <g transform="translate(727.746048 84.338412)scale(0.1 -0.1)">
       <use xlink:href="#DejaVuSans-54"/>
       <use x="63.623047" xlink:href="#DejaVuSans-48"/>
      </g>
     </g>
    </g>
    <g id="ytick_31">
     <g id="line2d_71">
      <g>
       <use style="stroke:#000000;stroke-width:0.8;" x="747.471048" xlink:href="#m2fdce2fc10" y="57.29725"/>
      </g>
     </g>
     <g id="text_69">
      <!-- 70 -->
      <g transform="translate(727.746048 61.096468)scale(0.1 -0.1)">
       <defs>
        <path d="M 8.203125 72.90625 
L 55.078125 72.90625 
L 55.078125 68.703125 
L 28.609375 0 
L 18.3125 0 
L 43.21875 64.59375 
L 8.203125 64.59375 
z
" id="DejaVuSans-55"/>
       </defs>
       <use xlink:href="#DejaVuSans-55"/>
       <use x="63.623047" xlink:href="#DejaVuSans-48"/>
      </g>
     </g>
    </g>
    <g id="ytick_32">
     <g id="line2d_72">
      <g>
       <use style="stroke:#000000;stroke-width:0.8;" x="747.471048" xlink:href="#m2fdce2fc10" y="34.055306"/>
      </g>
     </g>
     <g id="text_70">
      <!-- 80 -->
      <g transform="translate(727.746048 37.854525)scale(0.1 -0.1)">
       <defs>
        <path d="M 31.78125 34.625 
Q 24.75 34.625 20.71875 30.859375 
Q 16.703125 27.09375 16.703125 20.515625 
Q 16.703125 13.921875 20.71875 10.15625 
Q 24.75 6.390625 31.78125 6.390625 
Q 38.8125 6.390625 42.859375 10.171875 
Q 46.921875 13.96875 46.921875 20.515625 
Q 46.921875 27.09375 42.890625 30.859375 
Q 38.875 34.625 31.78125 34.625 
z
M 21.921875 38.8125 
Q 15.578125 40.375 12.03125 44.71875 
Q 8.5 49.078125 8.5 55.328125 
Q 8.5 64.0625 14.71875 69.140625 
Q 20.953125 74.21875 31.78125 74.21875 
Q 42.671875 74.21875 48.875 69.140625 
Q 55.078125 64.0625 55.078125 55.328125 
Q 55.078125 49.078125 51.53125 44.71875 
Q 48 40.375 41.703125 38.8125 
Q 48.828125 37.15625 52.796875 32.3125 
Q 56.78125 27.484375 56.78125 20.515625 
Q 56.78125 9.90625 50.3125 4.234375 
Q 43.84375 -1.421875 31.78125 -1.421875 
Q 19.734375 -1.421875 13.25 4.234375 
Q 6.78125 9.90625 6.78125 20.515625 
Q 6.78125 27.484375 10.78125 32.3125 
Q 14.796875 37.15625 21.921875 38.8125 
z
M 18.3125 54.390625 
Q 18.3125 48.734375 21.84375 45.5625 
Q 25.390625 42.390625 31.78125 42.390625 
Q 38.140625 42.390625 41.71875 45.5625 
Q 45.3125 48.734375 45.3125 54.390625 
Q 45.3125 60.0625 41.71875 63.234375 
Q 38.140625 66.40625 31.78125 66.40625 
Q 25.390625 66.40625 21.84375 63.234375 
Q 18.3125 60.0625 18.3125 54.390625 
z
" id="DejaVuSans-56"/>
       </defs>
       <use xlink:href="#DejaVuSans-56"/>
       <use x="63.623047" xlink:href="#DejaVuSans-48"/>
      </g>
     </g>
    </g>
   </g>
   <g id="patch_34">
    <path d="M 747.471048 219.990852 
L 747.471048 22.318125 
" style="fill:none;stroke:#000000;stroke-linecap:square;stroke-linejoin:miter;stroke-width:0.8;"/>
   </g>
   <g id="patch_35">
    <path d="M 1042.882812 219.990852 
L 1042.882812 22.318125 
" style="fill:none;stroke:#000000;stroke-linecap:square;stroke-linejoin:miter;stroke-width:0.8;"/>
   </g>
   <g id="patch_36">
    <path d="M 747.471048 219.990852 
L 1042.882812 219.990852 
" style="fill:none;stroke:#000000;stroke-linecap:square;stroke-linejoin:miter;stroke-width:0.8;"/>
   </g>
   <g id="patch_37">
    <path d="M 747.471048 22.318125 
L 1042.882812 22.318125 
" style="fill:none;stroke:#000000;stroke-linecap:square;stroke-linejoin:miter;stroke-width:0.8;"/>
   </g>
   <g id="text_71">
    <!-- p53-p21 Lags Histogram -->
    <g transform="translate(821.23068 16.318125)scale(0.12 -0.12)">
     <defs>
      <path d="M 4.890625 31.390625 
L 31.203125 31.390625 
L 31.203125 23.390625 
L 4.890625 23.390625 
z
" id="DejaVuSans-45"/>
      <path id="DejaVuSans-32"/>
      <path d="M 9.8125 72.90625 
L 19.671875 72.90625 
L 19.671875 8.296875 
L 55.171875 8.296875 
L 55.171875 0 
L 9.8125 0 
z
" id="DejaVuSans-76"/>
      <path d="M 34.28125 27.484375 
Q 23.390625 27.484375 19.1875 25 
Q 14.984375 22.515625 14.984375 16.5 
Q 14.984375 11.71875 18.140625 8.90625 
Q 21.296875 6.109375 26.703125 6.109375 
Q 34.1875 6.109375 38.703125 11.40625 
Q 43.21875 16.703125 43.21875 25.484375 
L 43.21875 27.484375 
z
M 52.203125 31.203125 
L 52.203125 0 
L 43.21875 0 
L 43.21875 8.296875 
Q 40.140625 3.328125 35.546875 0.953125 
Q 30.953125 -1.421875 24.3125 -1.421875 
Q 15.921875 -1.421875 10.953125 3.296875 
Q 6 8.015625 6 15.921875 
Q 6 25.140625 12.171875 29.828125 
Q 18.359375 34.515625 30.609375 34.515625 
L 43.21875 34.515625 
L 43.21875 35.40625 
Q 43.21875 41.609375 39.140625 45 
Q 35.0625 48.390625 27.6875 48.390625 
Q 23 48.390625 18.546875 47.265625 
Q 14.109375 46.140625 10.015625 43.890625 
L 10.015625 52.203125 
Q 14.9375 54.109375 19.578125 55.046875 
Q 24.21875 56 28.609375 56 
Q 40.484375 56 46.34375 49.84375 
Q 52.203125 43.703125 52.203125 31.203125 
z
" id="DejaVuSans-97"/>
      <path d="M 44.28125 53.078125 
L 44.28125 44.578125 
Q 40.484375 46.53125 36.375 47.5 
Q 32.28125 48.484375 27.875 48.484375 
Q 21.1875 48.484375 17.84375 46.4375 
Q 14.5 44.390625 14.5 40.28125 
Q 14.5 37.15625 16.890625 35.375 
Q 19.28125 33.59375 26.515625 31.984375 
L 29.59375 31.296875 
Q 39.15625 29.25 43.1875 25.515625 
Q 47.21875 21.78125 47.21875 15.09375 
Q 47.21875 7.46875 41.1875 3.015625 
Q 35.15625 -1.421875 24.609375 -1.421875 
Q 20.21875 -1.421875 15.453125 -0.5625 
Q 10.6875 0.296875 5.421875 2 
L 5.421875 11.28125 
Q 10.40625 8.6875 15.234375 7.390625 
Q 20.0625 6.109375 24.8125 6.109375 
Q 31.15625 6.109375 34.5625 8.28125 
Q 37.984375 10.453125 37.984375 14.40625 
Q 37.984375 18.0625 35.515625 20.015625 
Q 33.0625 21.96875 24.703125 23.78125 
L 21.578125 24.515625 
Q 13.234375 26.265625 9.515625 29.90625 
Q 5.8125 33.546875 5.8125 39.890625 
Q 5.8125 47.609375 11.28125 51.796875 
Q 16.75 56 26.8125 56 
Q 31.78125 56 36.171875 55.265625 
Q 40.578125 54.546875 44.28125 53.078125 
z
" id="DejaVuSans-115"/>
      <path d="M 9.8125 72.90625 
L 19.671875 72.90625 
L 19.671875 43.015625 
L 55.515625 43.015625 
L 55.515625 72.90625 
L 65.375 72.90625 
L 65.375 0 
L 55.515625 0 
L 55.515625 34.71875 
L 19.671875 34.71875 
L 19.671875 0 
L 9.8125 0 
z
" id="DejaVuSans-72"/>
      <path d="M 18.3125 70.21875 
L 18.3125 54.6875 
L 36.8125 54.6875 
L 36.8125 47.703125 
L 18.3125 47.703125 
L 18.3125 18.015625 
Q 18.3125 11.328125 20.140625 9.421875 
Q 21.96875 7.515625 27.59375 7.515625 
L 36.8125 7.515625 
L 36.8125 0 
L 27.59375 0 
Q 17.1875 0 13.234375 3.875 
Q 9.28125 7.765625 9.28125 18.015625 
L 9.28125 47.703125 
L 2.6875 47.703125 
L 2.6875 54.6875 
L 9.28125 54.6875 
L 9.28125 70.21875 
z
" id="DejaVuSans-116"/>
      <path d="M 30.609375 48.390625 
Q 23.390625 48.390625 19.1875 42.75 
Q 14.984375 37.109375 14.984375 27.296875 
Q 14.984375 17.484375 19.15625 11.84375 
Q 23.34375 6.203125 30.609375 6.203125 
Q 37.796875 6.203125 41.984375 11.859375 
Q 46.1875 17.53125 46.1875 27.296875 
Q 46.1875 37.015625 41.984375 42.703125 
Q 37.796875 48.390625 30.609375 48.390625 
z
M 30.609375 56 
Q 42.328125 56 49.015625 48.375 
Q 55.71875 40.765625 55.71875 27.296875 
Q 55.71875 13.875 49.015625 6.21875 
Q 42.328125 -1.421875 30.609375 -1.421875 
Q 18.84375 -1.421875 12.171875 6.21875 
Q 5.515625 13.875 5.515625 27.296875 
Q 5.515625 40.765625 12.171875 48.375 
Q 18.84375 56 30.609375 56 
z
" id="DejaVuSans-111"/>
      <path d="M 41.109375 46.296875 
Q 39.59375 47.171875 37.8125 47.578125 
Q 36.03125 48 33.890625 48 
Q 26.265625 48 22.1875 43.046875 
Q 18.109375 38.09375 18.109375 28.8125 
L 18.109375 0 
L 9.078125 0 
L 9.078125 54.6875 
L 18.109375 54.6875 
L 18.109375 46.1875 
Q 20.953125 51.171875 25.484375 53.578125 
Q 30.03125 56 36.53125 56 
Q 37.453125 56 38.578125 55.875 
Q 39.703125 55.765625 41.0625 55.515625 
z
" id="DejaVuSans-114"/>
      <path d="M 52 44.1875 
Q 55.375 50.25 60.0625 53.125 
Q 64.75 56 71.09375 56 
Q 79.640625 56 84.28125 50.015625 
Q 88.921875 44.046875 88.921875 33.015625 
L 88.921875 0 
L 79.890625 0 
L 79.890625 32.71875 
Q 79.890625 40.578125 77.09375 44.375 
Q 74.3125 48.1875 68.609375 48.1875 
Q 61.625 48.1875 57.5625 43.546875 
Q 53.515625 38.921875 53.515625 30.90625 
L 53.515625 0 
L 44.484375 0 
L 44.484375 32.71875 
Q 44.484375 40.625 41.703125 44.40625 
Q 38.921875 48.1875 33.109375 48.1875 
Q 26.21875 48.1875 22.15625 43.53125 
Q 18.109375 38.875 18.109375 30.90625 
L 18.109375 0 
L 9.078125 0 
L 9.078125 54.6875 
L 18.109375 54.6875 
L 18.109375 46.1875 
Q 21.1875 51.21875 25.484375 53.609375 
Q 29.78125 56 35.6875 56 
Q 41.65625 56 45.828125 52.96875 
Q 50 49.953125 52 44.1875 
z
" id="DejaVuSans-109"/>
     </defs>
     <use xlink:href="#DejaVuSans-112"/>
     <use x="63.476562" xlink:href="#DejaVuSans-53"/>
     <use x="127.099609" xlink:href="#DejaVuSans-51"/>
     <use x="190.722656" xlink:href="#DejaVuSans-45"/>
     <use x="226.806641" xlink:href="#DejaVuSans-112"/>
     <use x="290.283203" xlink:href="#DejaVuSans-50"/>
     <use x="353.90625" xlink:href="#DejaVuSans-49"/>
     <use x="417.529297" xlink:href="#DejaVuSans-32"/>
     <use x="449.316406" xlink:href="#DejaVuSans-76"/>
     <use x="505.029297" xlink:href="#DejaVuSans-97"/>
     <use x="566.308594" xlink:href="#DejaVuSans-103"/>
     <use x="629.785156" xlink:href="#DejaVuSans-115"/>
     <use x="681.884766" xlink:href="#DejaVuSans-32"/>
     <use x="713.671875" xlink:href="#DejaVuSans-72"/>
     <use x="788.867188" xlink:href="#DejaVuSans-105"/>
     <use x="816.650391" xlink:href="#DejaVuSans-115"/>
     <use x="868.75" xlink:href="#DejaVuSans-116"/>
     <use x="907.958984" xlink:href="#DejaVuSans-111"/>
     <use x="969.140625" xlink:href="#DejaVuSans-103"/>
     <use x="1032.617188" xlink:href="#DejaVuSans-114"/>
     <use x="1073.730469" xlink:href="#DejaVuSans-97"/>
     <use x="1135.009766" xlink:href="#DejaVuSans-109"/>
    </g>
   </g>
  </g>
 </g>
 <defs>
  <clipPath id="p7719b99cb8">
   <rect height="197.672727" width="295.411765" x="38.482813" y="22.318125"/>
  </clipPath>
  <clipPath id="p2e9fa5a5ed">
   <rect height="197.672727" width="295.411765" x="38.482813" y="259.525398"/>
  </clipPath>
  <clipPath id="p5efd56f2e0">
   <rect height="197.672727" width="295.411765" x="392.97693" y="22.318125"/>
  </clipPath>
  <clipPath id="p0565ce9c77">
   <rect height="197.672727" width="295.411765" x="392.97693" y="259.525398"/>
  </clipPath>
  <clipPath id="p279b157c3f">
   <rect height="197.672727" width="295.411765" x="747.471048" y="22.318125"/>
  </clipPath>
 </defs>
</svg>
