<?xml version="1.0" encoding="utf-8" standalone="no"?>
<!DOCTYPE svg PUBLIC "-//W3C//DTD SVG 1.1//EN"
  "http://www.w3.org/Graphics/SVG/1.1/DTD/svg11.dtd">
<!-- Created with matplotlib (https://matplotlib.org/) -->
<svg height="481.07625pt" version="1.1" viewBox="0 0 1051.25 481.07625" width="1051.25pt" xmlns="http://www.w3.org/2000/svg" xmlns:xlink="http://www.w3.org/1999/xlink">
 <metadata>
  <rdf:RDF xmlns:cc="http://creativecommons.org/ns#" xmlns:dc="http://purl.org/dc/elements/1.1/" xmlns:rdf="http://www.w3.org/1999/02/22-rdf-syntax-ns#">
   <cc:Work>
    <dc:type rdf:resource="http://purl.org/dc/dcmitype/StillImage"/>
    <dc:date>2021-04-06T21:14:07.046111</dc:date>
    <dc:format>image/svg+xml</dc:format>
    <dc:creator>
     <cc:Agent>
      <dc:title>Matplotlib v3.3.3, https://matplotlib.org/</dc:title>
     </cc:Agent>
    </dc:creator>
   </cc:Work>
  </rdf:RDF>
 </metadata>
 <defs>
  <style type="text/css">*{stroke-linecap:butt;stroke-linejoin:round;}</style>
 </defs>
 <g id="figure_1">
  <g id="patch_1">
   <path d="M 0 481.07625 
L 1051.25 481.07625 
L 1051.25 0 
L 0 0 
z
" style="fill:none;"/>
  </g>
  <g id="axes_1">
   <g id="patch_2">
    <path d="M 39.65 219.990852 
L 335.061765 219.990852 
L 335.061765 22.318125 
L 39.65 22.318125 
z
" style="fill:#ffffff;"/>
   </g>
   <g id="matplotlib.axis_1">
    <g id="xtick_1">
     <g id="line2d_1">
      <defs>
       <path d="M 0 0 
L 0 3.5 
" id="m1d4aafa83f" style="stroke:#000000;stroke-width:0.8;"/>
      </defs>
      <g>
       <use style="stroke:#000000;stroke-width:0.8;" x="53.077807" xlink:href="#m1d4aafa83f" y="219.990852"/>
      </g>
     </g>
     <g id="text_1">
      <!-- 0 -->
      <g transform="translate(49.896557 234.58929)scale(0.1 -0.1)">
       <defs>
        <path d="M 31.78125 66.40625 
Q 24.171875 66.40625 20.328125 58.90625 
Q 16.5 51.421875 16.5 36.375 
Q 16.5 21.390625 20.328125 13.890625 
Q 24.171875 6.390625 31.78125 6.390625 
Q 39.453125 6.390625 43.28125 13.890625 
Q 47.125 21.390625 47.125 36.375 
Q 47.125 51.421875 43.28125 58.90625 
Q 39.453125 66.40625 31.78125 66.40625 
z
M 31.78125 74.21875 
Q 44.046875 74.21875 50.515625 64.515625 
Q 56.984375 54.828125 56.984375 36.375 
Q 56.984375 17.96875 50.515625 8.265625 
Q 44.046875 -1.421875 31.78125 -1.421875 
Q 19.53125 -1.421875 13.0625 8.265625 
Q 6.59375 17.96875 6.59375 36.375 
Q 6.59375 54.828125 13.0625 64.515625 
Q 19.53125 74.21875 31.78125 74.21875 
z
" id="DejaVuSans-48"/>
       </defs>
       <use xlink:href="#DejaVuSans-48"/>
      </g>
     </g>
    </g>
    <g id="xtick_2">
     <g id="line2d_2">
      <g>
       <use style="stroke:#000000;stroke-width:0.8;" x="109.261102" xlink:href="#m1d4aafa83f" y="219.990852"/>
      </g>
     </g>
     <g id="text_2">
      <!-- 50 -->
      <g transform="translate(102.898602 234.58929)scale(0.1 -0.1)">
       <defs>
        <path d="M 10.796875 72.90625 
L 49.515625 72.90625 
L 49.515625 64.59375 
L 19.828125 64.59375 
L 19.828125 46.734375 
Q 21.96875 47.46875 24.109375 47.828125 
Q 26.265625 48.1875 28.421875 48.1875 
Q 40.625 48.1875 47.75 41.5 
Q 54.890625 34.8125 54.890625 23.390625 
Q 54.890625 11.625 47.5625 5.09375 
Q 40.234375 -1.421875 26.90625 -1.421875 
Q 22.3125 -1.421875 17.546875 -0.640625 
Q 12.796875 0.140625 7.71875 1.703125 
L 7.71875 11.625 
Q 12.109375 9.234375 16.796875 8.0625 
Q 21.484375 6.890625 26.703125 6.890625 
Q 35.15625 6.890625 40.078125 11.328125 
Q 45.015625 15.765625 45.015625 23.390625 
Q 45.015625 31 40.078125 35.4375 
Q 35.15625 39.890625 26.703125 39.890625 
Q 22.75 39.890625 18.8125 39.015625 
Q 14.890625 38.140625 10.796875 36.28125 
z
" id="DejaVuSans-53"/>
       </defs>
       <use xlink:href="#DejaVuSans-53"/>
       <use x="63.623047" xlink:href="#DejaVuSans-48"/>
      </g>
     </g>
    </g>
    <g id="xtick_3">
     <g id="line2d_3">
      <g>
       <use style="stroke:#000000;stroke-width:0.8;" x="165.444397" xlink:href="#m1d4aafa83f" y="219.990852"/>
      </g>
     </g>
     <g id="text_3">
      <!-- 100 -->
      <g transform="translate(155.900647 234.58929)scale(0.1 -0.1)">
       <defs>
        <path d="M 12.40625 8.296875 
L 28.515625 8.296875 
L 28.515625 63.921875 
L 10.984375 60.40625 
L 10.984375 69.390625 
L 28.421875 72.90625 
L 38.28125 72.90625 
L 38.28125 8.296875 
L 54.390625 8.296875 
L 54.390625 0 
L 12.40625 0 
z
" id="DejaVuSans-49"/>
       </defs>
       <use xlink:href="#DejaVuSans-49"/>
       <use x="63.623047" xlink:href="#DejaVuSans-48"/>
       <use x="127.246094" xlink:href="#DejaVuSans-48"/>
      </g>
     </g>
    </g>
    <g id="xtick_4">
     <g id="line2d_4">
      <g>
       <use style="stroke:#000000;stroke-width:0.8;" x="221.627692" xlink:href="#m1d4aafa83f" y="219.990852"/>
      </g>
     </g>
     <g id="text_4">
      <!-- 150 -->
      <g transform="translate(212.083942 234.58929)scale(0.1 -0.1)">
       <use xlink:href="#DejaVuSans-49"/>
       <use x="63.623047" xlink:href="#DejaVuSans-53"/>
       <use x="127.246094" xlink:href="#DejaVuSans-48"/>
      </g>
     </g>
    </g>
    <g id="xtick_5">
     <g id="line2d_5">
      <g>
       <use style="stroke:#000000;stroke-width:0.8;" x="277.810987" xlink:href="#m1d4aafa83f" y="219.990852"/>
      </g>
     </g>
     <g id="text_5">
      <!-- 200 -->
      <g transform="translate(268.267237 234.58929)scale(0.1 -0.1)">
       <defs>
        <path d="M 19.1875 8.296875 
L 53.609375 8.296875 
L 53.609375 0 
L 7.328125 0 
L 7.328125 8.296875 
Q 12.9375 14.109375 22.625 23.890625 
Q 32.328125 33.6875 34.8125 36.53125 
Q 39.546875 41.84375 41.421875 45.53125 
Q 43.3125 49.21875 43.3125 52.78125 
Q 43.3125 58.59375 39.234375 62.25 
Q 35.15625 65.921875 28.609375 65.921875 
Q 23.96875 65.921875 18.8125 64.3125 
Q 13.671875 62.703125 7.8125 59.421875 
L 7.8125 69.390625 
Q 13.765625 71.78125 18.9375 73 
Q 24.125 74.21875 28.421875 74.21875 
Q 39.75 74.21875 46.484375 68.546875 
Q 53.21875 62.890625 53.21875 53.421875 
Q 53.21875 48.921875 51.53125 44.890625 
Q 49.859375 40.875 45.40625 35.40625 
Q 44.1875 33.984375 37.640625 27.21875 
Q 31.109375 20.453125 19.1875 8.296875 
z
" id="DejaVuSans-50"/>
       </defs>
       <use xlink:href="#DejaVuSans-50"/>
       <use x="63.623047" xlink:href="#DejaVuSans-48"/>
       <use x="127.246094" xlink:href="#DejaVuSans-48"/>
      </g>
     </g>
    </g>
    <g id="xtick_6">
     <g id="line2d_6">
      <g>
       <use style="stroke:#000000;stroke-width:0.8;" x="333.994282" xlink:href="#m1d4aafa83f" y="219.990852"/>
      </g>
     </g>
     <g id="text_6">
      <!-- 250 -->
      <g transform="translate(324.450532 234.58929)scale(0.1 -0.1)">
       <use xlink:href="#DejaVuSans-50"/>
       <use x="63.623047" xlink:href="#DejaVuSans-53"/>
       <use x="127.246094" xlink:href="#DejaVuSans-48"/>
      </g>
     </g>
    </g>
   </g>
   <g id="matplotlib.axis_2">
    <g id="ytick_1">
     <g id="line2d_7">
      <defs>
       <path d="M 0 0 
L -3.5 0 
" id="m9fdbe76523" style="stroke:#000000;stroke-width:0.8;"/>
      </defs>
      <g>
       <use style="stroke:#000000;stroke-width:0.8;" x="39.65" xlink:href="#m9fdbe76523" y="215.816754"/>
      </g>
     </g>
     <g id="text_7">
      <!-- 0 -->
      <g transform="translate(26.2875 219.615973)scale(0.1 -0.1)">
       <use xlink:href="#DejaVuSans-48"/>
      </g>
     </g>
    </g>
    <g id="ytick_2">
     <g id="line2d_8">
      <g>
       <use style="stroke:#000000;stroke-width:0.8;" x="39.65" xlink:href="#m9fdbe76523" y="193.101808"/>
      </g>
     </g>
     <g id="text_8">
      <!-- 500 -->
      <g transform="translate(13.5625 196.901027)scale(0.1 -0.1)">
       <use xlink:href="#DejaVuSans-53"/>
       <use x="63.623047" xlink:href="#DejaVuSans-48"/>
       <use x="127.246094" xlink:href="#DejaVuSans-48"/>
      </g>
     </g>
    </g>
    <g id="ytick_3">
     <g id="line2d_9">
      <g>
       <use style="stroke:#000000;stroke-width:0.8;" x="39.65" xlink:href="#m9fdbe76523" y="170.386862"/>
      </g>
     </g>
     <g id="text_9">
      <!-- 1000 -->
      <g transform="translate(7.2 174.186081)scale(0.1 -0.1)">
       <use xlink:href="#DejaVuSans-49"/>
       <use x="63.623047" xlink:href="#DejaVuSans-48"/>
       <use x="127.246094" xlink:href="#DejaVuSans-48"/>
       <use x="190.869141" xlink:href="#DejaVuSans-48"/>
      </g>
     </g>
    </g>
    <g id="ytick_4">
     <g id="line2d_10">
      <g>
       <use style="stroke:#000000;stroke-width:0.8;" x="39.65" xlink:href="#m9fdbe76523" y="147.671916"/>
      </g>
     </g>
     <g id="text_10">
      <!-- 1500 -->
      <g transform="translate(7.2 151.471135)scale(0.1 -0.1)">
       <use xlink:href="#DejaVuSans-49"/>
       <use x="63.623047" xlink:href="#DejaVuSans-53"/>
       <use x="127.246094" xlink:href="#DejaVuSans-48"/>
       <use x="190.869141" xlink:href="#DejaVuSans-48"/>
      </g>
     </g>
    </g>
    <g id="ytick_5">
     <g id="line2d_11">
      <g>
       <use style="stroke:#000000;stroke-width:0.8;" x="39.65" xlink:href="#m9fdbe76523" y="124.956971"/>
      </g>
     </g>
     <g id="text_11">
      <!-- 2000 -->
      <g transform="translate(7.2 128.756189)scale(0.1 -0.1)">
       <use xlink:href="#DejaVuSans-50"/>
       <use x="63.623047" xlink:href="#DejaVuSans-48"/>
       <use x="127.246094" xlink:href="#DejaVuSans-48"/>
       <use x="190.869141" xlink:href="#DejaVuSans-48"/>
      </g>
     </g>
    </g>
    <g id="ytick_6">
     <g id="line2d_12">
      <g>
       <use style="stroke:#000000;stroke-width:0.8;" x="39.65" xlink:href="#m9fdbe76523" y="102.242025"/>
      </g>
     </g>
     <g id="text_12">
      <!-- 2500 -->
      <g transform="translate(7.2 106.041244)scale(0.1 -0.1)">
       <use xlink:href="#DejaVuSans-50"/>
       <use x="63.623047" xlink:href="#DejaVuSans-53"/>
       <use x="127.246094" xlink:href="#DejaVuSans-48"/>
       <use x="190.869141" xlink:href="#DejaVuSans-48"/>
      </g>
     </g>
    </g>
    <g id="ytick_7">
     <g id="line2d_13">
      <g>
       <use style="stroke:#000000;stroke-width:0.8;" x="39.65" xlink:href="#m9fdbe76523" y="79.527079"/>
      </g>
     </g>
     <g id="text_13">
      <!-- 3000 -->
      <g transform="translate(7.2 83.326298)scale(0.1 -0.1)">
       <defs>
        <path d="M 40.578125 39.3125 
Q 47.65625 37.796875 51.625 33 
Q 55.609375 28.21875 55.609375 21.1875 
Q 55.609375 10.40625 48.1875 4.484375 
Q 40.765625 -1.421875 27.09375 -1.421875 
Q 22.515625 -1.421875 17.65625 -0.515625 
Q 12.796875 0.390625 7.625 2.203125 
L 7.625 11.71875 
Q 11.71875 9.328125 16.59375 8.109375 
Q 21.484375 6.890625 26.8125 6.890625 
Q 36.078125 6.890625 40.9375 10.546875 
Q 45.796875 14.203125 45.796875 21.1875 
Q 45.796875 27.640625 41.28125 31.265625 
Q 36.765625 34.90625 28.71875 34.90625 
L 20.21875 34.90625 
L 20.21875 43.015625 
L 29.109375 43.015625 
Q 36.375 43.015625 40.234375 45.921875 
Q 44.09375 48.828125 44.09375 54.296875 
Q 44.09375 59.90625 40.109375 62.90625 
Q 36.140625 65.921875 28.71875 65.921875 
Q 24.65625 65.921875 20.015625 65.03125 
Q 15.375 64.15625 9.8125 62.3125 
L 9.8125 71.09375 
Q 15.4375 72.65625 20.34375 73.4375 
Q 25.25 74.21875 29.59375 74.21875 
Q 40.828125 74.21875 47.359375 69.109375 
Q 53.90625 64.015625 53.90625 55.328125 
Q 53.90625 49.265625 50.4375 45.09375 
Q 46.96875 40.921875 40.578125 39.3125 
z
" id="DejaVuSans-51"/>
       </defs>
       <use xlink:href="#DejaVuSans-51"/>
       <use x="63.623047" xlink:href="#DejaVuSans-48"/>
       <use x="127.246094" xlink:href="#DejaVuSans-48"/>
       <use x="190.869141" xlink:href="#DejaVuSans-48"/>
      </g>
     </g>
    </g>
    <g id="ytick_8">
     <g id="line2d_14">
      <g>
       <use style="stroke:#000000;stroke-width:0.8;" x="39.65" xlink:href="#m9fdbe76523" y="56.812133"/>
      </g>
     </g>
     <g id="text_14">
      <!-- 3500 -->
      <g transform="translate(7.2 60.611352)scale(0.1 -0.1)">
       <use xlink:href="#DejaVuSans-51"/>
       <use x="63.623047" xlink:href="#DejaVuSans-53"/>
       <use x="127.246094" xlink:href="#DejaVuSans-48"/>
       <use x="190.869141" xlink:href="#DejaVuSans-48"/>
      </g>
     </g>
    </g>
    <g id="ytick_9">
     <g id="line2d_15">
      <g>
       <use style="stroke:#000000;stroke-width:0.8;" x="39.65" xlink:href="#m9fdbe76523" y="34.097187"/>
      </g>
     </g>
     <g id="text_15">
      <!-- 4000 -->
      <g transform="translate(7.2 37.896406)scale(0.1 -0.1)">
       <defs>
        <path d="M 37.796875 64.3125 
L 12.890625 25.390625 
L 37.796875 25.390625 
z
M 35.203125 72.90625 
L 47.609375 72.90625 
L 47.609375 25.390625 
L 58.015625 25.390625 
L 58.015625 17.1875 
L 47.609375 17.1875 
L 47.609375 0 
L 37.796875 0 
L 37.796875 17.1875 
L 4.890625 17.1875 
L 4.890625 26.703125 
z
" id="DejaVuSans-52"/>
       </defs>
       <use xlink:href="#DejaVuSans-52"/>
       <use x="63.623047" xlink:href="#DejaVuSans-48"/>
       <use x="127.246094" xlink:href="#DejaVuSans-48"/>
       <use x="190.869141" xlink:href="#DejaVuSans-48"/>
      </g>
     </g>
    </g>
   </g>
   <g id="line2d_16">
    <path clip-path="url(#p42c70abc59)" d="M 53.077807 197.065112 
L 54.201473 184.704093 
L 55.325139 178.314833 
L 57.572471 210.170273 
L 58.696137 211.005728 
L 59.819803 209.999911 
L 60.943469 207.684803 
L 62.067135 202.382681 
L 63.190801 194.848587 
L 64.314466 186.130591 
L 65.438132 181.69936 
L 66.561798 191.256446 
L 67.685464 203.648357 
L 68.80913 205.538241 
L 69.932796 203.482538 
L 71.056462 198.155429 
L 72.180128 188.340755 
L 73.303794 182.672468 
L 74.42746 174.644097 
L 75.551125 175.554512 
L 77.798457 203.509796 
L 78.922123 206.192431 
L 80.045789 205.344255 
L 81.169455 203.162258 
L 82.293121 194.914461 
L 83.416787 188.912263 
L 84.540453 178.680089 
L 85.664119 171.735221 
L 86.787784 171.679343 
L 89.035116 190.876198 
L 90.158782 202.494892 
L 91.282448 204.937203 
L 92.406114 203.286281 
L 93.52978 198.705131 
L 94.653446 191.666678 
L 95.777112 185.571803 
L 96.900778 178.078597 
L 98.024443 175.907503 
L 100.271775 206.492269 
L 101.395441 207.859708 
L 102.519107 206.410949 
L 103.642773 202.828348 
L 104.766439 197.273181 
L 105.890105 192.942803 
L 107.013771 187.088708 
L 108.137437 188.93089 
L 109.261102 200.204772 
L 110.384768 206.425032 
L 111.508434 207.13601 
L 112.6321 204.105836 
L 113.755766 198.866407 
L 116.003098 186.361829 
L 117.126764 191.685758 
L 118.25043 206.539061 
L 119.374095 210.578233 
L 120.497761 210.660007 
L 121.621427 209.875433 
L 123.868759 204.325717 
L 124.992425 199.212128 
L 126.116091 191.87929 
L 127.239757 182.568888 
L 128.363423 178.977655 
L 129.487089 192.112799 
L 130.610754 203.304907 
L 131.73442 206.818909 
L 132.858086 207.771574 
L 133.981752 207.053782 
L 135.105418 204.146269 
L 136.229084 198.29717 
L 138.476416 177.284483 
L 139.600082 164.612723 
L 140.723748 157.852755 
L 141.847413 160.346856 
L 144.094745 204.177616 
L 145.218411 208.662454 
L 146.342077 205.614563 
L 147.465743 205.217052 
L 148.589409 200.701775 
L 150.836741 186.489487 
L 151.960407 180.650838 
L 153.084072 178.78276 
L 154.207738 182.027818 
L 155.331404 187.649312 
L 156.45507 191.057463 
L 157.578736 197.817885 
L 158.702402 203.032328 
L 159.826068 204.993082 
L 160.949734 200.965268 
L 162.0734 195.2938 
L 164.320731 173.791378 
L 165.444397 164.685411 
L 166.568063 153.227992 
L 167.691729 145.218702 
L 168.815395 148.539627 
L 169.939061 154.104789 
L 172.186393 160.991961 
L 173.310059 159.679037 
L 174.433725 161.328142 
L 175.55739 165.925647 
L 176.681056 166.052851 
L 177.804722 166.834245 
L 180.052054 182.215443 
L 181.17572 186.930612 
L 182.299386 186.945149 
L 184.546718 178.457028 
L 185.670384 176.992823 
L 186.794049 182.259056 
L 187.917715 189.208921 
L 189.041381 195.14479 
L 190.165047 195.043936 
L 191.288713 190.580449 
L 195.783377 178.002275 
L 196.907042 173.580129 
L 198.030708 173.214419 
L 199.154374 181.996471 
L 201.401706 204.599659 
L 202.525372 205.690885 
L 203.649038 201.137447 
L 204.772704 192.364027 
L 205.89637 181.19009 
L 207.020036 164.503691 
L 208.143701 151.746978 
L 209.267367 156.262709 
L 210.391033 184.399712 
L 211.514699 203.517519 
L 212.638365 202.970089 
L 213.762031 204.586485 
L 214.885697 198.146797 
L 216.009363 191.042017 
L 218.256695 165.739384 
L 220.504026 147.176731 
L 221.627692 141.616112 
L 222.751358 145.636657 
L 223.875024 139.771658 
L 224.99869 132.61645 
L 226.122356 127.660049 
L 227.246022 128.109805 
L 228.369688 129.27281 
L 229.493354 132.003147 
L 230.617019 116.139029 
L 231.740685 108.188798 
L 232.864351 109.547151 
L 233.988017 99.325426 
L 235.111683 52.314574 
L 236.235349 61.33695 
L 237.359015 75.465647 
L 238.482681 87.740803 
L 239.606347 93.528572 
L 240.730013 117.692731 
L 242.977344 159.94253 
L 244.10101 172.65654 
L 245.224676 183.981303 
L 246.348342 185.27242 
L 247.472008 179.192084 
L 248.595674 167.320345 
L 250.843006 123.044372 
L 253.090337 77.632652 
L 254.214003 65.012229 
L 255.337669 49.561522 
L 257.585001 31.303249 
L 258.708667 45.418316 
L 259.832333 50.070337 
L 260.955999 78.663911 
L 262.079665 138.744943 
L 263.20333 186.906079 
L 264.326996 200.749022 
L 265.450662 201.729853 
L 266.574328 195.454622 
L 267.697994 191.109707 
L 268.82166 175.706703 
L 269.945326 158.443344 
L 271.068992 150.016099 
L 272.192658 159.183851 
L 273.316324 172.025973 
L 274.439989 187.781059 
L 275.563655 195.665417 
L 276.687321 195.570923 
L 277.810987 191.836586 
L 278.934653 181.933778 
L 280.058319 169.737215 
L 281.181985 158.897643 
L 282.305651 149.5618 
L 283.429317 153.337024 
L 284.552983 168.43792 
L 285.676648 180.952492 
L 286.800314 182.314026 
L 287.92398 184.249339 
L 289.047646 186.986945 
L 290.171312 190.945251 
L 291.294978 195.477337 
L 292.418644 195.432816 
L 293.54231 189.203923 
L 294.665976 180.803028 
L 296.913307 153.963956 
L 298.036973 147.612858 
L 299.160639 149.916153 
L 301.407971 158.734095 
L 303.655303 175.244226 
L 304.778969 181.355001 
L 305.902635 182.287222 
L 307.026301 177.512541 
L 308.149966 169.619097 
L 309.273632 162.772812 
L 310.397298 158.579633 
L 311.520964 159.415543 
L 312.64463 161.70521 
L 313.768296 168.705956 
L 314.891962 185.307402 
L 316.015628 199.803171 
L 317.139294 202.47672 
L 318.26296 200.751747 
L 319.386625 198.302622 
L 320.510291 194.287074 
L 321.633957 192.637969 
L 321.633957 192.637969 
" style="fill:none;stroke:#1f77b4;stroke-linecap:square;stroke-width:1.5;"/>
   </g>
   <g id="patch_3">
    <path d="M 39.65 219.990852 
L 39.65 22.318125 
" style="fill:none;stroke:#000000;stroke-linecap:square;stroke-linejoin:miter;stroke-width:0.8;"/>
   </g>
   <g id="patch_4">
    <path d="M 335.061765 219.990852 
L 335.061765 22.318125 
" style="fill:none;stroke:#000000;stroke-linecap:square;stroke-linejoin:miter;stroke-width:0.8;"/>
   </g>
   <g id="patch_5">
    <path d="M 39.65 219.990852 
L 335.061765 219.990852 
" style="fill:none;stroke:#000000;stroke-linecap:square;stroke-linejoin:miter;stroke-width:0.8;"/>
   </g>
   <g id="patch_6">
    <path d="M 39.65 22.318125 
L 335.061765 22.318125 
" style="fill:none;stroke:#000000;stroke-linecap:square;stroke-linejoin:miter;stroke-width:0.8;"/>
   </g>
   <g id="text_16">
    <!-- p53 -->
    <g transform="translate(175.91182 16.318125)scale(0.12 -0.12)">
     <defs>
      <path d="M 18.109375 8.203125 
L 18.109375 -20.796875 
L 9.078125 -20.796875 
L 9.078125 54.6875 
L 18.109375 54.6875 
L 18.109375 46.390625 
Q 20.953125 51.265625 25.265625 53.625 
Q 29.59375 56 35.59375 56 
Q 45.5625 56 51.78125 48.09375 
Q 58.015625 40.1875 58.015625 27.296875 
Q 58.015625 14.40625 51.78125 6.484375 
Q 45.5625 -1.421875 35.59375 -1.421875 
Q 29.59375 -1.421875 25.265625 0.953125 
Q 20.953125 3.328125 18.109375 8.203125 
z
M 48.6875 27.296875 
Q 48.6875 37.203125 44.609375 42.84375 
Q 40.53125 48.484375 33.40625 48.484375 
Q 26.265625 48.484375 22.1875 42.84375 
Q 18.109375 37.203125 18.109375 27.296875 
Q 18.109375 17.390625 22.1875 11.75 
Q 26.265625 6.109375 33.40625 6.109375 
Q 40.53125 6.109375 44.609375 11.75 
Q 48.6875 17.390625 48.6875 27.296875 
z
" id="DejaVuSans-112"/>
     </defs>
     <use xlink:href="#DejaVuSans-112"/>
     <use x="63.476562" xlink:href="#DejaVuSans-53"/>
     <use x="127.099609" xlink:href="#DejaVuSans-51"/>
    </g>
   </g>
  </g>
  <g id="axes_2">
   <g id="patch_7">
    <path d="M 39.65 457.198125 
L 335.061765 457.198125 
L 335.061765 259.525398 
L 39.65 259.525398 
z
" style="fill:#ffffff;"/>
   </g>
   <g id="matplotlib.axis_3">
    <g id="xtick_7">
     <g id="line2d_17">
      <g>
       <use style="stroke:#000000;stroke-width:0.8;" x="53.077807" xlink:href="#m1d4aafa83f" y="457.198125"/>
      </g>
     </g>
     <g id="text_17">
      <!-- 0 -->
      <g transform="translate(49.896557 471.796562)scale(0.1 -0.1)">
       <use xlink:href="#DejaVuSans-48"/>
      </g>
     </g>
    </g>
    <g id="xtick_8">
     <g id="line2d_18">
      <g>
       <use style="stroke:#000000;stroke-width:0.8;" x="109.261102" xlink:href="#m1d4aafa83f" y="457.198125"/>
      </g>
     </g>
     <g id="text_18">
      <!-- 50 -->
      <g transform="translate(102.898602 471.796562)scale(0.1 -0.1)">
       <use xlink:href="#DejaVuSans-53"/>
       <use x="63.623047" xlink:href="#DejaVuSans-48"/>
      </g>
     </g>
    </g>
    <g id="xtick_9">
     <g id="line2d_19">
      <g>
       <use style="stroke:#000000;stroke-width:0.8;" x="165.444397" xlink:href="#m1d4aafa83f" y="457.198125"/>
      </g>
     </g>
     <g id="text_19">
      <!-- 100 -->
      <g transform="translate(155.900647 471.796562)scale(0.1 -0.1)">
       <use xlink:href="#DejaVuSans-49"/>
       <use x="63.623047" xlink:href="#DejaVuSans-48"/>
       <use x="127.246094" xlink:href="#DejaVuSans-48"/>
      </g>
     </g>
    </g>
    <g id="xtick_10">
     <g id="line2d_20">
      <g>
       <use style="stroke:#000000;stroke-width:0.8;" x="221.627692" xlink:href="#m1d4aafa83f" y="457.198125"/>
      </g>
     </g>
     <g id="text_20">
      <!-- 150 -->
      <g transform="translate(212.083942 471.796562)scale(0.1 -0.1)">
       <use xlink:href="#DejaVuSans-49"/>
       <use x="63.623047" xlink:href="#DejaVuSans-53"/>
       <use x="127.246094" xlink:href="#DejaVuSans-48"/>
      </g>
     </g>
    </g>
    <g id="xtick_11">
     <g id="line2d_21">
      <g>
       <use style="stroke:#000000;stroke-width:0.8;" x="277.810987" xlink:href="#m1d4aafa83f" y="457.198125"/>
      </g>
     </g>
     <g id="text_21">
      <!-- 200 -->
      <g transform="translate(268.267237 471.796562)scale(0.1 -0.1)">
       <use xlink:href="#DejaVuSans-50"/>
       <use x="63.623047" xlink:href="#DejaVuSans-48"/>
       <use x="127.246094" xlink:href="#DejaVuSans-48"/>
      </g>
     </g>
    </g>
    <g id="xtick_12">
     <g id="line2d_22">
      <g>
       <use style="stroke:#000000;stroke-width:0.8;" x="333.994282" xlink:href="#m1d4aafa83f" y="457.198125"/>
      </g>
     </g>
     <g id="text_22">
      <!-- 250 -->
      <g transform="translate(324.450532 471.796562)scale(0.1 -0.1)">
       <use xlink:href="#DejaVuSans-50"/>
       <use x="63.623047" xlink:href="#DejaVuSans-53"/>
       <use x="127.246094" xlink:href="#DejaVuSans-48"/>
      </g>
     </g>
    </g>
   </g>
   <g id="matplotlib.axis_4">
    <g id="ytick_10">
     <g id="line2d_23">
      <g>
       <use style="stroke:#000000;stroke-width:0.8;" x="39.65" xlink:href="#m9fdbe76523" y="448.91327"/>
      </g>
     </g>
     <g id="text_23">
      <!-- 0 -->
      <g transform="translate(26.2875 452.712489)scale(0.1 -0.1)">
       <use xlink:href="#DejaVuSans-48"/>
      </g>
     </g>
    </g>
    <g id="ytick_11">
     <g id="line2d_24">
      <g>
       <use style="stroke:#000000;stroke-width:0.8;" x="39.65" xlink:href="#m9fdbe76523" y="423.249238"/>
      </g>
     </g>
     <g id="text_24">
      <!-- 500 -->
      <g transform="translate(13.5625 427.048456)scale(0.1 -0.1)">
       <use xlink:href="#DejaVuSans-53"/>
       <use x="63.623047" xlink:href="#DejaVuSans-48"/>
       <use x="127.246094" xlink:href="#DejaVuSans-48"/>
      </g>
     </g>
    </g>
    <g id="ytick_12">
     <g id="line2d_25">
      <g>
       <use style="stroke:#000000;stroke-width:0.8;" x="39.65" xlink:href="#m9fdbe76523" y="397.585205"/>
      </g>
     </g>
     <g id="text_25">
      <!-- 1000 -->
      <g transform="translate(7.2 401.384424)scale(0.1 -0.1)">
       <use xlink:href="#DejaVuSans-49"/>
       <use x="63.623047" xlink:href="#DejaVuSans-48"/>
       <use x="127.246094" xlink:href="#DejaVuSans-48"/>
       <use x="190.869141" xlink:href="#DejaVuSans-48"/>
      </g>
     </g>
    </g>
    <g id="ytick_13">
     <g id="line2d_26">
      <g>
       <use style="stroke:#000000;stroke-width:0.8;" x="39.65" xlink:href="#m9fdbe76523" y="371.921173"/>
      </g>
     </g>
     <g id="text_26">
      <!-- 1500 -->
      <g transform="translate(7.2 375.720392)scale(0.1 -0.1)">
       <use xlink:href="#DejaVuSans-49"/>
       <use x="63.623047" xlink:href="#DejaVuSans-53"/>
       <use x="127.246094" xlink:href="#DejaVuSans-48"/>
       <use x="190.869141" xlink:href="#DejaVuSans-48"/>
      </g>
     </g>
    </g>
    <g id="ytick_14">
     <g id="line2d_27">
      <g>
       <use style="stroke:#000000;stroke-width:0.8;" x="39.65" xlink:href="#m9fdbe76523" y="346.257141"/>
      </g>
     </g>
     <g id="text_27">
      <!-- 2000 -->
      <g transform="translate(7.2 350.05636)scale(0.1 -0.1)">
       <use xlink:href="#DejaVuSans-50"/>
       <use x="63.623047" xlink:href="#DejaVuSans-48"/>
       <use x="127.246094" xlink:href="#DejaVuSans-48"/>
       <use x="190.869141" xlink:href="#DejaVuSans-48"/>
      </g>
     </g>
    </g>
    <g id="ytick_15">
     <g id="line2d_28">
      <g>
       <use style="stroke:#000000;stroke-width:0.8;" x="39.65" xlink:href="#m9fdbe76523" y="320.593109"/>
      </g>
     </g>
     <g id="text_28">
      <!-- 2500 -->
      <g transform="translate(7.2 324.392327)scale(0.1 -0.1)">
       <use xlink:href="#DejaVuSans-50"/>
       <use x="63.623047" xlink:href="#DejaVuSans-53"/>
       <use x="127.246094" xlink:href="#DejaVuSans-48"/>
       <use x="190.869141" xlink:href="#DejaVuSans-48"/>
      </g>
     </g>
    </g>
    <g id="ytick_16">
     <g id="line2d_29">
      <g>
       <use style="stroke:#000000;stroke-width:0.8;" x="39.65" xlink:href="#m9fdbe76523" y="294.929076"/>
      </g>
     </g>
     <g id="text_29">
      <!-- 3000 -->
      <g transform="translate(7.2 298.728295)scale(0.1 -0.1)">
       <use xlink:href="#DejaVuSans-51"/>
       <use x="63.623047" xlink:href="#DejaVuSans-48"/>
       <use x="127.246094" xlink:href="#DejaVuSans-48"/>
       <use x="190.869141" xlink:href="#DejaVuSans-48"/>
      </g>
     </g>
    </g>
    <g id="ytick_17">
     <g id="line2d_30">
      <g>
       <use style="stroke:#000000;stroke-width:0.8;" x="39.65" xlink:href="#m9fdbe76523" y="269.265044"/>
      </g>
     </g>
     <g id="text_30">
      <!-- 3500 -->
      <g transform="translate(7.2 273.064263)scale(0.1 -0.1)">
       <use xlink:href="#DejaVuSans-51"/>
       <use x="63.623047" xlink:href="#DejaVuSans-53"/>
       <use x="127.246094" xlink:href="#DejaVuSans-48"/>
       <use x="190.869141" xlink:href="#DejaVuSans-48"/>
      </g>
     </g>
    </g>
   </g>
   <g id="line2d_31">
    <path clip-path="url(#p32c8cf6450)" d="M 53.077807 447.607176 
L 55.325139 447.912219 
L 59.819803 447.51304 
L 60.943469 447.676161 
L 62.067135 447.600965 
L 63.190801 448.213001 
L 64.314466 447.616672 
L 65.438132 446.854912 
L 66.561798 447.229555 
L 68.80913 446.432533 
L 69.932796 446.750972 
L 71.056462 445.033895 
L 72.180128 445.840464 
L 75.551125 445.872801 
L 76.674791 443.151695 
L 78.922123 435.649071 
L 80.045789 434.04199 
L 81.169455 435.586964 
L 82.293121 432.897374 
L 83.416787 436.325575 
L 84.540453 436.157219 
L 85.664119 437.065213 
L 86.787784 437.279764 
L 87.91145 435.820507 
L 89.035116 432.769054 
L 91.282448 430.139004 
L 92.406114 428.730048 
L 93.52978 428.897378 
L 94.653446 429.729406 
L 95.777112 432.274251 
L 96.900778 432.524219 
L 98.024443 432.047894 
L 99.148109 430.78933 
L 100.271775 429.703228 
L 101.395441 427.380633 
L 102.519107 427.260526 
L 103.642773 427.321093 
L 104.766439 428.151581 
L 105.890105 429.437349 
L 107.013771 429.354198 
L 108.137437 427.984765 
L 109.261102 420.556567 
L 110.384768 411.576722 
L 111.508434 404.328173 
L 112.6321 398.070256 
L 113.755766 395.891379 
L 114.879432 395.27031 
L 116.003098 393.51489 
L 117.126764 392.996476 
L 118.25043 386.662593 
L 119.374095 383.079894 
L 120.497761 377.069378 
L 121.621427 375.544934 
L 122.745093 377.05398 
L 123.868759 380.872788 
L 124.992425 386.724187 
L 126.116091 388.910762 
L 127.239757 389.732012 
L 128.363423 390.845831 
L 129.487089 389.090411 
L 130.610754 380.569952 
L 131.73442 367.419702 
L 132.858086 356.142926 
L 133.981752 352.354915 
L 135.105418 353.088906 
L 136.229084 355.680974 
L 137.35275 365.484634 
L 138.476416 372.706493 
L 139.600082 374.846873 
L 140.723748 374.579967 
L 141.847413 369.000606 
L 142.971079 366.316149 
L 144.094745 359.407391 
L 145.218411 341.124334 
L 146.342077 313.33532 
L 147.465743 337.587831 
L 148.589409 341.493897 
L 149.713075 348.613099 
L 150.836741 353.273687 
L 153.084072 359.315001 
L 154.207738 357.775159 
L 155.331404 358.724728 
L 156.45507 356.959042 
L 157.578736 351.461807 
L 158.702402 349.952762 
L 159.826068 345.543681 
L 160.949734 343.659941 
L 162.0734 349.593465 
L 164.320731 337.438979 
L 165.444397 346.133954 
L 166.568063 344.055167 
L 167.691729 337.423581 
L 168.815395 332.034134 
L 169.939061 320.670101 
L 171.062727 317.831659 
L 172.186393 323.477746 
L 173.310059 324.155276 
L 174.433725 321.137186 
L 175.55739 320.146555 
L 176.681056 318.704236 
L 177.804722 316.861558 
L 178.928388 325.212634 
L 180.052054 325.607861 
L 181.17572 333.645835 
L 182.299386 340.236359 
L 183.423052 342.243286 
L 184.546718 347.227241 
L 185.670384 349.891168 
L 186.794049 354.079538 
L 187.917715 357.169487 
L 189.041381 362.446012 
L 190.165047 359.648633 
L 191.288713 360.546874 
L 192.412379 370.868948 
L 193.536045 375.206169 
L 195.783377 380.138796 
L 196.907042 380.251718 
L 198.030708 380.097734 
L 199.154374 381.46306 
L 200.27804 378.77347 
L 201.401706 382.782192 
L 202.525372 384.404158 
L 203.649038 381.062701 
L 204.772704 381.211553 
L 205.89637 385.471782 
L 207.020036 383.280074 
L 208.143701 379.584453 
L 209.267367 378.973649 
L 210.391033 371.371963 
L 211.514699 361.003694 
L 212.638365 344.31694 
L 213.762031 340.662382 
L 214.885697 345.035533 
L 216.009363 347.75592 
L 217.133029 351.59526 
L 218.256695 356.33284 
L 219.38036 366.30075 
L 220.504026 370.992135 
L 221.627692 369.986105 
L 222.751358 376.063348 
L 223.875024 377.382479 
L 226.122356 375.970957 
L 227.246022 373.938366 
L 228.369688 376.787074 
L 229.493354 379.327813 
L 230.617019 369.580613 
L 231.740685 370.319738 
L 232.864351 375.175372 
L 233.988017 371.269307 
L 235.111683 333.686898 
L 236.235349 333.230078 
L 238.482681 354.218124 
L 239.606347 349.706387 
L 240.730013 347.9561 
L 241.853678 344.77376 
L 242.977344 343.952511 
L 244.10101 341.97638 
L 245.224676 346.031297 
L 246.348342 348.346193 
L 247.472008 354.885389 
L 248.595674 359.674297 
L 249.71934 361.773615 
L 250.843006 362.132911 
L 251.966672 362.882301 
L 253.090337 361.475912 
L 254.214003 363.256996 
L 255.337669 358.237111 
L 256.461335 351.728713 
L 257.585001 342.197091 
L 258.708667 339.594758 
L 259.832333 329.324012 
L 263.20333 289.637153 
L 265.450662 275.378217 
L 266.574328 272.021361 
L 268.82166 282.189451 
L 269.945326 287.871468 
L 271.068992 284.334964 
L 272.192658 288.538732 
L 273.316324 283.796019 
L 274.439989 281.896881 
L 275.563655 278.883924 
L 276.687321 268.510522 
L 277.810987 272.42172 
L 278.934653 275.429545 
L 280.058319 272.601368 
L 282.305651 288.564396 
L 283.429317 287.548101 
L 284.552983 286.331626 
L 285.676648 295.426959 
L 286.800314 298.342393 
L 287.92398 299.923297 
L 289.047646 295.324303 
L 290.171312 295.067662 
L 291.294978 304.275917 
L 293.54231 305.713103 
L 294.665976 312.216369 
L 295.789642 314.105241 
L 296.913307 315.593755 
L 298.036973 321.896842 
L 299.160639 325.77211 
L 300.284305 328.887724 
L 301.407971 328.302584 
L 302.531637 326.983453 
L 303.655303 325.2229 
L 304.778969 325.654056 
L 305.902635 325.197236 
L 307.026301 322.528177 
L 308.149966 322.00463 
L 309.273632 322.774551 
L 310.397298 325.217767 
L 311.520964 322.415255 
L 312.64463 320.300539 
L 313.768296 317.72387 
L 314.891962 313.232664 
L 316.015628 310.928034 
L 317.139294 309.634567 
L 318.26296 306.826922 
L 319.386625 304.855924 
L 320.510291 306.806391 
L 321.633957 308.253842 
L 321.633957 308.253842 
" style="fill:none;stroke:#1f77b4;stroke-linecap:square;stroke-width:1.5;"/>
   </g>
   <g id="patch_8">
    <path d="M 39.65 457.198125 
L 39.65 259.525398 
" style="fill:none;stroke:#000000;stroke-linecap:square;stroke-linejoin:miter;stroke-width:0.8;"/>
   </g>
   <g id="patch_9">
    <path d="M 335.061765 457.198125 
L 335.061765 259.525398 
" style="fill:none;stroke:#000000;stroke-linecap:square;stroke-linejoin:miter;stroke-width:0.8;"/>
   </g>
   <g id="patch_10">
    <path d="M 39.65 457.198125 
L 335.061765 457.198125 
" style="fill:none;stroke:#000000;stroke-linecap:square;stroke-linejoin:miter;stroke-width:0.8;"/>
   </g>
   <g id="patch_11">
    <path d="M 39.65 259.525398 
L 335.061765 259.525398 
" style="fill:none;stroke:#000000;stroke-linecap:square;stroke-linejoin:miter;stroke-width:0.8;"/>
   </g>
   <g id="text_31">
    <!-- p21 -->
    <g transform="translate(175.91182 253.525398)scale(0.12 -0.12)">
     <use xlink:href="#DejaVuSans-112"/>
     <use x="63.476562" xlink:href="#DejaVuSans-50"/>
     <use x="127.099609" xlink:href="#DejaVuSans-49"/>
    </g>
   </g>
  </g>
  <g id="axes_3">
   <g id="patch_12">
    <path d="M 394.144118 219.990852 
L 689.555882 219.990852 
L 689.555882 22.318125 
L 394.144118 22.318125 
z
" style="fill:#ffffff;"/>
   </g>
   <g id="matplotlib.axis_5">
    <g id="xtick_13">
     <g id="line2d_32">
      <g>
       <use style="stroke:#000000;stroke-width:0.8;" x="407.571925" xlink:href="#m1d4aafa83f" y="219.990852"/>
      </g>
     </g>
     <g id="text_32">
      <!-- 0 -->
      <g transform="translate(404.390675 234.58929)scale(0.1 -0.1)">
       <use xlink:href="#DejaVuSans-48"/>
      </g>
     </g>
    </g>
    <g id="xtick_14">
     <g id="line2d_33">
      <g>
       <use style="stroke:#000000;stroke-width:0.8;" x="463.75522" xlink:href="#m1d4aafa83f" y="219.990852"/>
      </g>
     </g>
     <g id="text_33">
      <!-- 50 -->
      <g transform="translate(457.39272 234.58929)scale(0.1 -0.1)">
       <use xlink:href="#DejaVuSans-53"/>
       <use x="63.623047" xlink:href="#DejaVuSans-48"/>
      </g>
     </g>
    </g>
    <g id="xtick_15">
     <g id="line2d_34">
      <g>
       <use style="stroke:#000000;stroke-width:0.8;" x="519.938515" xlink:href="#m1d4aafa83f" y="219.990852"/>
      </g>
     </g>
     <g id="text_34">
      <!-- 100 -->
      <g transform="translate(510.394765 234.58929)scale(0.1 -0.1)">
       <use xlink:href="#DejaVuSans-49"/>
       <use x="63.623047" xlink:href="#DejaVuSans-48"/>
       <use x="127.246094" xlink:href="#DejaVuSans-48"/>
      </g>
     </g>
    </g>
    <g id="xtick_16">
     <g id="line2d_35">
      <g>
       <use style="stroke:#000000;stroke-width:0.8;" x="576.12181" xlink:href="#m1d4aafa83f" y="219.990852"/>
      </g>
     </g>
     <g id="text_35">
      <!-- 150 -->
      <g transform="translate(566.57806 234.58929)scale(0.1 -0.1)">
       <use xlink:href="#DejaVuSans-49"/>
       <use x="63.623047" xlink:href="#DejaVuSans-53"/>
       <use x="127.246094" xlink:href="#DejaVuSans-48"/>
      </g>
     </g>
    </g>
    <g id="xtick_17">
     <g id="line2d_36">
      <g>
       <use style="stroke:#000000;stroke-width:0.8;" x="632.305105" xlink:href="#m1d4aafa83f" y="219.990852"/>
      </g>
     </g>
     <g id="text_36">
      <!-- 200 -->
      <g transform="translate(622.761355 234.58929)scale(0.1 -0.1)">
       <use xlink:href="#DejaVuSans-50"/>
       <use x="63.623047" xlink:href="#DejaVuSans-48"/>
       <use x="127.246094" xlink:href="#DejaVuSans-48"/>
      </g>
     </g>
    </g>
    <g id="xtick_18">
     <g id="line2d_37">
      <g>
       <use style="stroke:#000000;stroke-width:0.8;" x="688.4884" xlink:href="#m1d4aafa83f" y="219.990852"/>
      </g>
     </g>
     <g id="text_37">
      <!-- 250 -->
      <g transform="translate(678.94465 234.58929)scale(0.1 -0.1)">
       <use xlink:href="#DejaVuSans-50"/>
       <use x="63.623047" xlink:href="#DejaVuSans-53"/>
       <use x="127.246094" xlink:href="#DejaVuSans-48"/>
      </g>
     </g>
    </g>
    <g id="text_38">
     <!-- p53 -->
     <g transform="translate(532.313281 248.267415)scale(0.1 -0.1)">
      <use xlink:href="#DejaVuSans-112"/>
      <use x="63.476562" xlink:href="#DejaVuSans-53"/>
      <use x="127.099609" xlink:href="#DejaVuSans-51"/>
     </g>
    </g>
   </g>
   <g id="matplotlib.axis_6">
    <g id="ytick_18">
     <g id="line2d_38">
      <g>
       <use style="stroke:#000000;stroke-width:0.8;" x="394.144118" xlink:href="#m9fdbe76523" y="211.005728"/>
      </g>
     </g>
     <g id="text_39">
      <!-- 0 -->
      <g transform="translate(380.781618 214.804947)scale(0.1 -0.1)">
       <use xlink:href="#DejaVuSans-48"/>
      </g>
     </g>
    </g>
    <g id="ytick_19">
     <g id="line2d_39">
      <g>
       <use style="stroke:#000000;stroke-width:0.8;" x="394.144118" xlink:href="#m9fdbe76523" y="173.411067"/>
      </g>
     </g>
     <g id="text_40">
      <!-- 50 -->
      <g transform="translate(374.419118 177.210286)scale(0.1 -0.1)">
       <use xlink:href="#DejaVuSans-53"/>
       <use x="63.623047" xlink:href="#DejaVuSans-48"/>
      </g>
     </g>
    </g>
    <g id="ytick_20">
     <g id="line2d_40">
      <g>
       <use style="stroke:#000000;stroke-width:0.8;" x="394.144118" xlink:href="#m9fdbe76523" y="135.816406"/>
      </g>
     </g>
     <g id="text_41">
      <!-- 100 -->
      <g transform="translate(368.056618 139.615625)scale(0.1 -0.1)">
       <use xlink:href="#DejaVuSans-49"/>
       <use x="63.623047" xlink:href="#DejaVuSans-48"/>
       <use x="127.246094" xlink:href="#DejaVuSans-48"/>
      </g>
     </g>
    </g>
    <g id="ytick_21">
     <g id="line2d_41">
      <g>
       <use style="stroke:#000000;stroke-width:0.8;" x="394.144118" xlink:href="#m9fdbe76523" y="98.221745"/>
      </g>
     </g>
     <g id="text_42">
      <!-- 150 -->
      <g transform="translate(368.056618 102.020964)scale(0.1 -0.1)">
       <use xlink:href="#DejaVuSans-49"/>
       <use x="63.623047" xlink:href="#DejaVuSans-53"/>
       <use x="127.246094" xlink:href="#DejaVuSans-48"/>
      </g>
     </g>
    </g>
    <g id="ytick_22">
     <g id="line2d_42">
      <g>
       <use style="stroke:#000000;stroke-width:0.8;" x="394.144118" xlink:href="#m9fdbe76523" y="60.627085"/>
      </g>
     </g>
     <g id="text_43">
      <!-- 200 -->
      <g transform="translate(368.056618 64.426303)scale(0.1 -0.1)">
       <use xlink:href="#DejaVuSans-50"/>
       <use x="63.623047" xlink:href="#DejaVuSans-48"/>
       <use x="127.246094" xlink:href="#DejaVuSans-48"/>
      </g>
     </g>
    </g>
    <g id="ytick_23">
     <g id="line2d_43">
      <g>
       <use style="stroke:#000000;stroke-width:0.8;" x="394.144118" xlink:href="#m9fdbe76523" y="23.032424"/>
      </g>
     </g>
     <g id="text_44">
      <!-- 250 -->
      <g transform="translate(368.056618 26.831642)scale(0.1 -0.1)">
       <use xlink:href="#DejaVuSans-50"/>
       <use x="63.623047" xlink:href="#DejaVuSans-53"/>
       <use x="127.246094" xlink:href="#DejaVuSans-48"/>
      </g>
     </g>
    </g>
    <g id="text_45">
     <!-- p21 -->
     <g transform="translate(361.97693 130.691207)rotate(-90)scale(0.1 -0.1)">
      <use xlink:href="#DejaVuSans-112"/>
      <use x="63.476562" xlink:href="#DejaVuSans-50"/>
      <use x="127.099609" xlink:href="#DejaVuSans-49"/>
     </g>
    </g>
   </g>
   <g id="line2d_44">
    <path clip-path="url(#pfa17f0af91)" d="M 407.571925 211.005728 
L 413.190255 207.246262 
L 413.190255 195.967864 
L 416.561252 193.712184 
L 416.561252 192.208398 
L 417.684918 191.456505 
L 421.055916 191.456505 
L 422.179582 190.704611 
L 422.179582 189.952718 
L 423.303248 189.200825 
L 423.303248 188.448932 
L 424.426914 187.697039 
L 424.426914 186.945145 
L 425.55058 186.193252 
L 425.55058 185.441359 
L 426.674245 184.689466 
L 453.642227 184.689466 
L 454.765893 183.937572 
L 462.631554 183.937572 
L 463.75522 183.185679 
L 471.620881 183.185679 
L 473.868213 181.681893 
L 477.239211 181.681893 
L 479.486543 180.178106 
L 479.486543 179.426213 
L 485.104872 175.666747 
L 488.47587 175.666747 
L 491.846868 173.411067 
L 516.567517 173.411067 
L 518.814849 171.907281 
L 518.814849 171.155388 
L 519.938515 170.403494 
L 519.938515 167.395922 
L 521.062181 166.644028 
L 521.062181 165.892135 
L 522.185847 165.140242 
L 523.309513 165.140242 
L 526.68051 162.884562 
L 527.804176 162.884562 
L 531.175174 160.628883 
L 550.277494 160.628883 
L 580.616473 140.327766 
L 580.616473 138.823979 
L 581.740139 138.072086 
L 582.863805 138.072086 
L 585.111137 136.5683 
L 585.111137 134.31262 
L 586.234803 133.560727 
L 587.358469 133.560727 
L 588.482135 132.808834 
L 588.482135 128.297474 
L 589.605801 127.545581 
L 591.853132 127.545581 
L 595.22413 125.289901 
L 595.22413 123.034222 
L 596.347796 122.282328 
L 596.347796 117.770969 
L 597.471462 117.019076 
L 597.471462 110.252037 
L 604.213457 105.740678 
L 604.213457 89.95092 
L 605.337123 89.199027 
L 605.337123 73.409269 
L 606.460789 72.657376 
L 606.460789 71.905483 
L 607.584455 71.15359 
L 607.584455 70.401696 
L 608.708121 69.649803 
L 608.708121 62.130871 
L 615.450116 57.619512 
L 615.450116 50.100579 
L 622.192112 45.58922 
L 654.778423 45.58922 
L 676.128075 31.303249 
L 676.128075 31.303249 
" style="fill:none;stroke:#1f77b4;stroke-linecap:square;stroke-width:1.5;"/>
   </g>
   <g id="patch_13">
    <path d="M 394.144118 219.990852 
L 394.144118 22.318125 
" style="fill:none;stroke:#000000;stroke-linecap:square;stroke-linejoin:miter;stroke-width:0.8;"/>
   </g>
   <g id="patch_14">
    <path d="M 689.555882 219.990852 
L 689.555882 22.318125 
" style="fill:none;stroke:#000000;stroke-linecap:square;stroke-linejoin:miter;stroke-width:0.8;"/>
   </g>
   <g id="patch_15">
    <path d="M 394.144118 219.990852 
L 689.555882 219.990852 
" style="fill:none;stroke:#000000;stroke-linecap:square;stroke-linejoin:miter;stroke-width:0.8;"/>
   </g>
   <g id="patch_16">
    <path d="M 394.144118 22.318125 
L 689.555882 22.318125 
" style="fill:none;stroke:#000000;stroke-linecap:square;stroke-linejoin:miter;stroke-width:0.8;"/>
   </g>
  </g>
  <g id="axes_4">
   <g id="patch_17">
    <path d="M 394.144118 457.198125 
L 689.555882 457.198125 
L 689.555882 259.525398 
L 394.144118 259.525398 
z
" style="fill:#ffffff;"/>
   </g>
   <g id="matplotlib.axis_7">
    <g id="xtick_19">
     <g id="line2d_45">
      <g>
       <use style="stroke:#000000;stroke-width:0.8;" x="407.571925" xlink:href="#m1d4aafa83f" y="457.198125"/>
      </g>
     </g>
     <g id="text_46">
      <!-- 0 -->
      <g transform="translate(404.390675 471.796562)scale(0.1 -0.1)">
       <use xlink:href="#DejaVuSans-48"/>
      </g>
     </g>
    </g>
    <g id="xtick_20">
     <g id="line2d_46">
      <g>
       <use style="stroke:#000000;stroke-width:0.8;" x="444.87139" xlink:href="#m1d4aafa83f" y="457.198125"/>
      </g>
     </g>
     <g id="text_47">
      <!-- 50 -->
      <g transform="translate(438.50889 471.796562)scale(0.1 -0.1)">
       <use xlink:href="#DejaVuSans-53"/>
       <use x="63.623047" xlink:href="#DejaVuSans-48"/>
      </g>
     </g>
    </g>
    <g id="xtick_21">
     <g id="line2d_47">
      <g>
       <use style="stroke:#000000;stroke-width:0.8;" x="482.170856" xlink:href="#m1d4aafa83f" y="457.198125"/>
      </g>
     </g>
     <g id="text_48">
      <!-- 100 -->
      <g transform="translate(472.627106 471.796562)scale(0.1 -0.1)">
       <use xlink:href="#DejaVuSans-49"/>
       <use x="63.623047" xlink:href="#DejaVuSans-48"/>
       <use x="127.246094" xlink:href="#DejaVuSans-48"/>
      </g>
     </g>
    </g>
    <g id="xtick_22">
     <g id="line2d_48">
      <g>
       <use style="stroke:#000000;stroke-width:0.8;" x="519.470321" xlink:href="#m1d4aafa83f" y="457.198125"/>
      </g>
     </g>
     <g id="text_49">
      <!-- 150 -->
      <g transform="translate(509.926571 471.796562)scale(0.1 -0.1)">
       <use xlink:href="#DejaVuSans-49"/>
       <use x="63.623047" xlink:href="#DejaVuSans-53"/>
       <use x="127.246094" xlink:href="#DejaVuSans-48"/>
      </g>
     </g>
    </g>
    <g id="xtick_23">
     <g id="line2d_49">
      <g>
       <use style="stroke:#000000;stroke-width:0.8;" x="556.769786" xlink:href="#m1d4aafa83f" y="457.198125"/>
      </g>
     </g>
     <g id="text_50">
      <!-- 200 -->
      <g transform="translate(547.226036 471.796562)scale(0.1 -0.1)">
       <use xlink:href="#DejaVuSans-50"/>
       <use x="63.623047" xlink:href="#DejaVuSans-48"/>
       <use x="127.246094" xlink:href="#DejaVuSans-48"/>
      </g>
     </g>
    </g>
    <g id="xtick_24">
     <g id="line2d_50">
      <g>
       <use style="stroke:#000000;stroke-width:0.8;" x="594.069251" xlink:href="#m1d4aafa83f" y="457.198125"/>
      </g>
     </g>
     <g id="text_51">
      <!-- 250 -->
      <g transform="translate(584.525501 471.796562)scale(0.1 -0.1)">
       <use xlink:href="#DejaVuSans-50"/>
       <use x="63.623047" xlink:href="#DejaVuSans-53"/>
       <use x="127.246094" xlink:href="#DejaVuSans-48"/>
      </g>
     </g>
    </g>
    <g id="xtick_25">
     <g id="line2d_51">
      <g>
       <use style="stroke:#000000;stroke-width:0.8;" x="631.368717" xlink:href="#m1d4aafa83f" y="457.198125"/>
      </g>
     </g>
     <g id="text_52">
      <!-- 300 -->
      <g transform="translate(621.824967 471.796562)scale(0.1 -0.1)">
       <use xlink:href="#DejaVuSans-51"/>
       <use x="63.623047" xlink:href="#DejaVuSans-48"/>
       <use x="127.246094" xlink:href="#DejaVuSans-48"/>
      </g>
     </g>
    </g>
    <g id="xtick_26">
     <g id="line2d_52">
      <g>
       <use style="stroke:#000000;stroke-width:0.8;" x="668.668182" xlink:href="#m1d4aafa83f" y="457.198125"/>
      </g>
     </g>
     <g id="text_53">
      <!-- 350 -->
      <g transform="translate(659.124432 471.796562)scale(0.1 -0.1)">
       <use xlink:href="#DejaVuSans-51"/>
       <use x="63.623047" xlink:href="#DejaVuSans-53"/>
       <use x="127.246094" xlink:href="#DejaVuSans-48"/>
      </g>
     </g>
    </g>
   </g>
   <g id="matplotlib.axis_8">
    <g id="ytick_24">
     <g id="line2d_53">
      <g>
       <use style="stroke:#000000;stroke-width:0.8;" x="394.144118" xlink:href="#m9fdbe76523" y="448.818675"/>
      </g>
     </g>
     <g id="text_54">
      <!-- 0 -->
      <g transform="translate(380.781618 452.617894)scale(0.1 -0.1)">
       <use xlink:href="#DejaVuSans-48"/>
      </g>
     </g>
    </g>
    <g id="ytick_25">
     <g id="line2d_54">
      <g>
       <use style="stroke:#000000;stroke-width:0.8;" x="394.144118" xlink:href="#m9fdbe76523" y="426.621438"/>
      </g>
     </g>
     <g id="text_55">
      <!-- 500 -->
      <g transform="translate(368.056618 430.420657)scale(0.1 -0.1)">
       <use xlink:href="#DejaVuSans-53"/>
       <use x="63.623047" xlink:href="#DejaVuSans-48"/>
       <use x="127.246094" xlink:href="#DejaVuSans-48"/>
      </g>
     </g>
    </g>
    <g id="ytick_26">
     <g id="line2d_55">
      <g>
       <use style="stroke:#000000;stroke-width:0.8;" x="394.144118" xlink:href="#m9fdbe76523" y="404.424202"/>
      </g>
     </g>
     <g id="text_56">
      <!-- 1000 -->
      <g transform="translate(361.694118 408.22342)scale(0.1 -0.1)">
       <use xlink:href="#DejaVuSans-49"/>
       <use x="63.623047" xlink:href="#DejaVuSans-48"/>
       <use x="127.246094" xlink:href="#DejaVuSans-48"/>
       <use x="190.869141" xlink:href="#DejaVuSans-48"/>
      </g>
     </g>
    </g>
    <g id="ytick_27">
     <g id="line2d_56">
      <g>
       <use style="stroke:#000000;stroke-width:0.8;" x="394.144118" xlink:href="#m9fdbe76523" y="382.226965"/>
      </g>
     </g>
     <g id="text_57">
      <!-- 1500 -->
      <g transform="translate(361.694118 386.026184)scale(0.1 -0.1)">
       <use xlink:href="#DejaVuSans-49"/>
       <use x="63.623047" xlink:href="#DejaVuSans-53"/>
       <use x="127.246094" xlink:href="#DejaVuSans-48"/>
       <use x="190.869141" xlink:href="#DejaVuSans-48"/>
      </g>
     </g>
    </g>
    <g id="ytick_28">
     <g id="line2d_57">
      <g>
       <use style="stroke:#000000;stroke-width:0.8;" x="394.144118" xlink:href="#m9fdbe76523" y="360.029728"/>
      </g>
     </g>
     <g id="text_58">
      <!-- 2000 -->
      <g transform="translate(361.694118 363.828947)scale(0.1 -0.1)">
       <use xlink:href="#DejaVuSans-50"/>
       <use x="63.623047" xlink:href="#DejaVuSans-48"/>
       <use x="127.246094" xlink:href="#DejaVuSans-48"/>
       <use x="190.869141" xlink:href="#DejaVuSans-48"/>
      </g>
     </g>
    </g>
    <g id="ytick_29">
     <g id="line2d_58">
      <g>
       <use style="stroke:#000000;stroke-width:0.8;" x="394.144118" xlink:href="#m9fdbe76523" y="337.832492"/>
      </g>
     </g>
     <g id="text_59">
      <!-- 2500 -->
      <g transform="translate(361.694118 341.63171)scale(0.1 -0.1)">
       <use xlink:href="#DejaVuSans-50"/>
       <use x="63.623047" xlink:href="#DejaVuSans-53"/>
       <use x="127.246094" xlink:href="#DejaVuSans-48"/>
       <use x="190.869141" xlink:href="#DejaVuSans-48"/>
      </g>
     </g>
    </g>
    <g id="ytick_30">
     <g id="line2d_59">
      <g>
       <use style="stroke:#000000;stroke-width:0.8;" x="394.144118" xlink:href="#m9fdbe76523" y="315.635255"/>
      </g>
     </g>
     <g id="text_60">
      <!-- 3000 -->
      <g transform="translate(361.694118 319.434474)scale(0.1 -0.1)">
       <use xlink:href="#DejaVuSans-51"/>
       <use x="63.623047" xlink:href="#DejaVuSans-48"/>
       <use x="127.246094" xlink:href="#DejaVuSans-48"/>
       <use x="190.869141" xlink:href="#DejaVuSans-48"/>
      </g>
     </g>
    </g>
    <g id="ytick_31">
     <g id="line2d_60">
      <g>
       <use style="stroke:#000000;stroke-width:0.8;" x="394.144118" xlink:href="#m9fdbe76523" y="293.438018"/>
      </g>
     </g>
     <g id="text_61">
      <!-- 3500 -->
      <g transform="translate(361.694118 297.237237)scale(0.1 -0.1)">
       <use xlink:href="#DejaVuSans-51"/>
       <use x="63.623047" xlink:href="#DejaVuSans-53"/>
       <use x="127.246094" xlink:href="#DejaVuSans-48"/>
       <use x="190.869141" xlink:href="#DejaVuSans-48"/>
      </g>
     </g>
    </g>
    <g id="ytick_32">
     <g id="line2d_61">
      <g>
       <use style="stroke:#000000;stroke-width:0.8;" x="394.144118" xlink:href="#m9fdbe76523" y="271.240782"/>
      </g>
     </g>
     <g id="text_62">
      <!-- 4000 -->
      <g transform="translate(361.694118 275.040001)scale(0.1 -0.1)">
       <use xlink:href="#DejaVuSans-52"/>
       <use x="63.623047" xlink:href="#DejaVuSans-48"/>
       <use x="127.246094" xlink:href="#DejaVuSans-48"/>
       <use x="190.869141" xlink:href="#DejaVuSans-48"/>
      </g>
     </g>
    </g>
   </g>
   <g id="line2d_62">
    <path clip-path="url(#p83c4fe7acf)" d="M 407.571925 430.494412 
L 408.317914 418.41512 
L 409.063904 412.171481 
L 410.555882 443.300886 
L 411.301872 444.1173 
L 422.491711 444.1173 
L 423.237701 443.134406 
L 423.98369 440.872064 
L 424.729679 435.690785 
L 426.221658 435.690785 
L 426.967647 428.328406 
L 427.713636 419.809106 
L 428.459626 415.478869 
L 429.205615 424.818135 
L 429.951604 436.927615 
L 430.697594 436.927615 
L 431.443583 438.774425 
L 432.189572 438.774425 
L 432.935561 436.765575 
L 433.681551 436.765575 
L 434.42754 431.559879 
L 435.173529 431.559879 
L 435.919519 421.968897 
L 436.665508 416.429799 
L 437.411497 408.584408 
L 438.157487 409.474073 
L 439.649465 436.792212 
L 440.395455 439.413706 
L 441.141444 438.584861 
L 441.887433 436.452594 
L 442.633422 428.392778 
L 443.379412 422.52738 
L 444.125401 412.528413 
L 444.87139 405.74183 
L 445.61738 405.687224 
L 447.109358 424.446553 
L 447.855348 435.800439 
L 448.601337 438.187086 
L 449.347326 436.573791 
L 450.093316 432.097053 
L 452.331283 411.94063 
L 453.077273 409.819018 
L 454.569251 439.706709 
L 455.315241 441.042983 
L 456.06123 439.627243 
L 456.807219 436.126295 
L 457.553209 430.697739 
L 458.299198 426.466058 
L 459.045187 420.745386 
L 459.791176 422.545582 
L 460.537166 433.562514 
L 461.283155 439.641005 
L 462.029144 440.335779 
L 462.775134 437.374668 
L 464.267112 426.434537 
L 465.013102 420.035074 
L 465.759091 425.237662 
L 466.50508 439.752436 
L 467.25107 443.699548 
L 467.997059 443.779458 
L 468.743048 443.012766 
L 470.235027 437.589537 
L 470.981016 432.592495 
L 471.727005 432.592495 
L 472.472995 425.426783 
L 473.218984 416.32858 
L 473.964973 412.819196 
L 475.456952 436.591993 
L 476.202941 440.025905 
L 476.94893 440.956858 
L 477.69492 440.255425 
L 478.440909 437.414179 
L 479.186898 431.69839 
L 480.678877 411.164614 
L 481.424866 398.781664 
L 482.170856 392.175766 
L 482.916845 394.613023 
L 484.408824 437.444811 
L 485.154813 441.827433 
L 485.900802 438.849008 
L 486.646791 438.460556 
L 487.392781 434.04819 
L 488.884759 420.159823 
L 489.630749 414.454245 
L 490.376738 412.628744 
L 491.122727 415.799841 
L 491.868717 421.293214 
L 492.614706 424.623687 
L 493.360695 431.230028 
L 494.106684 436.325626 
L 494.852674 438.241692 
L 495.598663 434.305678 
L 496.344652 428.763472 
L 497.836631 407.751123 
L 498.58262 407.751123 
L 499.32861 398.852695 
L 502.312567 398.852695 
L 503.058556 387.656409 
L 503.804545 387.656409 
L 504.550535 379.829663 
L 505.296524 383.074899 
L 506.042513 388.513222 
L 507.534492 395.243425 
L 508.280481 393.960424 
L 509.026471 395.571944 
L 509.77246 400.064664 
L 510.518449 400.188969 
L 511.264439 400.952554 
L 512.756417 415.983191 
L 513.502406 420.590893 
L 514.248396 420.605099 
L 515.740374 412.310436 
L 516.486364 410.879602 
L 517.232353 416.025809 
L 518.724332 428.617858 
L 519.470321 428.519302 
L 520.21631 424.157545 
L 523.200267 411.866047 
L 523.946257 407.544689 
L 524.692246 407.187314 
L 525.438235 415.769209 
L 526.930214 437.857235 
L 527.676203 438.923591 
L 528.422193 434.473933 
L 529.168182 425.900472 
L 529.914171 414.981207 
L 530.66016 398.675117 
L 531.40615 386.209149 
L 532.152139 390.62196 
L 532.898128 418.117677 
L 533.644118 436.799759 
L 534.390107 436.264806 
L 535.136096 437.844361 
L 536.628075 424.608593 
L 538.120053 399.882647 
L 539.612032 381.743065 
L 540.358021 376.309182 
L 541.104011 380.238093 
L 541.85 374.506766 
L 542.595989 367.514637 
L 543.341979 362.671199 
L 544.833957 362.671199 
L 545.579947 363.110705 
L 546.325936 364.247203 
L 547.071925 366.915311 
L 547.817914 351.412761 
L 550.055882 351.412761 
L 550.801872 343.643728 
L 551.547861 344.971123 
L 552.29385 334.982367 
L 556.769786 334.982367 
L 557.515775 289.042966 
L 558.261765 297.859708 
L 559.753743 323.661776 
L 560.499733 329.317632 
L 561.245722 352.931052 
L 563.48369 352.931052 
L 564.229679 373.143856 
L 568.705615 373.143856 
L 569.451604 394.217912 
L 576.165508 394.217912 
L 577.657487 417.708804 
L 578.403476 418.970495 
L 579.149465 413.028738 
L 579.895455 401.427575 
L 580.641444 380.491141 
L 596.307219 380.491141 
L 597.053209 358.160721 
L 612.718984 358.160721 
L 613.464973 336.034516 
L 614.210963 336.034516 
L 614.956952 313.784006 
L 615.702941 313.784006 
L 616.44893 301.451221 
L 623.908824 301.451221 
L 624.654813 286.35266 
L 626.146791 268.510522 
L 626.892781 282.303885 
L 627.63877 286.849879 
L 628.384759 314.79176 
L 635.844652 314.79176 
L 636.590642 373.503451 
L 637.336631 420.56692 
L 638.08262 434.09436 
L 638.82861 435.052837 
L 639.574599 428.920628 
L 640.320588 424.674741 
L 641.812567 392.752895 
L 642.558556 384.51772 
L 643.304545 393.476524 
L 644.050535 406.025954 
L 644.796524 421.421957 
L 645.542513 429.126618 
L 646.288503 429.034278 
L 647.034492 425.385052 
L 647.780481 415.707945 
L 649.27246 393.196839 
L 650.018449 384.073775 
L 650.764439 387.762956 
L 651.510428 402.519679 
L 652.256417 414.749024 
L 653.002406 416.079527 
L 653.748396 417.970731 
L 654.494385 420.645942 
L 655.986364 428.942825 
L 656.732353 428.899319 
L 657.478342 422.812392 
L 658.224332 414.602966 
L 659.71631 388.375599 
L 660.462299 382.169252 
L 661.208289 384.420052 
L 662.700267 393.037019 
L 664.192246 409.170859 
L 664.938235 415.142359 
L 665.684225 416.053334 
L 666.430214 411.387475 
L 667.922193 396.983688 
L 668.668182 392.886078 
L 669.414171 393.702936 
L 670.16016 395.940418 
L 670.90615 402.781606 
L 672.398128 433.170067 
L 673.144118 435.782682 
L 673.890107 434.097024 
L 674.636096 431.703718 
L 675.382086 427.77969 
L 676.128075 426.168171 
L 676.128075 426.168171 
" style="fill:none;stroke:#1f77b4;stroke-linecap:square;stroke-width:1.5;"/>
   </g>
   <g id="line2d_63">
    <path clip-path="url(#p83c4fe7acf)" d="M 407.571925 447.689013 
L 409.063904 447.952849 
L 412.047861 447.607594 
L 412.79385 447.748679 
L 413.53984 447.683641 
L 414.285829 448.213001 
L 415.031818 447.697226 
L 415.777807 447.038368 
L 416.523797 447.362403 
L 418.015775 446.673046 
L 418.761765 446.948469 
L 419.507754 445.463341 
L 420.253743 446.160955 
L 422.491711 446.188924 
L 423.237701 443.835395 
L 424.729679 437.346255 
L 425.475668 435.956264 
L 426.221658 437.292538 
L 426.967647 434.966267 
L 429.205615 434.966267 
L 429.951604 437.931374 
L 430.697594 437.78576 
L 431.443583 438.571099 
L 432.189572 438.756667 
L 432.935561 437.494533 
L 433.681551 434.855281 
L 435.173529 432.580508 
L 435.919519 431.36188 
L 453.823262 431.36188 
L 454.569251 431.506606 
L 459.791176 431.506606 
L 460.537166 432.22624 
L 465.759091 432.22624 
L 466.50508 434.427318 
L 467.25107 434.64352 
L 469.489037 434.64352 
L 470.235027 434.231539 
L 471.727005 432.203599 
L 472.472995 430.194749 
L 473.218984 430.090866 
L 473.964973 430.143252 
L 474.710963 430.861554 
L 475.456952 431.973636 
L 478.440909 431.901717 
L 479.186898 430.717272 
L 479.932888 424.292504 
L 496.344652 424.292504 
L 497.090642 416.525691 
L 498.58262 404.843729 
L 499.32861 402.959184 
L 500.074599 402.422011 
L 500.820588 400.90372 
L 501.566578 400.455336 
L 502.312567 394.977058 
L 503.058556 391.878323 
L 503.804545 386.679731 
L 504.550535 385.361215 
L 505.296524 385.361215 
L 506.042513 386.666412 
L 506.788503 389.969361 
L 507.534492 395.030331 
L 508.280481 395.030331 
L 509.026471 396.921536 
L 509.77246 397.631847 
L 510.518449 398.595207 
L 523.200267 398.595207 
L 523.946257 397.076916 
L 524.692246 389.707434 
L 526.184225 368.580104 
L 526.930214 365.303792 
L 527.676203 365.938633 
L 528.422193 368.180554 
L 529.168182 376.659898 
L 529.914171 382.9062 
L 530.66016 384.75745 
L 531.40615 384.526599 
L 532.152139 379.700919 
L 532.898128 377.379088 
L 533.644118 371.403592 
L 534.390107 355.590281 
L 535.136096 331.555113 
L 535.882086 352.531502 
L 536.628075 355.909921 
L 537.374064 362.067435 
L 538.120053 366.098453 
L 539.612032 371.323682 
L 540.358021 369.991848 
L 541.104011 370.813146 
L 541.85 369.285976 
L 542.595989 364.531328 
L 543.341979 363.22613 
L 544.087968 359.412645 
L 544.833957 357.783368 
L 545.579947 362.915369 
L 546.325936 362.915369 
L 547.817914 352.402758 
L 548.563904 359.923182 
L 549.309893 358.125205 
L 550.055882 352.389439 
L 550.801872 347.72802 
L 551.547861 347.72802 
L 552.29385 337.899083 
L 553.03984 335.444069 
L 553.785829 340.327461 
L 554.531818 340.913468 
L 555.277807 338.303073 
L 556.023797 337.44626 
L 556.769786 336.198775 
L 557.515775 334.605013 
L 559.007754 334.605013 
L 559.753743 341.827994 
L 560.499733 342.169832 
L 561.245722 349.122006 
L 561.991711 354.822257 
L 562.737701 356.558081 
L 563.48369 360.868784 
L 564.229679 363.172857 
L 564.975668 366.795446 
L 565.721658 369.467993 
L 566.467647 374.031745 
L 567.213636 371.612246 
L 567.959626 372.38915 
L 568.705615 381.316878 
L 569.451604 385.068211 
L 570.943583 389.33452 
L 571.689572 389.432188 
L 572.435561 389.299005 
L 573.181551 390.479898 
L 573.92754 388.153627 
L 574.673529 391.620835 
L 575.419519 393.023701 
L 576.165508 390.133621 
L 576.911497 390.262365 
L 577.657487 393.947106 
L 578.403476 392.051462 
L 579.149465 388.85506 
L 579.895455 388.326766 
L 580.641444 381.751944 
L 581.387433 372.78426 
L 582.133422 358.351617 
L 582.879412 355.190731 
L 583.625401 358.97314 
L 584.37139 361.326047 
L 585.11738 364.646754 
L 585.863369 368.744363 
L 586.609358 377.36577 
L 587.355348 381.423425 
L 588.101337 380.553293 
L 588.847326 385.809599 
L 589.593316 386.950537 
L 591.085294 385.729689 
L 591.831283 383.971668 
L 593.323262 388.633087 
L 594.069251 380.202577 
L 594.815241 380.841857 
L 595.56123 385.041575 
L 596.307219 381.663155 
L 597.053209 349.157522 
L 597.799198 348.762411 
L 599.291176 366.915311 
L 600.037166 363.013037 
L 600.783155 361.499185 
L 601.529144 358.746728 
L 602.275134 358.036416 
L 603.021123 356.327229 
L 603.767112 359.834393 
L 604.513102 361.836583 
L 605.259091 367.492439 
L 606.00508 371.634444 
L 606.75107 373.450178 
L 607.497059 373.760939 
L 608.243048 374.409098 
L 608.989037 373.19269 
L 609.735027 374.733178 
L 610.481016 370.391398 
L 611.227005 364.762179 
L 611.972995 356.518125 
L 612.718984 354.267326 
L 613.464973 345.383992 
L 615.702941 311.058185 
L 617.19492 298.7254 
L 617.940909 295.822002 
L 619.432888 304.616547 
L 620.178877 309.531015 
L 620.924866 306.472236 
L 621.670856 310.108143 
L 622.416845 306.006094 
L 623.162834 304.363498 
L 623.908824 301.757543 
L 624.654813 292.78542 
L 625.400802 296.168279 
L 626.146791 298.769795 
L 626.892781 296.323659 
L 628.384759 310.13034 
L 629.130749 309.25133 
L 629.876738 308.199181 
L 630.622727 316.065881 
L 631.368717 318.587488 
L 632.114706 319.954837 
L 632.860695 315.977093 
L 633.606684 315.75512 
L 634.352674 323.719489 
L 635.844652 324.962534 
L 636.590642 330.587314 
L 637.336631 332.22103 
L 638.08262 333.50847 
L 638.82861 338.960111 
L 639.574599 342.311894 
L 640.320588 345.006639 
L 661.954278 345.006639 
L 662.700267 344.500542 
L 663.446257 343.359604 
L 664.192246 341.836873 
L 664.938235 342.209787 
L 665.684225 341.814676 
L 666.430214 339.506163 
L 667.176203 339.05334 
L 667.922193 339.719257 
L 668.668182 341.832434 
L 669.414171 339.408495 
L 670.16016 337.579443 
L 670.90615 335.350841 
L 671.652139 331.466324 
L 672.398128 329.473012 
L 673.144118 328.354272 
L 673.890107 325.925894 
L 674.636096 324.221146 
L 675.382086 325.908136 
L 676.128075 327.16006 
L 676.128075 327.16006 
" style="fill:none;stroke:#ff7f0e;stroke-linecap:square;stroke-width:1.5;"/>
   </g>
   <g id="patch_18">
    <path d="M 394.144118 457.198125 
L 394.144118 259.525398 
" style="fill:none;stroke:#000000;stroke-linecap:square;stroke-linejoin:miter;stroke-width:0.8;"/>
   </g>
   <g id="patch_19">
    <path d="M 689.555882 457.198125 
L 689.555882 259.525398 
" style="fill:none;stroke:#000000;stroke-linecap:square;stroke-linejoin:miter;stroke-width:0.8;"/>
   </g>
   <g id="patch_20">
    <path d="M 394.144118 457.198125 
L 689.555882 457.198125 
" style="fill:none;stroke:#000000;stroke-linecap:square;stroke-linejoin:miter;stroke-width:0.8;"/>
   </g>
   <g id="patch_21">
    <path d="M 394.144118 259.525398 
L 689.555882 259.525398 
" style="fill:none;stroke:#000000;stroke-linecap:square;stroke-linejoin:miter;stroke-width:0.8;"/>
   </g>
   <g id="text_63">
    <!-- Aligned -->
    <g transform="translate(519.299375 253.525398)scale(0.12 -0.12)">
     <defs>
      <path d="M 34.1875 63.1875 
L 20.796875 26.90625 
L 47.609375 26.90625 
z
M 28.609375 72.90625 
L 39.796875 72.90625 
L 67.578125 0 
L 57.328125 0 
L 50.6875 18.703125 
L 17.828125 18.703125 
L 11.1875 0 
L 0.78125 0 
z
" id="DejaVuSans-65"/>
      <path d="M 9.421875 75.984375 
L 18.40625 75.984375 
L 18.40625 0 
L 9.421875 0 
z
" id="DejaVuSans-108"/>
      <path d="M 9.421875 54.6875 
L 18.40625 54.6875 
L 18.40625 0 
L 9.421875 0 
z
M 9.421875 75.984375 
L 18.40625 75.984375 
L 18.40625 64.59375 
L 9.421875 64.59375 
z
" id="DejaVuSans-105"/>
      <path d="M 45.40625 27.984375 
Q 45.40625 37.75 41.375 43.109375 
Q 37.359375 48.484375 30.078125 48.484375 
Q 22.859375 48.484375 18.828125 43.109375 
Q 14.796875 37.75 14.796875 27.984375 
Q 14.796875 18.265625 18.828125 12.890625 
Q 22.859375 7.515625 30.078125 7.515625 
Q 37.359375 7.515625 41.375 12.890625 
Q 45.40625 18.265625 45.40625 27.984375 
z
M 54.390625 6.78125 
Q 54.390625 -7.171875 48.1875 -13.984375 
Q 42 -20.796875 29.203125 -20.796875 
Q 24.46875 -20.796875 20.265625 -20.09375 
Q 16.0625 -19.390625 12.109375 -17.921875 
L 12.109375 -9.1875 
Q 16.0625 -11.328125 19.921875 -12.34375 
Q 23.78125 -13.375 27.78125 -13.375 
Q 36.625 -13.375 41.015625 -8.765625 
Q 45.40625 -4.15625 45.40625 5.171875 
L 45.40625 9.625 
Q 42.625 4.78125 38.28125 2.390625 
Q 33.9375 0 27.875 0 
Q 17.828125 0 11.671875 7.65625 
Q 5.515625 15.328125 5.515625 27.984375 
Q 5.515625 40.671875 11.671875 48.328125 
Q 17.828125 56 27.875 56 
Q 33.9375 56 38.28125 53.609375 
Q 42.625 51.21875 45.40625 46.390625 
L 45.40625 54.6875 
L 54.390625 54.6875 
z
" id="DejaVuSans-103"/>
      <path d="M 54.890625 33.015625 
L 54.890625 0 
L 45.90625 0 
L 45.90625 32.71875 
Q 45.90625 40.484375 42.875 44.328125 
Q 39.84375 48.1875 33.796875 48.1875 
Q 26.515625 48.1875 22.3125 43.546875 
Q 18.109375 38.921875 18.109375 30.90625 
L 18.109375 0 
L 9.078125 0 
L 9.078125 54.6875 
L 18.109375 54.6875 
L 18.109375 46.1875 
Q 21.34375 51.125 25.703125 53.5625 
Q 30.078125 56 35.796875 56 
Q 45.21875 56 50.046875 50.171875 
Q 54.890625 44.34375 54.890625 33.015625 
z
" id="DejaVuSans-110"/>
      <path d="M 56.203125 29.59375 
L 56.203125 25.203125 
L 14.890625 25.203125 
Q 15.484375 15.921875 20.484375 11.0625 
Q 25.484375 6.203125 34.421875 6.203125 
Q 39.59375 6.203125 44.453125 7.46875 
Q 49.3125 8.734375 54.109375 11.28125 
L 54.109375 2.78125 
Q 49.265625 0.734375 44.1875 -0.34375 
Q 39.109375 -1.421875 33.890625 -1.421875 
Q 20.796875 -1.421875 13.15625 6.1875 
Q 5.515625 13.8125 5.515625 26.8125 
Q 5.515625 40.234375 12.765625 48.109375 
Q 20.015625 56 32.328125 56 
Q 43.359375 56 49.78125 48.890625 
Q 56.203125 41.796875 56.203125 29.59375 
z
M 47.21875 32.234375 
Q 47.125 39.59375 43.09375 43.984375 
Q 39.0625 48.390625 32.421875 48.390625 
Q 24.90625 48.390625 20.390625 44.140625 
Q 15.875 39.890625 15.1875 32.171875 
z
" id="DejaVuSans-101"/>
      <path d="M 45.40625 46.390625 
L 45.40625 75.984375 
L 54.390625 75.984375 
L 54.390625 0 
L 45.40625 0 
L 45.40625 8.203125 
Q 42.578125 3.328125 38.25 0.953125 
Q 33.9375 -1.421875 27.875 -1.421875 
Q 17.96875 -1.421875 11.734375 6.484375 
Q 5.515625 14.40625 5.515625 27.296875 
Q 5.515625 40.1875 11.734375 48.09375 
Q 17.96875 56 27.875 56 
Q 33.9375 56 38.25 53.625 
Q 42.578125 51.265625 45.40625 46.390625 
z
M 14.796875 27.296875 
Q 14.796875 17.390625 18.875 11.75 
Q 22.953125 6.109375 30.078125 6.109375 
Q 37.203125 6.109375 41.296875 11.75 
Q 45.40625 17.390625 45.40625 27.296875 
Q 45.40625 37.203125 41.296875 42.84375 
Q 37.203125 48.484375 30.078125 48.484375 
Q 22.953125 48.484375 18.875 42.84375 
Q 14.796875 37.203125 14.796875 27.296875 
z
" id="DejaVuSans-100"/>
     </defs>
     <use xlink:href="#DejaVuSans-65"/>
     <use x="68.408203" xlink:href="#DejaVuSans-108"/>
     <use x="96.191406" xlink:href="#DejaVuSans-105"/>
     <use x="123.974609" xlink:href="#DejaVuSans-103"/>
     <use x="187.451172" xlink:href="#DejaVuSans-110"/>
     <use x="250.830078" xlink:href="#DejaVuSans-101"/>
     <use x="312.353516" xlink:href="#DejaVuSans-100"/>
    </g>
   </g>
   <g id="legend_1">
    <g id="patch_22">
     <path d="M 631.482445 296.881648 
L 682.555882 296.881648 
Q 684.555882 296.881648 684.555882 294.881648 
L 684.555882 266.525398 
Q 684.555882 264.525398 682.555882 264.525398 
L 631.482445 264.525398 
Q 629.482445 264.525398 629.482445 266.525398 
L 629.482445 294.881648 
Q 629.482445 296.881648 631.482445 296.881648 
z
" style="fill:#ffffff;opacity:0.8;stroke:#cccccc;stroke-linejoin:miter;"/>
    </g>
    <g id="line2d_64">
     <path d="M 633.482445 272.623835 
L 653.482445 272.623835 
" style="fill:none;stroke:#1f77b4;stroke-linecap:square;stroke-width:1.5;"/>
    </g>
    <g id="line2d_65"/>
    <g id="text_64">
     <!-- p53 -->
     <g transform="translate(661.482445 276.123835)scale(0.1 -0.1)">
      <use xlink:href="#DejaVuSans-112"/>
      <use x="63.476562" xlink:href="#DejaVuSans-53"/>
      <use x="127.099609" xlink:href="#DejaVuSans-51"/>
     </g>
    </g>
    <g id="line2d_66">
     <path d="M 633.482445 287.30196 
L 653.482445 287.30196 
" style="fill:none;stroke:#ff7f0e;stroke-linecap:square;stroke-width:1.5;"/>
    </g>
    <g id="line2d_67"/>
    <g id="text_65">
     <!-- p21 -->
     <g transform="translate(661.482445 290.80196)scale(0.1 -0.1)">
      <use xlink:href="#DejaVuSans-112"/>
      <use x="63.476562" xlink:href="#DejaVuSans-50"/>
      <use x="127.099609" xlink:href="#DejaVuSans-49"/>
     </g>
    </g>
   </g>
  </g>
  <g id="axes_5">
   <g id="patch_23">
    <path d="M 748.638235 219.990852 
L 1044.05 219.990852 
L 1044.05 22.318125 
L 748.638235 22.318125 
z
" style="fill:#ffffff;"/>
   </g>
   <g id="patch_24">
    <path clip-path="url(#pa04df2f618)" d="M 762.066043 219.990852 
L 788.921658 219.990852 
L 788.921658 146.601462 
L 762.066043 146.601462 
z
" style="fill:#1f77b4;"/>
   </g>
   <g id="patch_25">
    <path clip-path="url(#pa04df2f618)" d="M 788.921658 219.990852 
L 815.777273 219.990852 
L 815.777273 54.067013 
L 788.921658 54.067013 
z
" style="fill:#1f77b4;"/>
   </g>
   <g id="patch_26">
    <path clip-path="url(#pa04df2f618)" d="M 815.777273 219.990852 
L 842.632888 219.990852 
L 842.632888 95.547973 
L 815.777273 95.547973 
z
" style="fill:#1f77b4;"/>
   </g>
   <g id="patch_27">
    <path clip-path="url(#pa04df2f618)" d="M 842.632888 219.990852 
L 869.488503 219.990852 
L 869.488503 63.639543 
L 842.632888 63.639543 
z
" style="fill:#1f77b4;"/>
   </g>
   <g id="patch_28">
    <path clip-path="url(#pa04df2f618)" d="M 869.488503 219.990852 
L 896.344118 219.990852 
L 896.344118 156.173991 
L 869.488503 156.173991 
z
" style="fill:#1f77b4;"/>
   </g>
   <g id="patch_29">
    <path clip-path="url(#pa04df2f618)" d="M 896.344118 219.990852 
L 923.199733 219.990852 
L 923.199733 127.456404 
L 896.344118 127.456404 
z
" style="fill:#1f77b4;"/>
   </g>
   <g id="patch_30">
    <path clip-path="url(#pa04df2f618)" d="M 923.199733 219.990852 
L 950.055348 219.990852 
L 950.055348 152.983148 
L 923.199733 152.983148 
z
" style="fill:#1f77b4;"/>
   </g>
   <g id="patch_31">
    <path clip-path="url(#pa04df2f618)" d="M 950.055348 219.990852 
L 976.910963 219.990852 
L 976.910963 117.883875 
L 950.055348 117.883875 
z
" style="fill:#1f77b4;"/>
   </g>
   <g id="patch_32">
    <path clip-path="url(#pa04df2f618)" d="M 976.910963 219.990852 
L 1003.766578 219.990852 
L 1003.766578 101.929659 
L 976.910963 101.929659 
z
" style="fill:#1f77b4;"/>
   </g>
   <g id="patch_33">
    <path clip-path="url(#pa04df2f618)" d="M 1003.766578 219.990852 
L 1030.622193 219.990852 
L 1030.622193 31.731112 
L 1003.766578 31.731112 
z
" style="fill:#1f77b4;"/>
   </g>
   <g id="matplotlib.axis_9">
    <g id="xtick_27">
     <g id="line2d_68">
      <g>
       <use style="stroke:#000000;stroke-width:0.8;" x="789.223406" xlink:href="#m1d4aafa83f" y="219.990852"/>
      </g>
     </g>
     <g id="text_66">
      <!-- 20 -->
      <g transform="translate(778.671062 234.58929)scale(0.1 -0.1)">
       <defs>
        <path d="M 10.59375 35.5 
L 73.1875 35.5 
L 73.1875 27.203125 
L 10.59375 27.203125 
z
" id="DejaVuSans-8722"/>
       </defs>
       <use xlink:href="#DejaVuSans-8722"/>
       <use x="83.789062" xlink:href="#DejaVuSans-50"/>
       <use x="147.412109" xlink:href="#DejaVuSans-48"/>
      </g>
     </g>
    </g>
    <g id="xtick_28">
     <g id="line2d_69">
      <g>
       <use style="stroke:#000000;stroke-width:0.8;" x="849.573103" xlink:href="#m1d4aafa83f" y="219.990852"/>
      </g>
     </g>
     <g id="text_67">
      <!-- 0 -->
      <g transform="translate(846.391853 234.58929)scale(0.1 -0.1)">
       <use xlink:href="#DejaVuSans-48"/>
      </g>
     </g>
    </g>
    <g id="xtick_29">
     <g id="line2d_70">
      <g>
       <use style="stroke:#000000;stroke-width:0.8;" x="909.922799" xlink:href="#m1d4aafa83f" y="219.990852"/>
      </g>
     </g>
     <g id="text_68">
      <!-- 20 -->
      <g transform="translate(903.560299 234.58929)scale(0.1 -0.1)">
       <use xlink:href="#DejaVuSans-50"/>
       <use x="63.623047" xlink:href="#DejaVuSans-48"/>
      </g>
     </g>
    </g>
    <g id="xtick_30">
     <g id="line2d_71">
      <g>
       <use style="stroke:#000000;stroke-width:0.8;" x="970.272496" xlink:href="#m1d4aafa83f" y="219.990852"/>
      </g>
     </g>
     <g id="text_69">
      <!-- 40 -->
      <g transform="translate(963.909996 234.58929)scale(0.1 -0.1)">
       <use xlink:href="#DejaVuSans-52"/>
       <use x="63.623047" xlink:href="#DejaVuSans-48"/>
      </g>
     </g>
    </g>
    <g id="xtick_31">
     <g id="line2d_72">
      <g>
       <use style="stroke:#000000;stroke-width:0.8;" x="1030.622193" xlink:href="#m1d4aafa83f" y="219.990852"/>
      </g>
     </g>
     <g id="text_70">
      <!-- 60 -->
      <g transform="translate(1024.259693 234.58929)scale(0.1 -0.1)">
       <defs>
        <path d="M 33.015625 40.375 
Q 26.375 40.375 22.484375 35.828125 
Q 18.609375 31.296875 18.609375 23.390625 
Q 18.609375 15.53125 22.484375 10.953125 
Q 26.375 6.390625 33.015625 6.390625 
Q 39.65625 6.390625 43.53125 10.953125 
Q 47.40625 15.53125 47.40625 23.390625 
Q 47.40625 31.296875 43.53125 35.828125 
Q 39.65625 40.375 33.015625 40.375 
z
M 52.59375 71.296875 
L 52.59375 62.3125 
Q 48.875 64.0625 45.09375 64.984375 
Q 41.3125 65.921875 37.59375 65.921875 
Q 27.828125 65.921875 22.671875 59.328125 
Q 17.53125 52.734375 16.796875 39.40625 
Q 19.671875 43.65625 24.015625 45.921875 
Q 28.375 48.1875 33.59375 48.1875 
Q 44.578125 48.1875 50.953125 41.515625 
Q 57.328125 34.859375 57.328125 23.390625 
Q 57.328125 12.15625 50.6875 5.359375 
Q 44.046875 -1.421875 33.015625 -1.421875 
Q 20.359375 -1.421875 13.671875 8.265625 
Q 6.984375 17.96875 6.984375 36.375 
Q 6.984375 53.65625 15.1875 63.9375 
Q 23.390625 74.21875 37.203125 74.21875 
Q 40.921875 74.21875 44.703125 73.484375 
Q 48.484375 72.75 52.59375 71.296875 
z
" id="DejaVuSans-54"/>
       </defs>
       <use xlink:href="#DejaVuSans-54"/>
       <use x="63.623047" xlink:href="#DejaVuSans-48"/>
      </g>
     </g>
    </g>
   </g>
   <g id="matplotlib.axis_10">
    <g id="ytick_33">
     <g id="line2d_73">
      <g>
       <use style="stroke:#000000;stroke-width:0.8;" x="748.638235" xlink:href="#m9fdbe76523" y="219.990852"/>
      </g>
     </g>
     <g id="text_71">
      <!-- 0 -->
      <g transform="translate(735.275735 223.790071)scale(0.1 -0.1)">
       <use xlink:href="#DejaVuSans-48"/>
      </g>
     </g>
    </g>
    <g id="ytick_34">
     <g id="line2d_74">
      <g>
       <use style="stroke:#000000;stroke-width:0.8;" x="748.638235" xlink:href="#m9fdbe76523" y="188.082422"/>
      </g>
     </g>
     <g id="text_72">
      <!-- 10 -->
      <g transform="translate(728.913235 191.88164)scale(0.1 -0.1)">
       <use xlink:href="#DejaVuSans-49"/>
       <use x="63.623047" xlink:href="#DejaVuSans-48"/>
      </g>
     </g>
    </g>
    <g id="ytick_35">
     <g id="line2d_75">
      <g>
       <use style="stroke:#000000;stroke-width:0.8;" x="748.638235" xlink:href="#m9fdbe76523" y="156.173991"/>
      </g>
     </g>
     <g id="text_73">
      <!-- 20 -->
      <g transform="translate(728.913235 159.97321)scale(0.1 -0.1)">
       <use xlink:href="#DejaVuSans-50"/>
       <use x="63.623047" xlink:href="#DejaVuSans-48"/>
      </g>
     </g>
    </g>
    <g id="ytick_36">
     <g id="line2d_76">
      <g>
       <use style="stroke:#000000;stroke-width:0.8;" x="748.638235" xlink:href="#m9fdbe76523" y="124.265561"/>
      </g>
     </g>
     <g id="text_74">
      <!-- 30 -->
      <g transform="translate(728.913235 128.064779)scale(0.1 -0.1)">
       <use xlink:href="#DejaVuSans-51"/>
       <use x="63.623047" xlink:href="#DejaVuSans-48"/>
      </g>
     </g>
    </g>
    <g id="ytick_37">
     <g id="line2d_77">
      <g>
       <use style="stroke:#000000;stroke-width:0.8;" x="748.638235" xlink:href="#m9fdbe76523" y="92.35713"/>
      </g>
     </g>
     <g id="text_75">
      <!-- 40 -->
      <g transform="translate(728.913235 96.156349)scale(0.1 -0.1)">
       <use xlink:href="#DejaVuSans-52"/>
       <use x="63.623047" xlink:href="#DejaVuSans-48"/>
      </g>
     </g>
    </g>
    <g id="ytick_38">
     <g id="line2d_78">
      <g>
       <use style="stroke:#000000;stroke-width:0.8;" x="748.638235" xlink:href="#m9fdbe76523" y="60.4487"/>
      </g>
     </g>
     <g id="text_76">
      <!-- 50 -->
      <g transform="translate(728.913235 64.247918)scale(0.1 -0.1)">
       <use xlink:href="#DejaVuSans-53"/>
       <use x="63.623047" xlink:href="#DejaVuSans-48"/>
      </g>
     </g>
    </g>
    <g id="ytick_39">
     <g id="line2d_79">
      <g>
       <use style="stroke:#000000;stroke-width:0.8;" x="748.638235" xlink:href="#m9fdbe76523" y="28.540269"/>
      </g>
     </g>
     <g id="text_77">
      <!-- 60 -->
      <g transform="translate(728.913235 32.339488)scale(0.1 -0.1)">
       <use xlink:href="#DejaVuSans-54"/>
       <use x="63.623047" xlink:href="#DejaVuSans-48"/>
      </g>
     </g>
    </g>
   </g>
   <g id="patch_34">
    <path d="M 748.638235 219.990852 
L 748.638235 22.318125 
" style="fill:none;stroke:#000000;stroke-linecap:square;stroke-linejoin:miter;stroke-width:0.8;"/>
   </g>
   <g id="patch_35">
    <path d="M 1044.05 219.990852 
L 1044.05 22.318125 
" style="fill:none;stroke:#000000;stroke-linecap:square;stroke-linejoin:miter;stroke-width:0.8;"/>
   </g>
   <g id="patch_36">
    <path d="M 748.638235 219.990852 
L 1044.05 219.990852 
" style="fill:none;stroke:#000000;stroke-linecap:square;stroke-linejoin:miter;stroke-width:0.8;"/>
   </g>
   <g id="patch_37">
    <path d="M 748.638235 22.318125 
L 1044.05 22.318125 
" style="fill:none;stroke:#000000;stroke-linecap:square;stroke-linejoin:miter;stroke-width:0.8;"/>
   </g>
   <g id="text_78">
    <!-- p53-p21 Lags Histogram -->
    <g transform="translate(822.397868 16.318125)scale(0.12 -0.12)">
     <defs>
      <path d="M 4.890625 31.390625 
L 31.203125 31.390625 
L 31.203125 23.390625 
L 4.890625 23.390625 
z
" id="DejaVuSans-45"/>
      <path id="DejaVuSans-32"/>
      <path d="M 9.8125 72.90625 
L 19.671875 72.90625 
L 19.671875 8.296875 
L 55.171875 8.296875 
L 55.171875 0 
L 9.8125 0 
z
" id="DejaVuSans-76"/>
      <path d="M 34.28125 27.484375 
Q 23.390625 27.484375 19.1875 25 
Q 14.984375 22.515625 14.984375 16.5 
Q 14.984375 11.71875 18.140625 8.90625 
Q 21.296875 6.109375 26.703125 6.109375 
Q 34.1875 6.109375 38.703125 11.40625 
Q 43.21875 16.703125 43.21875 25.484375 
L 43.21875 27.484375 
z
M 52.203125 31.203125 
L 52.203125 0 
L 43.21875 0 
L 43.21875 8.296875 
Q 40.140625 3.328125 35.546875 0.953125 
Q 30.953125 -1.421875 24.3125 -1.421875 
Q 15.921875 -1.421875 10.953125 3.296875 
Q 6 8.015625 6 15.921875 
Q 6 25.140625 12.171875 29.828125 
Q 18.359375 34.515625 30.609375 34.515625 
L 43.21875 34.515625 
L 43.21875 35.40625 
Q 43.21875 41.609375 39.140625 45 
Q 35.0625 48.390625 27.6875 48.390625 
Q 23 48.390625 18.546875 47.265625 
Q 14.109375 46.140625 10.015625 43.890625 
L 10.015625 52.203125 
Q 14.9375 54.109375 19.578125 55.046875 
Q 24.21875 56 28.609375 56 
Q 40.484375 56 46.34375 49.84375 
Q 52.203125 43.703125 52.203125 31.203125 
z
" id="DejaVuSans-97"/>
      <path d="M 44.28125 53.078125 
L 44.28125 44.578125 
Q 40.484375 46.53125 36.375 47.5 
Q 32.28125 48.484375 27.875 48.484375 
Q 21.1875 48.484375 17.84375 46.4375 
Q 14.5 44.390625 14.5 40.28125 
Q 14.5 37.15625 16.890625 35.375 
Q 19.28125 33.59375 26.515625 31.984375 
L 29.59375 31.296875 
Q 39.15625 29.25 43.1875 25.515625 
Q 47.21875 21.78125 47.21875 15.09375 
Q 47.21875 7.46875 41.1875 3.015625 
Q 35.15625 -1.421875 24.609375 -1.421875 
Q 20.21875 -1.421875 15.453125 -0.5625 
Q 10.6875 0.296875 5.421875 2 
L 5.421875 11.28125 
Q 10.40625 8.6875 15.234375 7.390625 
Q 20.0625 6.109375 24.8125 6.109375 
Q 31.15625 6.109375 34.5625 8.28125 
Q 37.984375 10.453125 37.984375 14.40625 
Q 37.984375 18.0625 35.515625 20.015625 
Q 33.0625 21.96875 24.703125 23.78125 
L 21.578125 24.515625 
Q 13.234375 26.265625 9.515625 29.90625 
Q 5.8125 33.546875 5.8125 39.890625 
Q 5.8125 47.609375 11.28125 51.796875 
Q 16.75 56 26.8125 56 
Q 31.78125 56 36.171875 55.265625 
Q 40.578125 54.546875 44.28125 53.078125 
z
" id="DejaVuSans-115"/>
      <path d="M 9.8125 72.90625 
L 19.671875 72.90625 
L 19.671875 43.015625 
L 55.515625 43.015625 
L 55.515625 72.90625 
L 65.375 72.90625 
L 65.375 0 
L 55.515625 0 
L 55.515625 34.71875 
L 19.671875 34.71875 
L 19.671875 0 
L 9.8125 0 
z
" id="DejaVuSans-72"/>
      <path d="M 18.3125 70.21875 
L 18.3125 54.6875 
L 36.8125 54.6875 
L 36.8125 47.703125 
L 18.3125 47.703125 
L 18.3125 18.015625 
Q 18.3125 11.328125 20.140625 9.421875 
Q 21.96875 7.515625 27.59375 7.515625 
L 36.8125 7.515625 
L 36.8125 0 
L 27.59375 0 
Q 17.1875 0 13.234375 3.875 
Q 9.28125 7.765625 9.28125 18.015625 
L 9.28125 47.703125 
L 2.6875 47.703125 
L 2.6875 54.6875 
L 9.28125 54.6875 
L 9.28125 70.21875 
z
" id="DejaVuSans-116"/>
      <path d="M 30.609375 48.390625 
Q 23.390625 48.390625 19.1875 42.75 
Q 14.984375 37.109375 14.984375 27.296875 
Q 14.984375 17.484375 19.15625 11.84375 
Q 23.34375 6.203125 30.609375 6.203125 
Q 37.796875 6.203125 41.984375 11.859375 
Q 46.1875 17.53125 46.1875 27.296875 
Q 46.1875 37.015625 41.984375 42.703125 
Q 37.796875 48.390625 30.609375 48.390625 
z
M 30.609375 56 
Q 42.328125 56 49.015625 48.375 
Q 55.71875 40.765625 55.71875 27.296875 
Q 55.71875 13.875 49.015625 6.21875 
Q 42.328125 -1.421875 30.609375 -1.421875 
Q 18.84375 -1.421875 12.171875 6.21875 
Q 5.515625 13.875 5.515625 27.296875 
Q 5.515625 40.765625 12.171875 48.375 
Q 18.84375 56 30.609375 56 
z
" id="DejaVuSans-111"/>
      <path d="M 41.109375 46.296875 
Q 39.59375 47.171875 37.8125 47.578125 
Q 36.03125 48 33.890625 48 
Q 26.265625 48 22.1875 43.046875 
Q 18.109375 38.09375 18.109375 28.8125 
L 18.109375 0 
L 9.078125 0 
L 9.078125 54.6875 
L 18.109375 54.6875 
L 18.109375 46.1875 
Q 20.953125 51.171875 25.484375 53.578125 
Q 30.03125 56 36.53125 56 
Q 37.453125 56 38.578125 55.875 
Q 39.703125 55.765625 41.0625 55.515625 
z
" id="DejaVuSans-114"/>
      <path d="M 52 44.1875 
Q 55.375 50.25 60.0625 53.125 
Q 64.75 56 71.09375 56 
Q 79.640625 56 84.28125 50.015625 
Q 88.921875 44.046875 88.921875 33.015625 
L 88.921875 0 
L 79.890625 0 
L 79.890625 32.71875 
Q 79.890625 40.578125 77.09375 44.375 
Q 74.3125 48.1875 68.609375 48.1875 
Q 61.625 48.1875 57.5625 43.546875 
Q 53.515625 38.921875 53.515625 30.90625 
L 53.515625 0 
L 44.484375 0 
L 44.484375 32.71875 
Q 44.484375 40.625 41.703125 44.40625 
Q 38.921875 48.1875 33.109375 48.1875 
Q 26.21875 48.1875 22.15625 43.53125 
Q 18.109375 38.875 18.109375 30.90625 
L 18.109375 0 
L 9.078125 0 
L 9.078125 54.6875 
L 18.109375 54.6875 
L 18.109375 46.1875 
Q 21.1875 51.21875 25.484375 53.609375 
Q 29.78125 56 35.6875 56 
Q 41.65625 56 45.828125 52.96875 
Q 50 49.953125 52 44.1875 
z
" id="DejaVuSans-109"/>
     </defs>
     <use xlink:href="#DejaVuSans-112"/>
     <use x="63.476562" xlink:href="#DejaVuSans-53"/>
     <use x="127.099609" xlink:href="#DejaVuSans-51"/>
     <use x="190.722656" xlink:href="#DejaVuSans-45"/>
     <use x="226.806641" xlink:href="#DejaVuSans-112"/>
     <use x="290.283203" xlink:href="#DejaVuSans-50"/>
     <use x="353.90625" xlink:href="#DejaVuSans-49"/>
     <use x="417.529297" xlink:href="#DejaVuSans-32"/>
     <use x="449.316406" xlink:href="#DejaVuSans-76"/>
     <use x="505.029297" xlink:href="#DejaVuSans-97"/>
     <use x="566.308594" xlink:href="#DejaVuSans-103"/>
     <use x="629.785156" xlink:href="#DejaVuSans-115"/>
     <use x="681.884766" xlink:href="#DejaVuSans-32"/>
     <use x="713.671875" xlink:href="#DejaVuSans-72"/>
     <use x="788.867188" xlink:href="#DejaVuSans-105"/>
     <use x="816.650391" xlink:href="#DejaVuSans-115"/>
     <use x="868.75" xlink:href="#DejaVuSans-116"/>
     <use x="907.958984" xlink:href="#DejaVuSans-111"/>
     <use x="969.140625" xlink:href="#DejaVuSans-103"/>
     <use x="1032.617188" xlink:href="#DejaVuSans-114"/>
     <use x="1073.730469" xlink:href="#DejaVuSans-97"/>
     <use x="1135.009766" xlink:href="#DejaVuSans-109"/>
    </g>
   </g>
  </g>
 </g>
 <defs>
  <clipPath id="p42c70abc59">
   <rect height="197.672727" width="295.411765" x="39.65" y="22.318125"/>
  </clipPath>
  <clipPath id="p32c8cf6450">
   <rect height="197.672727" width="295.411765" x="39.65" y="259.525398"/>
  </clipPath>
  <clipPath id="pfa17f0af91">
   <rect height="197.672727" width="295.411765" x="394.144118" y="22.318125"/>
  </clipPath>
  <clipPath id="p83c4fe7acf">
   <rect height="197.672727" width="295.411765" x="394.144118" y="259.525398"/>
  </clipPath>
  <clipPath id="pa04df2f618">
   <rect height="197.672727" width="295.411765" x="748.638235" y="22.318125"/>
  </clipPath>
 </defs>
</svg>
