<?xml version="1.0" encoding="utf-8" standalone="no"?>
<!DOCTYPE svg PUBLIC "-//W3C//DTD SVG 1.1//EN"
  "http://www.w3.org/Graphics/SVG/1.1/DTD/svg11.dtd">
<svg xmlns:xlink="http://www.w3.org/1999/xlink" width="512.123437pt" height="281.63625pt" viewBox="0 0 512.123437 281.63625" xmlns="http://www.w3.org/2000/svg" version="1.1">
 <metadata>
  <rdf:RDF xmlns:dc="http://purl.org/dc/elements/1.1/" xmlns:cc="http://creativecommons.org/ns#" xmlns:rdf="http://www.w3.org/1999/02/22-rdf-syntax-ns#">
   <cc:Work>
    <dc:type rdf:resource="http://purl.org/dc/dcmitype/StillImage"/>
    <dc:date>2024-12-13T23:34:25.423483</dc:date>
    <dc:format>image/svg+xml</dc:format>
    <dc:creator>
     <cc:Agent>
      <dc:title>Matplotlib v3.9.2, https://matplotlib.org/</dc:title>
     </cc:Agent>
    </dc:creator>
   </cc:Work>
  </rdf:RDF>
 </metadata>
 <defs>
  <style type="text/css">*{stroke-linejoin: round; stroke-linecap: butt}</style>
 </defs>
 <g id="figure_1">
  <g id="patch_1">
   <path d="M 0 281.63625 
L 512.123437 281.63625 
L 512.123437 0 
L 0 0 
z
" style="fill: #ffffff"/>
  </g>
  <g id="axes_1">
   <g id="patch_2">
    <path d="M 58.523438 244.08 
L 504.923437 244.08 
L 504.923437 22.32 
L 58.523438 22.32 
z
" style="fill: #ffffff"/>
   </g>
   <g id="matplotlib.axis_1">
    <g id="xtick_1">
     <g id="line2d_1">
      <defs>
       <path id="mf803746aed" d="M 0 0 
L 0 3.5 
" style="stroke: #000000; stroke-width: 0.8"/>
      </defs>
      <g>
       <use xlink:href="#mf803746aed" x="62.581619" y="244.08" style="stroke: #000000; stroke-width: 0.8"/>
      </g>
     </g>
     <g id="text_1">
      <!-- 20 -->
      <g transform="translate(56.219119 258.678438) scale(0.1 -0.1)">
       <defs>
        <path id="DejaVuSans-32" d="M 1228 531 
L 3431 531 
L 3431 0 
L 469 0 
L 469 531 
Q 828 903 1448 1529 
Q 2069 2156 2228 2338 
Q 2531 2678 2651 2914 
Q 2772 3150 2772 3378 
Q 2772 3750 2511 3984 
Q 2250 4219 1831 4219 
Q 1534 4219 1204 4116 
Q 875 4013 500 3803 
L 500 4441 
Q 881 4594 1212 4672 
Q 1544 4750 1819 4750 
Q 2544 4750 2975 4387 
Q 3406 4025 3406 3419 
Q 3406 3131 3298 2873 
Q 3191 2616 2906 2266 
Q 2828 2175 2409 1742 
Q 1991 1309 1228 531 
z
" transform="scale(0.015625)"/>
        <path id="DejaVuSans-30" d="M 2034 4250 
Q 1547 4250 1301 3770 
Q 1056 3291 1056 2328 
Q 1056 1369 1301 889 
Q 1547 409 2034 409 
Q 2525 409 2770 889 
Q 3016 1369 3016 2328 
Q 3016 3291 2770 3770 
Q 2525 4250 2034 4250 
z
M 2034 4750 
Q 2819 4750 3233 4129 
Q 3647 3509 3647 2328 
Q 3647 1150 3233 529 
Q 2819 -91 2034 -91 
Q 1250 -91 836 529 
Q 422 1150 422 2328 
Q 422 3509 836 4129 
Q 1250 4750 2034 4750 
z
" transform="scale(0.015625)"/>
       </defs>
       <use xlink:href="#DejaVuSans-32"/>
       <use xlink:href="#DejaVuSans-30" x="63.623047"/>
      </g>
     </g>
    </g>
    <g id="xtick_2">
     <g id="line2d_2">
      <g>
       <use xlink:href="#mf803746aed" x="127.512528" y="244.08" style="stroke: #000000; stroke-width: 0.8"/>
      </g>
     </g>
     <g id="text_2">
      <!-- 40 -->
      <g transform="translate(121.150028 258.678438) scale(0.1 -0.1)">
       <defs>
        <path id="DejaVuSans-34" d="M 2419 4116 
L 825 1625 
L 2419 1625 
L 2419 4116 
z
M 2253 4666 
L 3047 4666 
L 3047 1625 
L 3713 1625 
L 3713 1100 
L 3047 1100 
L 3047 0 
L 2419 0 
L 2419 1100 
L 313 1100 
L 313 1709 
L 2253 4666 
z
" transform="scale(0.015625)"/>
       </defs>
       <use xlink:href="#DejaVuSans-34"/>
       <use xlink:href="#DejaVuSans-30" x="63.623047"/>
      </g>
     </g>
    </g>
    <g id="xtick_3">
     <g id="line2d_3">
      <g>
       <use xlink:href="#mf803746aed" x="192.443438" y="244.08" style="stroke: #000000; stroke-width: 0.8"/>
      </g>
     </g>
     <g id="text_3">
      <!-- 60 -->
      <g transform="translate(186.080938 258.678438) scale(0.1 -0.1)">
       <defs>
        <path id="DejaVuSans-36" d="M 2113 2584 
Q 1688 2584 1439 2293 
Q 1191 2003 1191 1497 
Q 1191 994 1439 701 
Q 1688 409 2113 409 
Q 2538 409 2786 701 
Q 3034 994 3034 1497 
Q 3034 2003 2786 2293 
Q 2538 2584 2113 2584 
z
M 3366 4563 
L 3366 3988 
Q 3128 4100 2886 4159 
Q 2644 4219 2406 4219 
Q 1781 4219 1451 3797 
Q 1122 3375 1075 2522 
Q 1259 2794 1537 2939 
Q 1816 3084 2150 3084 
Q 2853 3084 3261 2657 
Q 3669 2231 3669 1497 
Q 3669 778 3244 343 
Q 2819 -91 2113 -91 
Q 1303 -91 875 529 
Q 447 1150 447 2328 
Q 447 3434 972 4092 
Q 1497 4750 2381 4750 
Q 2619 4750 2861 4703 
Q 3103 4656 3366 4563 
z
" transform="scale(0.015625)"/>
       </defs>
       <use xlink:href="#DejaVuSans-36"/>
       <use xlink:href="#DejaVuSans-30" x="63.623047"/>
      </g>
     </g>
    </g>
    <g id="xtick_4">
     <g id="line2d_4">
      <g>
       <use xlink:href="#mf803746aed" x="257.374347" y="244.08" style="stroke: #000000; stroke-width: 0.8"/>
      </g>
     </g>
     <g id="text_4">
      <!-- 80 -->
      <g transform="translate(251.011847 258.678438) scale(0.1 -0.1)">
       <defs>
        <path id="DejaVuSans-38" d="M 2034 2216 
Q 1584 2216 1326 1975 
Q 1069 1734 1069 1313 
Q 1069 891 1326 650 
Q 1584 409 2034 409 
Q 2484 409 2743 651 
Q 3003 894 3003 1313 
Q 3003 1734 2745 1975 
Q 2488 2216 2034 2216 
z
M 1403 2484 
Q 997 2584 770 2862 
Q 544 3141 544 3541 
Q 544 4100 942 4425 
Q 1341 4750 2034 4750 
Q 2731 4750 3128 4425 
Q 3525 4100 3525 3541 
Q 3525 3141 3298 2862 
Q 3072 2584 2669 2484 
Q 3125 2378 3379 2068 
Q 3634 1759 3634 1313 
Q 3634 634 3220 271 
Q 2806 -91 2034 -91 
Q 1263 -91 848 271 
Q 434 634 434 1313 
Q 434 1759 690 2068 
Q 947 2378 1403 2484 
z
M 1172 3481 
Q 1172 3119 1398 2916 
Q 1625 2713 2034 2713 
Q 2441 2713 2670 2916 
Q 2900 3119 2900 3481 
Q 2900 3844 2670 4047 
Q 2441 4250 2034 4250 
Q 1625 4250 1398 4047 
Q 1172 3844 1172 3481 
z
" transform="scale(0.015625)"/>
       </defs>
       <use xlink:href="#DejaVuSans-38"/>
       <use xlink:href="#DejaVuSans-30" x="63.623047"/>
      </g>
     </g>
    </g>
    <g id="xtick_5">
     <g id="line2d_5">
      <g>
       <use xlink:href="#mf803746aed" x="322.305256" y="244.08" style="stroke: #000000; stroke-width: 0.8"/>
      </g>
     </g>
     <g id="text_5">
      <!-- 100 -->
      <g transform="translate(312.761506 258.678438) scale(0.1 -0.1)">
       <defs>
        <path id="DejaVuSans-31" d="M 794 531 
L 1825 531 
L 1825 4091 
L 703 3866 
L 703 4441 
L 1819 4666 
L 2450 4666 
L 2450 531 
L 3481 531 
L 3481 0 
L 794 0 
L 794 531 
z
" transform="scale(0.015625)"/>
       </defs>
       <use xlink:href="#DejaVuSans-31"/>
       <use xlink:href="#DejaVuSans-30" x="63.623047"/>
       <use xlink:href="#DejaVuSans-30" x="127.246094"/>
      </g>
     </g>
    </g>
    <g id="xtick_6">
     <g id="line2d_6">
      <g>
       <use xlink:href="#mf803746aed" x="387.236165" y="244.08" style="stroke: #000000; stroke-width: 0.8"/>
      </g>
     </g>
     <g id="text_6">
      <!-- 120 -->
      <g transform="translate(377.692415 258.678438) scale(0.1 -0.1)">
       <use xlink:href="#DejaVuSans-31"/>
       <use xlink:href="#DejaVuSans-32" x="63.623047"/>
       <use xlink:href="#DejaVuSans-30" x="127.246094"/>
      </g>
     </g>
    </g>
    <g id="xtick_7">
     <g id="line2d_7">
      <g>
       <use xlink:href="#mf803746aed" x="452.167074" y="244.08" style="stroke: #000000; stroke-width: 0.8"/>
      </g>
     </g>
     <g id="text_7">
      <!-- 140 -->
      <g transform="translate(442.623324 258.678438) scale(0.1 -0.1)">
       <use xlink:href="#DejaVuSans-31"/>
       <use xlink:href="#DejaVuSans-34" x="63.623047"/>
       <use xlink:href="#DejaVuSans-30" x="127.246094"/>
      </g>
     </g>
    </g>
    <g id="text_8">
     <!-- Echo (Samples) -->
     <g transform="translate(242.742969 272.356562) scale(0.1 -0.1)">
      <defs>
       <path id="DejaVuSans-45" d="M 628 4666 
L 3578 4666 
L 3578 4134 
L 1259 4134 
L 1259 2753 
L 3481 2753 
L 3481 2222 
L 1259 2222 
L 1259 531 
L 3634 531 
L 3634 0 
L 628 0 
L 628 4666 
z
" transform="scale(0.015625)"/>
       <path id="DejaVuSans-63" d="M 3122 3366 
L 3122 2828 
Q 2878 2963 2633 3030 
Q 2388 3097 2138 3097 
Q 1578 3097 1268 2742 
Q 959 2388 959 1747 
Q 959 1106 1268 751 
Q 1578 397 2138 397 
Q 2388 397 2633 464 
Q 2878 531 3122 666 
L 3122 134 
Q 2881 22 2623 -34 
Q 2366 -91 2075 -91 
Q 1284 -91 818 406 
Q 353 903 353 1747 
Q 353 2603 823 3093 
Q 1294 3584 2113 3584 
Q 2378 3584 2631 3529 
Q 2884 3475 3122 3366 
z
" transform="scale(0.015625)"/>
       <path id="DejaVuSans-68" d="M 3513 2113 
L 3513 0 
L 2938 0 
L 2938 2094 
Q 2938 2591 2744 2837 
Q 2550 3084 2163 3084 
Q 1697 3084 1428 2787 
Q 1159 2491 1159 1978 
L 1159 0 
L 581 0 
L 581 4863 
L 1159 4863 
L 1159 2956 
Q 1366 3272 1645 3428 
Q 1925 3584 2291 3584 
Q 2894 3584 3203 3211 
Q 3513 2838 3513 2113 
z
" transform="scale(0.015625)"/>
       <path id="DejaVuSans-6f" d="M 1959 3097 
Q 1497 3097 1228 2736 
Q 959 2375 959 1747 
Q 959 1119 1226 758 
Q 1494 397 1959 397 
Q 2419 397 2687 759 
Q 2956 1122 2956 1747 
Q 2956 2369 2687 2733 
Q 2419 3097 1959 3097 
z
M 1959 3584 
Q 2709 3584 3137 3096 
Q 3566 2609 3566 1747 
Q 3566 888 3137 398 
Q 2709 -91 1959 -91 
Q 1206 -91 779 398 
Q 353 888 353 1747 
Q 353 2609 779 3096 
Q 1206 3584 1959 3584 
z
" transform="scale(0.015625)"/>
       <path id="DejaVuSans-20" transform="scale(0.015625)"/>
       <path id="DejaVuSans-28" d="M 1984 4856 
Q 1566 4138 1362 3434 
Q 1159 2731 1159 2009 
Q 1159 1288 1364 580 
Q 1569 -128 1984 -844 
L 1484 -844 
Q 1016 -109 783 600 
Q 550 1309 550 2009 
Q 550 2706 781 3412 
Q 1013 4119 1484 4856 
L 1984 4856 
z
" transform="scale(0.015625)"/>
       <path id="DejaVuSans-53" d="M 3425 4513 
L 3425 3897 
Q 3066 4069 2747 4153 
Q 2428 4238 2131 4238 
Q 1616 4238 1336 4038 
Q 1056 3838 1056 3469 
Q 1056 3159 1242 3001 
Q 1428 2844 1947 2747 
L 2328 2669 
Q 3034 2534 3370 2195 
Q 3706 1856 3706 1288 
Q 3706 609 3251 259 
Q 2797 -91 1919 -91 
Q 1588 -91 1214 -16 
Q 841 59 441 206 
L 441 856 
Q 825 641 1194 531 
Q 1563 422 1919 422 
Q 2459 422 2753 634 
Q 3047 847 3047 1241 
Q 3047 1584 2836 1778 
Q 2625 1972 2144 2069 
L 1759 2144 
Q 1053 2284 737 2584 
Q 422 2884 422 3419 
Q 422 4038 858 4394 
Q 1294 4750 2059 4750 
Q 2388 4750 2728 4690 
Q 3069 4631 3425 4513 
z
" transform="scale(0.015625)"/>
       <path id="DejaVuSans-61" d="M 2194 1759 
Q 1497 1759 1228 1600 
Q 959 1441 959 1056 
Q 959 750 1161 570 
Q 1363 391 1709 391 
Q 2188 391 2477 730 
Q 2766 1069 2766 1631 
L 2766 1759 
L 2194 1759 
z
M 3341 1997 
L 3341 0 
L 2766 0 
L 2766 531 
Q 2569 213 2275 61 
Q 1981 -91 1556 -91 
Q 1019 -91 701 211 
Q 384 513 384 1019 
Q 384 1609 779 1909 
Q 1175 2209 1959 2209 
L 2766 2209 
L 2766 2266 
Q 2766 2663 2505 2880 
Q 2244 3097 1772 3097 
Q 1472 3097 1187 3025 
Q 903 2953 641 2809 
L 641 3341 
Q 956 3463 1253 3523 
Q 1550 3584 1831 3584 
Q 2591 3584 2966 3190 
Q 3341 2797 3341 1997 
z
" transform="scale(0.015625)"/>
       <path id="DejaVuSans-6d" d="M 3328 2828 
Q 3544 3216 3844 3400 
Q 4144 3584 4550 3584 
Q 5097 3584 5394 3201 
Q 5691 2819 5691 2113 
L 5691 0 
L 5113 0 
L 5113 2094 
Q 5113 2597 4934 2840 
Q 4756 3084 4391 3084 
Q 3944 3084 3684 2787 
Q 3425 2491 3425 1978 
L 3425 0 
L 2847 0 
L 2847 2094 
Q 2847 2600 2669 2842 
Q 2491 3084 2119 3084 
Q 1678 3084 1418 2786 
Q 1159 2488 1159 1978 
L 1159 0 
L 581 0 
L 581 3500 
L 1159 3500 
L 1159 2956 
Q 1356 3278 1631 3431 
Q 1906 3584 2284 3584 
Q 2666 3584 2933 3390 
Q 3200 3197 3328 2828 
z
" transform="scale(0.015625)"/>
       <path id="DejaVuSans-70" d="M 1159 525 
L 1159 -1331 
L 581 -1331 
L 581 3500 
L 1159 3500 
L 1159 2969 
Q 1341 3281 1617 3432 
Q 1894 3584 2278 3584 
Q 2916 3584 3314 3078 
Q 3713 2572 3713 1747 
Q 3713 922 3314 415 
Q 2916 -91 2278 -91 
Q 1894 -91 1617 61 
Q 1341 213 1159 525 
z
M 3116 1747 
Q 3116 2381 2855 2742 
Q 2594 3103 2138 3103 
Q 1681 3103 1420 2742 
Q 1159 2381 1159 1747 
Q 1159 1113 1420 752 
Q 1681 391 2138 391 
Q 2594 391 2855 752 
Q 3116 1113 3116 1747 
z
" transform="scale(0.015625)"/>
       <path id="DejaVuSans-6c" d="M 603 4863 
L 1178 4863 
L 1178 0 
L 603 0 
L 603 4863 
z
" transform="scale(0.015625)"/>
       <path id="DejaVuSans-65" d="M 3597 1894 
L 3597 1613 
L 953 1613 
Q 991 1019 1311 708 
Q 1631 397 2203 397 
Q 2534 397 2845 478 
Q 3156 559 3463 722 
L 3463 178 
Q 3153 47 2828 -22 
Q 2503 -91 2169 -91 
Q 1331 -91 842 396 
Q 353 884 353 1716 
Q 353 2575 817 3079 
Q 1281 3584 2069 3584 
Q 2775 3584 3186 3129 
Q 3597 2675 3597 1894 
z
M 3022 2063 
Q 3016 2534 2758 2815 
Q 2500 3097 2075 3097 
Q 1594 3097 1305 2825 
Q 1016 2553 972 2059 
L 3022 2063 
z
" transform="scale(0.015625)"/>
       <path id="DejaVuSans-73" d="M 2834 3397 
L 2834 2853 
Q 2591 2978 2328 3040 
Q 2066 3103 1784 3103 
Q 1356 3103 1142 2972 
Q 928 2841 928 2578 
Q 928 2378 1081 2264 
Q 1234 2150 1697 2047 
L 1894 2003 
Q 2506 1872 2764 1633 
Q 3022 1394 3022 966 
Q 3022 478 2636 193 
Q 2250 -91 1575 -91 
Q 1294 -91 989 -36 
Q 684 19 347 128 
L 347 722 
Q 666 556 975 473 
Q 1284 391 1588 391 
Q 1994 391 2212 530 
Q 2431 669 2431 922 
Q 2431 1156 2273 1281 
Q 2116 1406 1581 1522 
L 1381 1569 
Q 847 1681 609 1914 
Q 372 2147 372 2553 
Q 372 3047 722 3315 
Q 1072 3584 1716 3584 
Q 2034 3584 2315 3537 
Q 2597 3491 2834 3397 
z
" transform="scale(0.015625)"/>
       <path id="DejaVuSans-29" d="M 513 4856 
L 1013 4856 
Q 1481 4119 1714 3412 
Q 1947 2706 1947 2009 
Q 1947 1309 1714 600 
Q 1481 -109 1013 -844 
L 513 -844 
Q 928 -128 1133 580 
Q 1338 1288 1338 2009 
Q 1338 2731 1133 3434 
Q 928 4138 513 4856 
z
" transform="scale(0.015625)"/>
      </defs>
      <use xlink:href="#DejaVuSans-45"/>
      <use xlink:href="#DejaVuSans-63" x="63.183594"/>
      <use xlink:href="#DejaVuSans-68" x="118.164062"/>
      <use xlink:href="#DejaVuSans-6f" x="181.542969"/>
      <use xlink:href="#DejaVuSans-20" x="242.724609"/>
      <use xlink:href="#DejaVuSans-28" x="274.511719"/>
      <use xlink:href="#DejaVuSans-53" x="313.525391"/>
      <use xlink:href="#DejaVuSans-61" x="377.001953"/>
      <use xlink:href="#DejaVuSans-6d" x="438.28125"/>
      <use xlink:href="#DejaVuSans-70" x="535.693359"/>
      <use xlink:href="#DejaVuSans-6c" x="599.169922"/>
      <use xlink:href="#DejaVuSans-65" x="626.953125"/>
      <use xlink:href="#DejaVuSans-73" x="688.476562"/>
      <use xlink:href="#DejaVuSans-29" x="740.576172"/>
     </g>
    </g>
   </g>
   <g id="matplotlib.axis_2">
    <g id="ytick_1">
     <g id="line2d_8">
      <defs>
       <path id="m43f8f368d6" d="M 0 0 
L -3.5 0 
" style="stroke: #000000; stroke-width: 0.8"/>
      </defs>
      <g>
       <use xlink:href="#m43f8f368d6" x="58.523438" y="242.775177" style="stroke: #000000; stroke-width: 0.8"/>
      </g>
     </g>
     <g id="text_9">
      <!-- −0.03 -->
      <g transform="translate(20.878125 246.574396) scale(0.1 -0.1)">
       <defs>
        <path id="DejaVuSans-2212" d="M 678 2272 
L 4684 2272 
L 4684 1741 
L 678 1741 
L 678 2272 
z
" transform="scale(0.015625)"/>
        <path id="DejaVuSans-2e" d="M 684 794 
L 1344 794 
L 1344 0 
L 684 0 
L 684 794 
z
" transform="scale(0.015625)"/>
        <path id="DejaVuSans-33" d="M 2597 2516 
Q 3050 2419 3304 2112 
Q 3559 1806 3559 1356 
Q 3559 666 3084 287 
Q 2609 -91 1734 -91 
Q 1441 -91 1130 -33 
Q 819 25 488 141 
L 488 750 
Q 750 597 1062 519 
Q 1375 441 1716 441 
Q 2309 441 2620 675 
Q 2931 909 2931 1356 
Q 2931 1769 2642 2001 
Q 2353 2234 1838 2234 
L 1294 2234 
L 1294 2753 
L 1863 2753 
Q 2328 2753 2575 2939 
Q 2822 3125 2822 3475 
Q 2822 3834 2567 4026 
Q 2313 4219 1838 4219 
Q 1578 4219 1281 4162 
Q 984 4106 628 3988 
L 628 4550 
Q 988 4650 1302 4700 
Q 1616 4750 1894 4750 
Q 2613 4750 3031 4423 
Q 3450 4097 3450 3541 
Q 3450 3153 3228 2886 
Q 3006 2619 2597 2516 
z
" transform="scale(0.015625)"/>
       </defs>
       <use xlink:href="#DejaVuSans-2212"/>
       <use xlink:href="#DejaVuSans-30" x="83.789062"/>
       <use xlink:href="#DejaVuSans-2e" x="147.412109"/>
       <use xlink:href="#DejaVuSans-30" x="179.199219"/>
       <use xlink:href="#DejaVuSans-33" x="242.822266"/>
      </g>
     </g>
    </g>
    <g id="ytick_2">
     <g id="line2d_9">
      <g>
       <use xlink:href="#m43f8f368d6" x="58.523438" y="211.05648" style="stroke: #000000; stroke-width: 0.8"/>
      </g>
     </g>
     <g id="text_10">
      <!-- −0.02 -->
      <g transform="translate(20.878125 214.855699) scale(0.1 -0.1)">
       <use xlink:href="#DejaVuSans-2212"/>
       <use xlink:href="#DejaVuSans-30" x="83.789062"/>
       <use xlink:href="#DejaVuSans-2e" x="147.412109"/>
       <use xlink:href="#DejaVuSans-30" x="179.199219"/>
       <use xlink:href="#DejaVuSans-32" x="242.822266"/>
      </g>
     </g>
    </g>
    <g id="ytick_3">
     <g id="line2d_10">
      <g>
       <use xlink:href="#m43f8f368d6" x="58.523438" y="179.337784" style="stroke: #000000; stroke-width: 0.8"/>
      </g>
     </g>
     <g id="text_11">
      <!-- −0.01 -->
      <g transform="translate(20.878125 183.137003) scale(0.1 -0.1)">
       <use xlink:href="#DejaVuSans-2212"/>
       <use xlink:href="#DejaVuSans-30" x="83.789062"/>
       <use xlink:href="#DejaVuSans-2e" x="147.412109"/>
       <use xlink:href="#DejaVuSans-30" x="179.199219"/>
       <use xlink:href="#DejaVuSans-31" x="242.822266"/>
      </g>
     </g>
    </g>
    <g id="ytick_4">
     <g id="line2d_11">
      <g>
       <use xlink:href="#m43f8f368d6" x="58.523438" y="147.619088" style="stroke: #000000; stroke-width: 0.8"/>
      </g>
     </g>
     <g id="text_12">
      <!-- 0.00 -->
      <g transform="translate(29.257813 151.418306) scale(0.1 -0.1)">
       <use xlink:href="#DejaVuSans-30"/>
       <use xlink:href="#DejaVuSans-2e" x="63.623047"/>
       <use xlink:href="#DejaVuSans-30" x="95.410156"/>
       <use xlink:href="#DejaVuSans-30" x="159.033203"/>
      </g>
     </g>
    </g>
    <g id="ytick_5">
     <g id="line2d_12">
      <g>
       <use xlink:href="#m43f8f368d6" x="58.523438" y="115.900391" style="stroke: #000000; stroke-width: 0.8"/>
      </g>
     </g>
     <g id="text_13">
      <!-- 0.01 -->
      <g transform="translate(29.257813 119.69961) scale(0.1 -0.1)">
       <use xlink:href="#DejaVuSans-30"/>
       <use xlink:href="#DejaVuSans-2e" x="63.623047"/>
       <use xlink:href="#DejaVuSans-30" x="95.410156"/>
       <use xlink:href="#DejaVuSans-31" x="159.033203"/>
      </g>
     </g>
    </g>
    <g id="ytick_6">
     <g id="line2d_13">
      <g>
       <use xlink:href="#m43f8f368d6" x="58.523438" y="84.181695" style="stroke: #000000; stroke-width: 0.8"/>
      </g>
     </g>
     <g id="text_14">
      <!-- 0.02 -->
      <g transform="translate(29.257813 87.980913) scale(0.1 -0.1)">
       <use xlink:href="#DejaVuSans-30"/>
       <use xlink:href="#DejaVuSans-2e" x="63.623047"/>
       <use xlink:href="#DejaVuSans-30" x="95.410156"/>
       <use xlink:href="#DejaVuSans-32" x="159.033203"/>
      </g>
     </g>
    </g>
    <g id="ytick_7">
     <g id="line2d_14">
      <g>
       <use xlink:href="#m43f8f368d6" x="58.523438" y="52.462998" style="stroke: #000000; stroke-width: 0.8"/>
      </g>
     </g>
     <g id="text_15">
      <!-- 0.03 -->
      <g transform="translate(29.257813 56.262217) scale(0.1 -0.1)">
       <use xlink:href="#DejaVuSans-30"/>
       <use xlink:href="#DejaVuSans-2e" x="63.623047"/>
       <use xlink:href="#DejaVuSans-30" x="95.410156"/>
       <use xlink:href="#DejaVuSans-33" x="159.033203"/>
      </g>
     </g>
    </g>
    <g id="text_16">
     <!-- Cepstrum Value -->
     <g transform="translate(14.798438 172.921875) rotate(-90) scale(0.1 -0.1)">
      <defs>
       <path id="DejaVuSans-43" d="M 4122 4306 
L 4122 3641 
Q 3803 3938 3442 4084 
Q 3081 4231 2675 4231 
Q 1875 4231 1450 3742 
Q 1025 3253 1025 2328 
Q 1025 1406 1450 917 
Q 1875 428 2675 428 
Q 3081 428 3442 575 
Q 3803 722 4122 1019 
L 4122 359 
Q 3791 134 3420 21 
Q 3050 -91 2638 -91 
Q 1578 -91 968 557 
Q 359 1206 359 2328 
Q 359 3453 968 4101 
Q 1578 4750 2638 4750 
Q 3056 4750 3426 4639 
Q 3797 4528 4122 4306 
z
" transform="scale(0.015625)"/>
       <path id="DejaVuSans-74" d="M 1172 4494 
L 1172 3500 
L 2356 3500 
L 2356 3053 
L 1172 3053 
L 1172 1153 
Q 1172 725 1289 603 
Q 1406 481 1766 481 
L 2356 481 
L 2356 0 
L 1766 0 
Q 1100 0 847 248 
Q 594 497 594 1153 
L 594 3053 
L 172 3053 
L 172 3500 
L 594 3500 
L 594 4494 
L 1172 4494 
z
" transform="scale(0.015625)"/>
       <path id="DejaVuSans-72" d="M 2631 2963 
Q 2534 3019 2420 3045 
Q 2306 3072 2169 3072 
Q 1681 3072 1420 2755 
Q 1159 2438 1159 1844 
L 1159 0 
L 581 0 
L 581 3500 
L 1159 3500 
L 1159 2956 
Q 1341 3275 1631 3429 
Q 1922 3584 2338 3584 
Q 2397 3584 2469 3576 
Q 2541 3569 2628 3553 
L 2631 2963 
z
" transform="scale(0.015625)"/>
       <path id="DejaVuSans-75" d="M 544 1381 
L 544 3500 
L 1119 3500 
L 1119 1403 
Q 1119 906 1312 657 
Q 1506 409 1894 409 
Q 2359 409 2629 706 
Q 2900 1003 2900 1516 
L 2900 3500 
L 3475 3500 
L 3475 0 
L 2900 0 
L 2900 538 
Q 2691 219 2414 64 
Q 2138 -91 1772 -91 
Q 1169 -91 856 284 
Q 544 659 544 1381 
z
M 1991 3584 
L 1991 3584 
z
" transform="scale(0.015625)"/>
       <path id="DejaVuSans-56" d="M 1831 0 
L 50 4666 
L 709 4666 
L 2188 738 
L 3669 4666 
L 4325 4666 
L 2547 0 
L 1831 0 
z
" transform="scale(0.015625)"/>
      </defs>
      <use xlink:href="#DejaVuSans-43"/>
      <use xlink:href="#DejaVuSans-65" x="69.824219"/>
      <use xlink:href="#DejaVuSans-70" x="131.347656"/>
      <use xlink:href="#DejaVuSans-73" x="194.824219"/>
      <use xlink:href="#DejaVuSans-74" x="246.923828"/>
      <use xlink:href="#DejaVuSans-72" x="286.132812"/>
      <use xlink:href="#DejaVuSans-75" x="327.246094"/>
      <use xlink:href="#DejaVuSans-6d" x="390.625"/>
      <use xlink:href="#DejaVuSans-20" x="488.037109"/>
      <use xlink:href="#DejaVuSans-56" x="519.824219"/>
      <use xlink:href="#DejaVuSans-61" x="580.482422"/>
      <use xlink:href="#DejaVuSans-6c" x="641.761719"/>
      <use xlink:href="#DejaVuSans-75" x="669.544922"/>
      <use xlink:href="#DejaVuSans-65" x="732.923828"/>
     </g>
    </g>
   </g>
   <g id="line2d_15">
    <path d="M 78.814347 92.529559 
L 82.060892 98.213074 
L 85.307438 105.97047 
L 88.553983 115.194527 
L 91.800528 156.605231 
L 95.047074 152.812724 
L 98.293619 143.423985 
L 101.540165 146.168342 
L 104.78671 148.329058 
L 108.033256 160.723863 
L 111.279801 160.036558 
L 114.526347 146.058029 
L 117.772892 135.462322 
L 121.019438 140.644942 
L 124.265983 166.382814 
L 127.512528 163.148064 
L 130.759074 156.395139 
L 134.005619 153.371918 
L 137.252165 151.979752 
L 140.49871 151.774141 
L 143.745256 140.805269 
L 146.991801 144.029514 
L 150.238347 130.463612 
L 153.484892 123.574706 
L 156.731438 119.272208 
L 159.977983 114.647032 
L 163.224528 106.637823 
L 166.471074 90.344347 
L 169.717619 118.916259 
L 172.964165 138.551762 
L 176.21071 136.218877 
L 179.457256 137.107347 
L 182.703801 137.656867 
L 185.950347 157.742789 
L 189.196892 157.553159 
L 192.443438 172.379554 
L 195.689983 182.595717 
L 198.936528 194.596309 
L 202.183074 200.033958 
L 205.429619 181.508232 
L 208.676165 185.381972 
L 211.92271 207.475959 
L 215.169256 198.470284 
L 218.415801 182.289462 
L 221.662347 170.753183 
L 224.908892 168.669207 
L 228.155438 182.768587 
L 231.401983 186.0536 
L 234.648528 172.844878 
L 237.895074 158.511254 
L 241.141619 169.433407 
L 244.388165 162.196797 
L 247.63471 169.794735 
L 250.881256 167.172525 
L 254.127801 158.905352 
L 257.374347 162.658364 
L 260.620892 153.657944 
L 263.867437 159.568762 
L 267.113983 164.576443 
L 270.360528 144.131868 
L 273.607074 162.019341 
L 276.853619 151.85566 
L 280.100165 137.914705 
L 283.34671 137.758075 
L 286.593256 140.374391 
L 289.839801 156.031566 
L 293.086347 138.419132 
L 296.332892 138.230905 
L 299.579437 166.285572 
L 302.825983 160.599786 
L 306.072528 159.819053 
L 309.319074 146.883571 
L 312.565619 139.52412 
L 315.812165 147.326364 
L 319.05871 154.877639 
L 322.305256 170.36834 
L 325.551801 164.963936 
L 328.798347 162.208562 
L 332.044892 178.646734 
L 335.291437 177.927805 
L 338.537983 170.187904 
L 341.784528 179.632237 
L 345.031074 185.051411 
L 348.277619 181.552768 
L 351.524165 175.156647 
L 354.77071 175.501034 
L 358.017256 167.170674 
L 361.263801 156.244616 
L 364.510347 171.868713 
L 367.756892 169.207112 
L 371.003437 159.842716 
L 374.249983 169.170642 
L 377.496528 162.559347 
L 380.743074 144.4458 
L 383.989619 152.12371 
L 387.236165 162.105717 
L 390.48271 155.871442 
L 393.729256 151.116359 
L 396.975801 153.404245 
L 400.222347 157.001789 
L 403.468892 153.157229 
L 406.715438 165.385158 
L 409.961983 166.066975 
L 413.208528 148.046476 
L 416.455074 148.720514 
L 419.701619 144.63176 
L 422.948165 135.285242 
L 426.19471 155.44267 
L 429.441256 159.193517 
L 432.687801 153.301212 
L 435.934347 161.456157 
L 439.180892 168.062714 
L 442.427437 156.929274 
L 445.673983 164.667277 
L 448.920528 166.218818 
L 452.167074 165.13693 
L 455.413619 169.196845 
L 458.660165 166.0595 
L 461.90671 164.409132 
L 465.153256 158.590019 
L 468.399801 174.238648 
L 471.646347 173.390479 
L 474.892892 149.924064 
L 478.139437 152.983746 
L 481.385983 148.661866 
L 484.632528 158.066895 
" clip-path="url(#pb0495cd6e3)" style="fill: none; stroke: #1f77b4; stroke-width: 1.5; stroke-linecap: square"/>
   </g>
   <g id="line2d_16">
    <path d="M 78.814347 88.775808 
L 82.060892 103.901713 
L 85.307438 146.423369 
L 88.553983 187.595003 
L 91.800528 234 
L 95.047074 217.594099 
L 98.293619 196.419443 
L 101.540165 213.769869 
L 104.78671 211.64146 
L 108.033256 159.638978 
L 111.279801 82.210556 
L 114.526347 35.815954 
L 117.772892 61.690505 
L 121.019438 110.298888 
L 124.265983 151.416631 
L 127.512528 149.322992 
L 130.759074 139.291232 
L 134.005619 145.424509 
L 137.252165 162.469244 
L 140.49871 168.064441 
L 143.745256 155.050335 
L 146.991801 120.759626 
L 150.238347 82.817305 
L 153.484892 56.535942 
L 156.731438 32.4 
L 159.977983 33.069911 
L 163.224528 63.717121 
L 166.471074 100.999786 
L 169.717619 139.811618 
L 172.964165 152.35219 
L 176.21071 178.298677 
L 179.457256 228.73536 
L 182.703801 229.777896 
L 185.950347 224.940606 
L 189.196892 210.574892 
L 192.443438 176.100593 
L 195.689983 180.853981 
L 198.936528 170.889489 
L 202.183074 175.187383 
L 205.429619 210.425085 
L 208.676165 189.645996 
L 211.92271 174.900682 
L 215.169256 169.948279 
L 218.415801 160.298028 
L 221.662347 211.658925 
L 224.908892 205.1934 
L 228.155438 169.577531 
L 231.401983 192.889383 
L 234.648528 189.65764 
L 237.895074 180.241161 
L 241.141619 153.953302 
L 244.388165 131.523933 
L 247.63471 150.49822 
L 250.881256 150.837793 
L 254.127801 143.710644 
L 257.374347 164.010276 
L 260.620892 148.237524 
L 263.867437 133.045014 
L 267.113983 136.211603 
L 270.360528 138.364554 
L 273.607074 140.321529 
L 276.853619 124.654958 
L 280.100165 121.639328 
L 283.34671 132.600075 
L 286.593256 121.09918 
L 289.839801 130.026259 
L 293.086347 138.556819 
L 296.332892 150.585083 
L 299.579437 161.760072 
L 302.825983 166.664552 
L 306.072528 165.233105 
L 309.319074 157.92126 
L 312.565619 148.210657 
L 315.812165 160.399132 
L 319.05871 183.248661 
L 322.305256 202.813547 
L 325.551801 189.446848 
L 328.798347 189.043206 
L 332.044892 197.684824 
L 335.291437 179.83775 
L 338.537983 168.601096 
L 341.784528 155.37468 
L 345.031074 156.949702 
L 348.277619 163.856365 
L 351.524165 159.942876 
L 354.77071 158.655866 
L 358.017256 173.985963 
L 361.263801 159.385132 
L 364.510347 166.921004 
L 367.756892 159.184886 
L 371.003437 145.897065 
L 374.249983 160.832151 
L 377.496528 165.789443 
L 380.743074 163.182988 
L 383.989619 156.335814 
L 387.236165 140.728494 
L 390.48271 145.908835 
L 393.729256 143.60185 
L 396.975801 140.806728 
L 400.222347 147.610409 
L 403.468892 128.464529 
L 406.715438 128.565664 
L 409.961983 150.561718 
L 413.208528 149.99308 
L 416.455074 158.207358 
L 419.701619 153.260153 
L 422.948165 139.464461 
L 426.19471 156.694294 
L 429.441256 162.232934 
L 432.687801 164.62669 
L 435.934347 166.111296 
L 439.180892 151.88391 
L 442.427437 158.736634 
L 445.673983 166.972931 
L 448.920528 174.878465 
L 452.167074 185.829539 
L 455.413619 170.673176 
L 458.660165 160.538363 
L 461.90671 165.258222 
L 465.153256 167.577947 
L 468.399801 165.628078 
L 471.646347 164.986463 
L 474.892892 182.120544 
L 478.139437 182.42786 
L 481.385983 171.099106 
L 484.632528 165.23134 
" clip-path="url(#pb0495cd6e3)" style="fill: none; stroke: #ff7f0e; stroke-width: 1.5; stroke-linecap: square"/>
   </g>
   <g id="line2d_17">
    <path d="M 78.814347 80.897834 
L 82.060892 167.590956 
L 85.307438 208.75887 
L 88.553983 161.091187 
L 91.800528 122.84932 
L 95.047074 158.816816 
L 98.293619 195.275525 
L 101.540165 163.222045 
L 104.78671 108.677494 
L 108.033256 100.844024 
L 111.279801 135.206234 
L 114.526347 170.93652 
L 117.772892 178.628495 
L 121.019438 137.420563 
L 124.265983 128.176692 
L 127.512528 142.639204 
L 130.759074 140.074827 
L 134.005619 127.604644 
L 137.252165 144.739935 
L 140.49871 166.750301 
L 143.745256 175.28541 
L 146.991801 148.475826 
L 150.238347 112.593139 
L 153.484892 111.664429 
L 156.731438 161.049056 
L 159.977983 186.273095 
L 163.224528 176.690572 
L 166.471074 136.434905 
L 169.717619 122.77865 
L 172.964165 136.383725 
L 176.21071 149.954966 
L 179.457256 147.557174 
L 182.703801 158.8343 
L 185.950347 178.619118 
L 189.196892 186.326861 
L 192.443438 188.438226 
L 195.689983 177.080695 
L 198.936528 158.451919 
L 202.183074 138.093566 
L 205.429619 149.930226 
L 208.676165 178.056744 
L 211.92271 218.148692 
L 215.169256 224.630855 
L 218.415801 199.808553 
L 221.662347 186.603583 
L 224.908892 192.568043 
L 228.155438 184.82867 
L 231.401983 145.136218 
L 234.648528 93.849965 
L 237.895074 61.315418 
L 241.141619 64.843116 
L 244.388165 83.12645 
L 247.63471 93.21836 
L 250.881256 116.311223 
L 254.127801 156.145849 
L 257.374347 180.16556 
L 260.620892 190.22933 
L 263.867437 187.421647 
L 267.113983 181.783247 
L 270.360528 178.679109 
L 273.607074 168.418319 
L 276.853619 164.765956 
L 280.100165 163.092391 
L 283.34671 146.45312 
L 286.593256 142.62399 
L 289.839801 154.093582 
L 293.086347 151.717457 
L 296.332892 139.669563 
L 299.579437 142.398634 
L 302.825983 162.137085 
L 306.072528 170.08681 
L 309.319074 155.592482 
L 312.565619 151.232153 
L 315.812165 168.583733 
L 319.05871 172.82491 
L 322.305256 164.567088 
L 325.551801 168.539681 
L 328.798347 185.692745 
L 332.044892 174.033069 
L 335.291437 160.476595 
L 338.537983 178.532199 
L 341.784528 181.145852 
L 345.031074 162.220517 
L 348.277619 157.527406 
L 351.524165 180.004678 
L 354.77071 171.595405 
L 358.017256 141.822759 
L 361.263801 141.955728 
L 364.510347 173.155436 
L 367.756892 185.103796 
L 371.003437 163.849104 
L 374.249983 148.463805 
L 377.496528 156.367294 
L 380.743074 151.384274 
L 383.989619 154.453534 
L 387.236165 165.402637 
L 390.48271 174.10302 
L 393.729256 167.562783 
L 396.975801 155.749105 
L 400.222347 139.414346 
L 403.468892 132.124049 
L 406.715438 143.003796 
L 409.961983 152.666307 
L 413.208528 148.014111 
L 416.455074 155.63774 
L 419.701619 161.901217 
L 422.948165 142.288514 
L 426.19471 140.867521 
L 429.441256 161.784526 
L 432.687801 161.884533 
L 435.934347 144.299214 
L 439.180892 139.022397 
L 442.427437 143.679007 
L 445.673983 153.382235 
L 448.920528 164.235834 
L 452.167074 158.483983 
L 455.413619 163.451775 
L 458.660165 167.161905 
L 461.90671 151.670634 
L 465.153256 170.415866 
L 468.399801 198.587341 
L 471.646347 172.424348 
L 474.892892 190.639397 
L 478.139437 198.631211 
L 481.385983 193.399735 
L 484.632528 200.681069 
" clip-path="url(#pb0495cd6e3)" style="fill: none; stroke: #2ca02c; stroke-width: 1.5; stroke-linecap: square"/>
   </g>
   <g id="line2d_18">
    <path d="M 78.814347 83.356456 
L 82.060892 95.587346 
L 85.307438 134.124643 
L 88.553983 163.485525 
L 91.800528 162.001424 
L 95.047074 175.35298 
L 98.293619 176.224537 
L 101.540165 172.890232 
L 104.78671 176.306088 
L 108.033256 147.273139 
L 111.279801 159.072632 
L 114.526347 164.186091 
L 117.772892 152.032234 
L 121.019438 159.349721 
L 124.265983 150.964032 
L 127.512528 154.697461 
L 130.759074 171.997104 
L 134.005619 166.803184 
L 137.252165 178.85476 
L 140.49871 162.648073 
L 143.745256 164.133092 
L 146.991801 148.869689 
L 150.238347 132.948815 
L 153.484892 129.313951 
L 156.731438 126.238935 
L 159.977983 123.778635 
L 163.224528 129.349498 
L 166.471074 146.996822 
L 169.717619 162.607555 
L 172.964165 155.371539 
L 176.21071 144.384533 
L 179.457256 158.065217 
L 182.703801 164.434415 
L 185.950347 153.06841 
L 189.196892 159.266106 
L 192.443438 161.42421 
L 195.689983 155.6089 
L 198.936528 161.511668 
L 202.183074 160.231435 
L 205.429619 164.503904 
L 208.676165 167.450017 
L 211.92271 159.857202 
L 215.169256 152.061201 
L 218.415801 154.105445 
L 221.662347 148.052164 
L 224.908892 160.179008 
L 228.155438 147.475366 
L 231.401983 151.567866 
L 234.648528 178.450564 
L 237.895074 173.809381 
L 241.141619 152.411873 
L 244.388165 160.129106 
L 247.63471 166.679161 
L 250.881256 155.285262 
L 254.127801 156.14366 
L 257.374347 158.280692 
L 260.620892 152.775546 
L 263.867437 157.052847 
L 267.113983 172.238005 
L 270.360528 157.825545 
L 273.607074 143.149393 
L 276.853619 159.543267 
L 280.100165 159.392973 
L 283.34671 151.868791 
L 286.593256 154.804425 
L 289.839801 165.308648 
L 293.086347 168.766492 
L 296.332892 178.834611 
L 299.579437 173.209388 
L 302.825983 171.112034 
L 306.072528 160.242027 
L 309.319074 143.452577 
L 312.565619 117.444793 
L 315.812165 90.523892 
L 319.05871 79.449666 
L 322.305256 87.231183 
L 325.551801 100.047816 
L 328.798347 116.449002 
L 332.044892 133.961654 
L 335.291437 157.709227 
L 338.537983 172.81971 
L 341.784528 172.535683 
L 345.031074 183.365552 
L 348.277619 178.985521 
L 351.524165 177.2092 
L 354.77071 176.922189 
L 358.017256 179.250265 
L 361.263801 171.543402 
L 364.510347 164.890854 
L 367.756892 165.017876 
L 371.003437 152.246261 
L 374.249983 154.807365 
L 377.496528 161.197012 
L 380.743074 153.197664 
L 383.989619 150.634433 
L 387.236165 164.467459 
L 390.48271 169.77037 
L 393.729256 165.676548 
L 396.975801 166.614868 
L 400.222347 163.492779 
L 403.468892 155.615549 
L 406.715438 146.414965 
L 409.961983 144.366362 
L 413.208528 148.393722 
L 416.455074 158.948107 
L 419.701619 166.600969 
L 422.948165 179.977196 
L 426.19471 180.98159 
L 429.441256 174.710292 
L 432.687801 167.83218 
L 435.934347 149.96487 
L 439.180892 156.938217 
L 442.427437 160.673682 
L 445.673983 144.952836 
L 448.920528 152.999901 
L 452.167074 173.240894 
L 455.413619 173.471081 
L 458.660165 170.483215 
L 461.90671 166.700098 
L 465.153256 170.100825 
L 468.399801 177.447957 
L 471.646347 171.638755 
L 474.892892 168.022302 
L 478.139437 178.200645 
L 481.385983 163.812531 
L 484.632528 172.108624 
" clip-path="url(#pb0495cd6e3)" style="fill: none; stroke: #d62728; stroke-width: 1.5; stroke-linecap: square"/>
   </g>
   <g id="patch_3">
    <path d="M 58.523438 244.08 
L 58.523438 22.32 
" style="fill: none; stroke: #000000; stroke-width: 0.8; stroke-linejoin: miter; stroke-linecap: square"/>
   </g>
   <g id="patch_4">
    <path d="M 504.923437 244.08 
L 504.923437 22.32 
" style="fill: none; stroke: #000000; stroke-width: 0.8; stroke-linejoin: miter; stroke-linecap: square"/>
   </g>
   <g id="patch_5">
    <path d="M 58.523438 244.08 
L 504.923437 244.08 
" style="fill: none; stroke: #000000; stroke-width: 0.8; stroke-linejoin: miter; stroke-linecap: square"/>
   </g>
   <g id="patch_6">
    <path d="M 58.523438 22.32 
L 504.923437 22.32 
" style="fill: none; stroke: #000000; stroke-width: 0.8; stroke-linejoin: miter; stroke-linecap: square"/>
   </g>
   <g id="text_17">
    <!-- Prince Jazz Cepstra $c$ for VocalSet Dance Diffusion Models -->
    <g transform="translate(108.203438 16.32) scale(0.12 -0.12)">
     <defs>
      <path id="DejaVuSans-50" d="M 1259 4147 
L 1259 2394 
L 2053 2394 
Q 2494 2394 2734 2622 
Q 2975 2850 2975 3272 
Q 2975 3691 2734 3919 
Q 2494 4147 2053 4147 
L 1259 4147 
z
M 628 4666 
L 2053 4666 
Q 2838 4666 3239 4311 
Q 3641 3956 3641 3272 
Q 3641 2581 3239 2228 
Q 2838 1875 2053 1875 
L 1259 1875 
L 1259 0 
L 628 0 
L 628 4666 
z
" transform="scale(0.015625)"/>
      <path id="DejaVuSans-69" d="M 603 3500 
L 1178 3500 
L 1178 0 
L 603 0 
L 603 3500 
z
M 603 4863 
L 1178 4863 
L 1178 4134 
L 603 4134 
L 603 4863 
z
" transform="scale(0.015625)"/>
      <path id="DejaVuSans-6e" d="M 3513 2113 
L 3513 0 
L 2938 0 
L 2938 2094 
Q 2938 2591 2744 2837 
Q 2550 3084 2163 3084 
Q 1697 3084 1428 2787 
Q 1159 2491 1159 1978 
L 1159 0 
L 581 0 
L 581 3500 
L 1159 3500 
L 1159 2956 
Q 1366 3272 1645 3428 
Q 1925 3584 2291 3584 
Q 2894 3584 3203 3211 
Q 3513 2838 3513 2113 
z
" transform="scale(0.015625)"/>
      <path id="DejaVuSans-4a" d="M 628 4666 
L 1259 4666 
L 1259 325 
Q 1259 -519 939 -900 
Q 619 -1281 -91 -1281 
L -331 -1281 
L -331 -750 
L -134 -750 
Q 284 -750 456 -515 
Q 628 -281 628 325 
L 628 4666 
z
" transform="scale(0.015625)"/>
      <path id="DejaVuSans-7a" d="M 353 3500 
L 3084 3500 
L 3084 2975 
L 922 459 
L 3084 459 
L 3084 0 
L 275 0 
L 275 525 
L 2438 3041 
L 353 3041 
L 353 3500 
z
" transform="scale(0.015625)"/>
      <path id="DejaVuSans-Oblique-63" d="M 3431 3366 
L 3316 2797 
Q 3109 2947 2876 3022 
Q 2644 3097 2394 3097 
Q 2119 3097 1870 3000 
Q 1622 2903 1453 2725 
Q 1184 2453 1037 2087 
Q 891 1722 891 1331 
Q 891 859 1127 628 
Q 1363 397 1844 397 
Q 2081 397 2348 469 
Q 2616 541 2906 684 
L 2797 116 
Q 2547 13 2283 -39 
Q 2019 -91 1741 -91 
Q 1044 -91 669 257 
Q 294 606 294 1253 
Q 294 1797 489 2255 
Q 684 2713 1069 3078 
Q 1331 3328 1684 3456 
Q 2038 3584 2456 3584 
Q 2700 3584 2940 3529 
Q 3181 3475 3431 3366 
z
" transform="scale(0.015625)"/>
      <path id="DejaVuSans-66" d="M 2375 4863 
L 2375 4384 
L 1825 4384 
Q 1516 4384 1395 4259 
Q 1275 4134 1275 3809 
L 1275 3500 
L 2222 3500 
L 2222 3053 
L 1275 3053 
L 1275 0 
L 697 0 
L 697 3053 
L 147 3053 
L 147 3500 
L 697 3500 
L 697 3744 
Q 697 4328 969 4595 
Q 1241 4863 1831 4863 
L 2375 4863 
z
" transform="scale(0.015625)"/>
      <path id="DejaVuSans-44" d="M 1259 4147 
L 1259 519 
L 2022 519 
Q 2988 519 3436 956 
Q 3884 1394 3884 2338 
Q 3884 3275 3436 3711 
Q 2988 4147 2022 4147 
L 1259 4147 
z
M 628 4666 
L 1925 4666 
Q 3281 4666 3915 4102 
Q 4550 3538 4550 2338 
Q 4550 1131 3912 565 
Q 3275 0 1925 0 
L 628 0 
L 628 4666 
z
" transform="scale(0.015625)"/>
      <path id="DejaVuSans-4d" d="M 628 4666 
L 1569 4666 
L 2759 1491 
L 3956 4666 
L 4897 4666 
L 4897 0 
L 4281 0 
L 4281 4097 
L 3078 897 
L 2444 897 
L 1241 4097 
L 1241 0 
L 628 0 
L 628 4666 
z
" transform="scale(0.015625)"/>
      <path id="DejaVuSans-64" d="M 2906 2969 
L 2906 4863 
L 3481 4863 
L 3481 0 
L 2906 0 
L 2906 525 
Q 2725 213 2448 61 
Q 2172 -91 1784 -91 
Q 1150 -91 751 415 
Q 353 922 353 1747 
Q 353 2572 751 3078 
Q 1150 3584 1784 3584 
Q 2172 3584 2448 3432 
Q 2725 3281 2906 2969 
z
M 947 1747 
Q 947 1113 1208 752 
Q 1469 391 1925 391 
Q 2381 391 2643 752 
Q 2906 1113 2906 1747 
Q 2906 2381 2643 2742 
Q 2381 3103 1925 3103 
Q 1469 3103 1208 2742 
Q 947 2381 947 1747 
z
" transform="scale(0.015625)"/>
     </defs>
     <use xlink:href="#DejaVuSans-50" transform="translate(0 0.015625)"/>
     <use xlink:href="#DejaVuSans-72" transform="translate(60.302734 0.015625)"/>
     <use xlink:href="#DejaVuSans-69" transform="translate(101.416016 0.015625)"/>
     <use xlink:href="#DejaVuSans-6e" transform="translate(129.199219 0.015625)"/>
     <use xlink:href="#DejaVuSans-63" transform="translate(192.578125 0.015625)"/>
     <use xlink:href="#DejaVuSans-65" transform="translate(247.558594 0.015625)"/>
     <use xlink:href="#DejaVuSans-20" transform="translate(309.082031 0.015625)"/>
     <use xlink:href="#DejaVuSans-4a" transform="translate(340.869141 0.015625)"/>
     <use xlink:href="#DejaVuSans-61" transform="translate(370.361328 0.015625)"/>
     <use xlink:href="#DejaVuSans-7a" transform="translate(431.640625 0.015625)"/>
     <use xlink:href="#DejaVuSans-7a" transform="translate(484.130859 0.015625)"/>
     <use xlink:href="#DejaVuSans-20" transform="translate(536.621094 0.015625)"/>
     <use xlink:href="#DejaVuSans-43" transform="translate(568.408203 0.015625)"/>
     <use xlink:href="#DejaVuSans-65" transform="translate(638.232422 0.015625)"/>
     <use xlink:href="#DejaVuSans-70" transform="translate(699.755859 0.015625)"/>
     <use xlink:href="#DejaVuSans-73" transform="translate(763.232422 0.015625)"/>
     <use xlink:href="#DejaVuSans-74" transform="translate(815.332031 0.015625)"/>
     <use xlink:href="#DejaVuSans-72" transform="translate(854.541016 0.015625)"/>
     <use xlink:href="#DejaVuSans-61" transform="translate(895.654297 0.015625)"/>
     <use xlink:href="#DejaVuSans-20" transform="translate(956.933594 0.015625)"/>
     <use xlink:href="#DejaVuSans-Oblique-63" transform="translate(988.720703 0.015625)"/>
     <use xlink:href="#DejaVuSans-20" transform="translate(1043.701172 0.015625)"/>
     <use xlink:href="#DejaVuSans-66" transform="translate(1075.488281 0.015625)"/>
     <use xlink:href="#DejaVuSans-6f" transform="translate(1110.693359 0.015625)"/>
     <use xlink:href="#DejaVuSans-72" transform="translate(1171.875 0.015625)"/>
     <use xlink:href="#DejaVuSans-20" transform="translate(1212.988281 0.015625)"/>
     <use xlink:href="#DejaVuSans-56" transform="translate(1244.775391 0.015625)"/>
     <use xlink:href="#DejaVuSans-6f" transform="translate(1313.183594 0.015625)"/>
     <use xlink:href="#DejaVuSans-63" transform="translate(1374.365234 0.015625)"/>
     <use xlink:href="#DejaVuSans-61" transform="translate(1429.345703 0.015625)"/>
     <use xlink:href="#DejaVuSans-6c" transform="translate(1490.625 0.015625)"/>
     <use xlink:href="#DejaVuSans-53" transform="translate(1518.408203 0.015625)"/>
     <use xlink:href="#DejaVuSans-65" transform="translate(1581.884766 0.015625)"/>
     <use xlink:href="#DejaVuSans-74" transform="translate(1643.408203 0.015625)"/>
     <use xlink:href="#DejaVuSans-20" transform="translate(1682.617188 0.015625)"/>
     <use xlink:href="#DejaVuSans-44" transform="translate(1714.404297 0.015625)"/>
     <use xlink:href="#DejaVuSans-61" transform="translate(1791.40625 0.015625)"/>
     <use xlink:href="#DejaVuSans-6e" transform="translate(1852.685547 0.015625)"/>
     <use xlink:href="#DejaVuSans-63" transform="translate(1916.064453 0.015625)"/>
     <use xlink:href="#DejaVuSans-65" transform="translate(1971.044922 0.015625)"/>
     <use xlink:href="#DejaVuSans-20" transform="translate(2032.568359 0.015625)"/>
     <use xlink:href="#DejaVuSans-44" transform="translate(2064.355469 0.015625)"/>
     <use xlink:href="#DejaVuSans-69" transform="translate(2141.357422 0.015625)"/>
     <use xlink:href="#DejaVuSans-66" transform="translate(2169.140625 0.015625)"/>
     <use xlink:href="#DejaVuSans-66" transform="translate(2204.345703 0.015625)"/>
     <use xlink:href="#DejaVuSans-75" transform="translate(2239.550781 0.015625)"/>
     <use xlink:href="#DejaVuSans-73" transform="translate(2302.929688 0.015625)"/>
     <use xlink:href="#DejaVuSans-69" transform="translate(2355.029297 0.015625)"/>
     <use xlink:href="#DejaVuSans-6f" transform="translate(2382.8125 0.015625)"/>
     <use xlink:href="#DejaVuSans-6e" transform="translate(2443.994141 0.015625)"/>
     <use xlink:href="#DejaVuSans-20" transform="translate(2507.373047 0.015625)"/>
     <use xlink:href="#DejaVuSans-4d" transform="translate(2539.160156 0.015625)"/>
     <use xlink:href="#DejaVuSans-6f" transform="translate(2625.439453 0.015625)"/>
     <use xlink:href="#DejaVuSans-64" transform="translate(2686.621094 0.015625)"/>
     <use xlink:href="#DejaVuSans-65" transform="translate(2750.097656 0.015625)"/>
     <use xlink:href="#DejaVuSans-6c" transform="translate(2811.621094 0.015625)"/>
     <use xlink:href="#DejaVuSans-73" transform="translate(2839.404297 0.015625)"/>
    </g>
   </g>
   <g id="legend_1">
    <g id="patch_7">
     <path d="M 379.432812 89.0325 
L 497.923437 89.0325 
Q 499.923437 89.0325 499.923437 87.0325 
L 499.923437 29.32 
Q 499.923437 27.32 497.923437 27.32 
L 379.432812 27.32 
Q 377.432812 27.32 377.432812 29.32 
L 377.432812 87.0325 
Q 377.432812 89.0325 379.432812 89.0325 
z
" style="fill: #ffffff; opacity: 0.8; stroke: #cccccc; stroke-linejoin: miter"/>
    </g>
    <g id="line2d_19">
     <path d="M 381.432812 35.418437 
L 391.432812 35.418437 
L 401.432812 35.418437 
" style="fill: none; stroke: #1f77b4; stroke-width: 1.5; stroke-linecap: square"/>
    </g>
    <g id="text_18">
     <!-- Clean -->
     <g transform="translate(409.432812 38.918437) scale(0.1 -0.1)">
      <use xlink:href="#DejaVuSans-43"/>
      <use xlink:href="#DejaVuSans-6c" x="69.824219"/>
      <use xlink:href="#DejaVuSans-65" x="97.607422"/>
      <use xlink:href="#DejaVuSans-61" x="159.130859"/>
      <use xlink:href="#DejaVuSans-6e" x="220.410156"/>
     </g>
    </g>
    <g id="line2d_20">
     <path d="M 381.432812 50.096562 
L 391.432812 50.096562 
L 401.432812 50.096562 
" style="fill: none; stroke: #ff7f0e; stroke-width: 1.5; stroke-linecap: square"/>
    </g>
    <g id="text_19">
     <!-- 50   (z[50] = 3.5) -->
     <g transform="translate(409.432812 53.596562) scale(0.1 -0.1)">
      <defs>
       <path id="DejaVuSans-35" d="M 691 4666 
L 3169 4666 
L 3169 4134 
L 1269 4134 
L 1269 2991 
Q 1406 3038 1543 3061 
Q 1681 3084 1819 3084 
Q 2600 3084 3056 2656 
Q 3513 2228 3513 1497 
Q 3513 744 3044 326 
Q 2575 -91 1722 -91 
Q 1428 -91 1123 -41 
Q 819 9 494 109 
L 494 744 
Q 775 591 1075 516 
Q 1375 441 1709 441 
Q 2250 441 2565 725 
Q 2881 1009 2881 1497 
Q 2881 1984 2565 2268 
Q 2250 2553 1709 2553 
Q 1456 2553 1204 2497 
Q 953 2441 691 2322 
L 691 4666 
z
" transform="scale(0.015625)"/>
       <path id="DejaVuSans-5b" d="M 550 4863 
L 1875 4863 
L 1875 4416 
L 1125 4416 
L 1125 -397 
L 1875 -397 
L 1875 -844 
L 550 -844 
L 550 4863 
z
" transform="scale(0.015625)"/>
       <path id="DejaVuSans-5d" d="M 1947 4863 
L 1947 -844 
L 622 -844 
L 622 -397 
L 1369 -397 
L 1369 4416 
L 622 4416 
L 622 4863 
L 1947 4863 
z
" transform="scale(0.015625)"/>
       <path id="DejaVuSans-3d" d="M 678 2906 
L 4684 2906 
L 4684 2381 
L 678 2381 
L 678 2906 
z
M 678 1631 
L 4684 1631 
L 4684 1100 
L 678 1100 
L 678 1631 
z
" transform="scale(0.015625)"/>
      </defs>
      <use xlink:href="#DejaVuSans-35"/>
      <use xlink:href="#DejaVuSans-30" x="63.623047"/>
      <use xlink:href="#DejaVuSans-20" x="127.246094"/>
      <use xlink:href="#DejaVuSans-20" x="159.033203"/>
      <use xlink:href="#DejaVuSans-20" x="190.820312"/>
      <use xlink:href="#DejaVuSans-28" x="222.607422"/>
      <use xlink:href="#DejaVuSans-7a" x="261.621094"/>
      <use xlink:href="#DejaVuSans-5b" x="314.111328"/>
      <use xlink:href="#DejaVuSans-35" x="353.125"/>
      <use xlink:href="#DejaVuSans-30" x="416.748047"/>
      <use xlink:href="#DejaVuSans-5d" x="480.371094"/>
      <use xlink:href="#DejaVuSans-20" x="519.384766"/>
      <use xlink:href="#DejaVuSans-3d" x="551.171875"/>
      <use xlink:href="#DejaVuSans-20" x="634.960938"/>
      <use xlink:href="#DejaVuSans-33" x="666.748047"/>
      <use xlink:href="#DejaVuSans-2e" x="730.371094"/>
      <use xlink:href="#DejaVuSans-35" x="762.158203"/>
      <use xlink:href="#DejaVuSans-29" x="825.78125"/>
     </g>
    </g>
    <g id="line2d_21">
     <path d="M 381.432812 64.774687 
L 391.432812 64.774687 
L 401.432812 64.774687 
" style="fill: none; stroke: #2ca02c; stroke-width: 1.5; stroke-linecap: square"/>
    </g>
    <g id="text_20">
     <!-- 75   (z[75] = 3.5) -->
     <g transform="translate(409.432812 68.274687) scale(0.1 -0.1)">
      <defs>
       <path id="DejaVuSans-37" d="M 525 4666 
L 3525 4666 
L 3525 4397 
L 1831 0 
L 1172 0 
L 2766 4134 
L 525 4134 
L 525 4666 
z
" transform="scale(0.015625)"/>
      </defs>
      <use xlink:href="#DejaVuSans-37"/>
      <use xlink:href="#DejaVuSans-35" x="63.623047"/>
      <use xlink:href="#DejaVuSans-20" x="127.246094"/>
      <use xlink:href="#DejaVuSans-20" x="159.033203"/>
      <use xlink:href="#DejaVuSans-20" x="190.820312"/>
      <use xlink:href="#DejaVuSans-28" x="222.607422"/>
      <use xlink:href="#DejaVuSans-7a" x="261.621094"/>
      <use xlink:href="#DejaVuSans-5b" x="314.111328"/>
      <use xlink:href="#DejaVuSans-37" x="353.125"/>
      <use xlink:href="#DejaVuSans-35" x="416.748047"/>
      <use xlink:href="#DejaVuSans-5d" x="480.371094"/>
      <use xlink:href="#DejaVuSans-20" x="519.384766"/>
      <use xlink:href="#DejaVuSans-3d" x="551.171875"/>
      <use xlink:href="#DejaVuSans-20" x="634.960938"/>
      <use xlink:href="#DejaVuSans-33" x="666.748047"/>
      <use xlink:href="#DejaVuSans-2e" x="730.371094"/>
      <use xlink:href="#DejaVuSans-35" x="762.158203"/>
      <use xlink:href="#DejaVuSans-29" x="825.78125"/>
     </g>
    </g>
    <g id="line2d_22">
     <path d="M 381.432812 79.452812 
L 391.432812 79.452812 
L 401.432812 79.452812 
" style="fill: none; stroke: #d62728; stroke-width: 1.5; stroke-linecap: square"/>
    </g>
    <g id="text_21">
     <!-- 100 (z[100]=3.6) -->
     <g transform="translate(409.432812 82.952812) scale(0.1 -0.1)">
      <use xlink:href="#DejaVuSans-31"/>
      <use xlink:href="#DejaVuSans-30" x="63.623047"/>
      <use xlink:href="#DejaVuSans-30" x="127.246094"/>
      <use xlink:href="#DejaVuSans-20" x="190.869141"/>
      <use xlink:href="#DejaVuSans-28" x="222.65625"/>
      <use xlink:href="#DejaVuSans-7a" x="261.669922"/>
      <use xlink:href="#DejaVuSans-5b" x="314.160156"/>
      <use xlink:href="#DejaVuSans-31" x="353.173828"/>
      <use xlink:href="#DejaVuSans-30" x="416.796875"/>
      <use xlink:href="#DejaVuSans-30" x="480.419922"/>
      <use xlink:href="#DejaVuSans-5d" x="544.042969"/>
      <use xlink:href="#DejaVuSans-3d" x="583.056641"/>
      <use xlink:href="#DejaVuSans-33" x="666.845703"/>
      <use xlink:href="#DejaVuSans-2e" x="730.46875"/>
      <use xlink:href="#DejaVuSans-36" x="762.255859"/>
      <use xlink:href="#DejaVuSans-29" x="825.878906"/>
     </g>
    </g>
   </g>
  </g>
 </g>
 <defs>
  <clipPath id="pb0495cd6e3">
   <rect x="58.523438" y="22.32" width="446.4" height="221.76"/>
  </clipPath>
 </defs>
</svg>
