<?xml version="1.0" encoding="utf-8" standalone="no"?>
<!DOCTYPE svg PUBLIC "-//W3C//DTD SVG 1.1//EN"
  "http://www.w3.org/Graphics/SVG/1.1/DTD/svg11.dtd">
<svg xmlns:xlink="http://www.w3.org/1999/xlink" width="512.123437pt" height="281.63625pt" viewBox="0 0 512.123437 281.63625" xmlns="http://www.w3.org/2000/svg" version="1.1">
 <metadata>
  <rdf:RDF xmlns:dc="http://purl.org/dc/elements/1.1/" xmlns:cc="http://creativecommons.org/ns#" xmlns:rdf="http://www.w3.org/1999/02/22-rdf-syntax-ns#">
   <cc:Work>
    <dc:type rdf:resource="http://purl.org/dc/dcmitype/StillImage"/>
    <dc:date>2024-12-13T23:20:51.324141</dc:date>
    <dc:format>image/svg+xml</dc:format>
    <dc:creator>
     <cc:Agent>
      <dc:title>Matplotlib v3.9.2, https://matplotlib.org/</dc:title>
     </cc:Agent>
    </dc:creator>
   </cc:Work>
  </rdf:RDF>
 </metadata>
 <defs>
  <style type="text/css">*{stroke-linejoin: round; stroke-linecap: butt}</style>
 </defs>
 <g id="figure_1">
  <g id="patch_1">
   <path d="M 0 281.63625 
L 512.123437 281.63625 
L 512.123437 0 
L 0 0 
z
" style="fill: #ffffff"/>
  </g>
  <g id="axes_1">
   <g id="patch_2">
    <path d="M 58.523438 244.08 
L 504.923437 244.08 
L 504.923437 22.32 
L 58.523438 22.32 
z
" style="fill: #ffffff"/>
   </g>
   <g id="matplotlib.axis_1">
    <g id="xtick_1">
     <g id="line2d_1">
      <defs>
       <path id="m8cf1e2531e" d="M 0 0 
L 0 3.5 
" style="stroke: #000000; stroke-width: 0.8"/>
      </defs>
      <g>
       <use xlink:href="#m8cf1e2531e" x="62.581619" y="244.08" style="stroke: #000000; stroke-width: 0.8"/>
      </g>
     </g>
     <g id="text_1">
      <!-- 20 -->
      <g transform="translate(56.219119 258.678438) scale(0.1 -0.1)">
       <defs>
        <path id="DejaVuSans-32" d="M 1228 531 
L 3431 531 
L 3431 0 
L 469 0 
L 469 531 
Q 828 903 1448 1529 
Q 2069 2156 2228 2338 
Q 2531 2678 2651 2914 
Q 2772 3150 2772 3378 
Q 2772 3750 2511 3984 
Q 2250 4219 1831 4219 
Q 1534 4219 1204 4116 
Q 875 4013 500 3803 
L 500 4441 
Q 881 4594 1212 4672 
Q 1544 4750 1819 4750 
Q 2544 4750 2975 4387 
Q 3406 4025 3406 3419 
Q 3406 3131 3298 2873 
Q 3191 2616 2906 2266 
Q 2828 2175 2409 1742 
Q 1991 1309 1228 531 
z
" transform="scale(0.015625)"/>
        <path id="DejaVuSans-30" d="M 2034 4250 
Q 1547 4250 1301 3770 
Q 1056 3291 1056 2328 
Q 1056 1369 1301 889 
Q 1547 409 2034 409 
Q 2525 409 2770 889 
Q 3016 1369 3016 2328 
Q 3016 3291 2770 3770 
Q 2525 4250 2034 4250 
z
M 2034 4750 
Q 2819 4750 3233 4129 
Q 3647 3509 3647 2328 
Q 3647 1150 3233 529 
Q 2819 -91 2034 -91 
Q 1250 -91 836 529 
Q 422 1150 422 2328 
Q 422 3509 836 4129 
Q 1250 4750 2034 4750 
z
" transform="scale(0.015625)"/>
       </defs>
       <use xlink:href="#DejaVuSans-32"/>
       <use xlink:href="#DejaVuSans-30" x="63.623047"/>
      </g>
     </g>
    </g>
    <g id="xtick_2">
     <g id="line2d_2">
      <g>
       <use xlink:href="#m8cf1e2531e" x="127.512528" y="244.08" style="stroke: #000000; stroke-width: 0.8"/>
      </g>
     </g>
     <g id="text_2">
      <!-- 40 -->
      <g transform="translate(121.150028 258.678438) scale(0.1 -0.1)">
       <defs>
        <path id="DejaVuSans-34" d="M 2419 4116 
L 825 1625 
L 2419 1625 
L 2419 4116 
z
M 2253 4666 
L 3047 4666 
L 3047 1625 
L 3713 1625 
L 3713 1100 
L 3047 1100 
L 3047 0 
L 2419 0 
L 2419 1100 
L 313 1100 
L 313 1709 
L 2253 4666 
z
" transform="scale(0.015625)"/>
       </defs>
       <use xlink:href="#DejaVuSans-34"/>
       <use xlink:href="#DejaVuSans-30" x="63.623047"/>
      </g>
     </g>
    </g>
    <g id="xtick_3">
     <g id="line2d_3">
      <g>
       <use xlink:href="#m8cf1e2531e" x="192.443438" y="244.08" style="stroke: #000000; stroke-width: 0.8"/>
      </g>
     </g>
     <g id="text_3">
      <!-- 60 -->
      <g transform="translate(186.080938 258.678438) scale(0.1 -0.1)">
       <defs>
        <path id="DejaVuSans-36" d="M 2113 2584 
Q 1688 2584 1439 2293 
Q 1191 2003 1191 1497 
Q 1191 994 1439 701 
Q 1688 409 2113 409 
Q 2538 409 2786 701 
Q 3034 994 3034 1497 
Q 3034 2003 2786 2293 
Q 2538 2584 2113 2584 
z
M 3366 4563 
L 3366 3988 
Q 3128 4100 2886 4159 
Q 2644 4219 2406 4219 
Q 1781 4219 1451 3797 
Q 1122 3375 1075 2522 
Q 1259 2794 1537 2939 
Q 1816 3084 2150 3084 
Q 2853 3084 3261 2657 
Q 3669 2231 3669 1497 
Q 3669 778 3244 343 
Q 2819 -91 2113 -91 
Q 1303 -91 875 529 
Q 447 1150 447 2328 
Q 447 3434 972 4092 
Q 1497 4750 2381 4750 
Q 2619 4750 2861 4703 
Q 3103 4656 3366 4563 
z
" transform="scale(0.015625)"/>
       </defs>
       <use xlink:href="#DejaVuSans-36"/>
       <use xlink:href="#DejaVuSans-30" x="63.623047"/>
      </g>
     </g>
    </g>
    <g id="xtick_4">
     <g id="line2d_4">
      <g>
       <use xlink:href="#m8cf1e2531e" x="257.374347" y="244.08" style="stroke: #000000; stroke-width: 0.8"/>
      </g>
     </g>
     <g id="text_4">
      <!-- 80 -->
      <g transform="translate(251.011847 258.678438) scale(0.1 -0.1)">
       <defs>
        <path id="DejaVuSans-38" d="M 2034 2216 
Q 1584 2216 1326 1975 
Q 1069 1734 1069 1313 
Q 1069 891 1326 650 
Q 1584 409 2034 409 
Q 2484 409 2743 651 
Q 3003 894 3003 1313 
Q 3003 1734 2745 1975 
Q 2488 2216 2034 2216 
z
M 1403 2484 
Q 997 2584 770 2862 
Q 544 3141 544 3541 
Q 544 4100 942 4425 
Q 1341 4750 2034 4750 
Q 2731 4750 3128 4425 
Q 3525 4100 3525 3541 
Q 3525 3141 3298 2862 
Q 3072 2584 2669 2484 
Q 3125 2378 3379 2068 
Q 3634 1759 3634 1313 
Q 3634 634 3220 271 
Q 2806 -91 2034 -91 
Q 1263 -91 848 271 
Q 434 634 434 1313 
Q 434 1759 690 2068 
Q 947 2378 1403 2484 
z
M 1172 3481 
Q 1172 3119 1398 2916 
Q 1625 2713 2034 2713 
Q 2441 2713 2670 2916 
Q 2900 3119 2900 3481 
Q 2900 3844 2670 4047 
Q 2441 4250 2034 4250 
Q 1625 4250 1398 4047 
Q 1172 3844 1172 3481 
z
" transform="scale(0.015625)"/>
       </defs>
       <use xlink:href="#DejaVuSans-38"/>
       <use xlink:href="#DejaVuSans-30" x="63.623047"/>
      </g>
     </g>
    </g>
    <g id="xtick_5">
     <g id="line2d_5">
      <g>
       <use xlink:href="#m8cf1e2531e" x="322.305256" y="244.08" style="stroke: #000000; stroke-width: 0.8"/>
      </g>
     </g>
     <g id="text_5">
      <!-- 100 -->
      <g transform="translate(312.761506 258.678438) scale(0.1 -0.1)">
       <defs>
        <path id="DejaVuSans-31" d="M 794 531 
L 1825 531 
L 1825 4091 
L 703 3866 
L 703 4441 
L 1819 4666 
L 2450 4666 
L 2450 531 
L 3481 531 
L 3481 0 
L 794 0 
L 794 531 
z
" transform="scale(0.015625)"/>
       </defs>
       <use xlink:href="#DejaVuSans-31"/>
       <use xlink:href="#DejaVuSans-30" x="63.623047"/>
       <use xlink:href="#DejaVuSans-30" x="127.246094"/>
      </g>
     </g>
    </g>
    <g id="xtick_6">
     <g id="line2d_6">
      <g>
       <use xlink:href="#m8cf1e2531e" x="387.236165" y="244.08" style="stroke: #000000; stroke-width: 0.8"/>
      </g>
     </g>
     <g id="text_6">
      <!-- 120 -->
      <g transform="translate(377.692415 258.678438) scale(0.1 -0.1)">
       <use xlink:href="#DejaVuSans-31"/>
       <use xlink:href="#DejaVuSans-32" x="63.623047"/>
       <use xlink:href="#DejaVuSans-30" x="127.246094"/>
      </g>
     </g>
    </g>
    <g id="xtick_7">
     <g id="line2d_7">
      <g>
       <use xlink:href="#m8cf1e2531e" x="452.167074" y="244.08" style="stroke: #000000; stroke-width: 0.8"/>
      </g>
     </g>
     <g id="text_7">
      <!-- 140 -->
      <g transform="translate(442.623324 258.678438) scale(0.1 -0.1)">
       <use xlink:href="#DejaVuSans-31"/>
       <use xlink:href="#DejaVuSans-34" x="63.623047"/>
       <use xlink:href="#DejaVuSans-30" x="127.246094"/>
      </g>
     </g>
    </g>
    <g id="text_8">
     <!-- Echo (Samples) -->
     <g transform="translate(242.742969 272.356562) scale(0.1 -0.1)">
      <defs>
       <path id="DejaVuSans-45" d="M 628 4666 
L 3578 4666 
L 3578 4134 
L 1259 4134 
L 1259 2753 
L 3481 2753 
L 3481 2222 
L 1259 2222 
L 1259 531 
L 3634 531 
L 3634 0 
L 628 0 
L 628 4666 
z
" transform="scale(0.015625)"/>
       <path id="DejaVuSans-63" d="M 3122 3366 
L 3122 2828 
Q 2878 2963 2633 3030 
Q 2388 3097 2138 3097 
Q 1578 3097 1268 2742 
Q 959 2388 959 1747 
Q 959 1106 1268 751 
Q 1578 397 2138 397 
Q 2388 397 2633 464 
Q 2878 531 3122 666 
L 3122 134 
Q 2881 22 2623 -34 
Q 2366 -91 2075 -91 
Q 1284 -91 818 406 
Q 353 903 353 1747 
Q 353 2603 823 3093 
Q 1294 3584 2113 3584 
Q 2378 3584 2631 3529 
Q 2884 3475 3122 3366 
z
" transform="scale(0.015625)"/>
       <path id="DejaVuSans-68" d="M 3513 2113 
L 3513 0 
L 2938 0 
L 2938 2094 
Q 2938 2591 2744 2837 
Q 2550 3084 2163 3084 
Q 1697 3084 1428 2787 
Q 1159 2491 1159 1978 
L 1159 0 
L 581 0 
L 581 4863 
L 1159 4863 
L 1159 2956 
Q 1366 3272 1645 3428 
Q 1925 3584 2291 3584 
Q 2894 3584 3203 3211 
Q 3513 2838 3513 2113 
z
" transform="scale(0.015625)"/>
       <path id="DejaVuSans-6f" d="M 1959 3097 
Q 1497 3097 1228 2736 
Q 959 2375 959 1747 
Q 959 1119 1226 758 
Q 1494 397 1959 397 
Q 2419 397 2687 759 
Q 2956 1122 2956 1747 
Q 2956 2369 2687 2733 
Q 2419 3097 1959 3097 
z
M 1959 3584 
Q 2709 3584 3137 3096 
Q 3566 2609 3566 1747 
Q 3566 888 3137 398 
Q 2709 -91 1959 -91 
Q 1206 -91 779 398 
Q 353 888 353 1747 
Q 353 2609 779 3096 
Q 1206 3584 1959 3584 
z
" transform="scale(0.015625)"/>
       <path id="DejaVuSans-20" transform="scale(0.015625)"/>
       <path id="DejaVuSans-28" d="M 1984 4856 
Q 1566 4138 1362 3434 
Q 1159 2731 1159 2009 
Q 1159 1288 1364 580 
Q 1569 -128 1984 -844 
L 1484 -844 
Q 1016 -109 783 600 
Q 550 1309 550 2009 
Q 550 2706 781 3412 
Q 1013 4119 1484 4856 
L 1984 4856 
z
" transform="scale(0.015625)"/>
       <path id="DejaVuSans-53" d="M 3425 4513 
L 3425 3897 
Q 3066 4069 2747 4153 
Q 2428 4238 2131 4238 
Q 1616 4238 1336 4038 
Q 1056 3838 1056 3469 
Q 1056 3159 1242 3001 
Q 1428 2844 1947 2747 
L 2328 2669 
Q 3034 2534 3370 2195 
Q 3706 1856 3706 1288 
Q 3706 609 3251 259 
Q 2797 -91 1919 -91 
Q 1588 -91 1214 -16 
Q 841 59 441 206 
L 441 856 
Q 825 641 1194 531 
Q 1563 422 1919 422 
Q 2459 422 2753 634 
Q 3047 847 3047 1241 
Q 3047 1584 2836 1778 
Q 2625 1972 2144 2069 
L 1759 2144 
Q 1053 2284 737 2584 
Q 422 2884 422 3419 
Q 422 4038 858 4394 
Q 1294 4750 2059 4750 
Q 2388 4750 2728 4690 
Q 3069 4631 3425 4513 
z
" transform="scale(0.015625)"/>
       <path id="DejaVuSans-61" d="M 2194 1759 
Q 1497 1759 1228 1600 
Q 959 1441 959 1056 
Q 959 750 1161 570 
Q 1363 391 1709 391 
Q 2188 391 2477 730 
Q 2766 1069 2766 1631 
L 2766 1759 
L 2194 1759 
z
M 3341 1997 
L 3341 0 
L 2766 0 
L 2766 531 
Q 2569 213 2275 61 
Q 1981 -91 1556 -91 
Q 1019 -91 701 211 
Q 384 513 384 1019 
Q 384 1609 779 1909 
Q 1175 2209 1959 2209 
L 2766 2209 
L 2766 2266 
Q 2766 2663 2505 2880 
Q 2244 3097 1772 3097 
Q 1472 3097 1187 3025 
Q 903 2953 641 2809 
L 641 3341 
Q 956 3463 1253 3523 
Q 1550 3584 1831 3584 
Q 2591 3584 2966 3190 
Q 3341 2797 3341 1997 
z
" transform="scale(0.015625)"/>
       <path id="DejaVuSans-6d" d="M 3328 2828 
Q 3544 3216 3844 3400 
Q 4144 3584 4550 3584 
Q 5097 3584 5394 3201 
Q 5691 2819 5691 2113 
L 5691 0 
L 5113 0 
L 5113 2094 
Q 5113 2597 4934 2840 
Q 4756 3084 4391 3084 
Q 3944 3084 3684 2787 
Q 3425 2491 3425 1978 
L 3425 0 
L 2847 0 
L 2847 2094 
Q 2847 2600 2669 2842 
Q 2491 3084 2119 3084 
Q 1678 3084 1418 2786 
Q 1159 2488 1159 1978 
L 1159 0 
L 581 0 
L 581 3500 
L 1159 3500 
L 1159 2956 
Q 1356 3278 1631 3431 
Q 1906 3584 2284 3584 
Q 2666 3584 2933 3390 
Q 3200 3197 3328 2828 
z
" transform="scale(0.015625)"/>
       <path id="DejaVuSans-70" d="M 1159 525 
L 1159 -1331 
L 581 -1331 
L 581 3500 
L 1159 3500 
L 1159 2969 
Q 1341 3281 1617 3432 
Q 1894 3584 2278 3584 
Q 2916 3584 3314 3078 
Q 3713 2572 3713 1747 
Q 3713 922 3314 415 
Q 2916 -91 2278 -91 
Q 1894 -91 1617 61 
Q 1341 213 1159 525 
z
M 3116 1747 
Q 3116 2381 2855 2742 
Q 2594 3103 2138 3103 
Q 1681 3103 1420 2742 
Q 1159 2381 1159 1747 
Q 1159 1113 1420 752 
Q 1681 391 2138 391 
Q 2594 391 2855 752 
Q 3116 1113 3116 1747 
z
" transform="scale(0.015625)"/>
       <path id="DejaVuSans-6c" d="M 603 4863 
L 1178 4863 
L 1178 0 
L 603 0 
L 603 4863 
z
" transform="scale(0.015625)"/>
       <path id="DejaVuSans-65" d="M 3597 1894 
L 3597 1613 
L 953 1613 
Q 991 1019 1311 708 
Q 1631 397 2203 397 
Q 2534 397 2845 478 
Q 3156 559 3463 722 
L 3463 178 
Q 3153 47 2828 -22 
Q 2503 -91 2169 -91 
Q 1331 -91 842 396 
Q 353 884 353 1716 
Q 353 2575 817 3079 
Q 1281 3584 2069 3584 
Q 2775 3584 3186 3129 
Q 3597 2675 3597 1894 
z
M 3022 2063 
Q 3016 2534 2758 2815 
Q 2500 3097 2075 3097 
Q 1594 3097 1305 2825 
Q 1016 2553 972 2059 
L 3022 2063 
z
" transform="scale(0.015625)"/>
       <path id="DejaVuSans-73" d="M 2834 3397 
L 2834 2853 
Q 2591 2978 2328 3040 
Q 2066 3103 1784 3103 
Q 1356 3103 1142 2972 
Q 928 2841 928 2578 
Q 928 2378 1081 2264 
Q 1234 2150 1697 2047 
L 1894 2003 
Q 2506 1872 2764 1633 
Q 3022 1394 3022 966 
Q 3022 478 2636 193 
Q 2250 -91 1575 -91 
Q 1294 -91 989 -36 
Q 684 19 347 128 
L 347 722 
Q 666 556 975 473 
Q 1284 391 1588 391 
Q 1994 391 2212 530 
Q 2431 669 2431 922 
Q 2431 1156 2273 1281 
Q 2116 1406 1581 1522 
L 1381 1569 
Q 847 1681 609 1914 
Q 372 2147 372 2553 
Q 372 3047 722 3315 
Q 1072 3584 1716 3584 
Q 2034 3584 2315 3537 
Q 2597 3491 2834 3397 
z
" transform="scale(0.015625)"/>
       <path id="DejaVuSans-29" d="M 513 4856 
L 1013 4856 
Q 1481 4119 1714 3412 
Q 1947 2706 1947 2009 
Q 1947 1309 1714 600 
Q 1481 -109 1013 -844 
L 513 -844 
Q 928 -128 1133 580 
Q 1338 1288 1338 2009 
Q 1338 2731 1133 3434 
Q 928 4138 513 4856 
z
" transform="scale(0.015625)"/>
      </defs>
      <use xlink:href="#DejaVuSans-45"/>
      <use xlink:href="#DejaVuSans-63" x="63.183594"/>
      <use xlink:href="#DejaVuSans-68" x="118.164062"/>
      <use xlink:href="#DejaVuSans-6f" x="181.542969"/>
      <use xlink:href="#DejaVuSans-20" x="242.724609"/>
      <use xlink:href="#DejaVuSans-28" x="274.511719"/>
      <use xlink:href="#DejaVuSans-53" x="313.525391"/>
      <use xlink:href="#DejaVuSans-61" x="377.001953"/>
      <use xlink:href="#DejaVuSans-6d" x="438.28125"/>
      <use xlink:href="#DejaVuSans-70" x="535.693359"/>
      <use xlink:href="#DejaVuSans-6c" x="599.169922"/>
      <use xlink:href="#DejaVuSans-65" x="626.953125"/>
      <use xlink:href="#DejaVuSans-73" x="688.476562"/>
      <use xlink:href="#DejaVuSans-29" x="740.576172"/>
     </g>
    </g>
   </g>
   <g id="matplotlib.axis_2">
    <g id="ytick_1">
     <g id="line2d_8">
      <defs>
       <path id="m0ab65f87e3" d="M 0 0 
L -3.5 0 
" style="stroke: #000000; stroke-width: 0.8"/>
      </defs>
      <g>
       <use xlink:href="#m0ab65f87e3" x="58.523438" y="210.688625" style="stroke: #000000; stroke-width: 0.8"/>
      </g>
     </g>
     <g id="text_9">
      <!-- −0.02 -->
      <g transform="translate(20.878125 214.487844) scale(0.1 -0.1)">
       <defs>
        <path id="DejaVuSans-2212" d="M 678 2272 
L 4684 2272 
L 4684 1741 
L 678 1741 
L 678 2272 
z
" transform="scale(0.015625)"/>
        <path id="DejaVuSans-2e" d="M 684 794 
L 1344 794 
L 1344 0 
L 684 0 
L 684 794 
z
" transform="scale(0.015625)"/>
       </defs>
       <use xlink:href="#DejaVuSans-2212"/>
       <use xlink:href="#DejaVuSans-30" x="83.789062"/>
       <use xlink:href="#DejaVuSans-2e" x="147.412109"/>
       <use xlink:href="#DejaVuSans-30" x="179.199219"/>
       <use xlink:href="#DejaVuSans-32" x="242.822266"/>
      </g>
     </g>
    </g>
    <g id="ytick_2">
     <g id="line2d_9">
      <g>
       <use xlink:href="#m0ab65f87e3" x="58.523438" y="165.280401" style="stroke: #000000; stroke-width: 0.8"/>
      </g>
     </g>
     <g id="text_10">
      <!-- 0.00 -->
      <g transform="translate(29.257813 169.07962) scale(0.1 -0.1)">
       <use xlink:href="#DejaVuSans-30"/>
       <use xlink:href="#DejaVuSans-2e" x="63.623047"/>
       <use xlink:href="#DejaVuSans-30" x="95.410156"/>
       <use xlink:href="#DejaVuSans-30" x="159.033203"/>
      </g>
     </g>
    </g>
    <g id="ytick_3">
     <g id="line2d_10">
      <g>
       <use xlink:href="#m0ab65f87e3" x="58.523438" y="119.872176" style="stroke: #000000; stroke-width: 0.8"/>
      </g>
     </g>
     <g id="text_11">
      <!-- 0.02 -->
      <g transform="translate(29.257813 123.671395) scale(0.1 -0.1)">
       <use xlink:href="#DejaVuSans-30"/>
       <use xlink:href="#DejaVuSans-2e" x="63.623047"/>
       <use xlink:href="#DejaVuSans-30" x="95.410156"/>
       <use xlink:href="#DejaVuSans-32" x="159.033203"/>
      </g>
     </g>
    </g>
    <g id="ytick_4">
     <g id="line2d_11">
      <g>
       <use xlink:href="#m0ab65f87e3" x="58.523438" y="74.463952" style="stroke: #000000; stroke-width: 0.8"/>
      </g>
     </g>
     <g id="text_12">
      <!-- 0.04 -->
      <g transform="translate(29.257813 78.26317) scale(0.1 -0.1)">
       <use xlink:href="#DejaVuSans-30"/>
       <use xlink:href="#DejaVuSans-2e" x="63.623047"/>
       <use xlink:href="#DejaVuSans-30" x="95.410156"/>
       <use xlink:href="#DejaVuSans-34" x="159.033203"/>
      </g>
     </g>
    </g>
    <g id="ytick_5">
     <g id="line2d_12">
      <g>
       <use xlink:href="#m0ab65f87e3" x="58.523438" y="29.055727" style="stroke: #000000; stroke-width: 0.8"/>
      </g>
     </g>
     <g id="text_13">
      <!-- 0.06 -->
      <g transform="translate(29.257813 32.854946) scale(0.1 -0.1)">
       <use xlink:href="#DejaVuSans-30"/>
       <use xlink:href="#DejaVuSans-2e" x="63.623047"/>
       <use xlink:href="#DejaVuSans-30" x="95.410156"/>
       <use xlink:href="#DejaVuSans-36" x="159.033203"/>
      </g>
     </g>
    </g>
    <g id="text_14">
     <!-- Cepstrum Value -->
     <g transform="translate(14.798438 172.921875) rotate(-90) scale(0.1 -0.1)">
      <defs>
       <path id="DejaVuSans-43" d="M 4122 4306 
L 4122 3641 
Q 3803 3938 3442 4084 
Q 3081 4231 2675 4231 
Q 1875 4231 1450 3742 
Q 1025 3253 1025 2328 
Q 1025 1406 1450 917 
Q 1875 428 2675 428 
Q 3081 428 3442 575 
Q 3803 722 4122 1019 
L 4122 359 
Q 3791 134 3420 21 
Q 3050 -91 2638 -91 
Q 1578 -91 968 557 
Q 359 1206 359 2328 
Q 359 3453 968 4101 
Q 1578 4750 2638 4750 
Q 3056 4750 3426 4639 
Q 3797 4528 4122 4306 
z
" transform="scale(0.015625)"/>
       <path id="DejaVuSans-74" d="M 1172 4494 
L 1172 3500 
L 2356 3500 
L 2356 3053 
L 1172 3053 
L 1172 1153 
Q 1172 725 1289 603 
Q 1406 481 1766 481 
L 2356 481 
L 2356 0 
L 1766 0 
Q 1100 0 847 248 
Q 594 497 594 1153 
L 594 3053 
L 172 3053 
L 172 3500 
L 594 3500 
L 594 4494 
L 1172 4494 
z
" transform="scale(0.015625)"/>
       <path id="DejaVuSans-72" d="M 2631 2963 
Q 2534 3019 2420 3045 
Q 2306 3072 2169 3072 
Q 1681 3072 1420 2755 
Q 1159 2438 1159 1844 
L 1159 0 
L 581 0 
L 581 3500 
L 1159 3500 
L 1159 2956 
Q 1341 3275 1631 3429 
Q 1922 3584 2338 3584 
Q 2397 3584 2469 3576 
Q 2541 3569 2628 3553 
L 2631 2963 
z
" transform="scale(0.015625)"/>
       <path id="DejaVuSans-75" d="M 544 1381 
L 544 3500 
L 1119 3500 
L 1119 1403 
Q 1119 906 1312 657 
Q 1506 409 1894 409 
Q 2359 409 2629 706 
Q 2900 1003 2900 1516 
L 2900 3500 
L 3475 3500 
L 3475 0 
L 2900 0 
L 2900 538 
Q 2691 219 2414 64 
Q 2138 -91 1772 -91 
Q 1169 -91 856 284 
Q 544 659 544 1381 
z
M 1991 3584 
L 1991 3584 
z
" transform="scale(0.015625)"/>
       <path id="DejaVuSans-56" d="M 1831 0 
L 50 4666 
L 709 4666 
L 2188 738 
L 3669 4666 
L 4325 4666 
L 2547 0 
L 1831 0 
z
" transform="scale(0.015625)"/>
      </defs>
      <use xlink:href="#DejaVuSans-43"/>
      <use xlink:href="#DejaVuSans-65" x="69.824219"/>
      <use xlink:href="#DejaVuSans-70" x="131.347656"/>
      <use xlink:href="#DejaVuSans-73" x="194.824219"/>
      <use xlink:href="#DejaVuSans-74" x="246.923828"/>
      <use xlink:href="#DejaVuSans-72" x="286.132812"/>
      <use xlink:href="#DejaVuSans-75" x="327.246094"/>
      <use xlink:href="#DejaVuSans-6d" x="390.625"/>
      <use xlink:href="#DejaVuSans-20" x="488.037109"/>
      <use xlink:href="#DejaVuSans-56" x="519.824219"/>
      <use xlink:href="#DejaVuSans-61" x="580.482422"/>
      <use xlink:href="#DejaVuSans-6c" x="641.761719"/>
      <use xlink:href="#DejaVuSans-75" x="669.544922"/>
      <use xlink:href="#DejaVuSans-65" x="732.923828"/>
     </g>
    </g>
   </g>
   <g id="line2d_13">
    <path d="M 78.814347 139.456519 
L 82.060892 116.194168 
L 85.307438 138.646121 
L 88.553983 132.593449 
L 91.800528 116.86758 
L 95.047074 147.719583 
L 98.293619 176.024986 
L 101.540165 185.55009 
L 104.78671 126.484153 
L 108.033256 160.832083 
L 111.279801 117.409141 
L 114.526347 141.743718 
L 117.772892 130.062326 
L 121.019438 145.140645 
L 124.265983 141.262369 
L 127.512528 170.475666 
L 130.759074 171.249539 
L 134.005619 157.142601 
L 137.252165 142.947023 
L 140.49871 161.658407 
L 143.745256 142.225618 
L 146.991801 158.423435 
L 150.238347 170.253396 
L 153.484892 178.658487 
L 156.731438 186.723341 
L 159.977983 195.131061 
L 163.224528 173.479821 
L 166.471074 164.046356 
L 169.717619 178.018165 
L 172.964165 183.457534 
L 176.21071 179.49217 
L 179.457256 176.893371 
L 182.703801 167.641138 
L 185.950347 141.559218 
L 189.196892 172.960936 
L 192.443438 165.304323 
L 195.689983 167.326422 
L 198.936528 174.695266 
L 202.183074 181.43937 
L 205.429619 204.879185 
L 208.676165 187.861357 
L 211.92271 193.596338 
L 215.169256 179.582691 
L 218.415801 193.811041 
L 221.662347 194.36838 
L 224.908892 172.335082 
L 228.155438 209.808398 
L 231.401983 162.582713 
L 234.648528 178.851364 
L 237.895074 162.896542 
L 241.141619 177.389098 
L 244.388165 192.658849 
L 247.63471 169.321139 
L 250.881256 185.365531 
L 254.127801 193.874236 
L 257.374347 187.023981 
L 260.620892 191.695914 
L 263.867437 173.087551 
L 267.113983 163.047789 
L 270.360528 150.83139 
L 273.607074 188.455228 
L 276.853619 163.644057 
L 280.100165 180.405496 
L 283.34671 160.072742 
L 286.593256 186.085655 
L 289.839801 186.629597 
L 293.086347 176.166743 
L 296.332892 192.342656 
L 299.579437 183.874842 
L 302.825983 177.984668 
L 306.072528 170.61938 
L 309.319074 170.527985 
L 312.565619 160.713356 
L 315.812165 180.323622 
L 319.05871 160.184446 
L 322.305256 173.026748 
L 325.551801 162.58706 
L 328.798347 173.704133 
L 332.044892 177.347047 
L 335.291437 166.512156 
L 338.537983 178.448237 
L 341.784528 193.083785 
L 345.031074 186.137286 
L 348.277619 171.50232 
L 351.524165 168.493535 
L 354.77071 175.184867 
L 358.017256 167.2299 
L 361.263801 178.008198 
L 364.510347 179.148396 
L 367.756892 170.309033 
L 371.003437 173.183802 
L 374.249983 186.253622 
L 377.496528 170.352094 
L 380.743074 174.919149 
L 383.989619 150.969913 
L 387.236165 173.983635 
L 390.48271 169.854297 
L 393.729256 162.316115 
L 396.975801 151.073416 
L 400.222347 183.768254 
L 403.468892 149.766421 
L 406.715438 162.913255 
L 409.961983 183.927218 
L 413.208528 190.228288 
L 416.455074 175.572138 
L 419.701619 191.337632 
L 422.948165 193.55703 
L 426.19471 186.175292 
L 429.441256 200.954996 
L 432.687801 179.404237 
L 435.934347 180.844027 
L 439.180892 169.032947 
L 442.427437 175.2748 
L 445.673983 182.231439 
L 448.920528 186.226376 
L 452.167074 175.52375 
L 455.413619 176.651883 
L 458.660165 168.653318 
L 461.90671 192.571052 
L 465.153256 174.882693 
L 468.399801 176.565552 
L 471.646347 192.863674 
L 474.892892 183.351235 
L 478.139437 203.167718 
L 481.385983 191.088954 
L 484.632528 175.175309 
" clip-path="url(#p255f50cb49)" style="fill: none; stroke: #1f77b4; stroke-width: 1.5; stroke-linecap: square"/>
   </g>
   <g id="line2d_14">
    <path d="M 78.814347 116.271793 
L 82.060892 146.082892 
L 85.307438 117.211834 
L 88.553983 118.890841 
L 91.800528 162.469404 
L 95.047074 178.321015 
L 98.293619 177.688591 
L 101.540165 168.805051 
L 104.78671 164.615091 
L 108.033256 133.999171 
L 111.279801 149.903096 
L 114.526347 96.505772 
L 117.772892 138.419378 
L 121.019438 123.399524 
L 124.265983 168.250915 
L 127.512528 164.820311 
L 130.759074 214.794265 
L 134.005619 150.089111 
L 137.252165 151.343545 
L 140.49871 148.656168 
L 143.745256 183.707779 
L 146.991801 187.440255 
L 150.238347 196.15367 
L 153.484892 157.869796 
L 156.731438 77.792196 
L 159.977983 32.4 
L 163.224528 80.904019 
L 166.471074 137.018161 
L 169.717619 182.677589 
L 172.964165 186.693413 
L 176.21071 157.388905 
L 179.457256 167.719594 
L 182.703801 183.498008 
L 185.950347 198.136462 
L 189.196892 209.759954 
L 192.443438 208.339089 
L 195.689983 159.537769 
L 198.936528 198.051708 
L 202.183074 189.955841 
L 205.429619 192.724251 
L 208.676165 187.453023 
L 211.92271 194.02501 
L 215.169256 185.10944 
L 218.415801 171.360882 
L 221.662347 184.023261 
L 224.908892 176.549878 
L 228.155438 174.32571 
L 231.401983 184.783511 
L 234.648528 170.530369 
L 237.895074 173.807393 
L 241.141619 187.774709 
L 244.388165 199.402456 
L 247.63471 204.558012 
L 250.881256 153.193814 
L 254.127801 211.430845 
L 257.374347 186.539491 
L 260.620892 179.428171 
L 263.867437 178.49613 
L 267.113983 155.361907 
L 270.360528 163.540681 
L 273.607074 164.306269 
L 276.853619 182.72163 
L 280.100165 197.171708 
L 283.34671 153.550077 
L 286.593256 170.91481 
L 289.839801 174.844475 
L 293.086347 180.248534 
L 296.332892 179.811394 
L 299.579437 174.756986 
L 302.825983 198.279959 
L 306.072528 187.965613 
L 309.319074 182.782348 
L 312.565619 170.97722 
L 315.812165 172.335131 
L 319.05871 206.120227 
L 322.305256 151.457426 
L 325.551801 196.35994 
L 328.798347 177.560506 
L 332.044892 166.012879 
L 335.291437 183.767618 
L 338.537983 173.53747 
L 341.784528 153.447394 
L 345.031074 156.635878 
L 348.277619 164.023098 
L 351.524165 190.434235 
L 354.77071 161.34798 
L 358.017256 184.585243 
L 361.263801 175.943886 
L 364.510347 166.634175 
L 367.756892 180.090214 
L 371.003437 182.584873 
L 374.249983 173.918761 
L 377.496528 178.61917 
L 380.743074 178.719846 
L 383.989619 156.169374 
L 387.236165 168.218722 
L 390.48271 154.23382 
L 393.729256 175.898611 
L 396.975801 164.975441 
L 400.222347 162.265857 
L 403.468892 155.671083 
L 406.715438 172.165401 
L 409.961983 188.139231 
L 413.208528 176.46516 
L 416.455074 175.454508 
L 419.701619 187.45887 
L 422.948165 186.775822 
L 426.19471 185.663067 
L 429.441256 203.656887 
L 432.687801 191.580129 
L 435.934347 165.908637 
L 439.180892 181.079943 
L 442.427437 169.241338 
L 445.673983 180.274463 
L 448.920528 167.657094 
L 452.167074 181.273159 
L 455.413619 171.084897 
L 458.660165 184.611913 
L 461.90671 163.658563 
L 465.153256 189.212123 
L 468.399801 177.691609 
L 471.646347 180.317522 
L 474.892892 177.708491 
L 478.139437 170.128168 
L 481.385983 203.278215 
L 484.632528 196.475246 
" clip-path="url(#p255f50cb49)" style="fill: none; stroke: #ff7f0e; stroke-width: 1.5; stroke-linecap: square"/>
   </g>
   <g id="line2d_15">
    <path d="M 78.814347 132.715806 
L 82.060892 120.303059 
L 85.307438 132.627306 
L 88.553983 118.700497 
L 91.800528 116.65981 
L 95.047074 155.516842 
L 98.293619 152.414736 
L 101.540165 178.656809 
L 104.78671 206.737529 
L 108.033256 138.18751 
L 111.279801 107.543928 
L 114.526347 133.804265 
L 117.772892 130.141483 
L 121.019438 140.563988 
L 124.265983 171.500982 
L 127.512528 164.024566 
L 130.759074 195.926192 
L 134.005619 189.709085 
L 137.252165 168.774238 
L 140.49871 166.646335 
L 143.745256 157.490723 
L 146.991801 143.130712 
L 150.238347 169.825711 
L 153.484892 179.61589 
L 156.731438 190.798969 
L 159.977983 185.485908 
L 163.224528 181.107366 
L 166.471074 171.432169 
L 169.717619 185.832791 
L 172.964165 147.130181 
L 176.21071 148.603883 
L 179.457256 155.233568 
L 182.703801 191.654353 
L 185.950347 182.872029 
L 189.196892 173.681717 
L 192.443438 195.402469 
L 195.689983 177.085434 
L 198.936528 184.142119 
L 202.183074 196.003229 
L 205.429619 188.440339 
L 208.676165 193.624001 
L 211.92271 202.749262 
L 215.169256 194.462781 
L 218.415801 201.789714 
L 221.662347 213.502414 
L 224.908892 213.856351 
L 228.155438 172.595103 
L 231.401983 162.862001 
L 234.648528 116.196513 
L 237.895074 86.02111 
L 241.141619 101.716486 
L 244.388165 77.440076 
L 247.63471 136.543526 
L 250.881256 157.181783 
L 254.127801 220.568868 
L 257.374347 234 
L 260.620892 196.750278 
L 263.867437 185.537827 
L 267.113983 155.765999 
L 270.360528 169.907008 
L 273.607074 168.369852 
L 276.853619 163.741285 
L 280.100165 215.130906 
L 283.34671 192.626045 
L 286.593256 187.237599 
L 289.839801 171.453798 
L 293.086347 167.912494 
L 296.332892 180.881774 
L 299.579437 142.304184 
L 302.825983 173.013009 
L 306.072528 184.820104 
L 309.319074 178.067705 
L 312.565619 187.495287 
L 315.812165 176.822689 
L 319.05871 176.948671 
L 322.305256 158.867684 
L 325.551801 179.934303 
L 328.798347 164.782132 
L 332.044892 149.795384 
L 335.291437 175.484126 
L 338.537983 184.153252 
L 341.784528 195.127107 
L 345.031074 168.454319 
L 348.277619 170.0194 
L 351.524165 203.949662 
L 354.77071 178.624043 
L 358.017256 174.860262 
L 361.263801 171.427571 
L 364.510347 170.935022 
L 367.756892 204.111564 
L 371.003437 185.874934 
L 374.249983 147.882919 
L 377.496528 186.344876 
L 380.743074 173.100935 
L 383.989619 166.353824 
L 387.236165 178.545409 
L 390.48271 158.321813 
L 393.729256 183.287239 
L 396.975801 158.142289 
L 400.222347 141.390874 
L 403.468892 163.067334 
L 406.715438 174.41879 
L 409.961983 191.286128 
L 413.208528 143.971706 
L 416.455074 190.381115 
L 419.701619 193.675391 
L 422.948165 169.47218 
L 426.19471 193.146759 
L 429.441256 183.077902 
L 432.687801 197.911995 
L 435.934347 199.669792 
L 439.180892 172.450173 
L 442.427437 159.472113 
L 445.673983 206.226665 
L 448.920528 160.17508 
L 452.167074 158.574875 
L 455.413619 193.165314 
L 458.660165 174.401382 
L 461.90671 183.404168 
L 465.153256 167.24112 
L 468.399801 158.479609 
L 471.646347 179.053186 
L 474.892892 176.511589 
L 478.139437 195.850671 
L 481.385983 188.463761 
L 484.632528 186.780968 
" clip-path="url(#p255f50cb49)" style="fill: none; stroke: #2ca02c; stroke-width: 1.5; stroke-linecap: square"/>
   </g>
   <g id="line2d_16">
    <path d="M 78.814347 143.832151 
L 82.060892 107.634019 
L 85.307438 143.299786 
L 88.553983 147.58662 
L 91.800528 129.797692 
L 95.047074 134.197552 
L 98.293619 150.774627 
L 101.540165 145.078229 
L 104.78671 143.241442 
L 108.033256 137.200453 
L 111.279801 155.162447 
L 114.526347 158.392278 
L 117.772892 138.594454 
L 121.019438 134.153835 
L 124.265983 162.159436 
L 127.512528 163.57922 
L 130.759074 175.058176 
L 134.005619 154.457997 
L 137.252165 147.414347 
L 140.49871 144.78577 
L 143.745256 144.373323 
L 146.991801 155.725796 
L 150.238347 178.374411 
L 153.484892 171.042698 
L 156.731438 164.043611 
L 159.977983 176.960554 
L 163.224528 200.539166 
L 166.471074 179.617483 
L 169.717619 165.988009 
L 172.964165 172.379226 
L 176.21071 182.503102 
L 179.457256 179.516974 
L 182.703801 183.526195 
L 185.950347 170.668384 
L 189.196892 189.041453 
L 192.443438 170.694427 
L 195.689983 180.248473 
L 198.936528 196.791277 
L 202.183074 177.887812 
L 205.429619 197.355516 
L 208.676165 201.614245 
L 211.92271 191.331006 
L 215.169256 199.541773 
L 218.415801 189.132335 
L 221.662347 198.448695 
L 224.908892 186.27679 
L 228.155438 159.713008 
L 231.401983 166.498203 
L 234.648528 174.112155 
L 237.895074 182.295851 
L 241.141619 188.349993 
L 244.388165 177.557587 
L 247.63471 194.548087 
L 250.881256 180.99266 
L 254.127801 176.977335 
L 257.374347 179.841421 
L 260.620892 165.19815 
L 263.867437 172.900467 
L 267.113983 184.466097 
L 270.360528 186.009988 
L 273.607074 178.925719 
L 276.853619 161.628792 
L 280.100165 168.206295 
L 283.34671 167.301274 
L 286.593256 184.071352 
L 289.839801 174.573679 
L 293.086347 183.960717 
L 296.332892 182.66684 
L 299.579437 180.313502 
L 302.825983 193.346384 
L 306.072528 183.432002 
L 309.319074 144.77014 
L 312.565619 145.339689 
L 315.812165 115.596844 
L 319.05871 96.542133 
L 322.305256 96.07722 
L 325.551801 105.647458 
L 328.798347 128.938467 
L 332.044892 153.501144 
L 335.291437 166.711185 
L 338.537983 188.617089 
L 341.784528 211.716879 
L 345.031074 204.013495 
L 348.277619 209.394574 
L 351.524165 195.790847 
L 354.77071 192.321929 
L 358.017256 191.997176 
L 361.263801 164.074909 
L 364.510347 176.62163 
L 367.756892 179.218092 
L 371.003437 169.703776 
L 374.249983 179.508116 
L 377.496528 175.63309 
L 380.743074 183.339515 
L 383.989619 182.435847 
L 387.236165 175.870287 
L 390.48271 177.501042 
L 393.729256 165.391159 
L 396.975801 174.867741 
L 400.222347 157.394525 
L 403.468892 174.494224 
L 406.715438 172.028977 
L 409.961983 179.464496 
L 413.208528 182.234856 
L 416.455074 187.417771 
L 419.701619 202.282556 
L 422.948165 196.554649 
L 426.19471 192.485555 
L 429.441256 191.316202 
L 432.687801 180.534822 
L 435.934347 170.267095 
L 439.180892 172.897358 
L 442.427437 181.758262 
L 445.673983 181.078768 
L 448.920528 196.951842 
L 452.167074 184.547143 
L 455.413619 187.652975 
L 458.660165 176.884284 
L 461.90671 192.645563 
L 465.153256 172.990213 
L 468.399801 182.90092 
L 471.646347 196.100435 
L 474.892892 184.717717 
L 478.139437 172.286716 
L 481.385983 172.359017 
L 484.632528 196.51887 
" clip-path="url(#p255f50cb49)" style="fill: none; stroke: #d62728; stroke-width: 1.5; stroke-linecap: square"/>
   </g>
   <g id="patch_3">
    <path d="M 58.523438 244.08 
L 58.523438 22.32 
" style="fill: none; stroke: #000000; stroke-width: 0.8; stroke-linejoin: miter; stroke-linecap: square"/>
   </g>
   <g id="patch_4">
    <path d="M 504.923437 244.08 
L 504.923437 22.32 
" style="fill: none; stroke: #000000; stroke-width: 0.8; stroke-linejoin: miter; stroke-linecap: square"/>
   </g>
   <g id="patch_5">
    <path d="M 58.523438 244.08 
L 504.923437 244.08 
" style="fill: none; stroke: #000000; stroke-width: 0.8; stroke-linejoin: miter; stroke-linecap: square"/>
   </g>
   <g id="patch_6">
    <path d="M 58.523438 22.32 
L 504.923437 22.32 
" style="fill: none; stroke: #000000; stroke-width: 0.8; stroke-linejoin: miter; stroke-linecap: square"/>
   </g>
   <g id="text_15">
    <!-- Prince Jazz Cepstra $c$ for Guitarset Dance Diffusion Models -->
    <g transform="translate(106.703438 16.32) scale(0.12 -0.12)">
     <defs>
      <path id="DejaVuSans-50" d="M 1259 4147 
L 1259 2394 
L 2053 2394 
Q 2494 2394 2734 2622 
Q 2975 2850 2975 3272 
Q 2975 3691 2734 3919 
Q 2494 4147 2053 4147 
L 1259 4147 
z
M 628 4666 
L 2053 4666 
Q 2838 4666 3239 4311 
Q 3641 3956 3641 3272 
Q 3641 2581 3239 2228 
Q 2838 1875 2053 1875 
L 1259 1875 
L 1259 0 
L 628 0 
L 628 4666 
z
" transform="scale(0.015625)"/>
      <path id="DejaVuSans-69" d="M 603 3500 
L 1178 3500 
L 1178 0 
L 603 0 
L 603 3500 
z
M 603 4863 
L 1178 4863 
L 1178 4134 
L 603 4134 
L 603 4863 
z
" transform="scale(0.015625)"/>
      <path id="DejaVuSans-6e" d="M 3513 2113 
L 3513 0 
L 2938 0 
L 2938 2094 
Q 2938 2591 2744 2837 
Q 2550 3084 2163 3084 
Q 1697 3084 1428 2787 
Q 1159 2491 1159 1978 
L 1159 0 
L 581 0 
L 581 3500 
L 1159 3500 
L 1159 2956 
Q 1366 3272 1645 3428 
Q 1925 3584 2291 3584 
Q 2894 3584 3203 3211 
Q 3513 2838 3513 2113 
z
" transform="scale(0.015625)"/>
      <path id="DejaVuSans-4a" d="M 628 4666 
L 1259 4666 
L 1259 325 
Q 1259 -519 939 -900 
Q 619 -1281 -91 -1281 
L -331 -1281 
L -331 -750 
L -134 -750 
Q 284 -750 456 -515 
Q 628 -281 628 325 
L 628 4666 
z
" transform="scale(0.015625)"/>
      <path id="DejaVuSans-7a" d="M 353 3500 
L 3084 3500 
L 3084 2975 
L 922 459 
L 3084 459 
L 3084 0 
L 275 0 
L 275 525 
L 2438 3041 
L 353 3041 
L 353 3500 
z
" transform="scale(0.015625)"/>
      <path id="DejaVuSans-Oblique-63" d="M 3431 3366 
L 3316 2797 
Q 3109 2947 2876 3022 
Q 2644 3097 2394 3097 
Q 2119 3097 1870 3000 
Q 1622 2903 1453 2725 
Q 1184 2453 1037 2087 
Q 891 1722 891 1331 
Q 891 859 1127 628 
Q 1363 397 1844 397 
Q 2081 397 2348 469 
Q 2616 541 2906 684 
L 2797 116 
Q 2547 13 2283 -39 
Q 2019 -91 1741 -91 
Q 1044 -91 669 257 
Q 294 606 294 1253 
Q 294 1797 489 2255 
Q 684 2713 1069 3078 
Q 1331 3328 1684 3456 
Q 2038 3584 2456 3584 
Q 2700 3584 2940 3529 
Q 3181 3475 3431 3366 
z
" transform="scale(0.015625)"/>
      <path id="DejaVuSans-66" d="M 2375 4863 
L 2375 4384 
L 1825 4384 
Q 1516 4384 1395 4259 
Q 1275 4134 1275 3809 
L 1275 3500 
L 2222 3500 
L 2222 3053 
L 1275 3053 
L 1275 0 
L 697 0 
L 697 3053 
L 147 3053 
L 147 3500 
L 697 3500 
L 697 3744 
Q 697 4328 969 4595 
Q 1241 4863 1831 4863 
L 2375 4863 
z
" transform="scale(0.015625)"/>
      <path id="DejaVuSans-47" d="M 3809 666 
L 3809 1919 
L 2778 1919 
L 2778 2438 
L 4434 2438 
L 4434 434 
Q 4069 175 3628 42 
Q 3188 -91 2688 -91 
Q 1594 -91 976 548 
Q 359 1188 359 2328 
Q 359 3472 976 4111 
Q 1594 4750 2688 4750 
Q 3144 4750 3555 4637 
Q 3966 4525 4313 4306 
L 4313 3634 
Q 3963 3931 3569 4081 
Q 3175 4231 2741 4231 
Q 1884 4231 1454 3753 
Q 1025 3275 1025 2328 
Q 1025 1384 1454 906 
Q 1884 428 2741 428 
Q 3075 428 3337 486 
Q 3600 544 3809 666 
z
" transform="scale(0.015625)"/>
      <path id="DejaVuSans-44" d="M 1259 4147 
L 1259 519 
L 2022 519 
Q 2988 519 3436 956 
Q 3884 1394 3884 2338 
Q 3884 3275 3436 3711 
Q 2988 4147 2022 4147 
L 1259 4147 
z
M 628 4666 
L 1925 4666 
Q 3281 4666 3915 4102 
Q 4550 3538 4550 2338 
Q 4550 1131 3912 565 
Q 3275 0 1925 0 
L 628 0 
L 628 4666 
z
" transform="scale(0.015625)"/>
      <path id="DejaVuSans-4d" d="M 628 4666 
L 1569 4666 
L 2759 1491 
L 3956 4666 
L 4897 4666 
L 4897 0 
L 4281 0 
L 4281 4097 
L 3078 897 
L 2444 897 
L 1241 4097 
L 1241 0 
L 628 0 
L 628 4666 
z
" transform="scale(0.015625)"/>
      <path id="DejaVuSans-64" d="M 2906 2969 
L 2906 4863 
L 3481 4863 
L 3481 0 
L 2906 0 
L 2906 525 
Q 2725 213 2448 61 
Q 2172 -91 1784 -91 
Q 1150 -91 751 415 
Q 353 922 353 1747 
Q 353 2572 751 3078 
Q 1150 3584 1784 3584 
Q 2172 3584 2448 3432 
Q 2725 3281 2906 2969 
z
M 947 1747 
Q 947 1113 1208 752 
Q 1469 391 1925 391 
Q 2381 391 2643 752 
Q 2906 1113 2906 1747 
Q 2906 2381 2643 2742 
Q 2381 3103 1925 3103 
Q 1469 3103 1208 2742 
Q 947 2381 947 1747 
z
" transform="scale(0.015625)"/>
     </defs>
     <use xlink:href="#DejaVuSans-50" transform="translate(0 0.015625)"/>
     <use xlink:href="#DejaVuSans-72" transform="translate(60.302734 0.015625)"/>
     <use xlink:href="#DejaVuSans-69" transform="translate(101.416016 0.015625)"/>
     <use xlink:href="#DejaVuSans-6e" transform="translate(129.199219 0.015625)"/>
     <use xlink:href="#DejaVuSans-63" transform="translate(192.578125 0.015625)"/>
     <use xlink:href="#DejaVuSans-65" transform="translate(247.558594 0.015625)"/>
     <use xlink:href="#DejaVuSans-20" transform="translate(309.082031 0.015625)"/>
     <use xlink:href="#DejaVuSans-4a" transform="translate(340.869141 0.015625)"/>
     <use xlink:href="#DejaVuSans-61" transform="translate(370.361328 0.015625)"/>
     <use xlink:href="#DejaVuSans-7a" transform="translate(431.640625 0.015625)"/>
     <use xlink:href="#DejaVuSans-7a" transform="translate(484.130859 0.015625)"/>
     <use xlink:href="#DejaVuSans-20" transform="translate(536.621094 0.015625)"/>
     <use xlink:href="#DejaVuSans-43" transform="translate(568.408203 0.015625)"/>
     <use xlink:href="#DejaVuSans-65" transform="translate(638.232422 0.015625)"/>
     <use xlink:href="#DejaVuSans-70" transform="translate(699.755859 0.015625)"/>
     <use xlink:href="#DejaVuSans-73" transform="translate(763.232422 0.015625)"/>
     <use xlink:href="#DejaVuSans-74" transform="translate(815.332031 0.015625)"/>
     <use xlink:href="#DejaVuSans-72" transform="translate(854.541016 0.015625)"/>
     <use xlink:href="#DejaVuSans-61" transform="translate(895.654297 0.015625)"/>
     <use xlink:href="#DejaVuSans-20" transform="translate(956.933594 0.015625)"/>
     <use xlink:href="#DejaVuSans-Oblique-63" transform="translate(988.720703 0.015625)"/>
     <use xlink:href="#DejaVuSans-20" transform="translate(1043.701172 0.015625)"/>
     <use xlink:href="#DejaVuSans-66" transform="translate(1075.488281 0.015625)"/>
     <use xlink:href="#DejaVuSans-6f" transform="translate(1110.693359 0.015625)"/>
     <use xlink:href="#DejaVuSans-72" transform="translate(1171.875 0.015625)"/>
     <use xlink:href="#DejaVuSans-20" transform="translate(1212.988281 0.015625)"/>
     <use xlink:href="#DejaVuSans-47" transform="translate(1244.775391 0.015625)"/>
     <use xlink:href="#DejaVuSans-75" transform="translate(1322.265625 0.015625)"/>
     <use xlink:href="#DejaVuSans-69" transform="translate(1385.644531 0.015625)"/>
     <use xlink:href="#DejaVuSans-74" transform="translate(1413.427734 0.015625)"/>
     <use xlink:href="#DejaVuSans-61" transform="translate(1452.636719 0.015625)"/>
     <use xlink:href="#DejaVuSans-72" transform="translate(1513.916016 0.015625)"/>
     <use xlink:href="#DejaVuSans-73" transform="translate(1555.029297 0.015625)"/>
     <use xlink:href="#DejaVuSans-65" transform="translate(1607.128906 0.015625)"/>
     <use xlink:href="#DejaVuSans-74" transform="translate(1668.652344 0.015625)"/>
     <use xlink:href="#DejaVuSans-20" transform="translate(1707.861328 0.015625)"/>
     <use xlink:href="#DejaVuSans-44" transform="translate(1739.648438 0.015625)"/>
     <use xlink:href="#DejaVuSans-61" transform="translate(1816.650391 0.015625)"/>
     <use xlink:href="#DejaVuSans-6e" transform="translate(1877.929688 0.015625)"/>
     <use xlink:href="#DejaVuSans-63" transform="translate(1941.308594 0.015625)"/>
     <use xlink:href="#DejaVuSans-65" transform="translate(1996.289062 0.015625)"/>
     <use xlink:href="#DejaVuSans-20" transform="translate(2057.8125 0.015625)"/>
     <use xlink:href="#DejaVuSans-44" transform="translate(2089.599609 0.015625)"/>
     <use xlink:href="#DejaVuSans-69" transform="translate(2166.601562 0.015625)"/>
     <use xlink:href="#DejaVuSans-66" transform="translate(2194.384766 0.015625)"/>
     <use xlink:href="#DejaVuSans-66" transform="translate(2229.589844 0.015625)"/>
     <use xlink:href="#DejaVuSans-75" transform="translate(2264.794922 0.015625)"/>
     <use xlink:href="#DejaVuSans-73" transform="translate(2328.173828 0.015625)"/>
     <use xlink:href="#DejaVuSans-69" transform="translate(2380.273438 0.015625)"/>
     <use xlink:href="#DejaVuSans-6f" transform="translate(2408.056641 0.015625)"/>
     <use xlink:href="#DejaVuSans-6e" transform="translate(2469.238281 0.015625)"/>
     <use xlink:href="#DejaVuSans-20" transform="translate(2532.617188 0.015625)"/>
     <use xlink:href="#DejaVuSans-4d" transform="translate(2564.404297 0.015625)"/>
     <use xlink:href="#DejaVuSans-6f" transform="translate(2650.683594 0.015625)"/>
     <use xlink:href="#DejaVuSans-64" transform="translate(2711.865234 0.015625)"/>
     <use xlink:href="#DejaVuSans-65" transform="translate(2775.341797 0.015625)"/>
     <use xlink:href="#DejaVuSans-6c" transform="translate(2836.865234 0.015625)"/>
     <use xlink:href="#DejaVuSans-73" transform="translate(2864.648438 0.015625)"/>
    </g>
   </g>
   <g id="legend_1">
    <g id="patch_7">
     <path d="M 379.432812 89.0325 
L 497.923437 89.0325 
Q 499.923437 89.0325 499.923437 87.0325 
L 499.923437 29.32 
Q 499.923437 27.32 497.923437 27.32 
L 379.432812 27.32 
Q 377.432812 27.32 377.432812 29.32 
L 377.432812 87.0325 
Q 377.432812 89.0325 379.432812 89.0325 
z
" style="fill: #ffffff; opacity: 0.8; stroke: #cccccc; stroke-linejoin: miter"/>
    </g>
    <g id="line2d_17">
     <path d="M 381.432812 35.418437 
L 391.432812 35.418437 
L 401.432812 35.418437 
" style="fill: none; stroke: #1f77b4; stroke-width: 1.5; stroke-linecap: square"/>
    </g>
    <g id="text_16">
     <!-- Clean -->
     <g transform="translate(409.432812 38.918437) scale(0.1 -0.1)">
      <use xlink:href="#DejaVuSans-43"/>
      <use xlink:href="#DejaVuSans-6c" x="69.824219"/>
      <use xlink:href="#DejaVuSans-65" x="97.607422"/>
      <use xlink:href="#DejaVuSans-61" x="159.130859"/>
      <use xlink:href="#DejaVuSans-6e" x="220.410156"/>
     </g>
    </g>
    <g id="line2d_18">
     <path d="M 381.432812 50.096562 
L 391.432812 50.096562 
L 401.432812 50.096562 
" style="fill: none; stroke: #ff7f0e; stroke-width: 1.5; stroke-linecap: square"/>
    </g>
    <g id="text_17">
     <!-- 50   (z[50] = 6.0) -->
     <g transform="translate(409.432812 53.596562) scale(0.1 -0.1)">
      <defs>
       <path id="DejaVuSans-35" d="M 691 4666 
L 3169 4666 
L 3169 4134 
L 1269 4134 
L 1269 2991 
Q 1406 3038 1543 3061 
Q 1681 3084 1819 3084 
Q 2600 3084 3056 2656 
Q 3513 2228 3513 1497 
Q 3513 744 3044 326 
Q 2575 -91 1722 -91 
Q 1428 -91 1123 -41 
Q 819 9 494 109 
L 494 744 
Q 775 591 1075 516 
Q 1375 441 1709 441 
Q 2250 441 2565 725 
Q 2881 1009 2881 1497 
Q 2881 1984 2565 2268 
Q 2250 2553 1709 2553 
Q 1456 2553 1204 2497 
Q 953 2441 691 2322 
L 691 4666 
z
" transform="scale(0.015625)"/>
       <path id="DejaVuSans-5b" d="M 550 4863 
L 1875 4863 
L 1875 4416 
L 1125 4416 
L 1125 -397 
L 1875 -397 
L 1875 -844 
L 550 -844 
L 550 4863 
z
" transform="scale(0.015625)"/>
       <path id="DejaVuSans-5d" d="M 1947 4863 
L 1947 -844 
L 622 -844 
L 622 -397 
L 1369 -397 
L 1369 4416 
L 622 4416 
L 622 4863 
L 1947 4863 
z
" transform="scale(0.015625)"/>
       <path id="DejaVuSans-3d" d="M 678 2906 
L 4684 2906 
L 4684 2381 
L 678 2381 
L 678 2906 
z
M 678 1631 
L 4684 1631 
L 4684 1100 
L 678 1100 
L 678 1631 
z
" transform="scale(0.015625)"/>
      </defs>
      <use xlink:href="#DejaVuSans-35"/>
      <use xlink:href="#DejaVuSans-30" x="63.623047"/>
      <use xlink:href="#DejaVuSans-20" x="127.246094"/>
      <use xlink:href="#DejaVuSans-20" x="159.033203"/>
      <use xlink:href="#DejaVuSans-20" x="190.820312"/>
      <use xlink:href="#DejaVuSans-28" x="222.607422"/>
      <use xlink:href="#DejaVuSans-7a" x="261.621094"/>
      <use xlink:href="#DejaVuSans-5b" x="314.111328"/>
      <use xlink:href="#DejaVuSans-35" x="353.125"/>
      <use xlink:href="#DejaVuSans-30" x="416.748047"/>
      <use xlink:href="#DejaVuSans-5d" x="480.371094"/>
      <use xlink:href="#DejaVuSans-20" x="519.384766"/>
      <use xlink:href="#DejaVuSans-3d" x="551.171875"/>
      <use xlink:href="#DejaVuSans-20" x="634.960938"/>
      <use xlink:href="#DejaVuSans-36" x="666.748047"/>
      <use xlink:href="#DejaVuSans-2e" x="730.371094"/>
      <use xlink:href="#DejaVuSans-30" x="762.158203"/>
      <use xlink:href="#DejaVuSans-29" x="825.78125"/>
     </g>
    </g>
    <g id="line2d_19">
     <path d="M 381.432812 64.774687 
L 391.432812 64.774687 
L 401.432812 64.774687 
" style="fill: none; stroke: #2ca02c; stroke-width: 1.5; stroke-linecap: square"/>
    </g>
    <g id="text_18">
     <!-- 75   (z[75] = 2.7) -->
     <g transform="translate(409.432812 68.274687) scale(0.1 -0.1)">
      <defs>
       <path id="DejaVuSans-37" d="M 525 4666 
L 3525 4666 
L 3525 4397 
L 1831 0 
L 1172 0 
L 2766 4134 
L 525 4134 
L 525 4666 
z
" transform="scale(0.015625)"/>
      </defs>
      <use xlink:href="#DejaVuSans-37"/>
      <use xlink:href="#DejaVuSans-35" x="63.623047"/>
      <use xlink:href="#DejaVuSans-20" x="127.246094"/>
      <use xlink:href="#DejaVuSans-20" x="159.033203"/>
      <use xlink:href="#DejaVuSans-20" x="190.820312"/>
      <use xlink:href="#DejaVuSans-28" x="222.607422"/>
      <use xlink:href="#DejaVuSans-7a" x="261.621094"/>
      <use xlink:href="#DejaVuSans-5b" x="314.111328"/>
      <use xlink:href="#DejaVuSans-37" x="353.125"/>
      <use xlink:href="#DejaVuSans-35" x="416.748047"/>
      <use xlink:href="#DejaVuSans-5d" x="480.371094"/>
      <use xlink:href="#DejaVuSans-20" x="519.384766"/>
      <use xlink:href="#DejaVuSans-3d" x="551.171875"/>
      <use xlink:href="#DejaVuSans-20" x="634.960938"/>
      <use xlink:href="#DejaVuSans-32" x="666.748047"/>
      <use xlink:href="#DejaVuSans-2e" x="730.371094"/>
      <use xlink:href="#DejaVuSans-37" x="762.158203"/>
      <use xlink:href="#DejaVuSans-29" x="825.78125"/>
     </g>
    </g>
    <g id="line2d_20">
     <path d="M 381.432812 79.452812 
L 391.432812 79.452812 
L 401.432812 79.452812 
" style="fill: none; stroke: #d62728; stroke-width: 1.5; stroke-linecap: square"/>
    </g>
    <g id="text_19">
     <!-- 100 (z[100]=3.6) -->
     <g transform="translate(409.432812 82.952812) scale(0.1 -0.1)">
      <defs>
       <path id="DejaVuSans-33" d="M 2597 2516 
Q 3050 2419 3304 2112 
Q 3559 1806 3559 1356 
Q 3559 666 3084 287 
Q 2609 -91 1734 -91 
Q 1441 -91 1130 -33 
Q 819 25 488 141 
L 488 750 
Q 750 597 1062 519 
Q 1375 441 1716 441 
Q 2309 441 2620 675 
Q 2931 909 2931 1356 
Q 2931 1769 2642 2001 
Q 2353 2234 1838 2234 
L 1294 2234 
L 1294 2753 
L 1863 2753 
Q 2328 2753 2575 2939 
Q 2822 3125 2822 3475 
Q 2822 3834 2567 4026 
Q 2313 4219 1838 4219 
Q 1578 4219 1281 4162 
Q 984 4106 628 3988 
L 628 4550 
Q 988 4650 1302 4700 
Q 1616 4750 1894 4750 
Q 2613 4750 3031 4423 
Q 3450 4097 3450 3541 
Q 3450 3153 3228 2886 
Q 3006 2619 2597 2516 
z
" transform="scale(0.015625)"/>
      </defs>
      <use xlink:href="#DejaVuSans-31"/>
      <use xlink:href="#DejaVuSans-30" x="63.623047"/>
      <use xlink:href="#DejaVuSans-30" x="127.246094"/>
      <use xlink:href="#DejaVuSans-20" x="190.869141"/>
      <use xlink:href="#DejaVuSans-28" x="222.65625"/>
      <use xlink:href="#DejaVuSans-7a" x="261.669922"/>
      <use xlink:href="#DejaVuSans-5b" x="314.160156"/>
      <use xlink:href="#DejaVuSans-31" x="353.173828"/>
      <use xlink:href="#DejaVuSans-30" x="416.796875"/>
      <use xlink:href="#DejaVuSans-30" x="480.419922"/>
      <use xlink:href="#DejaVuSans-5d" x="544.042969"/>
      <use xlink:href="#DejaVuSans-3d" x="583.056641"/>
      <use xlink:href="#DejaVuSans-33" x="666.845703"/>
      <use xlink:href="#DejaVuSans-2e" x="730.46875"/>
      <use xlink:href="#DejaVuSans-36" x="762.255859"/>
      <use xlink:href="#DejaVuSans-29" x="825.878906"/>
     </g>
    </g>
   </g>
  </g>
 </g>
 <defs>
  <clipPath id="p255f50cb49">
   <rect x="58.523438" y="22.32" width="446.4" height="221.76"/>
  </clipPath>
 </defs>
</svg>
