<?xml version="1.0" encoding="utf-8" standalone="no"?>
<!DOCTYPE svg PUBLIC "-//W3C//DTD SVG 1.1//EN"
  "http://www.w3.org/Graphics/SVG/1.1/DTD/svg11.dtd">
<svg xmlns:xlink="http://www.w3.org/1999/xlink" width="512.123437pt" height="281.63625pt" viewBox="0 0 512.123437 281.63625" xmlns="http://www.w3.org/2000/svg" version="1.1">
 <metadata>
  <rdf:RDF xmlns:dc="http://purl.org/dc/elements/1.1/" xmlns:cc="http://creativecommons.org/ns#" xmlns:rdf="http://www.w3.org/1999/02/22-rdf-syntax-ns#">
   <cc:Work>
    <dc:type rdf:resource="http://purl.org/dc/dcmitype/StillImage"/>
    <dc:date>2024-12-14T11:49:10.863435</dc:date>
    <dc:format>image/svg+xml</dc:format>
    <dc:creator>
     <cc:Agent>
      <dc:title>Matplotlib v3.9.2, https://matplotlib.org/</dc:title>
     </cc:Agent>
    </dc:creator>
   </cc:Work>
  </rdf:RDF>
 </metadata>
 <defs>
  <style type="text/css">*{stroke-linejoin: round; stroke-linecap: butt}</style>
 </defs>
 <g id="figure_1">
  <g id="patch_1">
   <path d="M 0 281.63625 
L 512.123437 281.63625 
L 512.123437 0 
L 0 0 
z
" style="fill: #ffffff"/>
  </g>
  <g id="axes_1">
   <g id="patch_2">
    <path d="M 58.523438 244.08 
L 504.923437 244.08 
L 504.923437 22.32 
L 58.523438 22.32 
z
" style="fill: #ffffff"/>
   </g>
   <g id="matplotlib.axis_1">
    <g id="xtick_1">
     <g id="line2d_1">
      <defs>
       <path id="m0dc5ab288a" d="M 0 0 
L 0 3.5 
" style="stroke: #000000; stroke-width: 0.8"/>
      </defs>
      <g>
       <use xlink:href="#m0dc5ab288a" x="62.581619" y="244.08" style="stroke: #000000; stroke-width: 0.8"/>
      </g>
     </g>
     <g id="text_1">
      <!-- 20 -->
      <g transform="translate(56.219119 258.678438) scale(0.1 -0.1)">
       <defs>
        <path id="DejaVuSans-32" d="M 1228 531 
L 3431 531 
L 3431 0 
L 469 0 
L 469 531 
Q 828 903 1448 1529 
Q 2069 2156 2228 2338 
Q 2531 2678 2651 2914 
Q 2772 3150 2772 3378 
Q 2772 3750 2511 3984 
Q 2250 4219 1831 4219 
Q 1534 4219 1204 4116 
Q 875 4013 500 3803 
L 500 4441 
Q 881 4594 1212 4672 
Q 1544 4750 1819 4750 
Q 2544 4750 2975 4387 
Q 3406 4025 3406 3419 
Q 3406 3131 3298 2873 
Q 3191 2616 2906 2266 
Q 2828 2175 2409 1742 
Q 1991 1309 1228 531 
z
" transform="scale(0.015625)"/>
        <path id="DejaVuSans-30" d="M 2034 4250 
Q 1547 4250 1301 3770 
Q 1056 3291 1056 2328 
Q 1056 1369 1301 889 
Q 1547 409 2034 409 
Q 2525 409 2770 889 
Q 3016 1369 3016 2328 
Q 3016 3291 2770 3770 
Q 2525 4250 2034 4250 
z
M 2034 4750 
Q 2819 4750 3233 4129 
Q 3647 3509 3647 2328 
Q 3647 1150 3233 529 
Q 2819 -91 2034 -91 
Q 1250 -91 836 529 
Q 422 1150 422 2328 
Q 422 3509 836 4129 
Q 1250 4750 2034 4750 
z
" transform="scale(0.015625)"/>
       </defs>
       <use xlink:href="#DejaVuSans-32"/>
       <use xlink:href="#DejaVuSans-30" x="63.623047"/>
      </g>
     </g>
    </g>
    <g id="xtick_2">
     <g id="line2d_2">
      <g>
       <use xlink:href="#m0dc5ab288a" x="127.512528" y="244.08" style="stroke: #000000; stroke-width: 0.8"/>
      </g>
     </g>
     <g id="text_2">
      <!-- 40 -->
      <g transform="translate(121.150028 258.678438) scale(0.1 -0.1)">
       <defs>
        <path id="DejaVuSans-34" d="M 2419 4116 
L 825 1625 
L 2419 1625 
L 2419 4116 
z
M 2253 4666 
L 3047 4666 
L 3047 1625 
L 3713 1625 
L 3713 1100 
L 3047 1100 
L 3047 0 
L 2419 0 
L 2419 1100 
L 313 1100 
L 313 1709 
L 2253 4666 
z
" transform="scale(0.015625)"/>
       </defs>
       <use xlink:href="#DejaVuSans-34"/>
       <use xlink:href="#DejaVuSans-30" x="63.623047"/>
      </g>
     </g>
    </g>
    <g id="xtick_3">
     <g id="line2d_3">
      <g>
       <use xlink:href="#m0dc5ab288a" x="192.443438" y="244.08" style="stroke: #000000; stroke-width: 0.8"/>
      </g>
     </g>
     <g id="text_3">
      <!-- 60 -->
      <g transform="translate(186.080938 258.678438) scale(0.1 -0.1)">
       <defs>
        <path id="DejaVuSans-36" d="M 2113 2584 
Q 1688 2584 1439 2293 
Q 1191 2003 1191 1497 
Q 1191 994 1439 701 
Q 1688 409 2113 409 
Q 2538 409 2786 701 
Q 3034 994 3034 1497 
Q 3034 2003 2786 2293 
Q 2538 2584 2113 2584 
z
M 3366 4563 
L 3366 3988 
Q 3128 4100 2886 4159 
Q 2644 4219 2406 4219 
Q 1781 4219 1451 3797 
Q 1122 3375 1075 2522 
Q 1259 2794 1537 2939 
Q 1816 3084 2150 3084 
Q 2853 3084 3261 2657 
Q 3669 2231 3669 1497 
Q 3669 778 3244 343 
Q 2819 -91 2113 -91 
Q 1303 -91 875 529 
Q 447 1150 447 2328 
Q 447 3434 972 4092 
Q 1497 4750 2381 4750 
Q 2619 4750 2861 4703 
Q 3103 4656 3366 4563 
z
" transform="scale(0.015625)"/>
       </defs>
       <use xlink:href="#DejaVuSans-36"/>
       <use xlink:href="#DejaVuSans-30" x="63.623047"/>
      </g>
     </g>
    </g>
    <g id="xtick_4">
     <g id="line2d_4">
      <g>
       <use xlink:href="#m0dc5ab288a" x="257.374347" y="244.08" style="stroke: #000000; stroke-width: 0.8"/>
      </g>
     </g>
     <g id="text_4">
      <!-- 80 -->
      <g transform="translate(251.011847 258.678438) scale(0.1 -0.1)">
       <defs>
        <path id="DejaVuSans-38" d="M 2034 2216 
Q 1584 2216 1326 1975 
Q 1069 1734 1069 1313 
Q 1069 891 1326 650 
Q 1584 409 2034 409 
Q 2484 409 2743 651 
Q 3003 894 3003 1313 
Q 3003 1734 2745 1975 
Q 2488 2216 2034 2216 
z
M 1403 2484 
Q 997 2584 770 2862 
Q 544 3141 544 3541 
Q 544 4100 942 4425 
Q 1341 4750 2034 4750 
Q 2731 4750 3128 4425 
Q 3525 4100 3525 3541 
Q 3525 3141 3298 2862 
Q 3072 2584 2669 2484 
Q 3125 2378 3379 2068 
Q 3634 1759 3634 1313 
Q 3634 634 3220 271 
Q 2806 -91 2034 -91 
Q 1263 -91 848 271 
Q 434 634 434 1313 
Q 434 1759 690 2068 
Q 947 2378 1403 2484 
z
M 1172 3481 
Q 1172 3119 1398 2916 
Q 1625 2713 2034 2713 
Q 2441 2713 2670 2916 
Q 2900 3119 2900 3481 
Q 2900 3844 2670 4047 
Q 2441 4250 2034 4250 
Q 1625 4250 1398 4047 
Q 1172 3844 1172 3481 
z
" transform="scale(0.015625)"/>
       </defs>
       <use xlink:href="#DejaVuSans-38"/>
       <use xlink:href="#DejaVuSans-30" x="63.623047"/>
      </g>
     </g>
    </g>
    <g id="xtick_5">
     <g id="line2d_5">
      <g>
       <use xlink:href="#m0dc5ab288a" x="322.305256" y="244.08" style="stroke: #000000; stroke-width: 0.8"/>
      </g>
     </g>
     <g id="text_5">
      <!-- 100 -->
      <g transform="translate(312.761506 258.678438) scale(0.1 -0.1)">
       <defs>
        <path id="DejaVuSans-31" d="M 794 531 
L 1825 531 
L 1825 4091 
L 703 3866 
L 703 4441 
L 1819 4666 
L 2450 4666 
L 2450 531 
L 3481 531 
L 3481 0 
L 794 0 
L 794 531 
z
" transform="scale(0.015625)"/>
       </defs>
       <use xlink:href="#DejaVuSans-31"/>
       <use xlink:href="#DejaVuSans-30" x="63.623047"/>
       <use xlink:href="#DejaVuSans-30" x="127.246094"/>
      </g>
     </g>
    </g>
    <g id="xtick_6">
     <g id="line2d_6">
      <g>
       <use xlink:href="#m0dc5ab288a" x="387.236165" y="244.08" style="stroke: #000000; stroke-width: 0.8"/>
      </g>
     </g>
     <g id="text_6">
      <!-- 120 -->
      <g transform="translate(377.692415 258.678438) scale(0.1 -0.1)">
       <use xlink:href="#DejaVuSans-31"/>
       <use xlink:href="#DejaVuSans-32" x="63.623047"/>
       <use xlink:href="#DejaVuSans-30" x="127.246094"/>
      </g>
     </g>
    </g>
    <g id="xtick_7">
     <g id="line2d_7">
      <g>
       <use xlink:href="#m0dc5ab288a" x="452.167074" y="244.08" style="stroke: #000000; stroke-width: 0.8"/>
      </g>
     </g>
     <g id="text_7">
      <!-- 140 -->
      <g transform="translate(442.623324 258.678438) scale(0.1 -0.1)">
       <use xlink:href="#DejaVuSans-31"/>
       <use xlink:href="#DejaVuSans-34" x="63.623047"/>
       <use xlink:href="#DejaVuSans-30" x="127.246094"/>
      </g>
     </g>
    </g>
    <g id="text_8">
     <!-- Echo (Samples) -->
     <g transform="translate(242.742969 272.356562) scale(0.1 -0.1)">
      <defs>
       <path id="DejaVuSans-45" d="M 628 4666 
L 3578 4666 
L 3578 4134 
L 1259 4134 
L 1259 2753 
L 3481 2753 
L 3481 2222 
L 1259 2222 
L 1259 531 
L 3634 531 
L 3634 0 
L 628 0 
L 628 4666 
z
" transform="scale(0.015625)"/>
       <path id="DejaVuSans-63" d="M 3122 3366 
L 3122 2828 
Q 2878 2963 2633 3030 
Q 2388 3097 2138 3097 
Q 1578 3097 1268 2742 
Q 959 2388 959 1747 
Q 959 1106 1268 751 
Q 1578 397 2138 397 
Q 2388 397 2633 464 
Q 2878 531 3122 666 
L 3122 134 
Q 2881 22 2623 -34 
Q 2366 -91 2075 -91 
Q 1284 -91 818 406 
Q 353 903 353 1747 
Q 353 2603 823 3093 
Q 1294 3584 2113 3584 
Q 2378 3584 2631 3529 
Q 2884 3475 3122 3366 
z
" transform="scale(0.015625)"/>
       <path id="DejaVuSans-68" d="M 3513 2113 
L 3513 0 
L 2938 0 
L 2938 2094 
Q 2938 2591 2744 2837 
Q 2550 3084 2163 3084 
Q 1697 3084 1428 2787 
Q 1159 2491 1159 1978 
L 1159 0 
L 581 0 
L 581 4863 
L 1159 4863 
L 1159 2956 
Q 1366 3272 1645 3428 
Q 1925 3584 2291 3584 
Q 2894 3584 3203 3211 
Q 3513 2838 3513 2113 
z
" transform="scale(0.015625)"/>
       <path id="DejaVuSans-6f" d="M 1959 3097 
Q 1497 3097 1228 2736 
Q 959 2375 959 1747 
Q 959 1119 1226 758 
Q 1494 397 1959 397 
Q 2419 397 2687 759 
Q 2956 1122 2956 1747 
Q 2956 2369 2687 2733 
Q 2419 3097 1959 3097 
z
M 1959 3584 
Q 2709 3584 3137 3096 
Q 3566 2609 3566 1747 
Q 3566 888 3137 398 
Q 2709 -91 1959 -91 
Q 1206 -91 779 398 
Q 353 888 353 1747 
Q 353 2609 779 3096 
Q 1206 3584 1959 3584 
z
" transform="scale(0.015625)"/>
       <path id="DejaVuSans-20" transform="scale(0.015625)"/>
       <path id="DejaVuSans-28" d="M 1984 4856 
Q 1566 4138 1362 3434 
Q 1159 2731 1159 2009 
Q 1159 1288 1364 580 
Q 1569 -128 1984 -844 
L 1484 -844 
Q 1016 -109 783 600 
Q 550 1309 550 2009 
Q 550 2706 781 3412 
Q 1013 4119 1484 4856 
L 1984 4856 
z
" transform="scale(0.015625)"/>
       <path id="DejaVuSans-53" d="M 3425 4513 
L 3425 3897 
Q 3066 4069 2747 4153 
Q 2428 4238 2131 4238 
Q 1616 4238 1336 4038 
Q 1056 3838 1056 3469 
Q 1056 3159 1242 3001 
Q 1428 2844 1947 2747 
L 2328 2669 
Q 3034 2534 3370 2195 
Q 3706 1856 3706 1288 
Q 3706 609 3251 259 
Q 2797 -91 1919 -91 
Q 1588 -91 1214 -16 
Q 841 59 441 206 
L 441 856 
Q 825 641 1194 531 
Q 1563 422 1919 422 
Q 2459 422 2753 634 
Q 3047 847 3047 1241 
Q 3047 1584 2836 1778 
Q 2625 1972 2144 2069 
L 1759 2144 
Q 1053 2284 737 2584 
Q 422 2884 422 3419 
Q 422 4038 858 4394 
Q 1294 4750 2059 4750 
Q 2388 4750 2728 4690 
Q 3069 4631 3425 4513 
z
" transform="scale(0.015625)"/>
       <path id="DejaVuSans-61" d="M 2194 1759 
Q 1497 1759 1228 1600 
Q 959 1441 959 1056 
Q 959 750 1161 570 
Q 1363 391 1709 391 
Q 2188 391 2477 730 
Q 2766 1069 2766 1631 
L 2766 1759 
L 2194 1759 
z
M 3341 1997 
L 3341 0 
L 2766 0 
L 2766 531 
Q 2569 213 2275 61 
Q 1981 -91 1556 -91 
Q 1019 -91 701 211 
Q 384 513 384 1019 
Q 384 1609 779 1909 
Q 1175 2209 1959 2209 
L 2766 2209 
L 2766 2266 
Q 2766 2663 2505 2880 
Q 2244 3097 1772 3097 
Q 1472 3097 1187 3025 
Q 903 2953 641 2809 
L 641 3341 
Q 956 3463 1253 3523 
Q 1550 3584 1831 3584 
Q 2591 3584 2966 3190 
Q 3341 2797 3341 1997 
z
" transform="scale(0.015625)"/>
       <path id="DejaVuSans-6d" d="M 3328 2828 
Q 3544 3216 3844 3400 
Q 4144 3584 4550 3584 
Q 5097 3584 5394 3201 
Q 5691 2819 5691 2113 
L 5691 0 
L 5113 0 
L 5113 2094 
Q 5113 2597 4934 2840 
Q 4756 3084 4391 3084 
Q 3944 3084 3684 2787 
Q 3425 2491 3425 1978 
L 3425 0 
L 2847 0 
L 2847 2094 
Q 2847 2600 2669 2842 
Q 2491 3084 2119 3084 
Q 1678 3084 1418 2786 
Q 1159 2488 1159 1978 
L 1159 0 
L 581 0 
L 581 3500 
L 1159 3500 
L 1159 2956 
Q 1356 3278 1631 3431 
Q 1906 3584 2284 3584 
Q 2666 3584 2933 3390 
Q 3200 3197 3328 2828 
z
" transform="scale(0.015625)"/>
       <path id="DejaVuSans-70" d="M 1159 525 
L 1159 -1331 
L 581 -1331 
L 581 3500 
L 1159 3500 
L 1159 2969 
Q 1341 3281 1617 3432 
Q 1894 3584 2278 3584 
Q 2916 3584 3314 3078 
Q 3713 2572 3713 1747 
Q 3713 922 3314 415 
Q 2916 -91 2278 -91 
Q 1894 -91 1617 61 
Q 1341 213 1159 525 
z
M 3116 1747 
Q 3116 2381 2855 2742 
Q 2594 3103 2138 3103 
Q 1681 3103 1420 2742 
Q 1159 2381 1159 1747 
Q 1159 1113 1420 752 
Q 1681 391 2138 391 
Q 2594 391 2855 752 
Q 3116 1113 3116 1747 
z
" transform="scale(0.015625)"/>
       <path id="DejaVuSans-6c" d="M 603 4863 
L 1178 4863 
L 1178 0 
L 603 0 
L 603 4863 
z
" transform="scale(0.015625)"/>
       <path id="DejaVuSans-65" d="M 3597 1894 
L 3597 1613 
L 953 1613 
Q 991 1019 1311 708 
Q 1631 397 2203 397 
Q 2534 397 2845 478 
Q 3156 559 3463 722 
L 3463 178 
Q 3153 47 2828 -22 
Q 2503 -91 2169 -91 
Q 1331 -91 842 396 
Q 353 884 353 1716 
Q 353 2575 817 3079 
Q 1281 3584 2069 3584 
Q 2775 3584 3186 3129 
Q 3597 2675 3597 1894 
z
M 3022 2063 
Q 3016 2534 2758 2815 
Q 2500 3097 2075 3097 
Q 1594 3097 1305 2825 
Q 1016 2553 972 2059 
L 3022 2063 
z
" transform="scale(0.015625)"/>
       <path id="DejaVuSans-73" d="M 2834 3397 
L 2834 2853 
Q 2591 2978 2328 3040 
Q 2066 3103 1784 3103 
Q 1356 3103 1142 2972 
Q 928 2841 928 2578 
Q 928 2378 1081 2264 
Q 1234 2150 1697 2047 
L 1894 2003 
Q 2506 1872 2764 1633 
Q 3022 1394 3022 966 
Q 3022 478 2636 193 
Q 2250 -91 1575 -91 
Q 1294 -91 989 -36 
Q 684 19 347 128 
L 347 722 
Q 666 556 975 473 
Q 1284 391 1588 391 
Q 1994 391 2212 530 
Q 2431 669 2431 922 
Q 2431 1156 2273 1281 
Q 2116 1406 1581 1522 
L 1381 1569 
Q 847 1681 609 1914 
Q 372 2147 372 2553 
Q 372 3047 722 3315 
Q 1072 3584 1716 3584 
Q 2034 3584 2315 3537 
Q 2597 3491 2834 3397 
z
" transform="scale(0.015625)"/>
       <path id="DejaVuSans-29" d="M 513 4856 
L 1013 4856 
Q 1481 4119 1714 3412 
Q 1947 2706 1947 2009 
Q 1947 1309 1714 600 
Q 1481 -109 1013 -844 
L 513 -844 
Q 928 -128 1133 580 
Q 1338 1288 1338 2009 
Q 1338 2731 1133 3434 
Q 928 4138 513 4856 
z
" transform="scale(0.015625)"/>
      </defs>
      <use xlink:href="#DejaVuSans-45"/>
      <use xlink:href="#DejaVuSans-63" x="63.183594"/>
      <use xlink:href="#DejaVuSans-68" x="118.164062"/>
      <use xlink:href="#DejaVuSans-6f" x="181.542969"/>
      <use xlink:href="#DejaVuSans-20" x="242.724609"/>
      <use xlink:href="#DejaVuSans-28" x="274.511719"/>
      <use xlink:href="#DejaVuSans-53" x="313.525391"/>
      <use xlink:href="#DejaVuSans-61" x="377.001953"/>
      <use xlink:href="#DejaVuSans-6d" x="438.28125"/>
      <use xlink:href="#DejaVuSans-70" x="535.693359"/>
      <use xlink:href="#DejaVuSans-6c" x="599.169922"/>
      <use xlink:href="#DejaVuSans-65" x="626.953125"/>
      <use xlink:href="#DejaVuSans-73" x="688.476562"/>
      <use xlink:href="#DejaVuSans-29" x="740.576172"/>
     </g>
    </g>
   </g>
   <g id="matplotlib.axis_2">
    <g id="ytick_1">
     <g id="line2d_8">
      <defs>
       <path id="m31fbf4c040" d="M 0 0 
L -3.5 0 
" style="stroke: #000000; stroke-width: 0.8"/>
      </defs>
      <g>
       <use xlink:href="#m31fbf4c040" x="58.523438" y="239.124453" style="stroke: #000000; stroke-width: 0.8"/>
      </g>
     </g>
     <g id="text_9">
      <!-- −0.05 -->
      <g transform="translate(20.878125 242.923672) scale(0.1 -0.1)">
       <defs>
        <path id="DejaVuSans-2212" d="M 678 2272 
L 4684 2272 
L 4684 1741 
L 678 1741 
L 678 2272 
z
" transform="scale(0.015625)"/>
        <path id="DejaVuSans-2e" d="M 684 794 
L 1344 794 
L 1344 0 
L 684 0 
L 684 794 
z
" transform="scale(0.015625)"/>
        <path id="DejaVuSans-35" d="M 691 4666 
L 3169 4666 
L 3169 4134 
L 1269 4134 
L 1269 2991 
Q 1406 3038 1543 3061 
Q 1681 3084 1819 3084 
Q 2600 3084 3056 2656 
Q 3513 2228 3513 1497 
Q 3513 744 3044 326 
Q 2575 -91 1722 -91 
Q 1428 -91 1123 -41 
Q 819 9 494 109 
L 494 744 
Q 775 591 1075 516 
Q 1375 441 1709 441 
Q 2250 441 2565 725 
Q 2881 1009 2881 1497 
Q 2881 1984 2565 2268 
Q 2250 2553 1709 2553 
Q 1456 2553 1204 2497 
Q 953 2441 691 2322 
L 691 4666 
z
" transform="scale(0.015625)"/>
       </defs>
       <use xlink:href="#DejaVuSans-2212"/>
       <use xlink:href="#DejaVuSans-30" x="83.789062"/>
       <use xlink:href="#DejaVuSans-2e" x="147.412109"/>
       <use xlink:href="#DejaVuSans-30" x="179.199219"/>
       <use xlink:href="#DejaVuSans-35" x="242.822266"/>
      </g>
     </g>
    </g>
    <g id="ytick_2">
     <g id="line2d_9">
      <g>
       <use xlink:href="#m31fbf4c040" x="58.523438" y="192.470427" style="stroke: #000000; stroke-width: 0.8"/>
      </g>
     </g>
     <g id="text_10">
      <!-- 0.00 -->
      <g transform="translate(29.257813 196.269646) scale(0.1 -0.1)">
       <use xlink:href="#DejaVuSans-30"/>
       <use xlink:href="#DejaVuSans-2e" x="63.623047"/>
       <use xlink:href="#DejaVuSans-30" x="95.410156"/>
       <use xlink:href="#DejaVuSans-30" x="159.033203"/>
      </g>
     </g>
    </g>
    <g id="ytick_3">
     <g id="line2d_10">
      <g>
       <use xlink:href="#m31fbf4c040" x="58.523438" y="145.816401" style="stroke: #000000; stroke-width: 0.8"/>
      </g>
     </g>
     <g id="text_11">
      <!-- 0.05 -->
      <g transform="translate(29.257813 149.61562) scale(0.1 -0.1)">
       <use xlink:href="#DejaVuSans-30"/>
       <use xlink:href="#DejaVuSans-2e" x="63.623047"/>
       <use xlink:href="#DejaVuSans-30" x="95.410156"/>
       <use xlink:href="#DejaVuSans-35" x="159.033203"/>
      </g>
     </g>
    </g>
    <g id="ytick_4">
     <g id="line2d_11">
      <g>
       <use xlink:href="#m31fbf4c040" x="58.523438" y="99.162375" style="stroke: #000000; stroke-width: 0.8"/>
      </g>
     </g>
     <g id="text_12">
      <!-- 0.10 -->
      <g transform="translate(29.257813 102.961594) scale(0.1 -0.1)">
       <use xlink:href="#DejaVuSans-30"/>
       <use xlink:href="#DejaVuSans-2e" x="63.623047"/>
       <use xlink:href="#DejaVuSans-31" x="95.410156"/>
       <use xlink:href="#DejaVuSans-30" x="159.033203"/>
      </g>
     </g>
    </g>
    <g id="ytick_5">
     <g id="line2d_12">
      <g>
       <use xlink:href="#m31fbf4c040" x="58.523438" y="52.508349" style="stroke: #000000; stroke-width: 0.8"/>
      </g>
     </g>
     <g id="text_13">
      <!-- 0.15 -->
      <g transform="translate(29.257813 56.307568) scale(0.1 -0.1)">
       <use xlink:href="#DejaVuSans-30"/>
       <use xlink:href="#DejaVuSans-2e" x="63.623047"/>
       <use xlink:href="#DejaVuSans-31" x="95.410156"/>
       <use xlink:href="#DejaVuSans-35" x="159.033203"/>
      </g>
     </g>
    </g>
    <g id="text_14">
     <!-- Cepstrum Value -->
     <g transform="translate(14.798438 172.921875) rotate(-90) scale(0.1 -0.1)">
      <defs>
       <path id="DejaVuSans-43" d="M 4122 4306 
L 4122 3641 
Q 3803 3938 3442 4084 
Q 3081 4231 2675 4231 
Q 1875 4231 1450 3742 
Q 1025 3253 1025 2328 
Q 1025 1406 1450 917 
Q 1875 428 2675 428 
Q 3081 428 3442 575 
Q 3803 722 4122 1019 
L 4122 359 
Q 3791 134 3420 21 
Q 3050 -91 2638 -91 
Q 1578 -91 968 557 
Q 359 1206 359 2328 
Q 359 3453 968 4101 
Q 1578 4750 2638 4750 
Q 3056 4750 3426 4639 
Q 3797 4528 4122 4306 
z
" transform="scale(0.015625)"/>
       <path id="DejaVuSans-74" d="M 1172 4494 
L 1172 3500 
L 2356 3500 
L 2356 3053 
L 1172 3053 
L 1172 1153 
Q 1172 725 1289 603 
Q 1406 481 1766 481 
L 2356 481 
L 2356 0 
L 1766 0 
Q 1100 0 847 248 
Q 594 497 594 1153 
L 594 3053 
L 172 3053 
L 172 3500 
L 594 3500 
L 594 4494 
L 1172 4494 
z
" transform="scale(0.015625)"/>
       <path id="DejaVuSans-72" d="M 2631 2963 
Q 2534 3019 2420 3045 
Q 2306 3072 2169 3072 
Q 1681 3072 1420 2755 
Q 1159 2438 1159 1844 
L 1159 0 
L 581 0 
L 581 3500 
L 1159 3500 
L 1159 2956 
Q 1341 3275 1631 3429 
Q 1922 3584 2338 3584 
Q 2397 3584 2469 3576 
Q 2541 3569 2628 3553 
L 2631 2963 
z
" transform="scale(0.015625)"/>
       <path id="DejaVuSans-75" d="M 544 1381 
L 544 3500 
L 1119 3500 
L 1119 1403 
Q 1119 906 1312 657 
Q 1506 409 1894 409 
Q 2359 409 2629 706 
Q 2900 1003 2900 1516 
L 2900 3500 
L 3475 3500 
L 3475 0 
L 2900 0 
L 2900 538 
Q 2691 219 2414 64 
Q 2138 -91 1772 -91 
Q 1169 -91 856 284 
Q 544 659 544 1381 
z
M 1991 3584 
L 1991 3584 
z
" transform="scale(0.015625)"/>
       <path id="DejaVuSans-56" d="M 1831 0 
L 50 4666 
L 709 4666 
L 2188 738 
L 3669 4666 
L 4325 4666 
L 2547 0 
L 1831 0 
z
" transform="scale(0.015625)"/>
      </defs>
      <use xlink:href="#DejaVuSans-43"/>
      <use xlink:href="#DejaVuSans-65" x="69.824219"/>
      <use xlink:href="#DejaVuSans-70" x="131.347656"/>
      <use xlink:href="#DejaVuSans-73" x="194.824219"/>
      <use xlink:href="#DejaVuSans-74" x="246.923828"/>
      <use xlink:href="#DejaVuSans-72" x="286.132812"/>
      <use xlink:href="#DejaVuSans-75" x="327.246094"/>
      <use xlink:href="#DejaVuSans-6d" x="390.625"/>
      <use xlink:href="#DejaVuSans-20" x="488.037109"/>
      <use xlink:href="#DejaVuSans-56" x="519.824219"/>
      <use xlink:href="#DejaVuSans-61" x="580.482422"/>
      <use xlink:href="#DejaVuSans-6c" x="641.761719"/>
      <use xlink:href="#DejaVuSans-75" x="669.544922"/>
      <use xlink:href="#DejaVuSans-65" x="732.923828"/>
     </g>
    </g>
   </g>
   <g id="line2d_13">
    <path d="M 78.814347 170.83138 
L 82.060892 206.091006 
L 85.307438 188.694267 
L 88.553983 183.988671 
L 91.800528 168.582709 
L 95.047074 197.911801 
L 98.293619 177.09528 
L 101.540165 213.51667 
L 104.78671 195.585065 
L 108.033256 202.327765 
L 111.279801 190.017955 
L 114.526347 181.752913 
L 117.772892 164.68012 
L 121.019438 153.827991 
L 124.265983 165.832043 
L 127.512528 186.695822 
L 130.759074 191.52561 
L 134.005619 190.987334 
L 137.252165 197.027483 
L 140.49871 183.18793 
L 143.745256 178.303474 
L 146.991801 184.498148 
L 150.238347 179.784752 
L 153.484892 194.119738 
L 156.731438 186.265759 
L 159.977983 183.813184 
L 163.224528 192.764508 
L 166.471074 196.208427 
L 169.717619 188.180126 
L 172.964165 193.246189 
L 176.21071 189.506491 
L 179.457256 190.851922 
L 182.703801 188.833603 
L 185.950347 173.057785 
L 189.196892 177.617675 
L 192.443438 181.362758 
L 195.689983 184.92373 
L 198.936528 192.365693 
L 202.183074 184.229197 
L 205.429619 186.480205 
L 208.676165 190.564834 
L 211.92271 183.308317 
L 215.169256 190.084774 
L 218.415801 200.49429 
L 221.662347 199.41782 
L 224.908892 200.535907 
L 228.155438 190.42243 
L 231.401983 193.839381 
L 234.648528 187.616254 
L 237.895074 187.824408 
L 241.141619 197.575477 
L 244.388165 190.054675 
L 247.63471 191.802103 
L 250.881256 190.005668 
L 254.127801 188.866228 
L 257.374347 185.375891 
L 260.620892 186.294095 
L 263.867437 184.176462 
L 267.113983 200.931769 
L 270.360528 189.405886 
L 273.607074 195.817989 
L 276.853619 189.12139 
L 280.100165 184.673142 
L 283.34671 190.164033 
L 286.593256 195.993316 
L 289.839801 195.730692 
L 293.086347 197.340593 
L 296.332892 195.35637 
L 299.579437 189.612275 
L 302.825983 198.712765 
L 306.072528 197.951317 
L 309.319074 191.963605 
L 312.565619 190.881367 
L 315.812165 197.540847 
L 319.05871 207.138554 
L 322.305256 198.90745 
L 325.551801 194.995805 
L 328.798347 202.813614 
L 332.044892 189.658764 
L 335.291437 194.500691 
L 338.537983 194.581774 
L 341.784528 199.010085 
L 345.031074 195.048462 
L 348.277619 202.160231 
L 351.524165 210.648214 
L 354.77071 198.453481 
L 358.017256 196.382529 
L 361.263801 199.102173 
L 364.510347 196.276339 
L 367.756892 190.700935 
L 371.003437 194.919631 
L 374.249983 200.279015 
L 377.496528 201.958645 
L 380.743074 199.692333 
L 383.989619 189.550115 
L 387.236165 197.797378 
L 390.48271 196.056456 
L 393.729256 198.9795 
L 396.975801 195.966213 
L 400.222347 199.132879 
L 403.468892 205.881822 
L 406.715438 199.06111 
L 409.961983 191.025684 
L 413.208528 195.587073 
L 416.455074 209.581241 
L 419.701619 205.402535 
L 422.948165 195.722217 
L 426.19471 200.107248 
L 429.441256 203.038562 
L 432.687801 194.529718 
L 435.934347 191.738523 
L 439.180892 196.15355 
L 442.427437 187.249183 
L 445.673983 203.763604 
L 448.920528 194.155578 
L 452.167074 194.682965 
L 455.413619 194.294478 
L 458.660165 205.416319 
L 461.90671 195.32438 
L 465.153256 199.304346 
L 468.399801 198.444041 
L 471.646347 195.62435 
L 474.892892 200.223253 
L 478.139437 204.473221 
L 481.385983 203.721748 
L 484.632528 198.366484 
" clip-path="url(#p9fcb887192)" style="fill: none; stroke: #1f77b4; stroke-width: 1.5; stroke-linecap: square"/>
   </g>
   <g id="line2d_14">
    <path d="M 78.814347 172.269082 
L 82.060892 189.5066 
L 85.307438 177.789803 
L 88.553983 187.264673 
L 91.800528 174.299622 
L 95.047074 191.362374 
L 98.293619 177.344054 
L 101.540165 192.478661 
L 104.78671 193.242305 
L 108.033256 195.839983 
L 111.279801 191.200109 
L 114.526347 179.804372 
L 117.772892 158.062017 
L 121.019438 166.973105 
L 124.265983 168.384877 
L 127.512528 184.20753 
L 130.759074 179.941365 
L 134.005619 183.479329 
L 137.252165 189.882247 
L 140.49871 187.652362 
L 143.745256 184.883918 
L 146.991801 183.072748 
L 150.238347 176.321925 
L 153.484892 188.114461 
L 156.731438 187.606386 
L 159.977983 32.4 
L 163.224528 186.372861 
L 166.471074 194.019697 
L 169.717619 186.495001 
L 172.964165 194.12911 
L 176.21071 194.043714 
L 179.457256 186.536299 
L 182.703801 194.00184 
L 185.950347 171.195461 
L 189.196892 177.014413 
L 192.443438 184.896037 
L 195.689983 183.523628 
L 198.936528 189.85962 
L 202.183074 183.580941 
L 205.429619 187.02531 
L 208.676165 191.345681 
L 211.92271 183.729115 
L 215.169256 199.901377 
L 218.415801 200.422498 
L 221.662347 201.613092 
L 224.908892 202.218398 
L 228.155438 196.745272 
L 231.401983 195.701317 
L 234.648528 183.133837 
L 237.895074 184.797279 
L 241.141619 191.672008 
L 244.388165 184.488955 
L 247.63471 192.220935 
L 250.881256 184.413585 
L 254.127801 189.186191 
L 257.374347 175.471197 
L 260.620892 190.416143 
L 263.867437 191.388329 
L 267.113983 197.011494 
L 270.360528 188.155371 
L 273.607074 195.792986 
L 276.853619 189.917233 
L 280.100165 183.175705 
L 283.34671 187.144046 
L 286.593256 189.063363 
L 289.839801 186.840117 
L 293.086347 199.048714 
L 296.332892 193.375996 
L 299.579437 199.145744 
L 302.825983 189.794885 
L 306.072528 192.962278 
L 309.319074 191.243137 
L 312.565619 192.89147 
L 315.812165 197.972873 
L 319.05871 198.531758 
L 322.305256 224.996047 
L 325.551801 195.258574 
L 328.798347 182.474466 
L 332.044892 195.732435 
L 335.291437 192.862395 
L 338.537983 198.661951 
L 341.784528 198.52179 
L 345.031074 194.145182 
L 348.277619 197.849944 
L 351.524165 202.126726 
L 354.77071 202.619154 
L 358.017256 199.211053 
L 361.263801 200.475543 
L 364.510347 198.237623 
L 367.756892 190.134421 
L 371.003437 184.284285 
L 374.249983 195.354127 
L 377.496528 196.160399 
L 380.743074 206.354829 
L 383.989619 192.183557 
L 387.236165 189.648221 
L 390.48271 195.773564 
L 393.729256 200.205084 
L 396.975801 200.555341 
L 400.222347 201.606536 
L 403.468892 191.325773 
L 406.715438 200.227462 
L 409.961983 193.755741 
L 413.208528 203.999233 
L 416.455074 213.61907 
L 419.701619 195.450214 
L 422.948165 197.855071 
L 426.19471 198.945971 
L 429.441256 199.557572 
L 432.687801 198.09412 
L 435.934347 205.09952 
L 439.180892 201.196425 
L 442.427437 193.966576 
L 445.673983 194.680661 
L 448.920528 203.916264 
L 452.167074 194.125145 
L 455.413619 195.629382 
L 458.660165 207.097689 
L 461.90671 191.20719 
L 465.153256 205.713941 
L 468.399801 200.29724 
L 471.646347 196.981257 
L 474.892892 199.266777 
L 478.139437 205.738125 
L 481.385983 201.266569 
L 484.632528 187.192422 
" clip-path="url(#p9fcb887192)" style="fill: none; stroke: #ff7f0e; stroke-width: 1.5; stroke-linecap: square"/>
   </g>
   <g id="line2d_15">
    <path d="M 78.814347 177.258864 
L 82.060892 200.288028 
L 85.307438 184.254535 
L 88.553983 191.408429 
L 91.800528 190.553385 
L 95.047074 193.442249 
L 98.293619 179.288114 
L 101.540165 199.679225 
L 104.78671 200.016656 
L 108.033256 196.014788 
L 111.279801 197.291133 
L 114.526347 182.328229 
L 117.772892 173.322007 
L 121.019438 167.777321 
L 124.265983 181.412268 
L 127.512528 183.143224 
L 130.759074 198.25935 
L 134.005619 193.597352 
L 137.252165 181.455945 
L 140.49871 192.066156 
L 143.745256 181.019385 
L 146.991801 185.118234 
L 150.238347 186.657012 
L 153.484892 189.63378 
L 156.731438 191.561694 
L 159.977983 190.599832 
L 163.224528 188.785738 
L 166.471074 194.095392 
L 169.717619 196.173808 
L 172.964165 196.042848 
L 176.21071 190.954174 
L 179.457256 183.038626 
L 182.703801 194.761284 
L 185.950347 173.587307 
L 189.196892 187.339357 
L 192.443438 185.206047 
L 195.689983 182.695168 
L 198.936528 196.400003 
L 202.183074 188.224046 
L 205.429619 189.61012 
L 208.676165 195.98666 
L 211.92271 188.390814 
L 215.169256 199.64191 
L 218.415801 204.661211 
L 221.662347 200.074976 
L 224.908892 205.433152 
L 228.155438 197.442374 
L 231.401983 191.30912 
L 234.648528 191.455479 
L 237.895074 188.255087 
L 241.141619 44.997251 
L 244.388165 185.601939 
L 247.63471 197.460481 
L 250.881256 198.392519 
L 254.127801 193.49987 
L 257.374347 184.810596 
L 260.620892 192.846991 
L 263.867437 191.773416 
L 267.113983 192.688174 
L 270.360528 194.057803 
L 273.607074 192.668405 
L 276.853619 192.561031 
L 280.100165 190.886748 
L 283.34671 188.874786 
L 286.593256 193.477505 
L 289.839801 190.192955 
L 293.086347 200.113488 
L 296.332892 192.402134 
L 299.579437 195.845409 
L 302.825983 199.428652 
L 306.072528 203.79594 
L 309.319074 194.458982 
L 312.565619 199.571636 
L 315.812165 199.678883 
L 319.05871 201.329856 
L 322.305256 204.909068 
L 325.551801 199.401937 
L 328.798347 196.460487 
L 332.044892 194.835752 
L 335.291437 193.867633 
L 338.537983 194.228413 
L 341.784528 198.426021 
L 345.031074 202.885853 
L 348.277619 207.102398 
L 351.524165 208.152007 
L 354.77071 201.726634 
L 358.017256 201.487732 
L 361.263801 201.441143 
L 364.510347 210.255256 
L 367.756892 190.744887 
L 371.003437 192.076102 
L 374.249983 196.176551 
L 377.496528 196.098251 
L 380.743074 198.409077 
L 383.989619 190.930007 
L 387.236165 189.442656 
L 390.48271 196.243517 
L 393.729256 194.074333 
L 396.975801 191.793001 
L 400.222347 201.193756 
L 403.468892 201.796774 
L 406.715438 202.305469 
L 409.961983 192.569567 
L 413.208528 203.648525 
L 416.455074 205.686581 
L 419.701619 199.145177 
L 422.948165 196.097561 
L 426.19471 192.154892 
L 429.441256 198.58129 
L 432.687801 196.31443 
L 435.934347 198.725147 
L 439.180892 196.748615 
L 442.427437 191.498121 
L 445.673983 199.146394 
L 448.920528 194.344715 
L 452.167074 191.940694 
L 455.413619 194.847836 
L 458.660165 202.551223 
L 461.90671 198.643194 
L 465.153256 198.175642 
L 468.399801 193.312359 
L 471.646347 203.189257 
L 474.892892 206.447507 
L 478.139437 204.140071 
L 481.385983 205.522546 
L 484.632528 234 
" clip-path="url(#p9fcb887192)" style="fill: none; stroke: #2ca02c; stroke-width: 1.5; stroke-linecap: square"/>
   </g>
   <g id="line2d_16">
    <path d="M 78.814347 163.0673 
L 82.060892 185.403564 
L 85.307438 180.570464 
L 88.553983 198.887322 
L 91.800528 185.439035 
L 95.047074 194.59854 
L 98.293619 183.46551 
L 101.540165 194.547617 
L 104.78671 198.954734 
L 108.033256 186.578816 
L 111.279801 191.413801 
L 114.526347 182.433789 
L 117.772892 162.383975 
L 121.019438 173.151685 
L 124.265983 178.107772 
L 127.512528 189.293734 
L 130.759074 197.512818 
L 134.005619 180.209217 
L 137.252165 186.721208 
L 140.49871 189.924337 
L 143.745256 173.057484 
L 146.991801 188.559677 
L 150.238347 181.392673 
L 153.484892 197.129051 
L 156.731438 189.797343 
L 159.977983 190.226817 
L 163.224528 197.387022 
L 166.471074 192.384549 
L 169.717619 195.050253 
L 172.964165 196.308601 
L 176.21071 186.378742 
L 179.457256 194.798189 
L 182.703801 190.508313 
L 185.950347 175.512015 
L 189.196892 173.010685 
L 192.443438 184.635479 
L 195.689983 183.228505 
L 198.936528 191.154485 
L 202.183074 185.451481 
L 205.429619 191.478276 
L 208.676165 190.069324 
L 211.92271 186.025252 
L 215.169256 196.04241 
L 218.415801 201.272019 
L 221.662347 207.860888 
L 224.908892 198.250988 
L 228.155438 198.085946 
L 231.401983 198.303943 
L 234.648528 182.360856 
L 237.895074 183.927848 
L 241.141619 193.992146 
L 244.388165 191.29184 
L 247.63471 183.460695 
L 250.881256 188.129153 
L 254.127801 190.554928 
L 257.374347 191.570313 
L 260.620892 194.156754 
L 263.867437 188.86896 
L 267.113983 190.303848 
L 270.360528 190.342938 
L 273.607074 191.277871 
L 276.853619 194.863225 
L 280.100165 179.318545 
L 283.34671 190.313552 
L 286.593256 186.6484 
L 289.839801 189.731484 
L 293.086347 196.437989 
L 296.332892 199.266839 
L 299.579437 196.410195 
L 302.825983 194.36451 
L 306.072528 196.877113 
L 309.319074 196.334748 
L 312.565619 194.557746 
L 315.812165 197.229011 
L 319.05871 193.983726 
L 322.305256 54.729197 
L 325.551801 193.839716 
L 328.798347 197.778913 
L 332.044892 187.267269 
L 335.291437 195.839389 
L 338.537983 194.52545 
L 341.784528 194.138531 
L 345.031074 202.081717 
L 348.277619 206.876415 
L 351.524165 207.145336 
L 354.77071 203.671181 
L 358.017256 198.255807 
L 361.263801 198.295984 
L 364.510347 199.156326 
L 367.756892 188.587423 
L 371.003437 187.191595 
L 374.249983 192.949498 
L 377.496528 200.200765 
L 380.743074 201.348931 
L 383.989619 191.696675 
L 387.236165 198.34574 
L 390.48271 196.01865 
L 393.729256 200.503945 
L 396.975801 203.82596 
L 400.222347 202.844157 
L 403.468892 204.795482 
L 406.715438 200.550419 
L 409.961983 190.078885 
L 413.208528 201.100753 
L 416.455074 200.027307 
L 419.701619 194.404695 
L 422.948165 194.191155 
L 426.19471 195.783479 
L 429.441256 198.303673 
L 432.687801 199.500362 
L 435.934347 193.859378 
L 439.180892 199.647254 
L 442.427437 194.343166 
L 445.673983 196.929001 
L 448.920528 191.973529 
L 452.167074 195.687146 
L 455.413619 190.265742 
L 458.660165 194.746211 
L 461.90671 185.784357 
L 465.153256 197.093985 
L 468.399801 197.926065 
L 471.646347 195.357721 
L 474.892892 199.518681 
L 478.139437 204.784965 
L 481.385983 196.109038 
L 484.632528 200.544743 
" clip-path="url(#p9fcb887192)" style="fill: none; stroke: #d62728; stroke-width: 1.5; stroke-linecap: square"/>
   </g>
   <g id="patch_3">
    <path d="M 58.523438 244.08 
L 58.523438 22.32 
" style="fill: none; stroke: #000000; stroke-width: 0.8; stroke-linejoin: miter; stroke-linecap: square"/>
   </g>
   <g id="patch_4">
    <path d="M 504.923437 244.08 
L 504.923437 22.32 
" style="fill: none; stroke: #000000; stroke-width: 0.8; stroke-linejoin: miter; stroke-linecap: square"/>
   </g>
   <g id="patch_5">
    <path d="M 58.523438 244.08 
L 504.923437 244.08 
" style="fill: none; stroke: #000000; stroke-width: 0.8; stroke-linejoin: miter; stroke-linecap: square"/>
   </g>
   <g id="patch_6">
    <path d="M 58.523438 22.32 
L 504.923437 22.32 
" style="fill: none; stroke: #000000; stroke-width: 0.8; stroke-linejoin: miter; stroke-linecap: square"/>
   </g>
   <g id="text_15">
    <!-- Prince Jazz Cepstra $c$ for Drums DDSP Models -->
    <g transform="translate(145.523438 16.32) scale(0.12 -0.12)">
     <defs>
      <path id="DejaVuSans-50" d="M 1259 4147 
L 1259 2394 
L 2053 2394 
Q 2494 2394 2734 2622 
Q 2975 2850 2975 3272 
Q 2975 3691 2734 3919 
Q 2494 4147 2053 4147 
L 1259 4147 
z
M 628 4666 
L 2053 4666 
Q 2838 4666 3239 4311 
Q 3641 3956 3641 3272 
Q 3641 2581 3239 2228 
Q 2838 1875 2053 1875 
L 1259 1875 
L 1259 0 
L 628 0 
L 628 4666 
z
" transform="scale(0.015625)"/>
      <path id="DejaVuSans-69" d="M 603 3500 
L 1178 3500 
L 1178 0 
L 603 0 
L 603 3500 
z
M 603 4863 
L 1178 4863 
L 1178 4134 
L 603 4134 
L 603 4863 
z
" transform="scale(0.015625)"/>
      <path id="DejaVuSans-6e" d="M 3513 2113 
L 3513 0 
L 2938 0 
L 2938 2094 
Q 2938 2591 2744 2837 
Q 2550 3084 2163 3084 
Q 1697 3084 1428 2787 
Q 1159 2491 1159 1978 
L 1159 0 
L 581 0 
L 581 3500 
L 1159 3500 
L 1159 2956 
Q 1366 3272 1645 3428 
Q 1925 3584 2291 3584 
Q 2894 3584 3203 3211 
Q 3513 2838 3513 2113 
z
" transform="scale(0.015625)"/>
      <path id="DejaVuSans-4a" d="M 628 4666 
L 1259 4666 
L 1259 325 
Q 1259 -519 939 -900 
Q 619 -1281 -91 -1281 
L -331 -1281 
L -331 -750 
L -134 -750 
Q 284 -750 456 -515 
Q 628 -281 628 325 
L 628 4666 
z
" transform="scale(0.015625)"/>
      <path id="DejaVuSans-7a" d="M 353 3500 
L 3084 3500 
L 3084 2975 
L 922 459 
L 3084 459 
L 3084 0 
L 275 0 
L 275 525 
L 2438 3041 
L 353 3041 
L 353 3500 
z
" transform="scale(0.015625)"/>
      <path id="DejaVuSans-Oblique-63" d="M 3431 3366 
L 3316 2797 
Q 3109 2947 2876 3022 
Q 2644 3097 2394 3097 
Q 2119 3097 1870 3000 
Q 1622 2903 1453 2725 
Q 1184 2453 1037 2087 
Q 891 1722 891 1331 
Q 891 859 1127 628 
Q 1363 397 1844 397 
Q 2081 397 2348 469 
Q 2616 541 2906 684 
L 2797 116 
Q 2547 13 2283 -39 
Q 2019 -91 1741 -91 
Q 1044 -91 669 257 
Q 294 606 294 1253 
Q 294 1797 489 2255 
Q 684 2713 1069 3078 
Q 1331 3328 1684 3456 
Q 2038 3584 2456 3584 
Q 2700 3584 2940 3529 
Q 3181 3475 3431 3366 
z
" transform="scale(0.015625)"/>
      <path id="DejaVuSans-66" d="M 2375 4863 
L 2375 4384 
L 1825 4384 
Q 1516 4384 1395 4259 
Q 1275 4134 1275 3809 
L 1275 3500 
L 2222 3500 
L 2222 3053 
L 1275 3053 
L 1275 0 
L 697 0 
L 697 3053 
L 147 3053 
L 147 3500 
L 697 3500 
L 697 3744 
Q 697 4328 969 4595 
Q 1241 4863 1831 4863 
L 2375 4863 
z
" transform="scale(0.015625)"/>
      <path id="DejaVuSans-44" d="M 1259 4147 
L 1259 519 
L 2022 519 
Q 2988 519 3436 956 
Q 3884 1394 3884 2338 
Q 3884 3275 3436 3711 
Q 2988 4147 2022 4147 
L 1259 4147 
z
M 628 4666 
L 1925 4666 
Q 3281 4666 3915 4102 
Q 4550 3538 4550 2338 
Q 4550 1131 3912 565 
Q 3275 0 1925 0 
L 628 0 
L 628 4666 
z
" transform="scale(0.015625)"/>
      <path id="DejaVuSans-4d" d="M 628 4666 
L 1569 4666 
L 2759 1491 
L 3956 4666 
L 4897 4666 
L 4897 0 
L 4281 0 
L 4281 4097 
L 3078 897 
L 2444 897 
L 1241 4097 
L 1241 0 
L 628 0 
L 628 4666 
z
" transform="scale(0.015625)"/>
      <path id="DejaVuSans-64" d="M 2906 2969 
L 2906 4863 
L 3481 4863 
L 3481 0 
L 2906 0 
L 2906 525 
Q 2725 213 2448 61 
Q 2172 -91 1784 -91 
Q 1150 -91 751 415 
Q 353 922 353 1747 
Q 353 2572 751 3078 
Q 1150 3584 1784 3584 
Q 2172 3584 2448 3432 
Q 2725 3281 2906 2969 
z
M 947 1747 
Q 947 1113 1208 752 
Q 1469 391 1925 391 
Q 2381 391 2643 752 
Q 2906 1113 2906 1747 
Q 2906 2381 2643 2742 
Q 2381 3103 1925 3103 
Q 1469 3103 1208 2742 
Q 947 2381 947 1747 
z
" transform="scale(0.015625)"/>
     </defs>
     <use xlink:href="#DejaVuSans-50" transform="translate(0 0.015625)"/>
     <use xlink:href="#DejaVuSans-72" transform="translate(60.302734 0.015625)"/>
     <use xlink:href="#DejaVuSans-69" transform="translate(101.416016 0.015625)"/>
     <use xlink:href="#DejaVuSans-6e" transform="translate(129.199219 0.015625)"/>
     <use xlink:href="#DejaVuSans-63" transform="translate(192.578125 0.015625)"/>
     <use xlink:href="#DejaVuSans-65" transform="translate(247.558594 0.015625)"/>
     <use xlink:href="#DejaVuSans-20" transform="translate(309.082031 0.015625)"/>
     <use xlink:href="#DejaVuSans-4a" transform="translate(340.869141 0.015625)"/>
     <use xlink:href="#DejaVuSans-61" transform="translate(370.361328 0.015625)"/>
     <use xlink:href="#DejaVuSans-7a" transform="translate(431.640625 0.015625)"/>
     <use xlink:href="#DejaVuSans-7a" transform="translate(484.130859 0.015625)"/>
     <use xlink:href="#DejaVuSans-20" transform="translate(536.621094 0.015625)"/>
     <use xlink:href="#DejaVuSans-43" transform="translate(568.408203 0.015625)"/>
     <use xlink:href="#DejaVuSans-65" transform="translate(638.232422 0.015625)"/>
     <use xlink:href="#DejaVuSans-70" transform="translate(699.755859 0.015625)"/>
     <use xlink:href="#DejaVuSans-73" transform="translate(763.232422 0.015625)"/>
     <use xlink:href="#DejaVuSans-74" transform="translate(815.332031 0.015625)"/>
     <use xlink:href="#DejaVuSans-72" transform="translate(854.541016 0.015625)"/>
     <use xlink:href="#DejaVuSans-61" transform="translate(895.654297 0.015625)"/>
     <use xlink:href="#DejaVuSans-20" transform="translate(956.933594 0.015625)"/>
     <use xlink:href="#DejaVuSans-Oblique-63" transform="translate(988.720703 0.015625)"/>
     <use xlink:href="#DejaVuSans-20" transform="translate(1043.701172 0.015625)"/>
     <use xlink:href="#DejaVuSans-66" transform="translate(1075.488281 0.015625)"/>
     <use xlink:href="#DejaVuSans-6f" transform="translate(1110.693359 0.015625)"/>
     <use xlink:href="#DejaVuSans-72" transform="translate(1171.875 0.015625)"/>
     <use xlink:href="#DejaVuSans-20" transform="translate(1212.988281 0.015625)"/>
     <use xlink:href="#DejaVuSans-44" transform="translate(1244.775391 0.015625)"/>
     <use xlink:href="#DejaVuSans-72" transform="translate(1321.777344 0.015625)"/>
     <use xlink:href="#DejaVuSans-75" transform="translate(1362.890625 0.015625)"/>
     <use xlink:href="#DejaVuSans-6d" transform="translate(1426.269531 0.015625)"/>
     <use xlink:href="#DejaVuSans-73" transform="translate(1523.681641 0.015625)"/>
     <use xlink:href="#DejaVuSans-20" transform="translate(1575.78125 0.015625)"/>
     <use xlink:href="#DejaVuSans-44" transform="translate(1607.568359 0.015625)"/>
     <use xlink:href="#DejaVuSans-44" transform="translate(1684.570312 0.015625)"/>
     <use xlink:href="#DejaVuSans-53" transform="translate(1761.572266 0.015625)"/>
     <use xlink:href="#DejaVuSans-50" transform="translate(1825.048828 0.015625)"/>
     <use xlink:href="#DejaVuSans-20" transform="translate(1885.351562 0.015625)"/>
     <use xlink:href="#DejaVuSans-4d" transform="translate(1917.138672 0.015625)"/>
     <use xlink:href="#DejaVuSans-6f" transform="translate(2003.417969 0.015625)"/>
     <use xlink:href="#DejaVuSans-64" transform="translate(2064.599609 0.015625)"/>
     <use xlink:href="#DejaVuSans-65" transform="translate(2128.076172 0.015625)"/>
     <use xlink:href="#DejaVuSans-6c" transform="translate(2189.599609 0.015625)"/>
     <use xlink:href="#DejaVuSans-73" transform="translate(2217.382812 0.015625)"/>
    </g>
   </g>
   <g id="legend_1">
    <g id="patch_7">
     <path d="M 373.070312 89.0325 
L 497.923437 89.0325 
Q 499.923437 89.0325 499.923437 87.0325 
L 499.923437 29.32 
Q 499.923437 27.32 497.923437 27.32 
L 373.070312 27.32 
Q 371.070312 27.32 371.070312 29.32 
L 371.070312 87.0325 
Q 371.070312 89.0325 373.070312 89.0325 
z
" style="fill: #ffffff; opacity: 0.8; stroke: #cccccc; stroke-linejoin: miter"/>
    </g>
    <g id="line2d_17">
     <path d="M 375.070312 35.418437 
L 385.070312 35.418437 
L 395.070312 35.418437 
" style="fill: none; stroke: #1f77b4; stroke-width: 1.5; stroke-linecap: square"/>
    </g>
    <g id="text_16">
     <!-- Clean -->
     <g transform="translate(403.070312 38.918437) scale(0.1 -0.1)">
      <use xlink:href="#DejaVuSans-43"/>
      <use xlink:href="#DejaVuSans-6c" x="69.824219"/>
      <use xlink:href="#DejaVuSans-65" x="97.607422"/>
      <use xlink:href="#DejaVuSans-61" x="159.130859"/>
      <use xlink:href="#DejaVuSans-6e" x="220.410156"/>
     </g>
    </g>
    <g id="line2d_18">
     <path d="M 375.070312 50.096562 
L 385.070312 50.096562 
L 395.070312 50.096562 
" style="fill: none; stroke: #ff7f0e; stroke-width: 1.5; stroke-linecap: square"/>
    </g>
    <g id="text_17">
     <!-- 50   (z[50] = 16.9) -->
     <g transform="translate(403.070312 53.596562) scale(0.1 -0.1)">
      <defs>
       <path id="DejaVuSans-5b" d="M 550 4863 
L 1875 4863 
L 1875 4416 
L 1125 4416 
L 1125 -397 
L 1875 -397 
L 1875 -844 
L 550 -844 
L 550 4863 
z
" transform="scale(0.015625)"/>
       <path id="DejaVuSans-5d" d="M 1947 4863 
L 1947 -844 
L 622 -844 
L 622 -397 
L 1369 -397 
L 1369 4416 
L 622 4416 
L 622 4863 
L 1947 4863 
z
" transform="scale(0.015625)"/>
       <path id="DejaVuSans-3d" d="M 678 2906 
L 4684 2906 
L 4684 2381 
L 678 2381 
L 678 2906 
z
M 678 1631 
L 4684 1631 
L 4684 1100 
L 678 1100 
L 678 1631 
z
" transform="scale(0.015625)"/>
       <path id="DejaVuSans-39" d="M 703 97 
L 703 672 
Q 941 559 1184 500 
Q 1428 441 1663 441 
Q 2288 441 2617 861 
Q 2947 1281 2994 2138 
Q 2813 1869 2534 1725 
Q 2256 1581 1919 1581 
Q 1219 1581 811 2004 
Q 403 2428 403 3163 
Q 403 3881 828 4315 
Q 1253 4750 1959 4750 
Q 2769 4750 3195 4129 
Q 3622 3509 3622 2328 
Q 3622 1225 3098 567 
Q 2575 -91 1691 -91 
Q 1453 -91 1209 -44 
Q 966 3 703 97 
z
M 1959 2075 
Q 2384 2075 2632 2365 
Q 2881 2656 2881 3163 
Q 2881 3666 2632 3958 
Q 2384 4250 1959 4250 
Q 1534 4250 1286 3958 
Q 1038 3666 1038 3163 
Q 1038 2656 1286 2365 
Q 1534 2075 1959 2075 
z
" transform="scale(0.015625)"/>
      </defs>
      <use xlink:href="#DejaVuSans-35"/>
      <use xlink:href="#DejaVuSans-30" x="63.623047"/>
      <use xlink:href="#DejaVuSans-20" x="127.246094"/>
      <use xlink:href="#DejaVuSans-20" x="159.033203"/>
      <use xlink:href="#DejaVuSans-20" x="190.820312"/>
      <use xlink:href="#DejaVuSans-28" x="222.607422"/>
      <use xlink:href="#DejaVuSans-7a" x="261.621094"/>
      <use xlink:href="#DejaVuSans-5b" x="314.111328"/>
      <use xlink:href="#DejaVuSans-35" x="353.125"/>
      <use xlink:href="#DejaVuSans-30" x="416.748047"/>
      <use xlink:href="#DejaVuSans-5d" x="480.371094"/>
      <use xlink:href="#DejaVuSans-20" x="519.384766"/>
      <use xlink:href="#DejaVuSans-3d" x="551.171875"/>
      <use xlink:href="#DejaVuSans-20" x="634.960938"/>
      <use xlink:href="#DejaVuSans-31" x="666.748047"/>
      <use xlink:href="#DejaVuSans-36" x="730.371094"/>
      <use xlink:href="#DejaVuSans-2e" x="793.994141"/>
      <use xlink:href="#DejaVuSans-39" x="825.78125"/>
      <use xlink:href="#DejaVuSans-29" x="889.404297"/>
     </g>
    </g>
    <g id="line2d_19">
     <path d="M 375.070312 64.774687 
L 385.070312 64.774687 
L 395.070312 64.774687 
" style="fill: none; stroke: #2ca02c; stroke-width: 1.5; stroke-linecap: square"/>
    </g>
    <g id="text_18">
     <!-- 75   (z[75] = 18.2) -->
     <g transform="translate(403.070312 68.274687) scale(0.1 -0.1)">
      <defs>
       <path id="DejaVuSans-37" d="M 525 4666 
L 3525 4666 
L 3525 4397 
L 1831 0 
L 1172 0 
L 2766 4134 
L 525 4134 
L 525 4666 
z
" transform="scale(0.015625)"/>
      </defs>
      <use xlink:href="#DejaVuSans-37"/>
      <use xlink:href="#DejaVuSans-35" x="63.623047"/>
      <use xlink:href="#DejaVuSans-20" x="127.246094"/>
      <use xlink:href="#DejaVuSans-20" x="159.033203"/>
      <use xlink:href="#DejaVuSans-20" x="190.820312"/>
      <use xlink:href="#DejaVuSans-28" x="222.607422"/>
      <use xlink:href="#DejaVuSans-7a" x="261.621094"/>
      <use xlink:href="#DejaVuSans-5b" x="314.111328"/>
      <use xlink:href="#DejaVuSans-37" x="353.125"/>
      <use xlink:href="#DejaVuSans-35" x="416.748047"/>
      <use xlink:href="#DejaVuSans-5d" x="480.371094"/>
      <use xlink:href="#DejaVuSans-20" x="519.384766"/>
      <use xlink:href="#DejaVuSans-3d" x="551.171875"/>
      <use xlink:href="#DejaVuSans-20" x="634.960938"/>
      <use xlink:href="#DejaVuSans-31" x="666.748047"/>
      <use xlink:href="#DejaVuSans-38" x="730.371094"/>
      <use xlink:href="#DejaVuSans-2e" x="793.994141"/>
      <use xlink:href="#DejaVuSans-32" x="825.78125"/>
      <use xlink:href="#DejaVuSans-29" x="889.404297"/>
     </g>
    </g>
    <g id="line2d_20">
     <path d="M 375.070312 79.452812 
L 385.070312 79.452812 
L 395.070312 79.452812 
" style="fill: none; stroke: #d62728; stroke-width: 1.5; stroke-linecap: square"/>
    </g>
    <g id="text_19">
     <!-- 100 (z[100]=17.1) -->
     <g transform="translate(403.070312 82.952812) scale(0.1 -0.1)">
      <use xlink:href="#DejaVuSans-31"/>
      <use xlink:href="#DejaVuSans-30" x="63.623047"/>
      <use xlink:href="#DejaVuSans-30" x="127.246094"/>
      <use xlink:href="#DejaVuSans-20" x="190.869141"/>
      <use xlink:href="#DejaVuSans-28" x="222.65625"/>
      <use xlink:href="#DejaVuSans-7a" x="261.669922"/>
      <use xlink:href="#DejaVuSans-5b" x="314.160156"/>
      <use xlink:href="#DejaVuSans-31" x="353.173828"/>
      <use xlink:href="#DejaVuSans-30" x="416.796875"/>
      <use xlink:href="#DejaVuSans-30" x="480.419922"/>
      <use xlink:href="#DejaVuSans-5d" x="544.042969"/>
      <use xlink:href="#DejaVuSans-3d" x="583.056641"/>
      <use xlink:href="#DejaVuSans-31" x="666.845703"/>
      <use xlink:href="#DejaVuSans-37" x="730.46875"/>
      <use xlink:href="#DejaVuSans-2e" x="794.091797"/>
      <use xlink:href="#DejaVuSans-31" x="825.878906"/>
      <use xlink:href="#DejaVuSans-29" x="889.501953"/>
     </g>
    </g>
   </g>
  </g>
 </g>
 <defs>
  <clipPath id="p9fcb887192">
   <rect x="58.523438" y="22.32" width="446.4" height="221.76"/>
  </clipPath>
 </defs>
</svg>
