<?xml version="1.0" encoding="utf-8" standalone="no"?>
<!DOCTYPE svg PUBLIC "-//W3C//DTD SVG 1.1//EN"
  "http://www.w3.org/Graphics/SVG/1.1/DTD/svg11.dtd">
<svg xmlns:xlink="http://www.w3.org/1999/xlink" width="512.123437pt" height="281.63625pt" viewBox="0 0 512.123437 281.63625" xmlns="http://www.w3.org/2000/svg" version="1.1">
 <metadata>
  <rdf:RDF xmlns:dc="http://purl.org/dc/elements/1.1/" xmlns:cc="http://creativecommons.org/ns#" xmlns:rdf="http://www.w3.org/1999/02/22-rdf-syntax-ns#">
   <cc:Work>
    <dc:type rdf:resource="http://purl.org/dc/dcmitype/StillImage"/>
    <dc:date>2024-12-14T11:49:20.980334</dc:date>
    <dc:format>image/svg+xml</dc:format>
    <dc:creator>
     <cc:Agent>
      <dc:title>Matplotlib v3.9.2, https://matplotlib.org/</dc:title>
     </cc:Agent>
    </dc:creator>
   </cc:Work>
  </rdf:RDF>
 </metadata>
 <defs>
  <style type="text/css">*{stroke-linejoin: round; stroke-linecap: butt}</style>
 </defs>
 <g id="figure_1">
  <g id="patch_1">
   <path d="M 0 281.63625 
L 512.123437 281.63625 
L 512.123437 0 
L 0 0 
z
" style="fill: #ffffff"/>
  </g>
  <g id="axes_1">
   <g id="patch_2">
    <path d="M 58.523438 244.08 
L 504.923437 244.08 
L 504.923437 22.32 
L 58.523438 22.32 
z
" style="fill: #ffffff"/>
   </g>
   <g id="matplotlib.axis_1">
    <g id="xtick_1">
     <g id="line2d_1">
      <defs>
       <path id="m567e674b99" d="M 0 0 
L 0 3.5 
" style="stroke: #000000; stroke-width: 0.8"/>
      </defs>
      <g>
       <use xlink:href="#m567e674b99" x="62.581619" y="244.08" style="stroke: #000000; stroke-width: 0.8"/>
      </g>
     </g>
     <g id="text_1">
      <!-- 20 -->
      <g transform="translate(56.219119 258.678438) scale(0.1 -0.1)">
       <defs>
        <path id="DejaVuSans-32" d="M 1228 531 
L 3431 531 
L 3431 0 
L 469 0 
L 469 531 
Q 828 903 1448 1529 
Q 2069 2156 2228 2338 
Q 2531 2678 2651 2914 
Q 2772 3150 2772 3378 
Q 2772 3750 2511 3984 
Q 2250 4219 1831 4219 
Q 1534 4219 1204 4116 
Q 875 4013 500 3803 
L 500 4441 
Q 881 4594 1212 4672 
Q 1544 4750 1819 4750 
Q 2544 4750 2975 4387 
Q 3406 4025 3406 3419 
Q 3406 3131 3298 2873 
Q 3191 2616 2906 2266 
Q 2828 2175 2409 1742 
Q 1991 1309 1228 531 
z
" transform="scale(0.015625)"/>
        <path id="DejaVuSans-30" d="M 2034 4250 
Q 1547 4250 1301 3770 
Q 1056 3291 1056 2328 
Q 1056 1369 1301 889 
Q 1547 409 2034 409 
Q 2525 409 2770 889 
Q 3016 1369 3016 2328 
Q 3016 3291 2770 3770 
Q 2525 4250 2034 4250 
z
M 2034 4750 
Q 2819 4750 3233 4129 
Q 3647 3509 3647 2328 
Q 3647 1150 3233 529 
Q 2819 -91 2034 -91 
Q 1250 -91 836 529 
Q 422 1150 422 2328 
Q 422 3509 836 4129 
Q 1250 4750 2034 4750 
z
" transform="scale(0.015625)"/>
       </defs>
       <use xlink:href="#DejaVuSans-32"/>
       <use xlink:href="#DejaVuSans-30" x="63.623047"/>
      </g>
     </g>
    </g>
    <g id="xtick_2">
     <g id="line2d_2">
      <g>
       <use xlink:href="#m567e674b99" x="127.512528" y="244.08" style="stroke: #000000; stroke-width: 0.8"/>
      </g>
     </g>
     <g id="text_2">
      <!-- 40 -->
      <g transform="translate(121.150028 258.678438) scale(0.1 -0.1)">
       <defs>
        <path id="DejaVuSans-34" d="M 2419 4116 
L 825 1625 
L 2419 1625 
L 2419 4116 
z
M 2253 4666 
L 3047 4666 
L 3047 1625 
L 3713 1625 
L 3713 1100 
L 3047 1100 
L 3047 0 
L 2419 0 
L 2419 1100 
L 313 1100 
L 313 1709 
L 2253 4666 
z
" transform="scale(0.015625)"/>
       </defs>
       <use xlink:href="#DejaVuSans-34"/>
       <use xlink:href="#DejaVuSans-30" x="63.623047"/>
      </g>
     </g>
    </g>
    <g id="xtick_3">
     <g id="line2d_3">
      <g>
       <use xlink:href="#m567e674b99" x="192.443438" y="244.08" style="stroke: #000000; stroke-width: 0.8"/>
      </g>
     </g>
     <g id="text_3">
      <!-- 60 -->
      <g transform="translate(186.080938 258.678438) scale(0.1 -0.1)">
       <defs>
        <path id="DejaVuSans-36" d="M 2113 2584 
Q 1688 2584 1439 2293 
Q 1191 2003 1191 1497 
Q 1191 994 1439 701 
Q 1688 409 2113 409 
Q 2538 409 2786 701 
Q 3034 994 3034 1497 
Q 3034 2003 2786 2293 
Q 2538 2584 2113 2584 
z
M 3366 4563 
L 3366 3988 
Q 3128 4100 2886 4159 
Q 2644 4219 2406 4219 
Q 1781 4219 1451 3797 
Q 1122 3375 1075 2522 
Q 1259 2794 1537 2939 
Q 1816 3084 2150 3084 
Q 2853 3084 3261 2657 
Q 3669 2231 3669 1497 
Q 3669 778 3244 343 
Q 2819 -91 2113 -91 
Q 1303 -91 875 529 
Q 447 1150 447 2328 
Q 447 3434 972 4092 
Q 1497 4750 2381 4750 
Q 2619 4750 2861 4703 
Q 3103 4656 3366 4563 
z
" transform="scale(0.015625)"/>
       </defs>
       <use xlink:href="#DejaVuSans-36"/>
       <use xlink:href="#DejaVuSans-30" x="63.623047"/>
      </g>
     </g>
    </g>
    <g id="xtick_4">
     <g id="line2d_4">
      <g>
       <use xlink:href="#m567e674b99" x="257.374347" y="244.08" style="stroke: #000000; stroke-width: 0.8"/>
      </g>
     </g>
     <g id="text_4">
      <!-- 80 -->
      <g transform="translate(251.011847 258.678438) scale(0.1 -0.1)">
       <defs>
        <path id="DejaVuSans-38" d="M 2034 2216 
Q 1584 2216 1326 1975 
Q 1069 1734 1069 1313 
Q 1069 891 1326 650 
Q 1584 409 2034 409 
Q 2484 409 2743 651 
Q 3003 894 3003 1313 
Q 3003 1734 2745 1975 
Q 2488 2216 2034 2216 
z
M 1403 2484 
Q 997 2584 770 2862 
Q 544 3141 544 3541 
Q 544 4100 942 4425 
Q 1341 4750 2034 4750 
Q 2731 4750 3128 4425 
Q 3525 4100 3525 3541 
Q 3525 3141 3298 2862 
Q 3072 2584 2669 2484 
Q 3125 2378 3379 2068 
Q 3634 1759 3634 1313 
Q 3634 634 3220 271 
Q 2806 -91 2034 -91 
Q 1263 -91 848 271 
Q 434 634 434 1313 
Q 434 1759 690 2068 
Q 947 2378 1403 2484 
z
M 1172 3481 
Q 1172 3119 1398 2916 
Q 1625 2713 2034 2713 
Q 2441 2713 2670 2916 
Q 2900 3119 2900 3481 
Q 2900 3844 2670 4047 
Q 2441 4250 2034 4250 
Q 1625 4250 1398 4047 
Q 1172 3844 1172 3481 
z
" transform="scale(0.015625)"/>
       </defs>
       <use xlink:href="#DejaVuSans-38"/>
       <use xlink:href="#DejaVuSans-30" x="63.623047"/>
      </g>
     </g>
    </g>
    <g id="xtick_5">
     <g id="line2d_5">
      <g>
       <use xlink:href="#m567e674b99" x="322.305256" y="244.08" style="stroke: #000000; stroke-width: 0.8"/>
      </g>
     </g>
     <g id="text_5">
      <!-- 100 -->
      <g transform="translate(312.761506 258.678438) scale(0.1 -0.1)">
       <defs>
        <path id="DejaVuSans-31" d="M 794 531 
L 1825 531 
L 1825 4091 
L 703 3866 
L 703 4441 
L 1819 4666 
L 2450 4666 
L 2450 531 
L 3481 531 
L 3481 0 
L 794 0 
L 794 531 
z
" transform="scale(0.015625)"/>
       </defs>
       <use xlink:href="#DejaVuSans-31"/>
       <use xlink:href="#DejaVuSans-30" x="63.623047"/>
       <use xlink:href="#DejaVuSans-30" x="127.246094"/>
      </g>
     </g>
    </g>
    <g id="xtick_6">
     <g id="line2d_6">
      <g>
       <use xlink:href="#m567e674b99" x="387.236165" y="244.08" style="stroke: #000000; stroke-width: 0.8"/>
      </g>
     </g>
     <g id="text_6">
      <!-- 120 -->
      <g transform="translate(377.692415 258.678438) scale(0.1 -0.1)">
       <use xlink:href="#DejaVuSans-31"/>
       <use xlink:href="#DejaVuSans-32" x="63.623047"/>
       <use xlink:href="#DejaVuSans-30" x="127.246094"/>
      </g>
     </g>
    </g>
    <g id="xtick_7">
     <g id="line2d_7">
      <g>
       <use xlink:href="#m567e674b99" x="452.167074" y="244.08" style="stroke: #000000; stroke-width: 0.8"/>
      </g>
     </g>
     <g id="text_7">
      <!-- 140 -->
      <g transform="translate(442.623324 258.678438) scale(0.1 -0.1)">
       <use xlink:href="#DejaVuSans-31"/>
       <use xlink:href="#DejaVuSans-34" x="63.623047"/>
       <use xlink:href="#DejaVuSans-30" x="127.246094"/>
      </g>
     </g>
    </g>
    <g id="text_8">
     <!-- Echo (Samples) -->
     <g transform="translate(242.742969 272.356562) scale(0.1 -0.1)">
      <defs>
       <path id="DejaVuSans-45" d="M 628 4666 
L 3578 4666 
L 3578 4134 
L 1259 4134 
L 1259 2753 
L 3481 2753 
L 3481 2222 
L 1259 2222 
L 1259 531 
L 3634 531 
L 3634 0 
L 628 0 
L 628 4666 
z
" transform="scale(0.015625)"/>
       <path id="DejaVuSans-63" d="M 3122 3366 
L 3122 2828 
Q 2878 2963 2633 3030 
Q 2388 3097 2138 3097 
Q 1578 3097 1268 2742 
Q 959 2388 959 1747 
Q 959 1106 1268 751 
Q 1578 397 2138 397 
Q 2388 397 2633 464 
Q 2878 531 3122 666 
L 3122 134 
Q 2881 22 2623 -34 
Q 2366 -91 2075 -91 
Q 1284 -91 818 406 
Q 353 903 353 1747 
Q 353 2603 823 3093 
Q 1294 3584 2113 3584 
Q 2378 3584 2631 3529 
Q 2884 3475 3122 3366 
z
" transform="scale(0.015625)"/>
       <path id="DejaVuSans-68" d="M 3513 2113 
L 3513 0 
L 2938 0 
L 2938 2094 
Q 2938 2591 2744 2837 
Q 2550 3084 2163 3084 
Q 1697 3084 1428 2787 
Q 1159 2491 1159 1978 
L 1159 0 
L 581 0 
L 581 4863 
L 1159 4863 
L 1159 2956 
Q 1366 3272 1645 3428 
Q 1925 3584 2291 3584 
Q 2894 3584 3203 3211 
Q 3513 2838 3513 2113 
z
" transform="scale(0.015625)"/>
       <path id="DejaVuSans-6f" d="M 1959 3097 
Q 1497 3097 1228 2736 
Q 959 2375 959 1747 
Q 959 1119 1226 758 
Q 1494 397 1959 397 
Q 2419 397 2687 759 
Q 2956 1122 2956 1747 
Q 2956 2369 2687 2733 
Q 2419 3097 1959 3097 
z
M 1959 3584 
Q 2709 3584 3137 3096 
Q 3566 2609 3566 1747 
Q 3566 888 3137 398 
Q 2709 -91 1959 -91 
Q 1206 -91 779 398 
Q 353 888 353 1747 
Q 353 2609 779 3096 
Q 1206 3584 1959 3584 
z
" transform="scale(0.015625)"/>
       <path id="DejaVuSans-20" transform="scale(0.015625)"/>
       <path id="DejaVuSans-28" d="M 1984 4856 
Q 1566 4138 1362 3434 
Q 1159 2731 1159 2009 
Q 1159 1288 1364 580 
Q 1569 -128 1984 -844 
L 1484 -844 
Q 1016 -109 783 600 
Q 550 1309 550 2009 
Q 550 2706 781 3412 
Q 1013 4119 1484 4856 
L 1984 4856 
z
" transform="scale(0.015625)"/>
       <path id="DejaVuSans-53" d="M 3425 4513 
L 3425 3897 
Q 3066 4069 2747 4153 
Q 2428 4238 2131 4238 
Q 1616 4238 1336 4038 
Q 1056 3838 1056 3469 
Q 1056 3159 1242 3001 
Q 1428 2844 1947 2747 
L 2328 2669 
Q 3034 2534 3370 2195 
Q 3706 1856 3706 1288 
Q 3706 609 3251 259 
Q 2797 -91 1919 -91 
Q 1588 -91 1214 -16 
Q 841 59 441 206 
L 441 856 
Q 825 641 1194 531 
Q 1563 422 1919 422 
Q 2459 422 2753 634 
Q 3047 847 3047 1241 
Q 3047 1584 2836 1778 
Q 2625 1972 2144 2069 
L 1759 2144 
Q 1053 2284 737 2584 
Q 422 2884 422 3419 
Q 422 4038 858 4394 
Q 1294 4750 2059 4750 
Q 2388 4750 2728 4690 
Q 3069 4631 3425 4513 
z
" transform="scale(0.015625)"/>
       <path id="DejaVuSans-61" d="M 2194 1759 
Q 1497 1759 1228 1600 
Q 959 1441 959 1056 
Q 959 750 1161 570 
Q 1363 391 1709 391 
Q 2188 391 2477 730 
Q 2766 1069 2766 1631 
L 2766 1759 
L 2194 1759 
z
M 3341 1997 
L 3341 0 
L 2766 0 
L 2766 531 
Q 2569 213 2275 61 
Q 1981 -91 1556 -91 
Q 1019 -91 701 211 
Q 384 513 384 1019 
Q 384 1609 779 1909 
Q 1175 2209 1959 2209 
L 2766 2209 
L 2766 2266 
Q 2766 2663 2505 2880 
Q 2244 3097 1772 3097 
Q 1472 3097 1187 3025 
Q 903 2953 641 2809 
L 641 3341 
Q 956 3463 1253 3523 
Q 1550 3584 1831 3584 
Q 2591 3584 2966 3190 
Q 3341 2797 3341 1997 
z
" transform="scale(0.015625)"/>
       <path id="DejaVuSans-6d" d="M 3328 2828 
Q 3544 3216 3844 3400 
Q 4144 3584 4550 3584 
Q 5097 3584 5394 3201 
Q 5691 2819 5691 2113 
L 5691 0 
L 5113 0 
L 5113 2094 
Q 5113 2597 4934 2840 
Q 4756 3084 4391 3084 
Q 3944 3084 3684 2787 
Q 3425 2491 3425 1978 
L 3425 0 
L 2847 0 
L 2847 2094 
Q 2847 2600 2669 2842 
Q 2491 3084 2119 3084 
Q 1678 3084 1418 2786 
Q 1159 2488 1159 1978 
L 1159 0 
L 581 0 
L 581 3500 
L 1159 3500 
L 1159 2956 
Q 1356 3278 1631 3431 
Q 1906 3584 2284 3584 
Q 2666 3584 2933 3390 
Q 3200 3197 3328 2828 
z
" transform="scale(0.015625)"/>
       <path id="DejaVuSans-70" d="M 1159 525 
L 1159 -1331 
L 581 -1331 
L 581 3500 
L 1159 3500 
L 1159 2969 
Q 1341 3281 1617 3432 
Q 1894 3584 2278 3584 
Q 2916 3584 3314 3078 
Q 3713 2572 3713 1747 
Q 3713 922 3314 415 
Q 2916 -91 2278 -91 
Q 1894 -91 1617 61 
Q 1341 213 1159 525 
z
M 3116 1747 
Q 3116 2381 2855 2742 
Q 2594 3103 2138 3103 
Q 1681 3103 1420 2742 
Q 1159 2381 1159 1747 
Q 1159 1113 1420 752 
Q 1681 391 2138 391 
Q 2594 391 2855 752 
Q 3116 1113 3116 1747 
z
" transform="scale(0.015625)"/>
       <path id="DejaVuSans-6c" d="M 603 4863 
L 1178 4863 
L 1178 0 
L 603 0 
L 603 4863 
z
" transform="scale(0.015625)"/>
       <path id="DejaVuSans-65" d="M 3597 1894 
L 3597 1613 
L 953 1613 
Q 991 1019 1311 708 
Q 1631 397 2203 397 
Q 2534 397 2845 478 
Q 3156 559 3463 722 
L 3463 178 
Q 3153 47 2828 -22 
Q 2503 -91 2169 -91 
Q 1331 -91 842 396 
Q 353 884 353 1716 
Q 353 2575 817 3079 
Q 1281 3584 2069 3584 
Q 2775 3584 3186 3129 
Q 3597 2675 3597 1894 
z
M 3022 2063 
Q 3016 2534 2758 2815 
Q 2500 3097 2075 3097 
Q 1594 3097 1305 2825 
Q 1016 2553 972 2059 
L 3022 2063 
z
" transform="scale(0.015625)"/>
       <path id="DejaVuSans-73" d="M 2834 3397 
L 2834 2853 
Q 2591 2978 2328 3040 
Q 2066 3103 1784 3103 
Q 1356 3103 1142 2972 
Q 928 2841 928 2578 
Q 928 2378 1081 2264 
Q 1234 2150 1697 2047 
L 1894 2003 
Q 2506 1872 2764 1633 
Q 3022 1394 3022 966 
Q 3022 478 2636 193 
Q 2250 -91 1575 -91 
Q 1294 -91 989 -36 
Q 684 19 347 128 
L 347 722 
Q 666 556 975 473 
Q 1284 391 1588 391 
Q 1994 391 2212 530 
Q 2431 669 2431 922 
Q 2431 1156 2273 1281 
Q 2116 1406 1581 1522 
L 1381 1569 
Q 847 1681 609 1914 
Q 372 2147 372 2553 
Q 372 3047 722 3315 
Q 1072 3584 1716 3584 
Q 2034 3584 2315 3537 
Q 2597 3491 2834 3397 
z
" transform="scale(0.015625)"/>
       <path id="DejaVuSans-29" d="M 513 4856 
L 1013 4856 
Q 1481 4119 1714 3412 
Q 1947 2706 1947 2009 
Q 1947 1309 1714 600 
Q 1481 -109 1013 -844 
L 513 -844 
Q 928 -128 1133 580 
Q 1338 1288 1338 2009 
Q 1338 2731 1133 3434 
Q 928 4138 513 4856 
z
" transform="scale(0.015625)"/>
      </defs>
      <use xlink:href="#DejaVuSans-45"/>
      <use xlink:href="#DejaVuSans-63" x="63.183594"/>
      <use xlink:href="#DejaVuSans-68" x="118.164062"/>
      <use xlink:href="#DejaVuSans-6f" x="181.542969"/>
      <use xlink:href="#DejaVuSans-20" x="242.724609"/>
      <use xlink:href="#DejaVuSans-28" x="274.511719"/>
      <use xlink:href="#DejaVuSans-53" x="313.525391"/>
      <use xlink:href="#DejaVuSans-61" x="377.001953"/>
      <use xlink:href="#DejaVuSans-6d" x="438.28125"/>
      <use xlink:href="#DejaVuSans-70" x="535.693359"/>
      <use xlink:href="#DejaVuSans-6c" x="599.169922"/>
      <use xlink:href="#DejaVuSans-65" x="626.953125"/>
      <use xlink:href="#DejaVuSans-73" x="688.476562"/>
      <use xlink:href="#DejaVuSans-29" x="740.576172"/>
     </g>
    </g>
   </g>
   <g id="matplotlib.axis_2">
    <g id="ytick_1">
     <g id="line2d_8">
      <defs>
       <path id="m1b6b1c850d" d="M 0 0 
L -3.5 0 
" style="stroke: #000000; stroke-width: 0.8"/>
      </defs>
      <g>
       <use xlink:href="#m1b6b1c850d" x="58.523438" y="237.901089" style="stroke: #000000; stroke-width: 0.8"/>
      </g>
     </g>
     <g id="text_9">
      <!-- −0.05 -->
      <g transform="translate(20.878125 241.700308) scale(0.1 -0.1)">
       <defs>
        <path id="DejaVuSans-2212" d="M 678 2272 
L 4684 2272 
L 4684 1741 
L 678 1741 
L 678 2272 
z
" transform="scale(0.015625)"/>
        <path id="DejaVuSans-2e" d="M 684 794 
L 1344 794 
L 1344 0 
L 684 0 
L 684 794 
z
" transform="scale(0.015625)"/>
        <path id="DejaVuSans-35" d="M 691 4666 
L 3169 4666 
L 3169 4134 
L 1269 4134 
L 1269 2991 
Q 1406 3038 1543 3061 
Q 1681 3084 1819 3084 
Q 2600 3084 3056 2656 
Q 3513 2228 3513 1497 
Q 3513 744 3044 326 
Q 2575 -91 1722 -91 
Q 1428 -91 1123 -41 
Q 819 9 494 109 
L 494 744 
Q 775 591 1075 516 
Q 1375 441 1709 441 
Q 2250 441 2565 725 
Q 2881 1009 2881 1497 
Q 2881 1984 2565 2268 
Q 2250 2553 1709 2553 
Q 1456 2553 1204 2497 
Q 953 2441 691 2322 
L 691 4666 
z
" transform="scale(0.015625)"/>
       </defs>
       <use xlink:href="#DejaVuSans-2212"/>
       <use xlink:href="#DejaVuSans-30" x="83.789062"/>
       <use xlink:href="#DejaVuSans-2e" x="147.412109"/>
       <use xlink:href="#DejaVuSans-30" x="179.199219"/>
       <use xlink:href="#DejaVuSans-35" x="242.822266"/>
      </g>
     </g>
    </g>
    <g id="ytick_2">
     <g id="line2d_9">
      <g>
       <use xlink:href="#m1b6b1c850d" x="58.523438" y="198.588118" style="stroke: #000000; stroke-width: 0.8"/>
      </g>
     </g>
     <g id="text_10">
      <!-- 0.00 -->
      <g transform="translate(29.257813 202.387336) scale(0.1 -0.1)">
       <use xlink:href="#DejaVuSans-30"/>
       <use xlink:href="#DejaVuSans-2e" x="63.623047"/>
       <use xlink:href="#DejaVuSans-30" x="95.410156"/>
       <use xlink:href="#DejaVuSans-30" x="159.033203"/>
      </g>
     </g>
    </g>
    <g id="ytick_3">
     <g id="line2d_10">
      <g>
       <use xlink:href="#m1b6b1c850d" x="58.523438" y="159.275146" style="stroke: #000000; stroke-width: 0.8"/>
      </g>
     </g>
     <g id="text_11">
      <!-- 0.05 -->
      <g transform="translate(29.257813 163.074365) scale(0.1 -0.1)">
       <use xlink:href="#DejaVuSans-30"/>
       <use xlink:href="#DejaVuSans-2e" x="63.623047"/>
       <use xlink:href="#DejaVuSans-30" x="95.410156"/>
       <use xlink:href="#DejaVuSans-35" x="159.033203"/>
      </g>
     </g>
    </g>
    <g id="ytick_4">
     <g id="line2d_11">
      <g>
       <use xlink:href="#m1b6b1c850d" x="58.523438" y="119.962175" style="stroke: #000000; stroke-width: 0.8"/>
      </g>
     </g>
     <g id="text_12">
      <!-- 0.10 -->
      <g transform="translate(29.257813 123.761394) scale(0.1 -0.1)">
       <use xlink:href="#DejaVuSans-30"/>
       <use xlink:href="#DejaVuSans-2e" x="63.623047"/>
       <use xlink:href="#DejaVuSans-31" x="95.410156"/>
       <use xlink:href="#DejaVuSans-30" x="159.033203"/>
      </g>
     </g>
    </g>
    <g id="ytick_5">
     <g id="line2d_12">
      <g>
       <use xlink:href="#m1b6b1c850d" x="58.523438" y="80.649204" style="stroke: #000000; stroke-width: 0.8"/>
      </g>
     </g>
     <g id="text_13">
      <!-- 0.15 -->
      <g transform="translate(29.257813 84.448423) scale(0.1 -0.1)">
       <use xlink:href="#DejaVuSans-30"/>
       <use xlink:href="#DejaVuSans-2e" x="63.623047"/>
       <use xlink:href="#DejaVuSans-31" x="95.410156"/>
       <use xlink:href="#DejaVuSans-35" x="159.033203"/>
      </g>
     </g>
    </g>
    <g id="ytick_6">
     <g id="line2d_13">
      <g>
       <use xlink:href="#m1b6b1c850d" x="58.523438" y="41.336233" style="stroke: #000000; stroke-width: 0.8"/>
      </g>
     </g>
     <g id="text_14">
      <!-- 0.20 -->
      <g transform="translate(29.257813 45.135452) scale(0.1 -0.1)">
       <use xlink:href="#DejaVuSans-30"/>
       <use xlink:href="#DejaVuSans-2e" x="63.623047"/>
       <use xlink:href="#DejaVuSans-32" x="95.410156"/>
       <use xlink:href="#DejaVuSans-30" x="159.033203"/>
      </g>
     </g>
    </g>
    <g id="text_15">
     <!-- Cepstrum Value -->
     <g transform="translate(14.798438 172.921875) rotate(-90) scale(0.1 -0.1)">
      <defs>
       <path id="DejaVuSans-43" d="M 4122 4306 
L 4122 3641 
Q 3803 3938 3442 4084 
Q 3081 4231 2675 4231 
Q 1875 4231 1450 3742 
Q 1025 3253 1025 2328 
Q 1025 1406 1450 917 
Q 1875 428 2675 428 
Q 3081 428 3442 575 
Q 3803 722 4122 1019 
L 4122 359 
Q 3791 134 3420 21 
Q 3050 -91 2638 -91 
Q 1578 -91 968 557 
Q 359 1206 359 2328 
Q 359 3453 968 4101 
Q 1578 4750 2638 4750 
Q 3056 4750 3426 4639 
Q 3797 4528 4122 4306 
z
" transform="scale(0.015625)"/>
       <path id="DejaVuSans-74" d="M 1172 4494 
L 1172 3500 
L 2356 3500 
L 2356 3053 
L 1172 3053 
L 1172 1153 
Q 1172 725 1289 603 
Q 1406 481 1766 481 
L 2356 481 
L 2356 0 
L 1766 0 
Q 1100 0 847 248 
Q 594 497 594 1153 
L 594 3053 
L 172 3053 
L 172 3500 
L 594 3500 
L 594 4494 
L 1172 4494 
z
" transform="scale(0.015625)"/>
       <path id="DejaVuSans-72" d="M 2631 2963 
Q 2534 3019 2420 3045 
Q 2306 3072 2169 3072 
Q 1681 3072 1420 2755 
Q 1159 2438 1159 1844 
L 1159 0 
L 581 0 
L 581 3500 
L 1159 3500 
L 1159 2956 
Q 1341 3275 1631 3429 
Q 1922 3584 2338 3584 
Q 2397 3584 2469 3576 
Q 2541 3569 2628 3553 
L 2631 2963 
z
" transform="scale(0.015625)"/>
       <path id="DejaVuSans-75" d="M 544 1381 
L 544 3500 
L 1119 3500 
L 1119 1403 
Q 1119 906 1312 657 
Q 1506 409 1894 409 
Q 2359 409 2629 706 
Q 2900 1003 2900 1516 
L 2900 3500 
L 3475 3500 
L 3475 0 
L 2900 0 
L 2900 538 
Q 2691 219 2414 64 
Q 2138 -91 1772 -91 
Q 1169 -91 856 284 
Q 544 659 544 1381 
z
M 1991 3584 
L 1991 3584 
z
" transform="scale(0.015625)"/>
       <path id="DejaVuSans-56" d="M 1831 0 
L 50 4666 
L 709 4666 
L 2188 738 
L 3669 4666 
L 4325 4666 
L 2547 0 
L 1831 0 
z
" transform="scale(0.015625)"/>
      </defs>
      <use xlink:href="#DejaVuSans-43"/>
      <use xlink:href="#DejaVuSans-65" x="69.824219"/>
      <use xlink:href="#DejaVuSans-70" x="131.347656"/>
      <use xlink:href="#DejaVuSans-73" x="194.824219"/>
      <use xlink:href="#DejaVuSans-74" x="246.923828"/>
      <use xlink:href="#DejaVuSans-72" x="286.132812"/>
      <use xlink:href="#DejaVuSans-75" x="327.246094"/>
      <use xlink:href="#DejaVuSans-6d" x="390.625"/>
      <use xlink:href="#DejaVuSans-20" x="488.037109"/>
      <use xlink:href="#DejaVuSans-56" x="519.824219"/>
      <use xlink:href="#DejaVuSans-61" x="580.482422"/>
      <use xlink:href="#DejaVuSans-6c" x="641.761719"/>
      <use xlink:href="#DejaVuSans-75" x="669.544922"/>
      <use xlink:href="#DejaVuSans-65" x="732.923828"/>
     </g>
    </g>
   </g>
   <g id="line2d_14">
    <path d="M 78.814347 205.03546 
L 82.060892 208.656906 
L 85.307438 201.925644 
L 88.553983 207.951796 
L 91.800528 207.480944 
L 95.047074 208.989484 
L 98.293619 202.686047 
L 101.540165 196.089985 
L 104.78671 191.524589 
L 108.033256 199.361488 
L 111.279801 198.869429 
L 114.526347 201.128343 
L 117.772892 197.604085 
L 121.019438 205.633918 
L 124.265983 203.687322 
L 127.512528 204.80521 
L 130.759074 198.454451 
L 134.005619 202.426779 
L 137.252165 205.11608 
L 140.49871 204.785537 
L 143.745256 199.683871 
L 146.991801 204.105755 
L 150.238347 193.661662 
L 153.484892 193.115007 
L 156.731438 192.9143 
L 159.977983 196.651617 
L 163.224528 194.77934 
L 166.471074 197.393791 
L 169.717619 192.338317 
L 172.964165 193.505603 
L 176.21071 191.389189 
L 179.457256 190.8816 
L 182.703801 188.821299 
L 185.950347 187.107054 
L 189.196892 190.647178 
L 192.443438 194.158506 
L 195.689983 196.381021 
L 198.936528 195.866414 
L 202.183074 195.730759 
L 205.429619 196.028898 
L 208.676165 196.428202 
L 211.92271 193.889362 
L 215.169256 193.479494 
L 218.415801 195.775955 
L 221.662347 193.764649 
L 224.908892 198.998649 
L 228.155438 195.639005 
L 231.401983 197.965686 
L 234.648528 192.852269 
L 237.895074 193.311022 
L 241.141619 189.834957 
L 244.388165 193.990074 
L 247.63471 193.429993 
L 250.881256 192.289575 
L 254.127801 194.822507 
L 257.374347 191.789566 
L 260.620892 198.771354 
L 263.867437 195.004548 
L 267.113983 198.423474 
L 270.360528 200.87406 
L 273.607074 195.52974 
L 276.853619 200.309146 
L 280.100165 195.06273 
L 283.34671 199.129916 
L 286.593256 195.693775 
L 289.839801 195.573222 
L 293.086347 197.99398 
L 296.332892 197.321398 
L 299.579437 196.838652 
L 302.825983 199.589551 
L 306.072528 199.161368 
L 309.319074 200.074455 
L 312.565619 205.417072 
L 315.812165 203.408991 
L 319.05871 202.998567 
L 322.305256 203.604703 
L 325.551801 202.285716 
L 328.798347 201.609637 
L 332.044892 203.950413 
L 335.291437 199.572064 
L 338.537983 204.60723 
L 341.784528 203.759593 
L 345.031074 200.57614 
L 348.277619 200.090732 
L 351.524165 199.342398 
L 354.77071 197.047405 
L 358.017256 198.087315 
L 361.263801 197.399188 
L 364.510347 199.123814 
L 367.756892 195.703783 
L 371.003437 191.567471 
L 374.249983 198.836225 
L 377.496528 191.397017 
L 380.743074 192.511743 
L 383.989619 199.093636 
L 387.236165 193.860555 
L 390.48271 199.959891 
L 393.729256 197.501805 
L 396.975801 193.019087 
L 400.222347 198.256096 
L 403.468892 189.149575 
L 406.715438 195.035042 
L 409.961983 195.193854 
L 413.208528 194.123939 
L 416.455074 201.767872 
L 419.701619 191.438095 
L 422.948165 199.232278 
L 426.19471 200.094823 
L 429.441256 195.997251 
L 432.687801 200.90239 
L 435.934347 199.128607 
L 439.180892 196.325317 
L 442.427437 202.666015 
L 445.673983 199.713989 
L 448.920528 203.388057 
L 452.167074 199.623806 
L 455.413619 198.947527 
L 458.660165 202.956023 
L 461.90671 197.363088 
L 465.153256 199.464034 
L 468.399801 198.973845 
L 471.646347 198.867666 
L 474.892892 201.026351 
L 478.139437 199.314021 
L 481.385983 195.777583 
L 484.632528 200.154498 
" clip-path="url(#p8de4711035)" style="fill: none; stroke: #1f77b4; stroke-width: 1.5; stroke-linecap: square"/>
   </g>
   <g id="line2d_15">
    <path d="M 78.814347 214.222442 
L 82.060892 209.592152 
L 85.307438 209.474478 
L 88.553983 208.484593 
L 91.800528 204.855744 
L 95.047074 208.872331 
L 98.293619 205.866274 
L 101.540165 196.24341 
L 104.78671 194.651432 
L 108.033256 197.867148 
L 111.279801 205.836225 
L 114.526347 199.891013 
L 117.772892 198.50439 
L 121.019438 202.963791 
L 124.265983 199.850627 
L 127.512528 204.275944 
L 130.759074 198.453261 
L 134.005619 202.355478 
L 137.252165 201.182414 
L 140.49871 201.042067 
L 143.745256 197.639511 
L 146.991801 199.466393 
L 150.238347 193.319866 
L 153.484892 192.497471 
L 156.731438 192.673906 
L 159.977983 32.717348 
L 163.224528 189.764259 
L 166.471074 195.481669 
L 169.717619 198.839876 
L 172.964165 198.024819 
L 176.21071 193.612388 
L 179.457256 195.793876 
L 182.703801 191.8668 
L 185.950347 192.151867 
L 189.196892 195.922272 
L 192.443438 194.693302 
L 195.689983 198.852064 
L 198.936528 198.488609 
L 202.183074 200.449083 
L 205.429619 200.324235 
L 208.676165 198.973519 
L 211.92271 195.739569 
L 215.169256 198.660953 
L 218.415801 196.920898 
L 221.662347 197.887123 
L 224.908892 197.647296 
L 228.155438 198.698854 
L 231.401983 195.132641 
L 234.648528 193.686596 
L 237.895074 194.465085 
L 241.141619 193.081146 
L 244.388165 197.444015 
L 247.63471 195.87274 
L 250.881256 194.466695 
L 254.127801 195.496083 
L 257.374347 195.745352 
L 260.620892 198.276267 
L 263.867437 194.807342 
L 267.113983 197.280021 
L 270.360528 194.725375 
L 273.607074 197.131714 
L 276.853619 195.551612 
L 280.100165 195.349073 
L 283.34671 194.701215 
L 286.593256 198.259773 
L 289.839801 197.557833 
L 293.086347 197.497919 
L 296.332892 199.623414 
L 299.579437 198.747181 
L 302.825983 202.008088 
L 306.072528 203.199658 
L 309.319074 202.054329 
L 312.565619 204.878192 
L 315.812165 201.352699 
L 319.05871 204.438909 
L 322.305256 234 
L 325.551801 201.376828 
L 328.798347 202.095548 
L 332.044892 200.846412 
L 335.291437 201.102871 
L 338.537983 203.797135 
L 341.784528 201.351469 
L 345.031074 203.668222 
L 348.277619 199.718712 
L 351.524165 202.503931 
L 354.77071 195.822445 
L 358.017256 198.482166 
L 361.263801 198.240636 
L 364.510347 197.058913 
L 367.756892 200.276557 
L 371.003437 193.676708 
L 374.249983 199.286309 
L 377.496528 198.135788 
L 380.743074 194.420472 
L 383.989619 200.546085 
L 387.236165 193.684879 
L 390.48271 200.149672 
L 393.729256 199.736689 
L 396.975801 194.755205 
L 400.222347 197.796137 
L 403.468892 191.761314 
L 406.715438 197.123076 
L 409.961983 195.38182 
L 413.208528 193.21201 
L 416.455074 197.226807 
L 419.701619 193.598284 
L 422.948165 194.28185 
L 426.19471 197.836979 
L 429.441256 195.326915 
L 432.687801 201.407874 
L 435.934347 199.105569 
L 439.180892 196.302107 
L 442.427437 201.667826 
L 445.673983 196.340222 
L 448.920528 199.829147 
L 452.167074 199.315655 
L 455.413619 198.730764 
L 458.660165 203.484725 
L 461.90671 199.724433 
L 465.153256 200.544418 
L 468.399801 199.493036 
L 471.646347 200.119104 
L 474.892892 204.56349 
L 478.139437 201.863323 
L 481.385983 200.257826 
L 484.632528 194.915406 
" clip-path="url(#p8de4711035)" style="fill: none; stroke: #ff7f0e; stroke-width: 1.5; stroke-linecap: square"/>
   </g>
   <g id="line2d_16">
    <path d="M 78.814347 204.345917 
L 82.060892 207.997603 
L 85.307438 203.771971 
L 88.553983 205.458264 
L 91.800528 205.174855 
L 95.047074 209.708207 
L 98.293619 200.40266 
L 101.540165 194.705254 
L 104.78671 183.867649 
L 108.033256 194.509385 
L 111.279801 196.49396 
L 114.526347 198.93661 
L 117.772892 195.671211 
L 121.019438 204.115099 
L 124.265983 200.128815 
L 127.512528 200.384582 
L 130.759074 197.457565 
L 134.005619 198.550241 
L 137.252165 202.950373 
L 140.49871 200.496453 
L 143.745256 203.027953 
L 146.991801 201.379717 
L 150.238347 197.371891 
L 153.484892 195.095044 
L 156.731438 190.715889 
L 159.977983 195.664552 
L 163.224528 193.148461 
L 166.471074 199.281177 
L 169.717619 201.31124 
L 172.964165 194.140746 
L 176.21071 196.088305 
L 179.457256 192.01447 
L 182.703801 189.80146 
L 185.950347 188.165906 
L 189.196892 191.055441 
L 192.443438 191.985162 
L 195.689983 194.536704 
L 198.936528 196.777201 
L 202.183074 197.300008 
L 205.429619 198.349645 
L 208.676165 199.827226 
L 211.92271 197.986551 
L 215.169256 200.260889 
L 218.415801 195.694715 
L 221.662347 199.386121 
L 224.908892 199.721454 
L 228.155438 201.372444 
L 231.401983 200.524596 
L 234.648528 195.671774 
L 237.895074 190.954482 
L 241.141619 32.4 
L 244.388165 190.590317 
L 247.63471 197.574431 
L 250.881256 197.798597 
L 254.127801 196.036082 
L 257.374347 194.049937 
L 260.620892 197.693727 
L 263.867437 194.716155 
L 267.113983 199.189889 
L 270.360528 200.275235 
L 273.607074 198.12177 
L 276.853619 198.014323 
L 280.100165 198.857603 
L 283.34671 197.026305 
L 286.593256 200.10939 
L 289.839801 197.54326 
L 293.086347 201.987718 
L 296.332892 199.085473 
L 299.579437 204.972161 
L 302.825983 199.996736 
L 306.072528 204.266019 
L 309.319074 203.287764 
L 312.565619 204.18499 
L 315.812165 203.719819 
L 319.05871 201.968297 
L 322.305256 201.192299 
L 325.551801 202.380944 
L 328.798347 202.179179 
L 332.044892 204.767022 
L 335.291437 200.519127 
L 338.537983 202.752168 
L 341.784528 201.307514 
L 345.031074 205.07198 
L 348.277619 199.214276 
L 351.524165 200.481222 
L 354.77071 197.335995 
L 358.017256 199.126602 
L 361.263801 197.739906 
L 364.510347 198.038054 
L 367.756892 196.696125 
L 371.003437 195.179431 
L 374.249983 195.356743 
L 377.496528 195.32855 
L 380.743074 190.810881 
L 383.989619 200.397678 
L 387.236165 194.151596 
L 390.48271 197.606592 
L 393.729256 200.548671 
L 396.975801 196.924621 
L 400.222347 198.22256 
L 403.468892 196.175655 
L 406.715438 197.279448 
L 409.961983 196.352077 
L 413.208528 195.177634 
L 416.455074 203.858892 
L 419.701619 192.629304 
L 422.948165 200.126149 
L 426.19471 195.876991 
L 429.441256 196.381866 
L 432.687801 198.666875 
L 435.934347 198.751015 
L 439.180892 196.062069 
L 442.427437 202.669858 
L 445.673983 199.771122 
L 448.920528 203.17076 
L 452.167074 202.964839 
L 455.413619 202.79235 
L 458.660165 203.870331 
L 461.90671 198.329736 
L 465.153256 201.364916 
L 468.399801 203.502677 
L 471.646347 198.674829 
L 474.892892 206.677068 
L 478.139437 202.608999 
L 481.385983 199.700418 
L 484.632528 233.628692 
" clip-path="url(#p8de4711035)" style="fill: none; stroke: #2ca02c; stroke-width: 1.5; stroke-linecap: square"/>
   </g>
   <g id="line2d_17">
    <path d="M 78.814347 203.603376 
L 82.060892 196.707738 
L 85.307438 196.965808 
L 88.553983 203.047832 
L 91.800528 204.640052 
L 95.047074 206.720961 
L 98.293619 205.044533 
L 101.540165 193.973388 
L 104.78671 187.717887 
L 108.033256 190.088092 
L 111.279801 196.065692 
L 114.526347 197.774321 
L 117.772892 201.740365 
L 121.019438 202.652443 
L 124.265983 201.232767 
L 127.512528 201.068974 
L 130.759074 199.830938 
L 134.005619 204.029308 
L 137.252165 200.803037 
L 140.49871 204.140517 
L 143.745256 200.199954 
L 146.991801 202.658566 
L 150.238347 199.073123 
L 153.484892 199.202889 
L 156.731438 202.54246 
L 159.977983 200.737574 
L 163.224528 197.711885 
L 166.471074 196.544265 
L 169.717619 196.22031 
L 172.964165 197.114023 
L 176.21071 193.861962 
L 179.457256 197.684114 
L 182.703801 192.353633 
L 185.950347 194.802501 
L 189.196892 197.136978 
L 192.443438 193.820792 
L 195.689983 199.407595 
L 198.936528 197.359123 
L 202.183074 195.727043 
L 205.429619 196.849763 
L 208.676165 193.993604 
L 211.92271 195.897512 
L 215.169256 194.302908 
L 218.415801 195.047535 
L 221.662347 198.420127 
L 224.908892 196.960573 
L 228.155438 197.834716 
L 231.401983 195.685401 
L 234.648528 194.631038 
L 237.895074 197.589784 
L 241.141619 192.529857 
L 244.388165 196.2229 
L 247.63471 195.371589 
L 250.881256 198.169905 
L 254.127801 194.64708 
L 257.374347 197.043989 
L 260.620892 194.795858 
L 263.867437 195.212349 
L 267.113983 195.077858 
L 270.360528 194.314729 
L 273.607074 194.201311 
L 276.853619 196.257818 
L 280.100165 197.836467 
L 283.34671 198.967161 
L 286.593256 196.23009 
L 289.839801 198.274749 
L 293.086347 202.821972 
L 296.332892 200.856858 
L 299.579437 197.132239 
L 302.825983 199.090307 
L 306.072528 202.971153 
L 309.319074 202.777299 
L 312.565619 209.472562 
L 315.812165 204.306694 
L 319.05871 200.025803 
L 322.305256 42.739433 
L 325.551801 195.184866 
L 328.798347 202.714324 
L 332.044892 204.636001 
L 335.291437 202.693526 
L 338.537983 202.966712 
L 341.784528 201.224187 
L 345.031074 202.358667 
L 348.277619 201.350019 
L 351.524165 200.613577 
L 354.77071 202.164509 
L 358.017256 201.575781 
L 361.263801 200.633977 
L 364.510347 200.084402 
L 367.756892 198.702477 
L 371.003437 195.534355 
L 374.249983 197.234105 
L 377.496528 195.691488 
L 380.743074 193.653076 
L 383.989619 198.027133 
L 387.236165 197.854233 
L 390.48271 198.339888 
L 393.729256 199.486863 
L 396.975801 195.572073 
L 400.222347 200.815199 
L 403.468892 195.00691 
L 406.715438 196.986185 
L 409.961983 196.092554 
L 413.208528 194.442541 
L 416.455074 200.05155 
L 419.701619 194.116771 
L 422.948165 198.32773 
L 426.19471 198.117688 
L 429.441256 194.163919 
L 432.687801 201.674453 
L 435.934347 196.413058 
L 439.180892 199.714361 
L 442.427437 202.580124 
L 445.673983 196.858098 
L 448.920528 202.21956 
L 452.167074 200.179146 
L 455.413619 201.483963 
L 458.660165 203.700911 
L 461.90671 199.937186 
L 465.153256 201.297011 
L 468.399801 201.524633 
L 471.646347 197.512046 
L 474.892892 204.02223 
L 478.139437 201.700024 
L 481.385983 198.696739 
L 484.632528 202.817411 
" clip-path="url(#p8de4711035)" style="fill: none; stroke: #d62728; stroke-width: 1.5; stroke-linecap: square"/>
   </g>
   <g id="patch_3">
    <path d="M 58.523438 244.08 
L 58.523438 22.32 
" style="fill: none; stroke: #000000; stroke-width: 0.8; stroke-linejoin: miter; stroke-linecap: square"/>
   </g>
   <g id="patch_4">
    <path d="M 504.923437 244.08 
L 504.923437 22.32 
" style="fill: none; stroke: #000000; stroke-width: 0.8; stroke-linejoin: miter; stroke-linecap: square"/>
   </g>
   <g id="patch_5">
    <path d="M 58.523438 244.08 
L 504.923437 244.08 
" style="fill: none; stroke: #000000; stroke-width: 0.8; stroke-linejoin: miter; stroke-linecap: square"/>
   </g>
   <g id="patch_6">
    <path d="M 58.523438 22.32 
L 504.923437 22.32 
" style="fill: none; stroke: #000000; stroke-width: 0.8; stroke-linejoin: miter; stroke-linecap: square"/>
   </g>
   <g id="text_16">
    <!-- Prince Jazz Cepstra $c$ for VocalSet DDSP Models -->
    <g transform="translate(139.103437 16.32) scale(0.12 -0.12)">
     <defs>
      <path id="DejaVuSans-50" d="M 1259 4147 
L 1259 2394 
L 2053 2394 
Q 2494 2394 2734 2622 
Q 2975 2850 2975 3272 
Q 2975 3691 2734 3919 
Q 2494 4147 2053 4147 
L 1259 4147 
z
M 628 4666 
L 2053 4666 
Q 2838 4666 3239 4311 
Q 3641 3956 3641 3272 
Q 3641 2581 3239 2228 
Q 2838 1875 2053 1875 
L 1259 1875 
L 1259 0 
L 628 0 
L 628 4666 
z
" transform="scale(0.015625)"/>
      <path id="DejaVuSans-69" d="M 603 3500 
L 1178 3500 
L 1178 0 
L 603 0 
L 603 3500 
z
M 603 4863 
L 1178 4863 
L 1178 4134 
L 603 4134 
L 603 4863 
z
" transform="scale(0.015625)"/>
      <path id="DejaVuSans-6e" d="M 3513 2113 
L 3513 0 
L 2938 0 
L 2938 2094 
Q 2938 2591 2744 2837 
Q 2550 3084 2163 3084 
Q 1697 3084 1428 2787 
Q 1159 2491 1159 1978 
L 1159 0 
L 581 0 
L 581 3500 
L 1159 3500 
L 1159 2956 
Q 1366 3272 1645 3428 
Q 1925 3584 2291 3584 
Q 2894 3584 3203 3211 
Q 3513 2838 3513 2113 
z
" transform="scale(0.015625)"/>
      <path id="DejaVuSans-4a" d="M 628 4666 
L 1259 4666 
L 1259 325 
Q 1259 -519 939 -900 
Q 619 -1281 -91 -1281 
L -331 -1281 
L -331 -750 
L -134 -750 
Q 284 -750 456 -515 
Q 628 -281 628 325 
L 628 4666 
z
" transform="scale(0.015625)"/>
      <path id="DejaVuSans-7a" d="M 353 3500 
L 3084 3500 
L 3084 2975 
L 922 459 
L 3084 459 
L 3084 0 
L 275 0 
L 275 525 
L 2438 3041 
L 353 3041 
L 353 3500 
z
" transform="scale(0.015625)"/>
      <path id="DejaVuSans-Oblique-63" d="M 3431 3366 
L 3316 2797 
Q 3109 2947 2876 3022 
Q 2644 3097 2394 3097 
Q 2119 3097 1870 3000 
Q 1622 2903 1453 2725 
Q 1184 2453 1037 2087 
Q 891 1722 891 1331 
Q 891 859 1127 628 
Q 1363 397 1844 397 
Q 2081 397 2348 469 
Q 2616 541 2906 684 
L 2797 116 
Q 2547 13 2283 -39 
Q 2019 -91 1741 -91 
Q 1044 -91 669 257 
Q 294 606 294 1253 
Q 294 1797 489 2255 
Q 684 2713 1069 3078 
Q 1331 3328 1684 3456 
Q 2038 3584 2456 3584 
Q 2700 3584 2940 3529 
Q 3181 3475 3431 3366 
z
" transform="scale(0.015625)"/>
      <path id="DejaVuSans-66" d="M 2375 4863 
L 2375 4384 
L 1825 4384 
Q 1516 4384 1395 4259 
Q 1275 4134 1275 3809 
L 1275 3500 
L 2222 3500 
L 2222 3053 
L 1275 3053 
L 1275 0 
L 697 0 
L 697 3053 
L 147 3053 
L 147 3500 
L 697 3500 
L 697 3744 
Q 697 4328 969 4595 
Q 1241 4863 1831 4863 
L 2375 4863 
z
" transform="scale(0.015625)"/>
      <path id="DejaVuSans-44" d="M 1259 4147 
L 1259 519 
L 2022 519 
Q 2988 519 3436 956 
Q 3884 1394 3884 2338 
Q 3884 3275 3436 3711 
Q 2988 4147 2022 4147 
L 1259 4147 
z
M 628 4666 
L 1925 4666 
Q 3281 4666 3915 4102 
Q 4550 3538 4550 2338 
Q 4550 1131 3912 565 
Q 3275 0 1925 0 
L 628 0 
L 628 4666 
z
" transform="scale(0.015625)"/>
      <path id="DejaVuSans-4d" d="M 628 4666 
L 1569 4666 
L 2759 1491 
L 3956 4666 
L 4897 4666 
L 4897 0 
L 4281 0 
L 4281 4097 
L 3078 897 
L 2444 897 
L 1241 4097 
L 1241 0 
L 628 0 
L 628 4666 
z
" transform="scale(0.015625)"/>
      <path id="DejaVuSans-64" d="M 2906 2969 
L 2906 4863 
L 3481 4863 
L 3481 0 
L 2906 0 
L 2906 525 
Q 2725 213 2448 61 
Q 2172 -91 1784 -91 
Q 1150 -91 751 415 
Q 353 922 353 1747 
Q 353 2572 751 3078 
Q 1150 3584 1784 3584 
Q 2172 3584 2448 3432 
Q 2725 3281 2906 2969 
z
M 947 1747 
Q 947 1113 1208 752 
Q 1469 391 1925 391 
Q 2381 391 2643 752 
Q 2906 1113 2906 1747 
Q 2906 2381 2643 2742 
Q 2381 3103 1925 3103 
Q 1469 3103 1208 2742 
Q 947 2381 947 1747 
z
" transform="scale(0.015625)"/>
     </defs>
     <use xlink:href="#DejaVuSans-50" transform="translate(0 0.015625)"/>
     <use xlink:href="#DejaVuSans-72" transform="translate(60.302734 0.015625)"/>
     <use xlink:href="#DejaVuSans-69" transform="translate(101.416016 0.015625)"/>
     <use xlink:href="#DejaVuSans-6e" transform="translate(129.199219 0.015625)"/>
     <use xlink:href="#DejaVuSans-63" transform="translate(192.578125 0.015625)"/>
     <use xlink:href="#DejaVuSans-65" transform="translate(247.558594 0.015625)"/>
     <use xlink:href="#DejaVuSans-20" transform="translate(309.082031 0.015625)"/>
     <use xlink:href="#DejaVuSans-4a" transform="translate(340.869141 0.015625)"/>
     <use xlink:href="#DejaVuSans-61" transform="translate(370.361328 0.015625)"/>
     <use xlink:href="#DejaVuSans-7a" transform="translate(431.640625 0.015625)"/>
     <use xlink:href="#DejaVuSans-7a" transform="translate(484.130859 0.015625)"/>
     <use xlink:href="#DejaVuSans-20" transform="translate(536.621094 0.015625)"/>
     <use xlink:href="#DejaVuSans-43" transform="translate(568.408203 0.015625)"/>
     <use xlink:href="#DejaVuSans-65" transform="translate(638.232422 0.015625)"/>
     <use xlink:href="#DejaVuSans-70" transform="translate(699.755859 0.015625)"/>
     <use xlink:href="#DejaVuSans-73" transform="translate(763.232422 0.015625)"/>
     <use xlink:href="#DejaVuSans-74" transform="translate(815.332031 0.015625)"/>
     <use xlink:href="#DejaVuSans-72" transform="translate(854.541016 0.015625)"/>
     <use xlink:href="#DejaVuSans-61" transform="translate(895.654297 0.015625)"/>
     <use xlink:href="#DejaVuSans-20" transform="translate(956.933594 0.015625)"/>
     <use xlink:href="#DejaVuSans-Oblique-63" transform="translate(988.720703 0.015625)"/>
     <use xlink:href="#DejaVuSans-20" transform="translate(1043.701172 0.015625)"/>
     <use xlink:href="#DejaVuSans-66" transform="translate(1075.488281 0.015625)"/>
     <use xlink:href="#DejaVuSans-6f" transform="translate(1110.693359 0.015625)"/>
     <use xlink:href="#DejaVuSans-72" transform="translate(1171.875 0.015625)"/>
     <use xlink:href="#DejaVuSans-20" transform="translate(1212.988281 0.015625)"/>
     <use xlink:href="#DejaVuSans-56" transform="translate(1244.775391 0.015625)"/>
     <use xlink:href="#DejaVuSans-6f" transform="translate(1313.183594 0.015625)"/>
     <use xlink:href="#DejaVuSans-63" transform="translate(1374.365234 0.015625)"/>
     <use xlink:href="#DejaVuSans-61" transform="translate(1429.345703 0.015625)"/>
     <use xlink:href="#DejaVuSans-6c" transform="translate(1490.625 0.015625)"/>
     <use xlink:href="#DejaVuSans-53" transform="translate(1518.408203 0.015625)"/>
     <use xlink:href="#DejaVuSans-65" transform="translate(1581.884766 0.015625)"/>
     <use xlink:href="#DejaVuSans-74" transform="translate(1643.408203 0.015625)"/>
     <use xlink:href="#DejaVuSans-20" transform="translate(1682.617188 0.015625)"/>
     <use xlink:href="#DejaVuSans-44" transform="translate(1714.404297 0.015625)"/>
     <use xlink:href="#DejaVuSans-44" transform="translate(1791.40625 0.015625)"/>
     <use xlink:href="#DejaVuSans-53" transform="translate(1868.408203 0.015625)"/>
     <use xlink:href="#DejaVuSans-50" transform="translate(1931.884766 0.015625)"/>
     <use xlink:href="#DejaVuSans-20" transform="translate(1992.1875 0.015625)"/>
     <use xlink:href="#DejaVuSans-4d" transform="translate(2023.974609 0.015625)"/>
     <use xlink:href="#DejaVuSans-6f" transform="translate(2110.253906 0.015625)"/>
     <use xlink:href="#DejaVuSans-64" transform="translate(2171.435547 0.015625)"/>
     <use xlink:href="#DejaVuSans-65" transform="translate(2234.912109 0.015625)"/>
     <use xlink:href="#DejaVuSans-6c" transform="translate(2296.435547 0.015625)"/>
     <use xlink:href="#DejaVuSans-73" transform="translate(2324.21875 0.015625)"/>
    </g>
   </g>
   <g id="legend_1">
    <g id="patch_7">
     <path d="M 373.070312 89.0325 
L 497.923437 89.0325 
Q 499.923437 89.0325 499.923437 87.0325 
L 499.923437 29.32 
Q 499.923437 27.32 497.923437 27.32 
L 373.070312 27.32 
Q 371.070312 27.32 371.070312 29.32 
L 371.070312 87.0325 
Q 371.070312 89.0325 373.070312 89.0325 
z
" style="fill: #ffffff; opacity: 0.8; stroke: #cccccc; stroke-linejoin: miter"/>
    </g>
    <g id="line2d_18">
     <path d="M 375.070312 35.418437 
L 385.070312 35.418437 
L 395.070312 35.418437 
" style="fill: none; stroke: #1f77b4; stroke-width: 1.5; stroke-linecap: square"/>
    </g>
    <g id="text_17">
     <!-- Clean -->
     <g transform="translate(403.070312 38.918437) scale(0.1 -0.1)">
      <use xlink:href="#DejaVuSans-43"/>
      <use xlink:href="#DejaVuSans-6c" x="69.824219"/>
      <use xlink:href="#DejaVuSans-65" x="97.607422"/>
      <use xlink:href="#DejaVuSans-61" x="159.130859"/>
      <use xlink:href="#DejaVuSans-6e" x="220.410156"/>
     </g>
    </g>
    <g id="line2d_19">
     <path d="M 375.070312 50.096562 
L 385.070312 50.096562 
L 395.070312 50.096562 
" style="fill: none; stroke: #ff7f0e; stroke-width: 1.5; stroke-linecap: square"/>
    </g>
    <g id="text_18">
     <!-- 50   (z[50] = 32.2) -->
     <g transform="translate(403.070312 53.596562) scale(0.1 -0.1)">
      <defs>
       <path id="DejaVuSans-5b" d="M 550 4863 
L 1875 4863 
L 1875 4416 
L 1125 4416 
L 1125 -397 
L 1875 -397 
L 1875 -844 
L 550 -844 
L 550 4863 
z
" transform="scale(0.015625)"/>
       <path id="DejaVuSans-5d" d="M 1947 4863 
L 1947 -844 
L 622 -844 
L 622 -397 
L 1369 -397 
L 1369 4416 
L 622 4416 
L 622 4863 
L 1947 4863 
z
" transform="scale(0.015625)"/>
       <path id="DejaVuSans-3d" d="M 678 2906 
L 4684 2906 
L 4684 2381 
L 678 2381 
L 678 2906 
z
M 678 1631 
L 4684 1631 
L 4684 1100 
L 678 1100 
L 678 1631 
z
" transform="scale(0.015625)"/>
       <path id="DejaVuSans-33" d="M 2597 2516 
Q 3050 2419 3304 2112 
Q 3559 1806 3559 1356 
Q 3559 666 3084 287 
Q 2609 -91 1734 -91 
Q 1441 -91 1130 -33 
Q 819 25 488 141 
L 488 750 
Q 750 597 1062 519 
Q 1375 441 1716 441 
Q 2309 441 2620 675 
Q 2931 909 2931 1356 
Q 2931 1769 2642 2001 
Q 2353 2234 1838 2234 
L 1294 2234 
L 1294 2753 
L 1863 2753 
Q 2328 2753 2575 2939 
Q 2822 3125 2822 3475 
Q 2822 3834 2567 4026 
Q 2313 4219 1838 4219 
Q 1578 4219 1281 4162 
Q 984 4106 628 3988 
L 628 4550 
Q 988 4650 1302 4700 
Q 1616 4750 1894 4750 
Q 2613 4750 3031 4423 
Q 3450 4097 3450 3541 
Q 3450 3153 3228 2886 
Q 3006 2619 2597 2516 
z
" transform="scale(0.015625)"/>
      </defs>
      <use xlink:href="#DejaVuSans-35"/>
      <use xlink:href="#DejaVuSans-30" x="63.623047"/>
      <use xlink:href="#DejaVuSans-20" x="127.246094"/>
      <use xlink:href="#DejaVuSans-20" x="159.033203"/>
      <use xlink:href="#DejaVuSans-20" x="190.820312"/>
      <use xlink:href="#DejaVuSans-28" x="222.607422"/>
      <use xlink:href="#DejaVuSans-7a" x="261.621094"/>
      <use xlink:href="#DejaVuSans-5b" x="314.111328"/>
      <use xlink:href="#DejaVuSans-35" x="353.125"/>
      <use xlink:href="#DejaVuSans-30" x="416.748047"/>
      <use xlink:href="#DejaVuSans-5d" x="480.371094"/>
      <use xlink:href="#DejaVuSans-20" x="519.384766"/>
      <use xlink:href="#DejaVuSans-3d" x="551.171875"/>
      <use xlink:href="#DejaVuSans-20" x="634.960938"/>
      <use xlink:href="#DejaVuSans-33" x="666.748047"/>
      <use xlink:href="#DejaVuSans-32" x="730.371094"/>
      <use xlink:href="#DejaVuSans-2e" x="793.994141"/>
      <use xlink:href="#DejaVuSans-32" x="825.78125"/>
      <use xlink:href="#DejaVuSans-29" x="889.404297"/>
     </g>
    </g>
    <g id="line2d_20">
     <path d="M 375.070312 64.774687 
L 385.070312 64.774687 
L 395.070312 64.774687 
" style="fill: none; stroke: #2ca02c; stroke-width: 1.5; stroke-linecap: square"/>
    </g>
    <g id="text_19">
     <!-- 75   (z[75] = 31.9) -->
     <g transform="translate(403.070312 68.274687) scale(0.1 -0.1)">
      <defs>
       <path id="DejaVuSans-37" d="M 525 4666 
L 3525 4666 
L 3525 4397 
L 1831 0 
L 1172 0 
L 2766 4134 
L 525 4134 
L 525 4666 
z
" transform="scale(0.015625)"/>
       <path id="DejaVuSans-39" d="M 703 97 
L 703 672 
Q 941 559 1184 500 
Q 1428 441 1663 441 
Q 2288 441 2617 861 
Q 2947 1281 2994 2138 
Q 2813 1869 2534 1725 
Q 2256 1581 1919 1581 
Q 1219 1581 811 2004 
Q 403 2428 403 3163 
Q 403 3881 828 4315 
Q 1253 4750 1959 4750 
Q 2769 4750 3195 4129 
Q 3622 3509 3622 2328 
Q 3622 1225 3098 567 
Q 2575 -91 1691 -91 
Q 1453 -91 1209 -44 
Q 966 3 703 97 
z
M 1959 2075 
Q 2384 2075 2632 2365 
Q 2881 2656 2881 3163 
Q 2881 3666 2632 3958 
Q 2384 4250 1959 4250 
Q 1534 4250 1286 3958 
Q 1038 3666 1038 3163 
Q 1038 2656 1286 2365 
Q 1534 2075 1959 2075 
z
" transform="scale(0.015625)"/>
      </defs>
      <use xlink:href="#DejaVuSans-37"/>
      <use xlink:href="#DejaVuSans-35" x="63.623047"/>
      <use xlink:href="#DejaVuSans-20" x="127.246094"/>
      <use xlink:href="#DejaVuSans-20" x="159.033203"/>
      <use xlink:href="#DejaVuSans-20" x="190.820312"/>
      <use xlink:href="#DejaVuSans-28" x="222.607422"/>
      <use xlink:href="#DejaVuSans-7a" x="261.621094"/>
      <use xlink:href="#DejaVuSans-5b" x="314.111328"/>
      <use xlink:href="#DejaVuSans-37" x="353.125"/>
      <use xlink:href="#DejaVuSans-35" x="416.748047"/>
      <use xlink:href="#DejaVuSans-5d" x="480.371094"/>
      <use xlink:href="#DejaVuSans-20" x="519.384766"/>
      <use xlink:href="#DejaVuSans-3d" x="551.171875"/>
      <use xlink:href="#DejaVuSans-20" x="634.960938"/>
      <use xlink:href="#DejaVuSans-33" x="666.748047"/>
      <use xlink:href="#DejaVuSans-31" x="730.371094"/>
      <use xlink:href="#DejaVuSans-2e" x="793.994141"/>
      <use xlink:href="#DejaVuSans-39" x="825.78125"/>
      <use xlink:href="#DejaVuSans-29" x="889.404297"/>
     </g>
    </g>
    <g id="line2d_21">
     <path d="M 375.070312 79.452812 
L 385.070312 79.452812 
L 395.070312 79.452812 
" style="fill: none; stroke: #d62728; stroke-width: 1.5; stroke-linecap: square"/>
    </g>
    <g id="text_20">
     <!-- 100 (z[100]=43.4) -->
     <g transform="translate(403.070312 82.952812) scale(0.1 -0.1)">
      <use xlink:href="#DejaVuSans-31"/>
      <use xlink:href="#DejaVuSans-30" x="63.623047"/>
      <use xlink:href="#DejaVuSans-30" x="127.246094"/>
      <use xlink:href="#DejaVuSans-20" x="190.869141"/>
      <use xlink:href="#DejaVuSans-28" x="222.65625"/>
      <use xlink:href="#DejaVuSans-7a" x="261.669922"/>
      <use xlink:href="#DejaVuSans-5b" x="314.160156"/>
      <use xlink:href="#DejaVuSans-31" x="353.173828"/>
      <use xlink:href="#DejaVuSans-30" x="416.796875"/>
      <use xlink:href="#DejaVuSans-30" x="480.419922"/>
      <use xlink:href="#DejaVuSans-5d" x="544.042969"/>
      <use xlink:href="#DejaVuSans-3d" x="583.056641"/>
      <use xlink:href="#DejaVuSans-34" x="666.845703"/>
      <use xlink:href="#DejaVuSans-33" x="730.46875"/>
      <use xlink:href="#DejaVuSans-2e" x="794.091797"/>
      <use xlink:href="#DejaVuSans-34" x="825.878906"/>
      <use xlink:href="#DejaVuSans-29" x="889.501953"/>
     </g>
    </g>
   </g>
  </g>
 </g>
 <defs>
  <clipPath id="p8de4711035">
   <rect x="58.523438" y="22.32" width="446.4" height="221.76"/>
  </clipPath>
 </defs>
</svg>
