<?xml version="1.0" encoding="utf-8" standalone="no"?>
<!DOCTYPE svg PUBLIC "-//W3C//DTD SVG 1.1//EN"
  "http://www.w3.org/Graphics/SVG/1.1/DTD/svg11.dtd">
<svg xmlns:xlink="http://www.w3.org/1999/xlink" width="418.280937pt" height="227.99625pt" viewBox="0 0 418.280937 227.99625" xmlns="http://www.w3.org/2000/svg" version="1.1">
 <metadata>
  <rdf:RDF xmlns:dc="http://purl.org/dc/elements/1.1/" xmlns:cc="http://creativecommons.org/ns#" xmlns:rdf="http://www.w3.org/1999/02/22-rdf-syntax-ns#">
   <cc:Work>
    <dc:type rdf:resource="http://purl.org/dc/dcmitype/StillImage"/>
    <dc:date>2024-12-15T20:00:41.948083</dc:date>
    <dc:format>image/svg+xml</dc:format>
    <dc:creator>
     <cc:Agent>
      <dc:title>Matplotlib v3.9.2, https://matplotlib.org/</dc:title>
     </cc:Agent>
    </dc:creator>
   </cc:Work>
  </rdf:RDF>
 </metadata>
 <defs>
  <style type="text/css">*{stroke-linejoin: round; stroke-linecap: butt}</style>
 </defs>
 <g id="figure_1">
  <g id="patch_1">
   <path d="M 0 227.99625 
L 418.280937 227.99625 
L 418.280937 0 
L 0 0 
z
" style="fill: #ffffff"/>
  </g>
  <g id="axes_1">
   <g id="patch_2">
    <path d="M 52.160938 190.44 
L 386.960938 190.44 
L 386.960938 24.12 
L 52.160938 24.12 
z
" style="fill: #ffffff"/>
   </g>
   <g id="matplotlib.axis_1">
    <g id="xtick_1">
     <g id="line2d_1">
      <defs>
       <path id="me3e9486f57" d="M 0 0 
L 0 3.5 
" style="stroke: #000000; stroke-width: 0.8"/>
      </defs>
      <g>
       <use xlink:href="#me3e9486f57" x="57.867756" y="190.44" style="stroke: #000000; stroke-width: 0.8"/>
      </g>
     </g>
     <g id="text_1">
      <!-- 0 -->
      <g transform="translate(54.686506 205.038438) scale(0.1 -0.1)">
       <defs>
        <path id="DejaVuSans-30" d="M 2034 4250 
Q 1547 4250 1301 3770 
Q 1056 3291 1056 2328 
Q 1056 1369 1301 889 
Q 1547 409 2034 409 
Q 2525 409 2770 889 
Q 3016 1369 3016 2328 
Q 3016 3291 2770 3770 
Q 2525 4250 2034 4250 
z
M 2034 4750 
Q 2819 4750 3233 4129 
Q 3647 3509 3647 2328 
Q 3647 1150 3233 529 
Q 2819 -91 2034 -91 
Q 1250 -91 836 529 
Q 422 1150 422 2328 
Q 422 3509 836 4129 
Q 1250 4750 2034 4750 
z
" transform="scale(0.015625)"/>
       </defs>
       <use xlink:href="#DejaVuSans-30"/>
      </g>
     </g>
    </g>
    <g id="xtick_2">
     <g id="line2d_2">
      <g>
       <use xlink:href="#me3e9486f57" x="121.276847" y="190.44" style="stroke: #000000; stroke-width: 0.8"/>
      </g>
     </g>
     <g id="text_2">
      <!-- 20 -->
      <g transform="translate(114.914347 205.038438) scale(0.1 -0.1)">
       <defs>
        <path id="DejaVuSans-32" d="M 1228 531 
L 3431 531 
L 3431 0 
L 469 0 
L 469 531 
Q 828 903 1448 1529 
Q 2069 2156 2228 2338 
Q 2531 2678 2651 2914 
Q 2772 3150 2772 3378 
Q 2772 3750 2511 3984 
Q 2250 4219 1831 4219 
Q 1534 4219 1204 4116 
Q 875 4013 500 3803 
L 500 4441 
Q 881 4594 1212 4672 
Q 1544 4750 1819 4750 
Q 2544 4750 2975 4387 
Q 3406 4025 3406 3419 
Q 3406 3131 3298 2873 
Q 3191 2616 2906 2266 
Q 2828 2175 2409 1742 
Q 1991 1309 1228 531 
z
" transform="scale(0.015625)"/>
       </defs>
       <use xlink:href="#DejaVuSans-32"/>
       <use xlink:href="#DejaVuSans-30" x="63.623047"/>
      </g>
     </g>
    </g>
    <g id="xtick_3">
     <g id="line2d_3">
      <g>
       <use xlink:href="#me3e9486f57" x="184.685938" y="190.44" style="stroke: #000000; stroke-width: 0.8"/>
      </g>
     </g>
     <g id="text_3">
      <!-- 40 -->
      <g transform="translate(178.323438 205.038438) scale(0.1 -0.1)">
       <defs>
        <path id="DejaVuSans-34" d="M 2419 4116 
L 825 1625 
L 2419 1625 
L 2419 4116 
z
M 2253 4666 
L 3047 4666 
L 3047 1625 
L 3713 1625 
L 3713 1100 
L 3047 1100 
L 3047 0 
L 2419 0 
L 2419 1100 
L 313 1100 
L 313 1709 
L 2253 4666 
z
" transform="scale(0.015625)"/>
       </defs>
       <use xlink:href="#DejaVuSans-34"/>
       <use xlink:href="#DejaVuSans-30" x="63.623047"/>
      </g>
     </g>
    </g>
    <g id="xtick_4">
     <g id="line2d_4">
      <g>
       <use xlink:href="#me3e9486f57" x="248.095028" y="190.44" style="stroke: #000000; stroke-width: 0.8"/>
      </g>
     </g>
     <g id="text_4">
      <!-- 60 -->
      <g transform="translate(241.732528 205.038438) scale(0.1 -0.1)">
       <defs>
        <path id="DejaVuSans-36" d="M 2113 2584 
Q 1688 2584 1439 2293 
Q 1191 2003 1191 1497 
Q 1191 994 1439 701 
Q 1688 409 2113 409 
Q 2538 409 2786 701 
Q 3034 994 3034 1497 
Q 3034 2003 2786 2293 
Q 2538 2584 2113 2584 
z
M 3366 4563 
L 3366 3988 
Q 3128 4100 2886 4159 
Q 2644 4219 2406 4219 
Q 1781 4219 1451 3797 
Q 1122 3375 1075 2522 
Q 1259 2794 1537 2939 
Q 1816 3084 2150 3084 
Q 2853 3084 3261 2657 
Q 3669 2231 3669 1497 
Q 3669 778 3244 343 
Q 2819 -91 2113 -91 
Q 1303 -91 875 529 
Q 447 1150 447 2328 
Q 447 3434 972 4092 
Q 1497 4750 2381 4750 
Q 2619 4750 2861 4703 
Q 3103 4656 3366 4563 
z
" transform="scale(0.015625)"/>
       </defs>
       <use xlink:href="#DejaVuSans-36"/>
       <use xlink:href="#DejaVuSans-30" x="63.623047"/>
      </g>
     </g>
    </g>
    <g id="xtick_5">
     <g id="line2d_5">
      <g>
       <use xlink:href="#me3e9486f57" x="311.504119" y="190.44" style="stroke: #000000; stroke-width: 0.8"/>
      </g>
     </g>
     <g id="text_5">
      <!-- 80 -->
      <g transform="translate(305.141619 205.038438) scale(0.1 -0.1)">
       <defs>
        <path id="DejaVuSans-38" d="M 2034 2216 
Q 1584 2216 1326 1975 
Q 1069 1734 1069 1313 
Q 1069 891 1326 650 
Q 1584 409 2034 409 
Q 2484 409 2743 651 
Q 3003 894 3003 1313 
Q 3003 1734 2745 1975 
Q 2488 2216 2034 2216 
z
M 1403 2484 
Q 997 2584 770 2862 
Q 544 3141 544 3541 
Q 544 4100 942 4425 
Q 1341 4750 2034 4750 
Q 2731 4750 3128 4425 
Q 3525 4100 3525 3541 
Q 3525 3141 3298 2862 
Q 3072 2584 2669 2484 
Q 3125 2378 3379 2068 
Q 3634 1759 3634 1313 
Q 3634 634 3220 271 
Q 2806 -91 2034 -91 
Q 1263 -91 848 271 
Q 434 634 434 1313 
Q 434 1759 690 2068 
Q 947 2378 1403 2484 
z
M 1172 3481 
Q 1172 3119 1398 2916 
Q 1625 2713 2034 2713 
Q 2441 2713 2670 2916 
Q 2900 3119 2900 3481 
Q 2900 3844 2670 4047 
Q 2441 4250 2034 4250 
Q 1625 4250 1398 4047 
Q 1172 3844 1172 3481 
z
" transform="scale(0.015625)"/>
       </defs>
       <use xlink:href="#DejaVuSans-38"/>
       <use xlink:href="#DejaVuSans-30" x="63.623047"/>
      </g>
     </g>
    </g>
    <g id="xtick_6">
     <g id="line2d_6">
      <g>
       <use xlink:href="#me3e9486f57" x="374.91321" y="190.44" style="stroke: #000000; stroke-width: 0.8"/>
      </g>
     </g>
     <g id="text_6">
      <!-- 100 -->
      <g transform="translate(365.36946 205.038438) scale(0.1 -0.1)">
       <defs>
        <path id="DejaVuSans-31" d="M 794 531 
L 1825 531 
L 1825 4091 
L 703 3866 
L 703 4441 
L 1819 4666 
L 2450 4666 
L 2450 531 
L 3481 531 
L 3481 0 
L 794 0 
L 794 531 
z
" transform="scale(0.015625)"/>
       </defs>
       <use xlink:href="#DejaVuSans-31"/>
       <use xlink:href="#DejaVuSans-30" x="63.623047"/>
       <use xlink:href="#DejaVuSans-30" x="127.246094"/>
      </g>
     </g>
    </g>
    <g id="text_7">
     <!-- Offset -->
     <g transform="translate(204.463281 218.716563) scale(0.1 -0.1)">
      <defs>
       <path id="DejaVuSans-4f" d="M 2522 4238 
Q 1834 4238 1429 3725 
Q 1025 3213 1025 2328 
Q 1025 1447 1429 934 
Q 1834 422 2522 422 
Q 3209 422 3611 934 
Q 4013 1447 4013 2328 
Q 4013 3213 3611 3725 
Q 3209 4238 2522 4238 
z
M 2522 4750 
Q 3503 4750 4090 4092 
Q 4678 3434 4678 2328 
Q 4678 1225 4090 567 
Q 3503 -91 2522 -91 
Q 1538 -91 948 565 
Q 359 1222 359 2328 
Q 359 3434 948 4092 
Q 1538 4750 2522 4750 
z
" transform="scale(0.015625)"/>
       <path id="DejaVuSans-66" d="M 2375 4863 
L 2375 4384 
L 1825 4384 
Q 1516 4384 1395 4259 
Q 1275 4134 1275 3809 
L 1275 3500 
L 2222 3500 
L 2222 3053 
L 1275 3053 
L 1275 0 
L 697 0 
L 697 3053 
L 147 3053 
L 147 3500 
L 697 3500 
L 697 3744 
Q 697 4328 969 4595 
Q 1241 4863 1831 4863 
L 2375 4863 
z
" transform="scale(0.015625)"/>
       <path id="DejaVuSans-73" d="M 2834 3397 
L 2834 2853 
Q 2591 2978 2328 3040 
Q 2066 3103 1784 3103 
Q 1356 3103 1142 2972 
Q 928 2841 928 2578 
Q 928 2378 1081 2264 
Q 1234 2150 1697 2047 
L 1894 2003 
Q 2506 1872 2764 1633 
Q 3022 1394 3022 966 
Q 3022 478 2636 193 
Q 2250 -91 1575 -91 
Q 1294 -91 989 -36 
Q 684 19 347 128 
L 347 722 
Q 666 556 975 473 
Q 1284 391 1588 391 
Q 1994 391 2212 530 
Q 2431 669 2431 922 
Q 2431 1156 2273 1281 
Q 2116 1406 1581 1522 
L 1381 1569 
Q 847 1681 609 1914 
Q 372 2147 372 2553 
Q 372 3047 722 3315 
Q 1072 3584 1716 3584 
Q 2034 3584 2315 3537 
Q 2597 3491 2834 3397 
z
" transform="scale(0.015625)"/>
       <path id="DejaVuSans-65" d="M 3597 1894 
L 3597 1613 
L 953 1613 
Q 991 1019 1311 708 
Q 1631 397 2203 397 
Q 2534 397 2845 478 
Q 3156 559 3463 722 
L 3463 178 
Q 3153 47 2828 -22 
Q 2503 -91 2169 -91 
Q 1331 -91 842 396 
Q 353 884 353 1716 
Q 353 2575 817 3079 
Q 1281 3584 2069 3584 
Q 2775 3584 3186 3129 
Q 3597 2675 3597 1894 
z
M 3022 2063 
Q 3016 2534 2758 2815 
Q 2500 3097 2075 3097 
Q 1594 3097 1305 2825 
Q 1016 2553 972 2059 
L 3022 2063 
z
" transform="scale(0.015625)"/>
       <path id="DejaVuSans-74" d="M 1172 4494 
L 1172 3500 
L 2356 3500 
L 2356 3053 
L 1172 3053 
L 1172 1153 
Q 1172 725 1289 603 
Q 1406 481 1766 481 
L 2356 481 
L 2356 0 
L 1766 0 
Q 1100 0 847 248 
Q 594 497 594 1153 
L 594 3053 
L 172 3053 
L 172 3500 
L 594 3500 
L 594 4494 
L 1172 4494 
z
" transform="scale(0.015625)"/>
      </defs>
      <use xlink:href="#DejaVuSans-4f"/>
      <use xlink:href="#DejaVuSans-66" x="78.710938"/>
      <use xlink:href="#DejaVuSans-66" x="113.916016"/>
      <use xlink:href="#DejaVuSans-73" x="149.121094"/>
      <use xlink:href="#DejaVuSans-65" x="201.220703"/>
      <use xlink:href="#DejaVuSans-74" x="262.744141"/>
     </g>
    </g>
   </g>
   <g id="matplotlib.axis_2">
    <g id="ytick_1">
     <g id="line2d_7">
      <defs>
       <path id="m5b6cfc33f6" d="M 0 0 
L -3.5 0 
" style="stroke: #000000; stroke-width: 0.8"/>
      </defs>
      <g>
       <use xlink:href="#m5b6cfc33f6" x="52.160938" y="174.606569" style="stroke: #000000; stroke-width: 0.8"/>
      </g>
     </g>
     <g id="text_8">
      <!-- −0.5 -->
      <g transform="translate(20.878125 178.405788) scale(0.1 -0.1)">
       <defs>
        <path id="DejaVuSans-2212" d="M 678 2272 
L 4684 2272 
L 4684 1741 
L 678 1741 
L 678 2272 
z
" transform="scale(0.015625)"/>
        <path id="DejaVuSans-2e" d="M 684 794 
L 1344 794 
L 1344 0 
L 684 0 
L 684 794 
z
" transform="scale(0.015625)"/>
        <path id="DejaVuSans-35" d="M 691 4666 
L 3169 4666 
L 3169 4134 
L 1269 4134 
L 1269 2991 
Q 1406 3038 1543 3061 
Q 1681 3084 1819 3084 
Q 2600 3084 3056 2656 
Q 3513 2228 3513 1497 
Q 3513 744 3044 326 
Q 2575 -91 1722 -91 
Q 1428 -91 1123 -41 
Q 819 9 494 109 
L 494 744 
Q 775 591 1075 516 
Q 1375 441 1709 441 
Q 2250 441 2565 725 
Q 2881 1009 2881 1497 
Q 2881 1984 2565 2268 
Q 2250 2553 1709 2553 
Q 1456 2553 1204 2497 
Q 953 2441 691 2322 
L 691 4666 
z
" transform="scale(0.015625)"/>
       </defs>
       <use xlink:href="#DejaVuSans-2212"/>
       <use xlink:href="#DejaVuSans-30" x="83.789062"/>
       <use xlink:href="#DejaVuSans-2e" x="147.412109"/>
       <use xlink:href="#DejaVuSans-35" x="179.199219"/>
      </g>
     </g>
    </g>
    <g id="ytick_2">
     <g id="line2d_8">
      <g>
       <use xlink:href="#m5b6cfc33f6" x="52.160938" y="148.796019" style="stroke: #000000; stroke-width: 0.8"/>
      </g>
     </g>
     <g id="text_9">
      <!-- 0.0 -->
      <g transform="translate(29.257812 152.595238) scale(0.1 -0.1)">
       <use xlink:href="#DejaVuSans-30"/>
       <use xlink:href="#DejaVuSans-2e" x="63.623047"/>
       <use xlink:href="#DejaVuSans-30" x="95.410156"/>
      </g>
     </g>
    </g>
    <g id="ytick_3">
     <g id="line2d_9">
      <g>
       <use xlink:href="#m5b6cfc33f6" x="52.160938" y="122.985469" style="stroke: #000000; stroke-width: 0.8"/>
      </g>
     </g>
     <g id="text_10">
      <!-- 0.5 -->
      <g transform="translate(29.257812 126.784688) scale(0.1 -0.1)">
       <use xlink:href="#DejaVuSans-30"/>
       <use xlink:href="#DejaVuSans-2e" x="63.623047"/>
       <use xlink:href="#DejaVuSans-35" x="95.410156"/>
      </g>
     </g>
    </g>
    <g id="ytick_4">
     <g id="line2d_10">
      <g>
       <use xlink:href="#m5b6cfc33f6" x="52.160938" y="97.17492" style="stroke: #000000; stroke-width: 0.8"/>
      </g>
     </g>
     <g id="text_11">
      <!-- 1.0 -->
      <g transform="translate(29.257812 100.974139) scale(0.1 -0.1)">
       <use xlink:href="#DejaVuSans-31"/>
       <use xlink:href="#DejaVuSans-2e" x="63.623047"/>
       <use xlink:href="#DejaVuSans-30" x="95.410156"/>
      </g>
     </g>
    </g>
    <g id="ytick_5">
     <g id="line2d_11">
      <g>
       <use xlink:href="#m5b6cfc33f6" x="52.160938" y="71.36437" style="stroke: #000000; stroke-width: 0.8"/>
      </g>
     </g>
     <g id="text_12">
      <!-- 1.5 -->
      <g transform="translate(29.257812 75.163589) scale(0.1 -0.1)">
       <use xlink:href="#DejaVuSans-31"/>
       <use xlink:href="#DejaVuSans-2e" x="63.623047"/>
       <use xlink:href="#DejaVuSans-35" x="95.410156"/>
      </g>
     </g>
    </g>
    <g id="ytick_6">
     <g id="line2d_12">
      <g>
       <use xlink:href="#m5b6cfc33f6" x="52.160938" y="45.55382" style="stroke: #000000; stroke-width: 0.8"/>
      </g>
     </g>
     <g id="text_13">
      <!-- 2.0 -->
      <g transform="translate(29.257812 49.353039) scale(0.1 -0.1)">
       <use xlink:href="#DejaVuSans-32"/>
       <use xlink:href="#DejaVuSans-2e" x="63.623047"/>
       <use xlink:href="#DejaVuSans-30" x="95.410156"/>
      </g>
     </g>
    </g>
    <g id="text_14">
     <!-- Cross-Correlation -->
     <g transform="translate(14.798437 150.355781) rotate(-90) scale(0.1 -0.1)">
      <defs>
       <path id="DejaVuSans-43" d="M 4122 4306 
L 4122 3641 
Q 3803 3938 3442 4084 
Q 3081 4231 2675 4231 
Q 1875 4231 1450 3742 
Q 1025 3253 1025 2328 
Q 1025 1406 1450 917 
Q 1875 428 2675 428 
Q 3081 428 3442 575 
Q 3803 722 4122 1019 
L 4122 359 
Q 3791 134 3420 21 
Q 3050 -91 2638 -91 
Q 1578 -91 968 557 
Q 359 1206 359 2328 
Q 359 3453 968 4101 
Q 1578 4750 2638 4750 
Q 3056 4750 3426 4639 
Q 3797 4528 4122 4306 
z
" transform="scale(0.015625)"/>
       <path id="DejaVuSans-72" d="M 2631 2963 
Q 2534 3019 2420 3045 
Q 2306 3072 2169 3072 
Q 1681 3072 1420 2755 
Q 1159 2438 1159 1844 
L 1159 0 
L 581 0 
L 581 3500 
L 1159 3500 
L 1159 2956 
Q 1341 3275 1631 3429 
Q 1922 3584 2338 3584 
Q 2397 3584 2469 3576 
Q 2541 3569 2628 3553 
L 2631 2963 
z
" transform="scale(0.015625)"/>
       <path id="DejaVuSans-6f" d="M 1959 3097 
Q 1497 3097 1228 2736 
Q 959 2375 959 1747 
Q 959 1119 1226 758 
Q 1494 397 1959 397 
Q 2419 397 2687 759 
Q 2956 1122 2956 1747 
Q 2956 2369 2687 2733 
Q 2419 3097 1959 3097 
z
M 1959 3584 
Q 2709 3584 3137 3096 
Q 3566 2609 3566 1747 
Q 3566 888 3137 398 
Q 2709 -91 1959 -91 
Q 1206 -91 779 398 
Q 353 888 353 1747 
Q 353 2609 779 3096 
Q 1206 3584 1959 3584 
z
" transform="scale(0.015625)"/>
       <path id="DejaVuSans-2d" d="M 313 2009 
L 1997 2009 
L 1997 1497 
L 313 1497 
L 313 2009 
z
" transform="scale(0.015625)"/>
       <path id="DejaVuSans-6c" d="M 603 4863 
L 1178 4863 
L 1178 0 
L 603 0 
L 603 4863 
z
" transform="scale(0.015625)"/>
       <path id="DejaVuSans-61" d="M 2194 1759 
Q 1497 1759 1228 1600 
Q 959 1441 959 1056 
Q 959 750 1161 570 
Q 1363 391 1709 391 
Q 2188 391 2477 730 
Q 2766 1069 2766 1631 
L 2766 1759 
L 2194 1759 
z
M 3341 1997 
L 3341 0 
L 2766 0 
L 2766 531 
Q 2569 213 2275 61 
Q 1981 -91 1556 -91 
Q 1019 -91 701 211 
Q 384 513 384 1019 
Q 384 1609 779 1909 
Q 1175 2209 1959 2209 
L 2766 2209 
L 2766 2266 
Q 2766 2663 2505 2880 
Q 2244 3097 1772 3097 
Q 1472 3097 1187 3025 
Q 903 2953 641 2809 
L 641 3341 
Q 956 3463 1253 3523 
Q 1550 3584 1831 3584 
Q 2591 3584 2966 3190 
Q 3341 2797 3341 1997 
z
" transform="scale(0.015625)"/>
       <path id="DejaVuSans-69" d="M 603 3500 
L 1178 3500 
L 1178 0 
L 603 0 
L 603 3500 
z
M 603 4863 
L 1178 4863 
L 1178 4134 
L 603 4134 
L 603 4863 
z
" transform="scale(0.015625)"/>
       <path id="DejaVuSans-6e" d="M 3513 2113 
L 3513 0 
L 2938 0 
L 2938 2094 
Q 2938 2591 2744 2837 
Q 2550 3084 2163 3084 
Q 1697 3084 1428 2787 
Q 1159 2491 1159 1978 
L 1159 0 
L 581 0 
L 581 3500 
L 1159 3500 
L 1159 2956 
Q 1366 3272 1645 3428 
Q 1925 3584 2291 3584 
Q 2894 3584 3203 3211 
Q 3513 2838 3513 2113 
z
" transform="scale(0.015625)"/>
      </defs>
      <use xlink:href="#DejaVuSans-43"/>
      <use xlink:href="#DejaVuSans-72" x="69.824219"/>
      <use xlink:href="#DejaVuSans-6f" x="108.6875"/>
      <use xlink:href="#DejaVuSans-73" x="169.869141"/>
      <use xlink:href="#DejaVuSans-73" x="221.96875"/>
      <use xlink:href="#DejaVuSans-2d" x="274.068359"/>
      <use xlink:href="#DejaVuSans-43" x="310.152344"/>
      <use xlink:href="#DejaVuSans-6f" x="379.976562"/>
      <use xlink:href="#DejaVuSans-72" x="441.158203"/>
      <use xlink:href="#DejaVuSans-72" x="480.521484"/>
      <use xlink:href="#DejaVuSans-65" x="519.384766"/>
      <use xlink:href="#DejaVuSans-6c" x="580.908203"/>
      <use xlink:href="#DejaVuSans-61" x="608.691406"/>
      <use xlink:href="#DejaVuSans-74" x="669.970703"/>
      <use xlink:href="#DejaVuSans-69" x="709.179688"/>
      <use xlink:href="#DejaVuSans-6f" x="736.962891"/>
      <use xlink:href="#DejaVuSans-6e" x="798.144531"/>
     </g>
    </g>
   </g>
   <g id="line2d_13">
    <path d="M 67.379119 145.302997 
L 70.549574 151.463738 
L 73.720028 157.628519 
L 76.890483 137.951144 
L 80.060938 156.10685 
L 83.231392 147.041929 
L 86.401847 155.13002 
L 89.572301 145.845108 
L 92.742756 134.744119 
L 95.91321 149.357909 
L 99.083665 147.379029 
L 102.254119 152.921622 
L 105.424574 146.994815 
L 108.595028 130.881493 
L 111.765483 144.259928 
L 114.935938 159.480983 
L 118.106392 138.928867 
L 121.276847 163.550041 
L 124.447301 139.878826 
L 127.617756 155.08177 
L 130.78821 136.08602 
L 133.958665 146.324566 
L 137.129119 141.253407 
L 140.299574 138.340345 
L 143.470028 147.385418 
L 146.640483 128.178435 
L 149.810938 156.190488 
L 152.981392 130.771407 
L 156.151847 156.456758 
L 159.322301 140.885064 
L 162.492756 151.586908 
L 165.66321 150.314963 
L 168.833665 151.049039 
L 172.004119 159.870754 
L 175.174574 138.014251 
L 178.345028 145.323601 
L 181.515483 136.898901 
L 184.685938 148.758269 
L 187.856392 145.253759 
L 191.026847 146.835075 
L 194.197301 136.629662 
L 197.367756 153.624935 
L 200.53821 134.118921 
L 203.708665 154.463319 
L 206.879119 146.58469 
L 210.049574 137.818883 
L 213.220028 155.599564 
L 216.390483 142.535422 
L 219.560938 149.957837 
L 222.731392 148.707958 
L 225.901847 141.625514 
L 229.072301 152.250446 
L 232.242756 145.017066 
L 235.41321 150.101954 
L 238.583665 152.455799 
L 241.754119 146.135869 
L 244.924574 145.682958 
L 248.095028 144.946966 
L 251.265483 149.986147 
L 254.435938 139.763323 
L 257.606392 148.254136 
L 260.776847 142.993259 
L 263.947301 149.882869 
L 267.117756 146.386311 
L 270.28821 144.284731 
L 273.458665 157.632335 
L 276.629119 147.92053 
L 279.799574 144.943826 
L 282.970028 143.574485 
L 286.140483 151.149965 
L 289.310938 140.600929 
L 292.481392 150.761845 
L 295.651847 137.636337 
L 298.822301 152.082443 
L 301.992756 143.448261 
L 305.16321 152.767411 
L 308.333665 136.188285 
L 311.504119 150.767323 
L 314.674574 147.091583 
L 317.845028 150.218379 
L 321.015483 152.941832 
L 324.185938 135.701946 
L 327.356392 148.843115 
L 330.526847 144.151964 
L 333.697301 157.276653 
L 336.867756 137.003812 
L 340.03821 143.644974 
L 343.208665 144.767923 
L 346.379119 152.416664 
L 349.549574 137.410551 
L 352.720028 148.515364 
L 355.890483 144.620574 
L 359.060938 156.372447 
L 362.231392 141.866641 
L 365.401847 157.726269 
L 368.572301 147.839524 
L 371.742756 147.403089 
" clip-path="url(#pf1519fda4c)" style="fill: none; stroke: #1f77b4; stroke-width: 1.5; stroke-linecap: square"/>
   </g>
   <g id="line2d_14">
    <path d="M 67.379119 139.605573 
L 70.549574 156.14644 
L 73.720028 140.012102 
L 76.890483 152.085493 
L 80.060938 148.219735 
L 83.231392 130.120047 
L 86.401847 173.667338 
L 89.572301 134.048486 
L 92.742756 136.825795 
L 95.91321 162.157231 
L 99.083665 151.074476 
L 102.254119 154.243378 
L 105.424574 165.44649 
L 108.595028 151.913523 
L 111.765483 144.871054 
L 114.935938 126.950988 
L 118.106392 149.209075 
L 121.276847 160.933419 
L 124.447301 125.295157 
L 127.617756 168.829254 
L 130.78821 130.263267 
L 133.958665 135.455574 
L 137.129119 164.138785 
L 140.299574 122.162791 
L 143.470028 163.268312 
L 146.640483 121.393648 
L 149.810938 163.822642 
L 152.981392 120.587343 
L 156.151847 158.540651 
L 159.322301 164.192676 
L 162.492756 157.07425 
L 165.66321 147.853834 
L 168.833665 151.65225 
L 172.004119 157.54888 
L 175.174574 129.435388 
L 178.345028 162.661543 
L 181.515483 119.228113 
L 184.685938 156.752703 
L 187.856392 146.413622 
L 191.026847 148.46169 
L 194.197301 151.319098 
L 197.367756 112.640102 
L 200.53821 164.922758 
L 203.708665 125.51915 
L 206.879119 155.847518 
L 210.049574 141.389213 
L 213.220028 149.835517 
L 216.390483 134.019906 
L 219.560938 158.438997 
L 222.731392 137.78883 
L 225.901847 140.503503 
L 229.072301 146.632048 
L 232.242756 135.017513 
L 235.41321 117.355534 
L 238.583665 171.152903 
L 241.754119 148.999646 
L 244.924574 140.009467 
L 248.095028 161.773844 
L 251.265483 173.823071 
L 254.435938 140.738171 
L 257.606392 146.243141 
L 260.776847 153.85828 
L 263.947301 146.018342 
L 267.117756 140.923084 
L 270.28821 153.211797 
L 273.458665 154.74387 
L 276.629119 155.561038 
L 279.799574 149.84945 
L 282.970028 123.344021 
L 286.140483 152.479376 
L 289.310938 148.744885 
L 292.481392 124.757827 
L 295.651847 31.68 
L 298.822301 97.803016 
L 301.992756 182.88 
L 305.16321 102.747509 
L 308.333665 159.108918 
L 311.504119 160.015313 
L 314.674574 132.58907 
L 317.845028 150.909901 
L 321.015483 153.337308 
L 324.185938 155.075014 
L 327.356392 157.635697 
L 330.526847 128.939109 
L 333.697301 167.598709 
L 336.867756 147.938537 
L 340.03821 155.495147 
L 343.208665 149.254868 
L 346.379119 135.627317 
L 349.549574 149.50649 
L 352.720028 157.916216 
L 355.890483 142.707489 
L 359.060938 150.104249 
L 362.231392 153.409319 
L 365.401847 138.378862 
L 368.572301 146.645913 
L 371.742756 143.741597 
" clip-path="url(#pf1519fda4c)" style="fill: none; stroke: #ff7f0e; stroke-width: 1.5; stroke-linecap: square"/>
   </g>
   <g id="line2d_15">
    <path d="M 295.651847 190.44 
L 295.651847 24.12 
" clip-path="url(#pf1519fda4c)" style="fill: none; stroke-dasharray: 3.7,1.6; stroke-dashoffset: 0; stroke: #000000"/>
   </g>
   <g id="patch_3">
    <path d="M 52.160938 190.44 
L 52.160938 24.12 
" style="fill: none; stroke: #000000; stroke-width: 0.8; stroke-linejoin: miter; stroke-linecap: square"/>
   </g>
   <g id="patch_4">
    <path d="M 386.960938 190.44 
L 386.960938 24.12 
" style="fill: none; stroke: #000000; stroke-width: 0.8; stroke-linejoin: miter; stroke-linecap: square"/>
   </g>
   <g id="patch_5">
    <path d="M 52.160938 190.44 
L 386.960938 190.44 
" style="fill: none; stroke: #000000; stroke-width: 0.8; stroke-linejoin: miter; stroke-linecap: square"/>
   </g>
   <g id="patch_6">
    <path d="M 52.160938 24.12 
L 386.960938 24.12 
" style="fill: none; stroke: #000000; stroke-width: 0.8; stroke-linejoin: miter; stroke-linecap: square"/>
   </g>
   <g id="text_15">
    <!-- Prince Jazz Cepstra Cross-Correlation $c^*$ for Guitar Rave Models -->
    <g transform="translate(28.040938 18.12) scale(0.12 -0.12)">
     <defs>
      <path id="DejaVuSans-50" d="M 1259 4147 
L 1259 2394 
L 2053 2394 
Q 2494 2394 2734 2622 
Q 2975 2850 2975 3272 
Q 2975 3691 2734 3919 
Q 2494 4147 2053 4147 
L 1259 4147 
z
M 628 4666 
L 2053 4666 
Q 2838 4666 3239 4311 
Q 3641 3956 3641 3272 
Q 3641 2581 3239 2228 
Q 2838 1875 2053 1875 
L 1259 1875 
L 1259 0 
L 628 0 
L 628 4666 
z
" transform="scale(0.015625)"/>
      <path id="DejaVuSans-63" d="M 3122 3366 
L 3122 2828 
Q 2878 2963 2633 3030 
Q 2388 3097 2138 3097 
Q 1578 3097 1268 2742 
Q 959 2388 959 1747 
Q 959 1106 1268 751 
Q 1578 397 2138 397 
Q 2388 397 2633 464 
Q 2878 531 3122 666 
L 3122 134 
Q 2881 22 2623 -34 
Q 2366 -91 2075 -91 
Q 1284 -91 818 406 
Q 353 903 353 1747 
Q 353 2603 823 3093 
Q 1294 3584 2113 3584 
Q 2378 3584 2631 3529 
Q 2884 3475 3122 3366 
z
" transform="scale(0.015625)"/>
      <path id="DejaVuSans-20" transform="scale(0.015625)"/>
      <path id="DejaVuSans-4a" d="M 628 4666 
L 1259 4666 
L 1259 325 
Q 1259 -519 939 -900 
Q 619 -1281 -91 -1281 
L -331 -1281 
L -331 -750 
L -134 -750 
Q 284 -750 456 -515 
Q 628 -281 628 325 
L 628 4666 
z
" transform="scale(0.015625)"/>
      <path id="DejaVuSans-7a" d="M 353 3500 
L 3084 3500 
L 3084 2975 
L 922 459 
L 3084 459 
L 3084 0 
L 275 0 
L 275 525 
L 2438 3041 
L 353 3041 
L 353 3500 
z
" transform="scale(0.015625)"/>
      <path id="DejaVuSans-70" d="M 1159 525 
L 1159 -1331 
L 581 -1331 
L 581 3500 
L 1159 3500 
L 1159 2969 
Q 1341 3281 1617 3432 
Q 1894 3584 2278 3584 
Q 2916 3584 3314 3078 
Q 3713 2572 3713 1747 
Q 3713 922 3314 415 
Q 2916 -91 2278 -91 
Q 1894 -91 1617 61 
Q 1341 213 1159 525 
z
M 3116 1747 
Q 3116 2381 2855 2742 
Q 2594 3103 2138 3103 
Q 1681 3103 1420 2742 
Q 1159 2381 1159 1747 
Q 1159 1113 1420 752 
Q 1681 391 2138 391 
Q 2594 391 2855 752 
Q 3116 1113 3116 1747 
z
" transform="scale(0.015625)"/>
      <path id="DejaVuSans-Oblique-63" d="M 3431 3366 
L 3316 2797 
Q 3109 2947 2876 3022 
Q 2644 3097 2394 3097 
Q 2119 3097 1870 3000 
Q 1622 2903 1453 2725 
Q 1184 2453 1037 2087 
Q 891 1722 891 1331 
Q 891 859 1127 628 
Q 1363 397 1844 397 
Q 2081 397 2348 469 
Q 2616 541 2906 684 
L 2797 116 
Q 2547 13 2283 -39 
Q 2019 -91 1741 -91 
Q 1044 -91 669 257 
Q 294 606 294 1253 
Q 294 1797 489 2255 
Q 684 2713 1069 3078 
Q 1331 3328 1684 3456 
Q 2038 3584 2456 3584 
Q 2700 3584 2940 3529 
Q 3181 3475 3431 3366 
z
" transform="scale(0.015625)"/>
      <path id="DejaVuSans-2a" d="M 3009 3897 
L 1888 3291 
L 3009 2681 
L 2828 2375 
L 1778 3009 
L 1778 1831 
L 1422 1831 
L 1422 3009 
L 372 2375 
L 191 2681 
L 1313 3291 
L 191 3897 
L 372 4206 
L 1422 3572 
L 1422 4750 
L 1778 4750 
L 1778 3572 
L 2828 4206 
L 3009 3897 
z
" transform="scale(0.015625)"/>
      <path id="DejaVuSans-47" d="M 3809 666 
L 3809 1919 
L 2778 1919 
L 2778 2438 
L 4434 2438 
L 4434 434 
Q 4069 175 3628 42 
Q 3188 -91 2688 -91 
Q 1594 -91 976 548 
Q 359 1188 359 2328 
Q 359 3472 976 4111 
Q 1594 4750 2688 4750 
Q 3144 4750 3555 4637 
Q 3966 4525 4313 4306 
L 4313 3634 
Q 3963 3931 3569 4081 
Q 3175 4231 2741 4231 
Q 1884 4231 1454 3753 
Q 1025 3275 1025 2328 
Q 1025 1384 1454 906 
Q 1884 428 2741 428 
Q 3075 428 3337 486 
Q 3600 544 3809 666 
z
" transform="scale(0.015625)"/>
      <path id="DejaVuSans-75" d="M 544 1381 
L 544 3500 
L 1119 3500 
L 1119 1403 
Q 1119 906 1312 657 
Q 1506 409 1894 409 
Q 2359 409 2629 706 
Q 2900 1003 2900 1516 
L 2900 3500 
L 3475 3500 
L 3475 0 
L 2900 0 
L 2900 538 
Q 2691 219 2414 64 
Q 2138 -91 1772 -91 
Q 1169 -91 856 284 
Q 544 659 544 1381 
z
M 1991 3584 
L 1991 3584 
z
" transform="scale(0.015625)"/>
      <path id="DejaVuSans-52" d="M 2841 2188 
Q 3044 2119 3236 1894 
Q 3428 1669 3622 1275 
L 4263 0 
L 3584 0 
L 2988 1197 
Q 2756 1666 2539 1819 
Q 2322 1972 1947 1972 
L 1259 1972 
L 1259 0 
L 628 0 
L 628 4666 
L 2053 4666 
Q 2853 4666 3247 4331 
Q 3641 3997 3641 3322 
Q 3641 2881 3436 2590 
Q 3231 2300 2841 2188 
z
M 1259 4147 
L 1259 2491 
L 2053 2491 
Q 2509 2491 2742 2702 
Q 2975 2913 2975 3322 
Q 2975 3731 2742 3939 
Q 2509 4147 2053 4147 
L 1259 4147 
z
" transform="scale(0.015625)"/>
      <path id="DejaVuSans-76" d="M 191 3500 
L 800 3500 
L 1894 563 
L 2988 3500 
L 3597 3500 
L 2284 0 
L 1503 0 
L 191 3500 
z
" transform="scale(0.015625)"/>
      <path id="DejaVuSans-4d" d="M 628 4666 
L 1569 4666 
L 2759 1491 
L 3956 4666 
L 4897 4666 
L 4897 0 
L 4281 0 
L 4281 4097 
L 3078 897 
L 2444 897 
L 1241 4097 
L 1241 0 
L 628 0 
L 628 4666 
z
" transform="scale(0.015625)"/>
      <path id="DejaVuSans-64" d="M 2906 2969 
L 2906 4863 
L 3481 4863 
L 3481 0 
L 2906 0 
L 2906 525 
Q 2725 213 2448 61 
Q 2172 -91 1784 -91 
Q 1150 -91 751 415 
Q 353 922 353 1747 
Q 353 2572 751 3078 
Q 1150 3584 1784 3584 
Q 2172 3584 2448 3432 
Q 2725 3281 2906 2969 
z
M 947 1747 
Q 947 1113 1208 752 
Q 1469 391 1925 391 
Q 2381 391 2643 752 
Q 2906 1113 2906 1747 
Q 2906 2381 2643 2742 
Q 2381 3103 1925 3103 
Q 1469 3103 1208 2742 
Q 947 2381 947 1747 
z
" transform="scale(0.015625)"/>
     </defs>
     <use xlink:href="#DejaVuSans-50" transform="translate(0 0.765625)"/>
     <use xlink:href="#DejaVuSans-72" transform="translate(60.302734 0.765625)"/>
     <use xlink:href="#DejaVuSans-69" transform="translate(101.416016 0.765625)"/>
     <use xlink:href="#DejaVuSans-6e" transform="translate(129.199219 0.765625)"/>
     <use xlink:href="#DejaVuSans-63" transform="translate(192.578125 0.765625)"/>
     <use xlink:href="#DejaVuSans-65" transform="translate(247.558594 0.765625)"/>
     <use xlink:href="#DejaVuSans-20" transform="translate(309.082031 0.765625)"/>
     <use xlink:href="#DejaVuSans-4a" transform="translate(340.869141 0.765625)"/>
     <use xlink:href="#DejaVuSans-61" transform="translate(370.361328 0.765625)"/>
     <use xlink:href="#DejaVuSans-7a" transform="translate(431.640625 0.765625)"/>
     <use xlink:href="#DejaVuSans-7a" transform="translate(484.130859 0.765625)"/>
     <use xlink:href="#DejaVuSans-20" transform="translate(536.621094 0.765625)"/>
     <use xlink:href="#DejaVuSans-43" transform="translate(568.408203 0.765625)"/>
     <use xlink:href="#DejaVuSans-65" transform="translate(638.232422 0.765625)"/>
     <use xlink:href="#DejaVuSans-70" transform="translate(699.755859 0.765625)"/>
     <use xlink:href="#DejaVuSans-73" transform="translate(763.232422 0.765625)"/>
     <use xlink:href="#DejaVuSans-74" transform="translate(815.332031 0.765625)"/>
     <use xlink:href="#DejaVuSans-72" transform="translate(854.541016 0.765625)"/>
     <use xlink:href="#DejaVuSans-61" transform="translate(895.654297 0.765625)"/>
     <use xlink:href="#DejaVuSans-20" transform="translate(956.933594 0.765625)"/>
     <use xlink:href="#DejaVuSans-43" transform="translate(988.720703 0.765625)"/>
     <use xlink:href="#DejaVuSans-72" transform="translate(1058.544922 0.765625)"/>
     <use xlink:href="#DejaVuSans-6f" transform="translate(1099.658203 0.765625)"/>
     <use xlink:href="#DejaVuSans-73" transform="translate(1160.839844 0.765625)"/>
     <use xlink:href="#DejaVuSans-73" transform="translate(1212.939453 0.765625)"/>
     <use xlink:href="#DejaVuSans-2d" transform="translate(1265.039062 0.765625)"/>
     <use xlink:href="#DejaVuSans-43" transform="translate(1301.123047 0.765625)"/>
     <use xlink:href="#DejaVuSans-6f" transform="translate(1370.947266 0.765625)"/>
     <use xlink:href="#DejaVuSans-72" transform="translate(1432.128906 0.765625)"/>
     <use xlink:href="#DejaVuSans-72" transform="translate(1473.242188 0.765625)"/>
     <use xlink:href="#DejaVuSans-65" transform="translate(1514.355469 0.765625)"/>
     <use xlink:href="#DejaVuSans-6c" transform="translate(1575.878906 0.765625)"/>
     <use xlink:href="#DejaVuSans-61" transform="translate(1603.662109 0.765625)"/>
     <use xlink:href="#DejaVuSans-74" transform="translate(1664.941406 0.765625)"/>
     <use xlink:href="#DejaVuSans-69" transform="translate(1704.150391 0.765625)"/>
     <use xlink:href="#DejaVuSans-6f" transform="translate(1731.933594 0.765625)"/>
     <use xlink:href="#DejaVuSans-6e" transform="translate(1793.115234 0.765625)"/>
     <use xlink:href="#DejaVuSans-20" transform="translate(1856.494141 0.765625)"/>
     <use xlink:href="#DejaVuSans-Oblique-63" transform="translate(1888.28125 0.765625)"/>
     <use xlink:href="#DejaVuSans-2a" transform="translate(1961.54931 39.046875) scale(0.7)"/>
     <use xlink:href="#DejaVuSans-20" transform="translate(2012.92138 0.765625)"/>
     <use xlink:href="#DejaVuSans-66" transform="translate(2044.70849 0.765625)"/>
     <use xlink:href="#DejaVuSans-6f" transform="translate(2079.913568 0.765625)"/>
     <use xlink:href="#DejaVuSans-72" transform="translate(2141.095208 0.765625)"/>
     <use xlink:href="#DejaVuSans-20" transform="translate(2182.20849 0.765625)"/>
     <use xlink:href="#DejaVuSans-47" transform="translate(2213.995599 0.765625)"/>
     <use xlink:href="#DejaVuSans-75" transform="translate(2291.485833 0.765625)"/>
     <use xlink:href="#DejaVuSans-69" transform="translate(2354.86474 0.765625)"/>
     <use xlink:href="#DejaVuSans-74" transform="translate(2382.647943 0.765625)"/>
     <use xlink:href="#DejaVuSans-61" transform="translate(2421.856927 0.765625)"/>
     <use xlink:href="#DejaVuSans-72" transform="translate(2483.136224 0.765625)"/>
     <use xlink:href="#DejaVuSans-20" transform="translate(2524.249505 0.765625)"/>
     <use xlink:href="#DejaVuSans-52" transform="translate(2556.036615 0.765625)"/>
     <use xlink:href="#DejaVuSans-61" transform="translate(2625.519036 0.765625)"/>
     <use xlink:href="#DejaVuSans-76" transform="translate(2686.798333 0.765625)"/>
     <use xlink:href="#DejaVuSans-65" transform="translate(2745.978021 0.765625)"/>
     <use xlink:href="#DejaVuSans-20" transform="translate(2807.501458 0.765625)"/>
     <use xlink:href="#DejaVuSans-4d" transform="translate(2839.288568 0.765625)"/>
     <use xlink:href="#DejaVuSans-6f" transform="translate(2925.567865 0.765625)"/>
     <use xlink:href="#DejaVuSans-64" transform="translate(2986.749505 0.765625)"/>
     <use xlink:href="#DejaVuSans-65" transform="translate(3050.226068 0.765625)"/>
     <use xlink:href="#DejaVuSans-6c" transform="translate(3111.749505 0.765625)"/>
     <use xlink:href="#DejaVuSans-73" transform="translate(3139.532708 0.765625)"/>
    </g>
   </g>
   <g id="legend_1">
    <g id="patch_7">
     <path d="M 59.160938 61.47625 
L 250.901563 61.47625 
Q 252.901563 61.47625 252.901563 59.47625 
L 252.901563 31.12 
Q 252.901563 29.12 250.901563 29.12 
L 59.160938 29.12 
Q 57.160938 29.12 57.160938 31.12 
L 57.160938 59.47625 
Q 57.160938 61.47625 59.160938 61.47625 
z
" style="fill: #ffffff; opacity: 0.8; stroke: #cccccc; stroke-linejoin: miter"/>
    </g>
    <g id="line2d_16">
     <path d="M 61.160938 37.218437 
L 71.160938 37.218437 
L 81.160938 37.218437 
" style="fill: none; stroke: #1f77b4; stroke-width: 1.5; stroke-linecap: square"/>
    </g>
    <g id="text_16">
     <!-- Clean (z[75]=1.8) -->
     <g transform="translate(89.160938 40.718437) scale(0.1 -0.1)">
      <defs>
       <path id="DejaVuSans-28" d="M 1984 4856 
Q 1566 4138 1362 3434 
Q 1159 2731 1159 2009 
Q 1159 1288 1364 580 
Q 1569 -128 1984 -844 
L 1484 -844 
Q 1016 -109 783 600 
Q 550 1309 550 2009 
Q 550 2706 781 3412 
Q 1013 4119 1484 4856 
L 1984 4856 
z
" transform="scale(0.015625)"/>
       <path id="DejaVuSans-5b" d="M 550 4863 
L 1875 4863 
L 1875 4416 
L 1125 4416 
L 1125 -397 
L 1875 -397 
L 1875 -844 
L 550 -844 
L 550 4863 
z
" transform="scale(0.015625)"/>
       <path id="DejaVuSans-37" d="M 525 4666 
L 3525 4666 
L 3525 4397 
L 1831 0 
L 1172 0 
L 2766 4134 
L 525 4134 
L 525 4666 
z
" transform="scale(0.015625)"/>
       <path id="DejaVuSans-5d" d="M 1947 4863 
L 1947 -844 
L 622 -844 
L 622 -397 
L 1369 -397 
L 1369 4416 
L 622 4416 
L 622 4863 
L 1947 4863 
z
" transform="scale(0.015625)"/>
       <path id="DejaVuSans-3d" d="M 678 2906 
L 4684 2906 
L 4684 2381 
L 678 2381 
L 678 2906 
z
M 678 1631 
L 4684 1631 
L 4684 1100 
L 678 1100 
L 678 1631 
z
" transform="scale(0.015625)"/>
       <path id="DejaVuSans-29" d="M 513 4856 
L 1013 4856 
Q 1481 4119 1714 3412 
Q 1947 2706 1947 2009 
Q 1947 1309 1714 600 
Q 1481 -109 1013 -844 
L 513 -844 
Q 928 -128 1133 580 
Q 1338 1288 1338 2009 
Q 1338 2731 1133 3434 
Q 928 4138 513 4856 
z
" transform="scale(0.015625)"/>
      </defs>
      <use xlink:href="#DejaVuSans-43"/>
      <use xlink:href="#DejaVuSans-6c" x="69.824219"/>
      <use xlink:href="#DejaVuSans-65" x="97.607422"/>
      <use xlink:href="#DejaVuSans-61" x="159.130859"/>
      <use xlink:href="#DejaVuSans-6e" x="220.410156"/>
      <use xlink:href="#DejaVuSans-20" x="283.789062"/>
      <use xlink:href="#DejaVuSans-28" x="315.576172"/>
      <use xlink:href="#DejaVuSans-7a" x="354.589844"/>
      <use xlink:href="#DejaVuSans-5b" x="407.080078"/>
      <use xlink:href="#DejaVuSans-37" x="446.09375"/>
      <use xlink:href="#DejaVuSans-35" x="509.716797"/>
      <use xlink:href="#DejaVuSans-5d" x="573.339844"/>
      <use xlink:href="#DejaVuSans-3d" x="612.353516"/>
      <use xlink:href="#DejaVuSans-31" x="696.142578"/>
      <use xlink:href="#DejaVuSans-2e" x="759.765625"/>
      <use xlink:href="#DejaVuSans-38" x="791.552734"/>
      <use xlink:href="#DejaVuSans-29" x="855.175781"/>
     </g>
    </g>
    <g id="line2d_17">
     <path d="M 61.160938 51.896562 
L 71.160938 51.896562 
L 81.160938 51.896562 
" style="fill: none; stroke: #ff7f0e; stroke-width: 1.5; stroke-linecap: square"/>
    </g>
    <g id="text_17">
     <!-- Correct PN Pattern (z[75]=13.7) -->
     <g transform="translate(89.160938 55.396562) scale(0.1 -0.1)">
      <defs>
       <path id="DejaVuSans-4e" d="M 628 4666 
L 1478 4666 
L 3547 763 
L 3547 4666 
L 4159 4666 
L 4159 0 
L 3309 0 
L 1241 3903 
L 1241 0 
L 628 0 
L 628 4666 
z
" transform="scale(0.015625)"/>
       <path id="DejaVuSans-33" d="M 2597 2516 
Q 3050 2419 3304 2112 
Q 3559 1806 3559 1356 
Q 3559 666 3084 287 
Q 2609 -91 1734 -91 
Q 1441 -91 1130 -33 
Q 819 25 488 141 
L 488 750 
Q 750 597 1062 519 
Q 1375 441 1716 441 
Q 2309 441 2620 675 
Q 2931 909 2931 1356 
Q 2931 1769 2642 2001 
Q 2353 2234 1838 2234 
L 1294 2234 
L 1294 2753 
L 1863 2753 
Q 2328 2753 2575 2939 
Q 2822 3125 2822 3475 
Q 2822 3834 2567 4026 
Q 2313 4219 1838 4219 
Q 1578 4219 1281 4162 
Q 984 4106 628 3988 
L 628 4550 
Q 988 4650 1302 4700 
Q 1616 4750 1894 4750 
Q 2613 4750 3031 4423 
Q 3450 4097 3450 3541 
Q 3450 3153 3228 2886 
Q 3006 2619 2597 2516 
z
" transform="scale(0.015625)"/>
      </defs>
      <use xlink:href="#DejaVuSans-43"/>
      <use xlink:href="#DejaVuSans-6f" x="69.824219"/>
      <use xlink:href="#DejaVuSans-72" x="131.005859"/>
      <use xlink:href="#DejaVuSans-72" x="170.369141"/>
      <use xlink:href="#DejaVuSans-65" x="209.232422"/>
      <use xlink:href="#DejaVuSans-63" x="270.755859"/>
      <use xlink:href="#DejaVuSans-74" x="325.736328"/>
      <use xlink:href="#DejaVuSans-20" x="364.945312"/>
      <use xlink:href="#DejaVuSans-50" x="396.732422"/>
      <use xlink:href="#DejaVuSans-4e" x="457.035156"/>
      <use xlink:href="#DejaVuSans-20" x="531.839844"/>
      <use xlink:href="#DejaVuSans-50" x="563.626953"/>
      <use xlink:href="#DejaVuSans-61" x="619.429688"/>
      <use xlink:href="#DejaVuSans-74" x="680.708984"/>
      <use xlink:href="#DejaVuSans-74" x="719.917969"/>
      <use xlink:href="#DejaVuSans-65" x="759.126953"/>
      <use xlink:href="#DejaVuSans-72" x="820.650391"/>
      <use xlink:href="#DejaVuSans-6e" x="860.013672"/>
      <use xlink:href="#DejaVuSans-20" x="923.392578"/>
      <use xlink:href="#DejaVuSans-28" x="955.179688"/>
      <use xlink:href="#DejaVuSans-7a" x="994.193359"/>
      <use xlink:href="#DejaVuSans-5b" x="1046.683594"/>
      <use xlink:href="#DejaVuSans-37" x="1085.697266"/>
      <use xlink:href="#DejaVuSans-35" x="1149.320312"/>
      <use xlink:href="#DejaVuSans-5d" x="1212.943359"/>
      <use xlink:href="#DejaVuSans-3d" x="1251.957031"/>
      <use xlink:href="#DejaVuSans-31" x="1335.746094"/>
      <use xlink:href="#DejaVuSans-33" x="1399.369141"/>
      <use xlink:href="#DejaVuSans-2e" x="1462.992188"/>
      <use xlink:href="#DejaVuSans-37" x="1494.779297"/>
      <use xlink:href="#DejaVuSans-29" x="1558.402344"/>
     </g>
    </g>
   </g>
  </g>
 </g>
 <defs>
  <clipPath id="pf1519fda4c">
   <rect x="52.160938" y="24.12" width="334.8" height="166.32"/>
  </clipPath>
 </defs>
</svg>
