<?xml version="1.0" encoding="utf-8" standalone="no"?>
<!DOCTYPE svg PUBLIC "-//W3C//DTD SVG 1.1//EN"
  "http://www.w3.org/Graphics/SVG/1.1/DTD/svg11.dtd">
<svg xmlns:xlink="http://www.w3.org/1999/xlink" width="518.485937pt" height="281.63625pt" viewBox="0 0 518.485937 281.63625" xmlns="http://www.w3.org/2000/svg" version="1.1">
 <metadata>
  <rdf:RDF xmlns:dc="http://purl.org/dc/elements/1.1/" xmlns:cc="http://creativecommons.org/ns#" xmlns:rdf="http://www.w3.org/1999/02/22-rdf-syntax-ns#">
   <cc:Work>
    <dc:type rdf:resource="http://purl.org/dc/dcmitype/StillImage"/>
    <dc:date>2024-12-14T11:26:19.980762</dc:date>
    <dc:format>image/svg+xml</dc:format>
    <dc:creator>
     <cc:Agent>
      <dc:title>Matplotlib v3.9.2, https://matplotlib.org/</dc:title>
     </cc:Agent>
    </dc:creator>
   </cc:Work>
  </rdf:RDF>
 </metadata>
 <defs>
  <style type="text/css">*{stroke-linejoin: round; stroke-linecap: butt}</style>
 </defs>
 <g id="figure_1">
  <g id="patch_1">
   <path d="M 0 281.63625 
L 518.485937 281.63625 
L 518.485937 0 
L 0 0 
z
" style="fill: #ffffff"/>
  </g>
  <g id="axes_1">
   <g id="patch_2">
    <path d="M 64.885938 244.08 
L 511.285937 244.08 
L 511.285937 22.32 
L 64.885938 22.32 
z
" style="fill: #ffffff"/>
   </g>
   <g id="matplotlib.axis_1">
    <g id="xtick_1">
     <g id="line2d_1">
      <defs>
       <path id="m05f2cccfb9" d="M 0 0 
L 0 3.5 
" style="stroke: #000000; stroke-width: 0.8"/>
      </defs>
      <g>
       <use xlink:href="#m05f2cccfb9" x="68.944119" y="244.08" style="stroke: #000000; stroke-width: 0.8"/>
      </g>
     </g>
     <g id="text_1">
      <!-- 20 -->
      <g transform="translate(62.581619 258.678438) scale(0.1 -0.1)">
       <defs>
        <path id="DejaVuSans-32" d="M 1228 531 
L 3431 531 
L 3431 0 
L 469 0 
L 469 531 
Q 828 903 1448 1529 
Q 2069 2156 2228 2338 
Q 2531 2678 2651 2914 
Q 2772 3150 2772 3378 
Q 2772 3750 2511 3984 
Q 2250 4219 1831 4219 
Q 1534 4219 1204 4116 
Q 875 4013 500 3803 
L 500 4441 
Q 881 4594 1212 4672 
Q 1544 4750 1819 4750 
Q 2544 4750 2975 4387 
Q 3406 4025 3406 3419 
Q 3406 3131 3298 2873 
Q 3191 2616 2906 2266 
Q 2828 2175 2409 1742 
Q 1991 1309 1228 531 
z
" transform="scale(0.015625)"/>
        <path id="DejaVuSans-30" d="M 2034 4250 
Q 1547 4250 1301 3770 
Q 1056 3291 1056 2328 
Q 1056 1369 1301 889 
Q 1547 409 2034 409 
Q 2525 409 2770 889 
Q 3016 1369 3016 2328 
Q 3016 3291 2770 3770 
Q 2525 4250 2034 4250 
z
M 2034 4750 
Q 2819 4750 3233 4129 
Q 3647 3509 3647 2328 
Q 3647 1150 3233 529 
Q 2819 -91 2034 -91 
Q 1250 -91 836 529 
Q 422 1150 422 2328 
Q 422 3509 836 4129 
Q 1250 4750 2034 4750 
z
" transform="scale(0.015625)"/>
       </defs>
       <use xlink:href="#DejaVuSans-32"/>
       <use xlink:href="#DejaVuSans-30" x="63.623047"/>
      </g>
     </g>
    </g>
    <g id="xtick_2">
     <g id="line2d_2">
      <g>
       <use xlink:href="#m05f2cccfb9" x="133.875028" y="244.08" style="stroke: #000000; stroke-width: 0.8"/>
      </g>
     </g>
     <g id="text_2">
      <!-- 40 -->
      <g transform="translate(127.512528 258.678438) scale(0.1 -0.1)">
       <defs>
        <path id="DejaVuSans-34" d="M 2419 4116 
L 825 1625 
L 2419 1625 
L 2419 4116 
z
M 2253 4666 
L 3047 4666 
L 3047 1625 
L 3713 1625 
L 3713 1100 
L 3047 1100 
L 3047 0 
L 2419 0 
L 2419 1100 
L 313 1100 
L 313 1709 
L 2253 4666 
z
" transform="scale(0.015625)"/>
       </defs>
       <use xlink:href="#DejaVuSans-34"/>
       <use xlink:href="#DejaVuSans-30" x="63.623047"/>
      </g>
     </g>
    </g>
    <g id="xtick_3">
     <g id="line2d_3">
      <g>
       <use xlink:href="#m05f2cccfb9" x="198.805937" y="244.08" style="stroke: #000000; stroke-width: 0.8"/>
      </g>
     </g>
     <g id="text_3">
      <!-- 60 -->
      <g transform="translate(192.443437 258.678438) scale(0.1 -0.1)">
       <defs>
        <path id="DejaVuSans-36" d="M 2113 2584 
Q 1688 2584 1439 2293 
Q 1191 2003 1191 1497 
Q 1191 994 1439 701 
Q 1688 409 2113 409 
Q 2538 409 2786 701 
Q 3034 994 3034 1497 
Q 3034 2003 2786 2293 
Q 2538 2584 2113 2584 
z
M 3366 4563 
L 3366 3988 
Q 3128 4100 2886 4159 
Q 2644 4219 2406 4219 
Q 1781 4219 1451 3797 
Q 1122 3375 1075 2522 
Q 1259 2794 1537 2939 
Q 1816 3084 2150 3084 
Q 2853 3084 3261 2657 
Q 3669 2231 3669 1497 
Q 3669 778 3244 343 
Q 2819 -91 2113 -91 
Q 1303 -91 875 529 
Q 447 1150 447 2328 
Q 447 3434 972 4092 
Q 1497 4750 2381 4750 
Q 2619 4750 2861 4703 
Q 3103 4656 3366 4563 
z
" transform="scale(0.015625)"/>
       </defs>
       <use xlink:href="#DejaVuSans-36"/>
       <use xlink:href="#DejaVuSans-30" x="63.623047"/>
      </g>
     </g>
    </g>
    <g id="xtick_4">
     <g id="line2d_4">
      <g>
       <use xlink:href="#m05f2cccfb9" x="263.736847" y="244.08" style="stroke: #000000; stroke-width: 0.8"/>
      </g>
     </g>
     <g id="text_4">
      <!-- 80 -->
      <g transform="translate(257.374347 258.678438) scale(0.1 -0.1)">
       <defs>
        <path id="DejaVuSans-38" d="M 2034 2216 
Q 1584 2216 1326 1975 
Q 1069 1734 1069 1313 
Q 1069 891 1326 650 
Q 1584 409 2034 409 
Q 2484 409 2743 651 
Q 3003 894 3003 1313 
Q 3003 1734 2745 1975 
Q 2488 2216 2034 2216 
z
M 1403 2484 
Q 997 2584 770 2862 
Q 544 3141 544 3541 
Q 544 4100 942 4425 
Q 1341 4750 2034 4750 
Q 2731 4750 3128 4425 
Q 3525 4100 3525 3541 
Q 3525 3141 3298 2862 
Q 3072 2584 2669 2484 
Q 3125 2378 3379 2068 
Q 3634 1759 3634 1313 
Q 3634 634 3220 271 
Q 2806 -91 2034 -91 
Q 1263 -91 848 271 
Q 434 634 434 1313 
Q 434 1759 690 2068 
Q 947 2378 1403 2484 
z
M 1172 3481 
Q 1172 3119 1398 2916 
Q 1625 2713 2034 2713 
Q 2441 2713 2670 2916 
Q 2900 3119 2900 3481 
Q 2900 3844 2670 4047 
Q 2441 4250 2034 4250 
Q 1625 4250 1398 4047 
Q 1172 3844 1172 3481 
z
" transform="scale(0.015625)"/>
       </defs>
       <use xlink:href="#DejaVuSans-38"/>
       <use xlink:href="#DejaVuSans-30" x="63.623047"/>
      </g>
     </g>
    </g>
    <g id="xtick_5">
     <g id="line2d_5">
      <g>
       <use xlink:href="#m05f2cccfb9" x="328.667756" y="244.08" style="stroke: #000000; stroke-width: 0.8"/>
      </g>
     </g>
     <g id="text_5">
      <!-- 100 -->
      <g transform="translate(319.124006 258.678438) scale(0.1 -0.1)">
       <defs>
        <path id="DejaVuSans-31" d="M 794 531 
L 1825 531 
L 1825 4091 
L 703 3866 
L 703 4441 
L 1819 4666 
L 2450 4666 
L 2450 531 
L 3481 531 
L 3481 0 
L 794 0 
L 794 531 
z
" transform="scale(0.015625)"/>
       </defs>
       <use xlink:href="#DejaVuSans-31"/>
       <use xlink:href="#DejaVuSans-30" x="63.623047"/>
       <use xlink:href="#DejaVuSans-30" x="127.246094"/>
      </g>
     </g>
    </g>
    <g id="xtick_6">
     <g id="line2d_6">
      <g>
       <use xlink:href="#m05f2cccfb9" x="393.598665" y="244.08" style="stroke: #000000; stroke-width: 0.8"/>
      </g>
     </g>
     <g id="text_6">
      <!-- 120 -->
      <g transform="translate(384.054915 258.678438) scale(0.1 -0.1)">
       <use xlink:href="#DejaVuSans-31"/>
       <use xlink:href="#DejaVuSans-32" x="63.623047"/>
       <use xlink:href="#DejaVuSans-30" x="127.246094"/>
      </g>
     </g>
    </g>
    <g id="xtick_7">
     <g id="line2d_7">
      <g>
       <use xlink:href="#m05f2cccfb9" x="458.529574" y="244.08" style="stroke: #000000; stroke-width: 0.8"/>
      </g>
     </g>
     <g id="text_7">
      <!-- 140 -->
      <g transform="translate(448.985824 258.678438) scale(0.1 -0.1)">
       <use xlink:href="#DejaVuSans-31"/>
       <use xlink:href="#DejaVuSans-34" x="63.623047"/>
       <use xlink:href="#DejaVuSans-30" x="127.246094"/>
      </g>
     </g>
    </g>
    <g id="text_8">
     <!-- Echo (Samples) -->
     <g transform="translate(249.105469 272.356562) scale(0.1 -0.1)">
      <defs>
       <path id="DejaVuSans-45" d="M 628 4666 
L 3578 4666 
L 3578 4134 
L 1259 4134 
L 1259 2753 
L 3481 2753 
L 3481 2222 
L 1259 2222 
L 1259 531 
L 3634 531 
L 3634 0 
L 628 0 
L 628 4666 
z
" transform="scale(0.015625)"/>
       <path id="DejaVuSans-63" d="M 3122 3366 
L 3122 2828 
Q 2878 2963 2633 3030 
Q 2388 3097 2138 3097 
Q 1578 3097 1268 2742 
Q 959 2388 959 1747 
Q 959 1106 1268 751 
Q 1578 397 2138 397 
Q 2388 397 2633 464 
Q 2878 531 3122 666 
L 3122 134 
Q 2881 22 2623 -34 
Q 2366 -91 2075 -91 
Q 1284 -91 818 406 
Q 353 903 353 1747 
Q 353 2603 823 3093 
Q 1294 3584 2113 3584 
Q 2378 3584 2631 3529 
Q 2884 3475 3122 3366 
z
" transform="scale(0.015625)"/>
       <path id="DejaVuSans-68" d="M 3513 2113 
L 3513 0 
L 2938 0 
L 2938 2094 
Q 2938 2591 2744 2837 
Q 2550 3084 2163 3084 
Q 1697 3084 1428 2787 
Q 1159 2491 1159 1978 
L 1159 0 
L 581 0 
L 581 4863 
L 1159 4863 
L 1159 2956 
Q 1366 3272 1645 3428 
Q 1925 3584 2291 3584 
Q 2894 3584 3203 3211 
Q 3513 2838 3513 2113 
z
" transform="scale(0.015625)"/>
       <path id="DejaVuSans-6f" d="M 1959 3097 
Q 1497 3097 1228 2736 
Q 959 2375 959 1747 
Q 959 1119 1226 758 
Q 1494 397 1959 397 
Q 2419 397 2687 759 
Q 2956 1122 2956 1747 
Q 2956 2369 2687 2733 
Q 2419 3097 1959 3097 
z
M 1959 3584 
Q 2709 3584 3137 3096 
Q 3566 2609 3566 1747 
Q 3566 888 3137 398 
Q 2709 -91 1959 -91 
Q 1206 -91 779 398 
Q 353 888 353 1747 
Q 353 2609 779 3096 
Q 1206 3584 1959 3584 
z
" transform="scale(0.015625)"/>
       <path id="DejaVuSans-20" transform="scale(0.015625)"/>
       <path id="DejaVuSans-28" d="M 1984 4856 
Q 1566 4138 1362 3434 
Q 1159 2731 1159 2009 
Q 1159 1288 1364 580 
Q 1569 -128 1984 -844 
L 1484 -844 
Q 1016 -109 783 600 
Q 550 1309 550 2009 
Q 550 2706 781 3412 
Q 1013 4119 1484 4856 
L 1984 4856 
z
" transform="scale(0.015625)"/>
       <path id="DejaVuSans-53" d="M 3425 4513 
L 3425 3897 
Q 3066 4069 2747 4153 
Q 2428 4238 2131 4238 
Q 1616 4238 1336 4038 
Q 1056 3838 1056 3469 
Q 1056 3159 1242 3001 
Q 1428 2844 1947 2747 
L 2328 2669 
Q 3034 2534 3370 2195 
Q 3706 1856 3706 1288 
Q 3706 609 3251 259 
Q 2797 -91 1919 -91 
Q 1588 -91 1214 -16 
Q 841 59 441 206 
L 441 856 
Q 825 641 1194 531 
Q 1563 422 1919 422 
Q 2459 422 2753 634 
Q 3047 847 3047 1241 
Q 3047 1584 2836 1778 
Q 2625 1972 2144 2069 
L 1759 2144 
Q 1053 2284 737 2584 
Q 422 2884 422 3419 
Q 422 4038 858 4394 
Q 1294 4750 2059 4750 
Q 2388 4750 2728 4690 
Q 3069 4631 3425 4513 
z
" transform="scale(0.015625)"/>
       <path id="DejaVuSans-61" d="M 2194 1759 
Q 1497 1759 1228 1600 
Q 959 1441 959 1056 
Q 959 750 1161 570 
Q 1363 391 1709 391 
Q 2188 391 2477 730 
Q 2766 1069 2766 1631 
L 2766 1759 
L 2194 1759 
z
M 3341 1997 
L 3341 0 
L 2766 0 
L 2766 531 
Q 2569 213 2275 61 
Q 1981 -91 1556 -91 
Q 1019 -91 701 211 
Q 384 513 384 1019 
Q 384 1609 779 1909 
Q 1175 2209 1959 2209 
L 2766 2209 
L 2766 2266 
Q 2766 2663 2505 2880 
Q 2244 3097 1772 3097 
Q 1472 3097 1187 3025 
Q 903 2953 641 2809 
L 641 3341 
Q 956 3463 1253 3523 
Q 1550 3584 1831 3584 
Q 2591 3584 2966 3190 
Q 3341 2797 3341 1997 
z
" transform="scale(0.015625)"/>
       <path id="DejaVuSans-6d" d="M 3328 2828 
Q 3544 3216 3844 3400 
Q 4144 3584 4550 3584 
Q 5097 3584 5394 3201 
Q 5691 2819 5691 2113 
L 5691 0 
L 5113 0 
L 5113 2094 
Q 5113 2597 4934 2840 
Q 4756 3084 4391 3084 
Q 3944 3084 3684 2787 
Q 3425 2491 3425 1978 
L 3425 0 
L 2847 0 
L 2847 2094 
Q 2847 2600 2669 2842 
Q 2491 3084 2119 3084 
Q 1678 3084 1418 2786 
Q 1159 2488 1159 1978 
L 1159 0 
L 581 0 
L 581 3500 
L 1159 3500 
L 1159 2956 
Q 1356 3278 1631 3431 
Q 1906 3584 2284 3584 
Q 2666 3584 2933 3390 
Q 3200 3197 3328 2828 
z
" transform="scale(0.015625)"/>
       <path id="DejaVuSans-70" d="M 1159 525 
L 1159 -1331 
L 581 -1331 
L 581 3500 
L 1159 3500 
L 1159 2969 
Q 1341 3281 1617 3432 
Q 1894 3584 2278 3584 
Q 2916 3584 3314 3078 
Q 3713 2572 3713 1747 
Q 3713 922 3314 415 
Q 2916 -91 2278 -91 
Q 1894 -91 1617 61 
Q 1341 213 1159 525 
z
M 3116 1747 
Q 3116 2381 2855 2742 
Q 2594 3103 2138 3103 
Q 1681 3103 1420 2742 
Q 1159 2381 1159 1747 
Q 1159 1113 1420 752 
Q 1681 391 2138 391 
Q 2594 391 2855 752 
Q 3116 1113 3116 1747 
z
" transform="scale(0.015625)"/>
       <path id="DejaVuSans-6c" d="M 603 4863 
L 1178 4863 
L 1178 0 
L 603 0 
L 603 4863 
z
" transform="scale(0.015625)"/>
       <path id="DejaVuSans-65" d="M 3597 1894 
L 3597 1613 
L 953 1613 
Q 991 1019 1311 708 
Q 1631 397 2203 397 
Q 2534 397 2845 478 
Q 3156 559 3463 722 
L 3463 178 
Q 3153 47 2828 -22 
Q 2503 -91 2169 -91 
Q 1331 -91 842 396 
Q 353 884 353 1716 
Q 353 2575 817 3079 
Q 1281 3584 2069 3584 
Q 2775 3584 3186 3129 
Q 3597 2675 3597 1894 
z
M 3022 2063 
Q 3016 2534 2758 2815 
Q 2500 3097 2075 3097 
Q 1594 3097 1305 2825 
Q 1016 2553 972 2059 
L 3022 2063 
z
" transform="scale(0.015625)"/>
       <path id="DejaVuSans-73" d="M 2834 3397 
L 2834 2853 
Q 2591 2978 2328 3040 
Q 2066 3103 1784 3103 
Q 1356 3103 1142 2972 
Q 928 2841 928 2578 
Q 928 2378 1081 2264 
Q 1234 2150 1697 2047 
L 1894 2003 
Q 2506 1872 2764 1633 
Q 3022 1394 3022 966 
Q 3022 478 2636 193 
Q 2250 -91 1575 -91 
Q 1294 -91 989 -36 
Q 684 19 347 128 
L 347 722 
Q 666 556 975 473 
Q 1284 391 1588 391 
Q 1994 391 2212 530 
Q 2431 669 2431 922 
Q 2431 1156 2273 1281 
Q 2116 1406 1581 1522 
L 1381 1569 
Q 847 1681 609 1914 
Q 372 2147 372 2553 
Q 372 3047 722 3315 
Q 1072 3584 1716 3584 
Q 2034 3584 2315 3537 
Q 2597 3491 2834 3397 
z
" transform="scale(0.015625)"/>
       <path id="DejaVuSans-29" d="M 513 4856 
L 1013 4856 
Q 1481 4119 1714 3412 
Q 1947 2706 1947 2009 
Q 1947 1309 1714 600 
Q 1481 -109 1013 -844 
L 513 -844 
Q 928 -128 1133 580 
Q 1338 1288 1338 2009 
Q 1338 2731 1133 3434 
Q 928 4138 513 4856 
z
" transform="scale(0.015625)"/>
      </defs>
      <use xlink:href="#DejaVuSans-45"/>
      <use xlink:href="#DejaVuSans-63" x="63.183594"/>
      <use xlink:href="#DejaVuSans-68" x="118.164062"/>
      <use xlink:href="#DejaVuSans-6f" x="181.542969"/>
      <use xlink:href="#DejaVuSans-20" x="242.724609"/>
      <use xlink:href="#DejaVuSans-28" x="274.511719"/>
      <use xlink:href="#DejaVuSans-53" x="313.525391"/>
      <use xlink:href="#DejaVuSans-61" x="377.001953"/>
      <use xlink:href="#DejaVuSans-6d" x="438.28125"/>
      <use xlink:href="#DejaVuSans-70" x="535.693359"/>
      <use xlink:href="#DejaVuSans-6c" x="599.169922"/>
      <use xlink:href="#DejaVuSans-65" x="626.953125"/>
      <use xlink:href="#DejaVuSans-73" x="688.476562"/>
      <use xlink:href="#DejaVuSans-29" x="740.576172"/>
     </g>
    </g>
   </g>
   <g id="matplotlib.axis_2">
    <g id="ytick_1">
     <g id="line2d_8">
      <defs>
       <path id="m43062d0deb" d="M 0 0 
L -3.5 0 
" style="stroke: #000000; stroke-width: 0.8"/>
      </defs>
      <g>
       <use xlink:href="#m43062d0deb" x="64.885938" y="236.51635" style="stroke: #000000; stroke-width: 0.8"/>
      </g>
     </g>
     <g id="text_9">
      <!-- −0.050 -->
      <g transform="translate(20.878125 240.315569) scale(0.1 -0.1)">
       <defs>
        <path id="DejaVuSans-2212" d="M 678 2272 
L 4684 2272 
L 4684 1741 
L 678 1741 
L 678 2272 
z
" transform="scale(0.015625)"/>
        <path id="DejaVuSans-2e" d="M 684 794 
L 1344 794 
L 1344 0 
L 684 0 
L 684 794 
z
" transform="scale(0.015625)"/>
        <path id="DejaVuSans-35" d="M 691 4666 
L 3169 4666 
L 3169 4134 
L 1269 4134 
L 1269 2991 
Q 1406 3038 1543 3061 
Q 1681 3084 1819 3084 
Q 2600 3084 3056 2656 
Q 3513 2228 3513 1497 
Q 3513 744 3044 326 
Q 2575 -91 1722 -91 
Q 1428 -91 1123 -41 
Q 819 9 494 109 
L 494 744 
Q 775 591 1075 516 
Q 1375 441 1709 441 
Q 2250 441 2565 725 
Q 2881 1009 2881 1497 
Q 2881 1984 2565 2268 
Q 2250 2553 1709 2553 
Q 1456 2553 1204 2497 
Q 953 2441 691 2322 
L 691 4666 
z
" transform="scale(0.015625)"/>
       </defs>
       <use xlink:href="#DejaVuSans-2212"/>
       <use xlink:href="#DejaVuSans-30" x="83.789062"/>
       <use xlink:href="#DejaVuSans-2e" x="147.412109"/>
       <use xlink:href="#DejaVuSans-30" x="179.199219"/>
       <use xlink:href="#DejaVuSans-35" x="242.822266"/>
       <use xlink:href="#DejaVuSans-30" x="306.445312"/>
      </g>
     </g>
    </g>
    <g id="ytick_2">
     <g id="line2d_9">
      <g>
       <use xlink:href="#m43062d0deb" x="64.885938" y="210.867104" style="stroke: #000000; stroke-width: 0.8"/>
      </g>
     </g>
     <g id="text_10">
      <!-- −0.025 -->
      <g transform="translate(20.878125 214.666322) scale(0.1 -0.1)">
       <use xlink:href="#DejaVuSans-2212"/>
       <use xlink:href="#DejaVuSans-30" x="83.789062"/>
       <use xlink:href="#DejaVuSans-2e" x="147.412109"/>
       <use xlink:href="#DejaVuSans-30" x="179.199219"/>
       <use xlink:href="#DejaVuSans-32" x="242.822266"/>
       <use xlink:href="#DejaVuSans-35" x="306.445312"/>
      </g>
     </g>
    </g>
    <g id="ytick_3">
     <g id="line2d_10">
      <g>
       <use xlink:href="#m43062d0deb" x="64.885938" y="185.217857" style="stroke: #000000; stroke-width: 0.8"/>
      </g>
     </g>
     <g id="text_11">
      <!-- 0.000 -->
      <g transform="translate(29.257813 189.017076) scale(0.1 -0.1)">
       <use xlink:href="#DejaVuSans-30"/>
       <use xlink:href="#DejaVuSans-2e" x="63.623047"/>
       <use xlink:href="#DejaVuSans-30" x="95.410156"/>
       <use xlink:href="#DejaVuSans-30" x="159.033203"/>
       <use xlink:href="#DejaVuSans-30" x="222.65625"/>
      </g>
     </g>
    </g>
    <g id="ytick_4">
     <g id="line2d_11">
      <g>
       <use xlink:href="#m43062d0deb" x="64.885938" y="159.56861" style="stroke: #000000; stroke-width: 0.8"/>
      </g>
     </g>
     <g id="text_12">
      <!-- 0.025 -->
      <g transform="translate(29.257813 163.367829) scale(0.1 -0.1)">
       <use xlink:href="#DejaVuSans-30"/>
       <use xlink:href="#DejaVuSans-2e" x="63.623047"/>
       <use xlink:href="#DejaVuSans-30" x="95.410156"/>
       <use xlink:href="#DejaVuSans-32" x="159.033203"/>
       <use xlink:href="#DejaVuSans-35" x="222.65625"/>
      </g>
     </g>
    </g>
    <g id="ytick_5">
     <g id="line2d_12">
      <g>
       <use xlink:href="#m43062d0deb" x="64.885938" y="133.919363" style="stroke: #000000; stroke-width: 0.8"/>
      </g>
     </g>
     <g id="text_13">
      <!-- 0.050 -->
      <g transform="translate(29.257813 137.718582) scale(0.1 -0.1)">
       <use xlink:href="#DejaVuSans-30"/>
       <use xlink:href="#DejaVuSans-2e" x="63.623047"/>
       <use xlink:href="#DejaVuSans-30" x="95.410156"/>
       <use xlink:href="#DejaVuSans-35" x="159.033203"/>
       <use xlink:href="#DejaVuSans-30" x="222.65625"/>
      </g>
     </g>
    </g>
    <g id="ytick_6">
     <g id="line2d_13">
      <g>
       <use xlink:href="#m43062d0deb" x="64.885938" y="108.270117" style="stroke: #000000; stroke-width: 0.8"/>
      </g>
     </g>
     <g id="text_14">
      <!-- 0.075 -->
      <g transform="translate(29.257813 112.069336) scale(0.1 -0.1)">
       <defs>
        <path id="DejaVuSans-37" d="M 525 4666 
L 3525 4666 
L 3525 4397 
L 1831 0 
L 1172 0 
L 2766 4134 
L 525 4134 
L 525 4666 
z
" transform="scale(0.015625)"/>
       </defs>
       <use xlink:href="#DejaVuSans-30"/>
       <use xlink:href="#DejaVuSans-2e" x="63.623047"/>
       <use xlink:href="#DejaVuSans-30" x="95.410156"/>
       <use xlink:href="#DejaVuSans-37" x="159.033203"/>
       <use xlink:href="#DejaVuSans-35" x="222.65625"/>
      </g>
     </g>
    </g>
    <g id="ytick_7">
     <g id="line2d_14">
      <g>
       <use xlink:href="#m43062d0deb" x="64.885938" y="82.62087" style="stroke: #000000; stroke-width: 0.8"/>
      </g>
     </g>
     <g id="text_15">
      <!-- 0.100 -->
      <g transform="translate(29.257813 86.420089) scale(0.1 -0.1)">
       <use xlink:href="#DejaVuSans-30"/>
       <use xlink:href="#DejaVuSans-2e" x="63.623047"/>
       <use xlink:href="#DejaVuSans-31" x="95.410156"/>
       <use xlink:href="#DejaVuSans-30" x="159.033203"/>
       <use xlink:href="#DejaVuSans-30" x="222.65625"/>
      </g>
     </g>
    </g>
    <g id="ytick_8">
     <g id="line2d_15">
      <g>
       <use xlink:href="#m43062d0deb" x="64.885938" y="56.971623" style="stroke: #000000; stroke-width: 0.8"/>
      </g>
     </g>
     <g id="text_16">
      <!-- 0.125 -->
      <g transform="translate(29.257813 60.770842) scale(0.1 -0.1)">
       <use xlink:href="#DejaVuSans-30"/>
       <use xlink:href="#DejaVuSans-2e" x="63.623047"/>
       <use xlink:href="#DejaVuSans-31" x="95.410156"/>
       <use xlink:href="#DejaVuSans-32" x="159.033203"/>
       <use xlink:href="#DejaVuSans-35" x="222.65625"/>
      </g>
     </g>
    </g>
    <g id="ytick_9">
     <g id="line2d_16">
      <g>
       <use xlink:href="#m43062d0deb" x="64.885938" y="31.322377" style="stroke: #000000; stroke-width: 0.8"/>
      </g>
     </g>
     <g id="text_17">
      <!-- 0.150 -->
      <g transform="translate(29.257813 35.121595) scale(0.1 -0.1)">
       <use xlink:href="#DejaVuSans-30"/>
       <use xlink:href="#DejaVuSans-2e" x="63.623047"/>
       <use xlink:href="#DejaVuSans-31" x="95.410156"/>
       <use xlink:href="#DejaVuSans-35" x="159.033203"/>
       <use xlink:href="#DejaVuSans-30" x="222.65625"/>
      </g>
     </g>
    </g>
    <g id="text_18">
     <!-- Cepstrum Value -->
     <g transform="translate(14.798438 172.921875) rotate(-90) scale(0.1 -0.1)">
      <defs>
       <path id="DejaVuSans-43" d="M 4122 4306 
L 4122 3641 
Q 3803 3938 3442 4084 
Q 3081 4231 2675 4231 
Q 1875 4231 1450 3742 
Q 1025 3253 1025 2328 
Q 1025 1406 1450 917 
Q 1875 428 2675 428 
Q 3081 428 3442 575 
Q 3803 722 4122 1019 
L 4122 359 
Q 3791 134 3420 21 
Q 3050 -91 2638 -91 
Q 1578 -91 968 557 
Q 359 1206 359 2328 
Q 359 3453 968 4101 
Q 1578 4750 2638 4750 
Q 3056 4750 3426 4639 
Q 3797 4528 4122 4306 
z
" transform="scale(0.015625)"/>
       <path id="DejaVuSans-74" d="M 1172 4494 
L 1172 3500 
L 2356 3500 
L 2356 3053 
L 1172 3053 
L 1172 1153 
Q 1172 725 1289 603 
Q 1406 481 1766 481 
L 2356 481 
L 2356 0 
L 1766 0 
Q 1100 0 847 248 
Q 594 497 594 1153 
L 594 3053 
L 172 3053 
L 172 3500 
L 594 3500 
L 594 4494 
L 1172 4494 
z
" transform="scale(0.015625)"/>
       <path id="DejaVuSans-72" d="M 2631 2963 
Q 2534 3019 2420 3045 
Q 2306 3072 2169 3072 
Q 1681 3072 1420 2755 
Q 1159 2438 1159 1844 
L 1159 0 
L 581 0 
L 581 3500 
L 1159 3500 
L 1159 2956 
Q 1341 3275 1631 3429 
Q 1922 3584 2338 3584 
Q 2397 3584 2469 3576 
Q 2541 3569 2628 3553 
L 2631 2963 
z
" transform="scale(0.015625)"/>
       <path id="DejaVuSans-75" d="M 544 1381 
L 544 3500 
L 1119 3500 
L 1119 1403 
Q 1119 906 1312 657 
Q 1506 409 1894 409 
Q 2359 409 2629 706 
Q 2900 1003 2900 1516 
L 2900 3500 
L 3475 3500 
L 3475 0 
L 2900 0 
L 2900 538 
Q 2691 219 2414 64 
Q 2138 -91 1772 -91 
Q 1169 -91 856 284 
Q 544 659 544 1381 
z
M 1991 3584 
L 1991 3584 
z
" transform="scale(0.015625)"/>
       <path id="DejaVuSans-56" d="M 1831 0 
L 50 4666 
L 709 4666 
L 2188 738 
L 3669 4666 
L 4325 4666 
L 2547 0 
L 1831 0 
z
" transform="scale(0.015625)"/>
      </defs>
      <use xlink:href="#DejaVuSans-43"/>
      <use xlink:href="#DejaVuSans-65" x="69.824219"/>
      <use xlink:href="#DejaVuSans-70" x="131.347656"/>
      <use xlink:href="#DejaVuSans-73" x="194.824219"/>
      <use xlink:href="#DejaVuSans-74" x="246.923828"/>
      <use xlink:href="#DejaVuSans-72" x="286.132812"/>
      <use xlink:href="#DejaVuSans-75" x="327.246094"/>
      <use xlink:href="#DejaVuSans-6d" x="390.625"/>
      <use xlink:href="#DejaVuSans-20" x="488.037109"/>
      <use xlink:href="#DejaVuSans-56" x="519.824219"/>
      <use xlink:href="#DejaVuSans-61" x="580.482422"/>
      <use xlink:href="#DejaVuSans-6c" x="641.761719"/>
      <use xlink:href="#DejaVuSans-75" x="669.544922"/>
      <use xlink:href="#DejaVuSans-65" x="732.923828"/>
     </g>
    </g>
   </g>
   <g id="line2d_17">
    <path d="M 85.176847 185.842788 
L 88.423392 204.780656 
L 91.669938 179.303922 
L 94.916483 200.843621 
L 98.163028 191.546915 
L 101.409574 168.686698 
L 104.656119 200.240428 
L 107.902665 207.316298 
L 111.14921 177.685014 
L 114.395756 229.516154 
L 117.642301 195.220959 
L 120.888847 213.090692 
L 124.135392 222.743048 
L 127.381938 193.92383 
L 130.628483 195.913699 
L 133.875028 205.933606 
L 137.121574 189.574622 
L 140.368119 186.16584 
L 143.614665 187.028011 
L 146.86121 200.70801 
L 150.107756 203.103624 
L 153.354301 192.925013 
L 156.600847 205.145512 
L 159.847392 195.666526 
L 163.093938 203.681003 
L 166.340483 196.175246 
L 169.587028 182.273932 
L 172.833574 192.887084 
L 176.080119 174.905397 
L 179.326665 179.365512 
L 182.57321 176.662407 
L 185.819756 173.573559 
L 189.066301 202.281269 
L 192.312847 183.825103 
L 195.559392 182.974741 
L 198.805937 199.593531 
L 202.052483 211.219508 
L 205.299028 204.171101 
L 208.545574 207.986279 
L 211.792119 221.845508 
L 215.038665 204.187122 
L 218.28521 211.915168 
L 221.531756 195.814252 
L 224.778301 202.137384 
L 228.024847 207.119765 
L 231.271392 200.375132 
L 234.517937 202.605418 
L 237.764483 199.228276 
L 241.011028 193.405466 
L 244.257574 184.622377 
L 247.504119 174.701888 
L 250.750665 176.849834 
L 253.99721 179.478346 
L 257.243756 174.379991 
L 260.490301 186.60205 
L 263.736847 196.512046 
L 266.983392 175.299262 
L 270.229938 176.026961 
L 273.476483 174.507067 
L 276.723028 182.889055 
L 279.969574 171.676786 
L 283.216119 182.891075 
L 286.462665 184.892264 
L 289.70921 182.632554 
L 292.955756 181.817829 
L 296.202301 186.514917 
L 299.448847 189.582589 
L 302.695392 197.110845 
L 305.941937 185.891977 
L 309.188483 194.640531 
L 312.435028 197.662223 
L 315.681574 206.655423 
L 318.928119 194.279397 
L 322.174665 199.658419 
L 325.42121 192.199383 
L 328.667756 192.5841 
L 331.914301 190.921812 
L 335.160847 197.991058 
L 338.407392 197.345098 
L 341.653937 191.61728 
L 344.900483 196.40695 
L 348.147028 193.863945 
L 351.393574 189.902312 
L 354.640119 193.378387 
L 357.886665 197.853739 
L 361.13321 196.19456 
L 364.379756 191.980724 
L 367.626301 186.899597 
L 370.872847 190.379465 
L 374.119392 181.163423 
L 377.365937 191.113123 
L 380.612483 192.702648 
L 383.859028 193.217166 
L 387.105574 184.946445 
L 390.352119 184.729947 
L 393.598665 186.261101 
L 396.84521 186.695288 
L 400.091756 184.773969 
L 403.338301 182.047015 
L 406.584847 181.563849 
L 409.831392 181.909304 
L 413.077938 188.376177 
L 416.324483 197.501731 
L 419.571028 193.907553 
L 422.817574 183.602782 
L 426.064119 187.733176 
L 429.310665 181.089856 
L 432.55721 185.08682 
L 435.803756 189.284613 
L 439.050301 190.696741 
L 442.296847 179.890251 
L 445.543392 191.283587 
L 448.789938 193.007588 
L 452.036483 194.187452 
L 455.283028 195.34603 
L 458.529574 192.293299 
L 461.776119 188.726756 
L 465.022665 183.782527 
L 468.26921 186.365761 
L 471.515756 194.643689 
L 474.762301 196.340869 
L 478.008847 191.89702 
L 481.255392 198.162848 
L 484.501937 190.793533 
L 487.748483 193.382429 
L 490.995028 188.008389 
" clip-path="url(#p4822f69ea6)" style="fill: none; stroke: #1f77b4; stroke-width: 1.5; stroke-linecap: square"/>
   </g>
   <g id="line2d_18">
    <path d="M 85.176847 204.809321 
L 88.423392 193.219442 
L 91.669938 172.536986 
L 94.916483 180.29687 
L 98.163028 187.130571 
L 101.409574 189.876366 
L 104.656119 221.556785 
L 107.902665 195.699406 
L 111.14921 184.332676 
L 114.395756 225.558562 
L 117.642301 193.406265 
L 120.888847 205.093151 
L 124.135392 198.557338 
L 127.381938 155.347504 
L 130.628483 180.884132 
L 133.875028 193.886139 
L 137.121574 175.440717 
L 140.368119 202.417709 
L 143.614665 202.997596 
L 146.86121 201.525746 
L 150.107756 229.059079 
L 153.354301 234 
L 156.600847 231.36439 
L 159.847392 228.115618 
L 163.093938 217.989591 
L 166.340483 32.4 
L 169.587028 200.653714 
L 172.833574 217.123884 
L 176.080119 187.634287 
L 179.326665 210.809482 
L 182.57321 195.239734 
L 185.819756 182.103405 
L 189.066301 201.733292 
L 192.312847 189.660987 
L 195.559392 191.913036 
L 198.805937 191.671658 
L 202.052483 173.387641 
L 205.299028 176.851554 
L 208.545574 192.470417 
L 211.792119 198.389293 
L 215.038665 201.338241 
L 218.28521 199.808183 
L 221.531756 190.875091 
L 224.778301 193.504854 
L 228.024847 191.40735 
L 231.271392 187.216615 
L 234.517937 192.049066 
L 237.764483 196.590822 
L 241.011028 203.33843 
L 244.257574 183.965771 
L 247.504119 191.569534 
L 250.750665 199.436468 
L 253.99721 193.581374 
L 257.243756 175.126516 
L 260.490301 176.294926 
L 263.736847 188.492654 
L 266.983392 168.434264 
L 270.229938 170.49284 
L 273.476483 166.970837 
L 276.723028 176.481013 
L 279.969574 166.132883 
L 283.216119 175.638637 
L 286.462665 171.797536 
L 289.70921 181.030039 
L 292.955756 186.833719 
L 296.202301 192.881149 
L 299.448847 190.681784 
L 302.695392 193.996156 
L 305.941937 196.854505 
L 309.188483 194.492657 
L 312.435028 198.32072 
L 315.681574 176.14371 
L 318.928119 187.767325 
L 322.174665 198.92479 
L 325.42121 193.172124 
L 328.667756 207.689023 
L 331.914301 198.392395 
L 335.160847 191.118379 
L 338.407392 192.389745 
L 341.653937 188.164599 
L 344.900483 185.10772 
L 348.147028 195.083955 
L 351.393574 181.303199 
L 354.640119 193.888325 
L 357.886665 185.416024 
L 361.13321 174.833161 
L 364.379756 184.143658 
L 367.626301 192.333898 
L 370.872847 183.634754 
L 374.119392 185.607017 
L 377.365937 186.022101 
L 380.612483 176.912856 
L 383.859028 183.33175 
L 387.105574 181.374888 
L 390.352119 182.72255 
L 393.598665 177.698946 
L 396.84521 186.913186 
L 400.091756 184.967893 
L 403.338301 186.641194 
L 406.584847 187.24152 
L 409.831392 179.510426 
L 413.077938 187.328838 
L 416.324483 199.337495 
L 419.571028 181.600508 
L 422.817574 196.187821 
L 426.064119 190.942919 
L 429.310665 175.570923 
L 432.55721 190.596087 
L 435.803756 196.999658 
L 439.050301 186.449175 
L 442.296847 195.491581 
L 445.543392 197.720936 
L 448.789938 193.64051 
L 452.036483 196.102781 
L 455.283028 201.537076 
L 458.529574 192.052391 
L 461.776119 196.944821 
L 465.022665 191.796096 
L 468.26921 188.122498 
L 471.515756 182.751584 
L 474.762301 187.431187 
L 478.008847 203.544122 
L 481.255392 189.000566 
L 484.501937 191.634808 
L 487.748483 190.517262 
L 490.995028 183.928622 
" clip-path="url(#p4822f69ea6)" style="fill: none; stroke: #ff7f0e; stroke-width: 1.5; stroke-linecap: square"/>
   </g>
   <g id="line2d_19">
    <path d="M 85.176847 184.80015 
L 88.423392 188.476842 
L 91.669938 176.033376 
L 94.916483 222.761988 
L 98.163028 231.298793 
L 101.409574 204.237017 
L 104.656119 223.97018 
L 107.902665 212.565922 
L 111.14921 199.183545 
L 114.395756 218.232725 
L 117.642301 191.277921 
L 120.888847 198.057858 
L 124.135392 176.489815 
L 127.381938 185.351862 
L 130.628483 188.586058 
L 133.875028 221.857017 
L 137.121574 219.348767 
L 140.368119 184.757659 
L 143.614665 212.748358 
L 146.86121 202.467628 
L 150.107756 207.589029 
L 153.354301 208.45732 
L 156.600847 200.536784 
L 159.847392 179.66387 
L 163.093938 182.01421 
L 166.340483 197.182118 
L 169.587028 203.913824 
L 172.833574 203.321335 
L 176.080119 195.875691 
L 179.326665 204.901216 
L 182.57321 190.011915 
L 185.819756 183.539182 
L 189.066301 193.734925 
L 192.312847 187.99022 
L 195.559392 176.647168 
L 198.805937 201.04377 
L 202.052483 175.323719 
L 205.299028 186.102254 
L 208.545574 202.536738 
L 211.792119 188.905401 
L 215.038665 191.561432 
L 218.28521 216.483197 
L 221.531756 184.170063 
L 224.778301 199.799985 
L 228.024847 184.263533 
L 231.271392 192.339453 
L 234.517937 202.712406 
L 237.764483 212.605373 
L 241.011028 179.251121 
L 244.257574 181.126854 
L 247.504119 64.457061 
L 250.750665 175.536679 
L 253.99721 170.091189 
L 257.243756 199.436794 
L 260.490301 202.244257 
L 263.736847 211.989224 
L 266.983392 169.138786 
L 270.229938 181.58745 
L 273.476483 184.486319 
L 276.723028 193.930067 
L 279.969574 184.182871 
L 283.216119 191.28348 
L 286.462665 174.051679 
L 289.70921 190.018103 
L 292.955756 180.236742 
L 296.202301 192.963559 
L 299.448847 171.013827 
L 302.695392 170.215629 
L 305.941937 180.471034 
L 309.188483 176.980441 
L 312.435028 171.800712 
L 315.681574 181.646708 
L 318.928119 189.146138 
L 322.174665 173.467508 
L 325.42121 184.965812 
L 328.667756 188.936538 
L 331.914301 184.775134 
L 335.160847 175.670533 
L 338.407392 185.810435 
L 341.653937 185.837061 
L 344.900483 184.593924 
L 348.147028 181.583408 
L 351.393574 188.897373 
L 354.640119 179.476134 
L 357.886665 179.95796 
L 361.13321 188.074859 
L 364.379756 178.810434 
L 367.626301 187.123931 
L 370.872847 184.204951 
L 374.119392 183.942482 
L 377.365937 178.399787 
L 380.612483 193.918704 
L 383.859028 189.968419 
L 387.105574 177.636286 
L 390.352119 192.251603 
L 393.598665 187.909152 
L 396.84521 190.683508 
L 400.091756 193.925488 
L 403.338301 190.809089 
L 406.584847 189.709506 
L 409.831392 186.853979 
L 413.077938 176.928309 
L 416.324483 189.457999 
L 419.571028 199.030375 
L 422.817574 184.811756 
L 426.064119 189.403977 
L 429.310665 191.366228 
L 432.55721 182.122881 
L 435.803756 182.428282 
L 439.050301 187.157996 
L 442.296847 188.395957 
L 445.543392 197.466981 
L 448.789938 195.598954 
L 452.036483 193.887608 
L 455.283028 192.543156 
L 458.529574 179.232091 
L 461.776119 185.305624 
L 465.022665 187.099523 
L 468.26921 183.076672 
L 471.515756 195.648464 
L 474.762301 191.395646 
L 478.008847 184.158191 
L 481.255392 188.534474 
L 484.501937 189.020633 
L 487.748483 189.267823 
L 490.995028 213.39961 
" clip-path="url(#p4822f69ea6)" style="fill: none; stroke: #2ca02c; stroke-width: 1.5; stroke-linecap: square"/>
   </g>
   <g id="line2d_20">
    <path d="M 85.176847 186.964171 
L 88.423392 192.647934 
L 91.669938 166.787738 
L 94.916483 199.678821 
L 98.163028 199.70722 
L 101.409574 172.21443 
L 104.656119 213.604205 
L 107.902665 191.104182 
L 111.14921 163.781467 
L 114.395756 200.105753 
L 117.642301 199.234839 
L 120.888847 182.304808 
L 124.135392 171.786753 
L 127.381938 163.708638 
L 130.628483 185.274094 
L 133.875028 206.773578 
L 137.121574 203.450753 
L 140.368119 201.396946 
L 143.614665 210.528178 
L 146.86121 222.564552 
L 150.107756 227.833728 
L 153.354301 221.389092 
L 156.600847 214.825759 
L 159.847392 201.043304 
L 163.093938 202.765402 
L 166.340483 205.312895 
L 169.587028 196.022653 
L 172.833574 186.142806 
L 176.080119 178.10276 
L 179.326665 184.442358 
L 182.57321 177.75185 
L 185.819756 181.443821 
L 189.066301 178.13142 
L 192.312847 182.935258 
L 195.559392 196.376785 
L 198.805937 202.799823 
L 202.052483 188.634896 
L 205.299028 192.003796 
L 208.545574 180.455494 
L 211.792119 185.415261 
L 215.038665 212.277974 
L 218.28521 210.928406 
L 221.531756 197.860454 
L 224.778301 201.897262 
L 228.024847 191.574582 
L 231.271392 180.702058 
L 234.517937 182.430993 
L 237.764483 191.653094 
L 241.011028 186.189367 
L 244.257574 179.929199 
L 247.504119 180.214046 
L 250.750665 179.421155 
L 253.99721 171.831254 
L 257.243756 161.08263 
L 260.490301 187.2689 
L 263.736847 187.665928 
L 266.983392 182.844287 
L 270.229938 191.072407 
L 273.476483 185.87936 
L 276.723028 181.673982 
L 279.969574 190.448427 
L 283.216119 192.014953 
L 286.462665 180.090812 
L 289.70921 185.586613 
L 292.955756 180.44317 
L 296.202301 181.435156 
L 299.448847 198.765395 
L 302.695392 182.896536 
L 305.941937 189.477493 
L 309.188483 184.680557 
L 312.435028 186.825651 
L 315.681574 193.460338 
L 318.928119 196.59929 
L 322.174665 184.515383 
L 325.42121 160.402526 
L 328.667756 64.217942 
L 331.914301 170.653441 
L 335.160847 175.493757 
L 338.407392 197.230642 
L 341.653937 196.073627 
L 344.900483 187.504848 
L 348.147028 180.353715 
L 351.393574 197.995646 
L 354.640119 197.72127 
L 357.886665 186.746401 
L 361.13321 177.217899 
L 364.379756 167.587774 
L 367.626301 185.660917 
L 370.872847 189.047419 
L 374.119392 180.546535 
L 377.365937 196.205841 
L 380.612483 192.703488 
L 383.859028 188.527076 
L 387.105574 193.420458 
L 390.352119 201.584196 
L 393.598665 183.542292 
L 396.84521 187.804389 
L 400.091756 203.36871 
L 403.338301 197.576609 
L 406.584847 180.682092 
L 409.831392 177.865211 
L 413.077938 190.711997 
L 416.324483 189.456294 
L 419.571028 173.641423 
L 422.817574 200.623587 
L 426.064119 194.063466 
L 429.310665 172.549347 
L 432.55721 182.223273 
L 435.803756 177.514155 
L 439.050301 175.57095 
L 442.296847 182.962117 
L 445.543392 185.860035 
L 448.789938 173.336757 
L 452.036483 178.831586 
L 455.283028 191.602374 
L 458.529574 193.803777 
L 461.776119 192.368026 
L 465.022665 189.382637 
L 468.26921 190.581362 
L 471.515756 189.605837 
L 474.762301 197.285272 
L 478.008847 199.116303 
L 481.255392 191.158468 
L 484.501937 186.671198 
L 487.748483 190.84507 
L 490.995028 192.617877 
" clip-path="url(#p4822f69ea6)" style="fill: none; stroke: #d62728; stroke-width: 1.5; stroke-linecap: square"/>
   </g>
   <g id="patch_3">
    <path d="M 64.885938 244.08 
L 64.885938 22.32 
" style="fill: none; stroke: #000000; stroke-width: 0.8; stroke-linejoin: miter; stroke-linecap: square"/>
   </g>
   <g id="patch_4">
    <path d="M 511.285937 244.08 
L 511.285937 22.32 
" style="fill: none; stroke: #000000; stroke-width: 0.8; stroke-linejoin: miter; stroke-linecap: square"/>
   </g>
   <g id="patch_5">
    <path d="M 64.885938 244.08 
L 511.285937 244.08 
" style="fill: none; stroke: #000000; stroke-width: 0.8; stroke-linejoin: miter; stroke-linecap: square"/>
   </g>
   <g id="patch_6">
    <path d="M 64.885938 22.32 
L 511.285937 22.32 
" style="fill: none; stroke: #000000; stroke-width: 0.8; stroke-linejoin: miter; stroke-linecap: square"/>
   </g>
   <g id="text_19">
    <!-- Prince Jazz Cepstra $c$ for VocalSet Rave Models -->
    <g transform="translate(147.085938 16.32) scale(0.12 -0.12)">
     <defs>
      <path id="DejaVuSans-50" d="M 1259 4147 
L 1259 2394 
L 2053 2394 
Q 2494 2394 2734 2622 
Q 2975 2850 2975 3272 
Q 2975 3691 2734 3919 
Q 2494 4147 2053 4147 
L 1259 4147 
z
M 628 4666 
L 2053 4666 
Q 2838 4666 3239 4311 
Q 3641 3956 3641 3272 
Q 3641 2581 3239 2228 
Q 2838 1875 2053 1875 
L 1259 1875 
L 1259 0 
L 628 0 
L 628 4666 
z
" transform="scale(0.015625)"/>
      <path id="DejaVuSans-69" d="M 603 3500 
L 1178 3500 
L 1178 0 
L 603 0 
L 603 3500 
z
M 603 4863 
L 1178 4863 
L 1178 4134 
L 603 4134 
L 603 4863 
z
" transform="scale(0.015625)"/>
      <path id="DejaVuSans-6e" d="M 3513 2113 
L 3513 0 
L 2938 0 
L 2938 2094 
Q 2938 2591 2744 2837 
Q 2550 3084 2163 3084 
Q 1697 3084 1428 2787 
Q 1159 2491 1159 1978 
L 1159 0 
L 581 0 
L 581 3500 
L 1159 3500 
L 1159 2956 
Q 1366 3272 1645 3428 
Q 1925 3584 2291 3584 
Q 2894 3584 3203 3211 
Q 3513 2838 3513 2113 
z
" transform="scale(0.015625)"/>
      <path id="DejaVuSans-4a" d="M 628 4666 
L 1259 4666 
L 1259 325 
Q 1259 -519 939 -900 
Q 619 -1281 -91 -1281 
L -331 -1281 
L -331 -750 
L -134 -750 
Q 284 -750 456 -515 
Q 628 -281 628 325 
L 628 4666 
z
" transform="scale(0.015625)"/>
      <path id="DejaVuSans-7a" d="M 353 3500 
L 3084 3500 
L 3084 2975 
L 922 459 
L 3084 459 
L 3084 0 
L 275 0 
L 275 525 
L 2438 3041 
L 353 3041 
L 353 3500 
z
" transform="scale(0.015625)"/>
      <path id="DejaVuSans-Oblique-63" d="M 3431 3366 
L 3316 2797 
Q 3109 2947 2876 3022 
Q 2644 3097 2394 3097 
Q 2119 3097 1870 3000 
Q 1622 2903 1453 2725 
Q 1184 2453 1037 2087 
Q 891 1722 891 1331 
Q 891 859 1127 628 
Q 1363 397 1844 397 
Q 2081 397 2348 469 
Q 2616 541 2906 684 
L 2797 116 
Q 2547 13 2283 -39 
Q 2019 -91 1741 -91 
Q 1044 -91 669 257 
Q 294 606 294 1253 
Q 294 1797 489 2255 
Q 684 2713 1069 3078 
Q 1331 3328 1684 3456 
Q 2038 3584 2456 3584 
Q 2700 3584 2940 3529 
Q 3181 3475 3431 3366 
z
" transform="scale(0.015625)"/>
      <path id="DejaVuSans-66" d="M 2375 4863 
L 2375 4384 
L 1825 4384 
Q 1516 4384 1395 4259 
Q 1275 4134 1275 3809 
L 1275 3500 
L 2222 3500 
L 2222 3053 
L 1275 3053 
L 1275 0 
L 697 0 
L 697 3053 
L 147 3053 
L 147 3500 
L 697 3500 
L 697 3744 
Q 697 4328 969 4595 
Q 1241 4863 1831 4863 
L 2375 4863 
z
" transform="scale(0.015625)"/>
      <path id="DejaVuSans-52" d="M 2841 2188 
Q 3044 2119 3236 1894 
Q 3428 1669 3622 1275 
L 4263 0 
L 3584 0 
L 2988 1197 
Q 2756 1666 2539 1819 
Q 2322 1972 1947 1972 
L 1259 1972 
L 1259 0 
L 628 0 
L 628 4666 
L 2053 4666 
Q 2853 4666 3247 4331 
Q 3641 3997 3641 3322 
Q 3641 2881 3436 2590 
Q 3231 2300 2841 2188 
z
M 1259 4147 
L 1259 2491 
L 2053 2491 
Q 2509 2491 2742 2702 
Q 2975 2913 2975 3322 
Q 2975 3731 2742 3939 
Q 2509 4147 2053 4147 
L 1259 4147 
z
" transform="scale(0.015625)"/>
      <path id="DejaVuSans-76" d="M 191 3500 
L 800 3500 
L 1894 563 
L 2988 3500 
L 3597 3500 
L 2284 0 
L 1503 0 
L 191 3500 
z
" transform="scale(0.015625)"/>
      <path id="DejaVuSans-4d" d="M 628 4666 
L 1569 4666 
L 2759 1491 
L 3956 4666 
L 4897 4666 
L 4897 0 
L 4281 0 
L 4281 4097 
L 3078 897 
L 2444 897 
L 1241 4097 
L 1241 0 
L 628 0 
L 628 4666 
z
" transform="scale(0.015625)"/>
      <path id="DejaVuSans-64" d="M 2906 2969 
L 2906 4863 
L 3481 4863 
L 3481 0 
L 2906 0 
L 2906 525 
Q 2725 213 2448 61 
Q 2172 -91 1784 -91 
Q 1150 -91 751 415 
Q 353 922 353 1747 
Q 353 2572 751 3078 
Q 1150 3584 1784 3584 
Q 2172 3584 2448 3432 
Q 2725 3281 2906 2969 
z
M 947 1747 
Q 947 1113 1208 752 
Q 1469 391 1925 391 
Q 2381 391 2643 752 
Q 2906 1113 2906 1747 
Q 2906 2381 2643 2742 
Q 2381 3103 1925 3103 
Q 1469 3103 1208 2742 
Q 947 2381 947 1747 
z
" transform="scale(0.015625)"/>
     </defs>
     <use xlink:href="#DejaVuSans-50" transform="translate(0 0.015625)"/>
     <use xlink:href="#DejaVuSans-72" transform="translate(60.302734 0.015625)"/>
     <use xlink:href="#DejaVuSans-69" transform="translate(101.416016 0.015625)"/>
     <use xlink:href="#DejaVuSans-6e" transform="translate(129.199219 0.015625)"/>
     <use xlink:href="#DejaVuSans-63" transform="translate(192.578125 0.015625)"/>
     <use xlink:href="#DejaVuSans-65" transform="translate(247.558594 0.015625)"/>
     <use xlink:href="#DejaVuSans-20" transform="translate(309.082031 0.015625)"/>
     <use xlink:href="#DejaVuSans-4a" transform="translate(340.869141 0.015625)"/>
     <use xlink:href="#DejaVuSans-61" transform="translate(370.361328 0.015625)"/>
     <use xlink:href="#DejaVuSans-7a" transform="translate(431.640625 0.015625)"/>
     <use xlink:href="#DejaVuSans-7a" transform="translate(484.130859 0.015625)"/>
     <use xlink:href="#DejaVuSans-20" transform="translate(536.621094 0.015625)"/>
     <use xlink:href="#DejaVuSans-43" transform="translate(568.408203 0.015625)"/>
     <use xlink:href="#DejaVuSans-65" transform="translate(638.232422 0.015625)"/>
     <use xlink:href="#DejaVuSans-70" transform="translate(699.755859 0.015625)"/>
     <use xlink:href="#DejaVuSans-73" transform="translate(763.232422 0.015625)"/>
     <use xlink:href="#DejaVuSans-74" transform="translate(815.332031 0.015625)"/>
     <use xlink:href="#DejaVuSans-72" transform="translate(854.541016 0.015625)"/>
     <use xlink:href="#DejaVuSans-61" transform="translate(895.654297 0.015625)"/>
     <use xlink:href="#DejaVuSans-20" transform="translate(956.933594 0.015625)"/>
     <use xlink:href="#DejaVuSans-Oblique-63" transform="translate(988.720703 0.015625)"/>
     <use xlink:href="#DejaVuSans-20" transform="translate(1043.701172 0.015625)"/>
     <use xlink:href="#DejaVuSans-66" transform="translate(1075.488281 0.015625)"/>
     <use xlink:href="#DejaVuSans-6f" transform="translate(1110.693359 0.015625)"/>
     <use xlink:href="#DejaVuSans-72" transform="translate(1171.875 0.015625)"/>
     <use xlink:href="#DejaVuSans-20" transform="translate(1212.988281 0.015625)"/>
     <use xlink:href="#DejaVuSans-56" transform="translate(1244.775391 0.015625)"/>
     <use xlink:href="#DejaVuSans-6f" transform="translate(1313.183594 0.015625)"/>
     <use xlink:href="#DejaVuSans-63" transform="translate(1374.365234 0.015625)"/>
     <use xlink:href="#DejaVuSans-61" transform="translate(1429.345703 0.015625)"/>
     <use xlink:href="#DejaVuSans-6c" transform="translate(1490.625 0.015625)"/>
     <use xlink:href="#DejaVuSans-53" transform="translate(1518.408203 0.015625)"/>
     <use xlink:href="#DejaVuSans-65" transform="translate(1581.884766 0.015625)"/>
     <use xlink:href="#DejaVuSans-74" transform="translate(1643.408203 0.015625)"/>
     <use xlink:href="#DejaVuSans-20" transform="translate(1682.617188 0.015625)"/>
     <use xlink:href="#DejaVuSans-52" transform="translate(1714.404297 0.015625)"/>
     <use xlink:href="#DejaVuSans-61" transform="translate(1783.886719 0.015625)"/>
     <use xlink:href="#DejaVuSans-76" transform="translate(1845.166016 0.015625)"/>
     <use xlink:href="#DejaVuSans-65" transform="translate(1904.345703 0.015625)"/>
     <use xlink:href="#DejaVuSans-20" transform="translate(1965.869141 0.015625)"/>
     <use xlink:href="#DejaVuSans-4d" transform="translate(1997.65625 0.015625)"/>
     <use xlink:href="#DejaVuSans-6f" transform="translate(2083.935547 0.015625)"/>
     <use xlink:href="#DejaVuSans-64" transform="translate(2145.117188 0.015625)"/>
     <use xlink:href="#DejaVuSans-65" transform="translate(2208.59375 0.015625)"/>
     <use xlink:href="#DejaVuSans-6c" transform="translate(2270.117188 0.015625)"/>
     <use xlink:href="#DejaVuSans-73" transform="translate(2297.900391 0.015625)"/>
    </g>
   </g>
   <g id="legend_1">
    <g id="patch_7">
     <path d="M 379.432813 89.0325 
L 504.285938 89.0325 
Q 506.285938 89.0325 506.285938 87.0325 
L 506.285938 29.32 
Q 506.285938 27.32 504.285938 27.32 
L 379.432813 27.32 
Q 377.432813 27.32 377.432813 29.32 
L 377.432813 87.0325 
Q 377.432813 89.0325 379.432813 89.0325 
z
" style="fill: #ffffff; opacity: 0.8; stroke: #cccccc; stroke-linejoin: miter"/>
    </g>
    <g id="line2d_21">
     <path d="M 381.432813 35.418437 
L 391.432813 35.418437 
L 401.432813 35.418437 
" style="fill: none; stroke: #1f77b4; stroke-width: 1.5; stroke-linecap: square"/>
    </g>
    <g id="text_20">
     <!-- Clean -->
     <g transform="translate(409.432813 38.918437) scale(0.1 -0.1)">
      <use xlink:href="#DejaVuSans-43"/>
      <use xlink:href="#DejaVuSans-6c" x="69.824219"/>
      <use xlink:href="#DejaVuSans-65" x="97.607422"/>
      <use xlink:href="#DejaVuSans-61" x="159.130859"/>
      <use xlink:href="#DejaVuSans-6e" x="220.410156"/>
     </g>
    </g>
    <g id="line2d_22">
     <path d="M 381.432813 50.096562 
L 391.432813 50.096562 
L 401.432813 50.096562 
" style="fill: none; stroke: #ff7f0e; stroke-width: 1.5; stroke-linecap: square"/>
    </g>
    <g id="text_21">
     <!-- 50   (z[50] = 12.1) -->
     <g transform="translate(409.432813 53.596562) scale(0.1 -0.1)">
      <defs>
       <path id="DejaVuSans-5b" d="M 550 4863 
L 1875 4863 
L 1875 4416 
L 1125 4416 
L 1125 -397 
L 1875 -397 
L 1875 -844 
L 550 -844 
L 550 4863 
z
" transform="scale(0.015625)"/>
       <path id="DejaVuSans-5d" d="M 1947 4863 
L 1947 -844 
L 622 -844 
L 622 -397 
L 1369 -397 
L 1369 4416 
L 622 4416 
L 622 4863 
L 1947 4863 
z
" transform="scale(0.015625)"/>
       <path id="DejaVuSans-3d" d="M 678 2906 
L 4684 2906 
L 4684 2381 
L 678 2381 
L 678 2906 
z
M 678 1631 
L 4684 1631 
L 4684 1100 
L 678 1100 
L 678 1631 
z
" transform="scale(0.015625)"/>
      </defs>
      <use xlink:href="#DejaVuSans-35"/>
      <use xlink:href="#DejaVuSans-30" x="63.623047"/>
      <use xlink:href="#DejaVuSans-20" x="127.246094"/>
      <use xlink:href="#DejaVuSans-20" x="159.033203"/>
      <use xlink:href="#DejaVuSans-20" x="190.820312"/>
      <use xlink:href="#DejaVuSans-28" x="222.607422"/>
      <use xlink:href="#DejaVuSans-7a" x="261.621094"/>
      <use xlink:href="#DejaVuSans-5b" x="314.111328"/>
      <use xlink:href="#DejaVuSans-35" x="353.125"/>
      <use xlink:href="#DejaVuSans-30" x="416.748047"/>
      <use xlink:href="#DejaVuSans-5d" x="480.371094"/>
      <use xlink:href="#DejaVuSans-20" x="519.384766"/>
      <use xlink:href="#DejaVuSans-3d" x="551.171875"/>
      <use xlink:href="#DejaVuSans-20" x="634.960938"/>
      <use xlink:href="#DejaVuSans-31" x="666.748047"/>
      <use xlink:href="#DejaVuSans-32" x="730.371094"/>
      <use xlink:href="#DejaVuSans-2e" x="793.994141"/>
      <use xlink:href="#DejaVuSans-31" x="825.78125"/>
      <use xlink:href="#DejaVuSans-29" x="889.404297"/>
     </g>
    </g>
    <g id="line2d_23">
     <path d="M 381.432813 64.774687 
L 391.432813 64.774687 
L 401.432813 64.774687 
" style="fill: none; stroke: #2ca02c; stroke-width: 1.5; stroke-linecap: square"/>
    </g>
    <g id="text_22">
     <!-- 75   (z[75] = 10.2) -->
     <g transform="translate(409.432813 68.274687) scale(0.1 -0.1)">
      <use xlink:href="#DejaVuSans-37"/>
      <use xlink:href="#DejaVuSans-35" x="63.623047"/>
      <use xlink:href="#DejaVuSans-20" x="127.246094"/>
      <use xlink:href="#DejaVuSans-20" x="159.033203"/>
      <use xlink:href="#DejaVuSans-20" x="190.820312"/>
      <use xlink:href="#DejaVuSans-28" x="222.607422"/>
      <use xlink:href="#DejaVuSans-7a" x="261.621094"/>
      <use xlink:href="#DejaVuSans-5b" x="314.111328"/>
      <use xlink:href="#DejaVuSans-37" x="353.125"/>
      <use xlink:href="#DejaVuSans-35" x="416.748047"/>
      <use xlink:href="#DejaVuSans-5d" x="480.371094"/>
      <use xlink:href="#DejaVuSans-20" x="519.384766"/>
      <use xlink:href="#DejaVuSans-3d" x="551.171875"/>
      <use xlink:href="#DejaVuSans-20" x="634.960938"/>
      <use xlink:href="#DejaVuSans-31" x="666.748047"/>
      <use xlink:href="#DejaVuSans-30" x="730.371094"/>
      <use xlink:href="#DejaVuSans-2e" x="793.994141"/>
      <use xlink:href="#DejaVuSans-32" x="825.78125"/>
      <use xlink:href="#DejaVuSans-29" x="889.404297"/>
     </g>
    </g>
    <g id="line2d_24">
     <path d="M 381.432813 79.452812 
L 391.432813 79.452812 
L 401.432813 79.452812 
" style="fill: none; stroke: #d62728; stroke-width: 1.5; stroke-linecap: square"/>
    </g>
    <g id="text_23">
     <!-- 100 (z[100]=10.2) -->
     <g transform="translate(409.432813 82.952812) scale(0.1 -0.1)">
      <use xlink:href="#DejaVuSans-31"/>
      <use xlink:href="#DejaVuSans-30" x="63.623047"/>
      <use xlink:href="#DejaVuSans-30" x="127.246094"/>
      <use xlink:href="#DejaVuSans-20" x="190.869141"/>
      <use xlink:href="#DejaVuSans-28" x="222.65625"/>
      <use xlink:href="#DejaVuSans-7a" x="261.669922"/>
      <use xlink:href="#DejaVuSans-5b" x="314.160156"/>
      <use xlink:href="#DejaVuSans-31" x="353.173828"/>
      <use xlink:href="#DejaVuSans-30" x="416.796875"/>
      <use xlink:href="#DejaVuSans-30" x="480.419922"/>
      <use xlink:href="#DejaVuSans-5d" x="544.042969"/>
      <use xlink:href="#DejaVuSans-3d" x="583.056641"/>
      <use xlink:href="#DejaVuSans-31" x="666.845703"/>
      <use xlink:href="#DejaVuSans-30" x="730.46875"/>
      <use xlink:href="#DejaVuSans-2e" x="794.091797"/>
      <use xlink:href="#DejaVuSans-32" x="825.878906"/>
      <use xlink:href="#DejaVuSans-29" x="889.501953"/>
     </g>
    </g>
   </g>
  </g>
 </g>
 <defs>
  <clipPath id="p4822f69ea6">
   <rect x="64.885938" y="22.32" width="446.4" height="221.76"/>
  </clipPath>
 </defs>
</svg>
