<?xml version="1.0" encoding="utf-8" standalone="no"?>
<!DOCTYPE svg PUBLIC "-//W3C//DTD SVG 1.1//EN"
  "http://www.w3.org/Graphics/SVG/1.1/DTD/svg11.dtd">
<svg xmlns:xlink="http://www.w3.org/1999/xlink" width="518.485937pt" height="337.074375pt" viewBox="0 0 518.485937 337.074375" xmlns="http://www.w3.org/2000/svg" version="1.1">
 <metadata>
  <rdf:RDF xmlns:dc="http://purl.org/dc/elements/1.1/" xmlns:cc="http://creativecommons.org/ns#" xmlns:rdf="http://www.w3.org/1999/02/22-rdf-syntax-ns#">
   <cc:Work>
    <dc:type rdf:resource="http://purl.org/dc/dcmitype/StillImage"/>
    <dc:date>2024-12-15T20:20:35.752134</dc:date>
    <dc:format>image/svg+xml</dc:format>
    <dc:creator>
     <cc:Agent>
      <dc:title>Matplotlib v3.9.2, https://matplotlib.org/</dc:title>
     </cc:Agent>
    </dc:creator>
   </cc:Work>
  </rdf:RDF>
 </metadata>
 <defs>
  <style type="text/css">*{stroke-linejoin: round; stroke-linecap: butt}</style>
 </defs>
 <g id="figure_1">
  <g id="patch_1">
   <path d="M 0 337.074375 
L 518.485937 337.074375 
L 518.485937 0 
L 0 0 
z
" style="fill: #ffffff"/>
  </g>
  <g id="axes_1">
   <g id="patch_2">
    <path d="M 64.885938 299.518125 
L 511.285937 299.518125 
L 511.285937 22.318125 
L 64.885938 22.318125 
z
" style="fill: #ffffff"/>
   </g>
   <g id="matplotlib.axis_1">
    <g id="xtick_1">
     <g id="line2d_1">
      <defs>
       <path id="me0d4c19294" d="M 0 0 
L 0 3.5 
" style="stroke: #000000; stroke-width: 0.8"/>
      </defs>
      <g>
       <use xlink:href="#me0d4c19294" x="149.935067" y="299.518125" style="stroke: #000000; stroke-width: 0.8"/>
      </g>
     </g>
     <g id="text_1">
      <!-- 40 -->
      <g transform="translate(143.572567 314.116563) scale(0.1 -0.1)">
       <defs>
        <path id="DejaVuSans-34" d="M 2419 4116 
L 825 1625 
L 2419 1625 
L 2419 4116 
z
M 2253 4666 
L 3047 4666 
L 3047 1625 
L 3713 1625 
L 3713 1100 
L 3047 1100 
L 3047 0 
L 2419 0 
L 2419 1100 
L 313 1100 
L 313 1709 
L 2253 4666 
z
" transform="scale(0.015625)"/>
        <path id="DejaVuSans-30" d="M 2034 4250 
Q 1547 4250 1301 3770 
Q 1056 3291 1056 2328 
Q 1056 1369 1301 889 
Q 1547 409 2034 409 
Q 2525 409 2770 889 
Q 3016 1369 3016 2328 
Q 3016 3291 2770 3770 
Q 2525 4250 2034 4250 
z
M 2034 4750 
Q 2819 4750 3233 4129 
Q 3647 3509 3647 2328 
Q 3647 1150 3233 529 
Q 2819 -91 2034 -91 
Q 1250 -91 836 529 
Q 422 1150 422 2328 
Q 422 3509 836 4129 
Q 1250 4750 2034 4750 
z
" transform="scale(0.015625)"/>
       </defs>
       <use xlink:href="#DejaVuSans-34"/>
       <use xlink:href="#DejaVuSans-30" x="63.623047"/>
      </g>
     </g>
    </g>
    <g id="xtick_2">
     <g id="line2d_2">
      <g>
       <use xlink:href="#me0d4c19294" x="236.279361" y="299.518125" style="stroke: #000000; stroke-width: 0.8"/>
      </g>
     </g>
     <g id="text_2">
      <!-- 60 -->
      <g transform="translate(229.916861 314.116563) scale(0.1 -0.1)">
       <defs>
        <path id="DejaVuSans-36" d="M 2113 2584 
Q 1688 2584 1439 2293 
Q 1191 2003 1191 1497 
Q 1191 994 1439 701 
Q 1688 409 2113 409 
Q 2538 409 2786 701 
Q 3034 994 3034 1497 
Q 3034 2003 2786 2293 
Q 2538 2584 2113 2584 
z
M 3366 4563 
L 3366 3988 
Q 3128 4100 2886 4159 
Q 2644 4219 2406 4219 
Q 1781 4219 1451 3797 
Q 1122 3375 1075 2522 
Q 1259 2794 1537 2939 
Q 1816 3084 2150 3084 
Q 2853 3084 3261 2657 
Q 3669 2231 3669 1497 
Q 3669 778 3244 343 
Q 2819 -91 2113 -91 
Q 1303 -91 875 529 
Q 447 1150 447 2328 
Q 447 3434 972 4092 
Q 1497 4750 2381 4750 
Q 2619 4750 2861 4703 
Q 3103 4656 3366 4563 
z
" transform="scale(0.015625)"/>
       </defs>
       <use xlink:href="#DejaVuSans-36"/>
       <use xlink:href="#DejaVuSans-30" x="63.623047"/>
      </g>
     </g>
    </g>
    <g id="xtick_3">
     <g id="line2d_3">
      <g>
       <use xlink:href="#me0d4c19294" x="322.623655" y="299.518125" style="stroke: #000000; stroke-width: 0.8"/>
      </g>
     </g>
     <g id="text_3">
      <!-- 80 -->
      <g transform="translate(316.261155 314.116563) scale(0.1 -0.1)">
       <defs>
        <path id="DejaVuSans-38" d="M 2034 2216 
Q 1584 2216 1326 1975 
Q 1069 1734 1069 1313 
Q 1069 891 1326 650 
Q 1584 409 2034 409 
Q 2484 409 2743 651 
Q 3003 894 3003 1313 
Q 3003 1734 2745 1975 
Q 2488 2216 2034 2216 
z
M 1403 2484 
Q 997 2584 770 2862 
Q 544 3141 544 3541 
Q 544 4100 942 4425 
Q 1341 4750 2034 4750 
Q 2731 4750 3128 4425 
Q 3525 4100 3525 3541 
Q 3525 3141 3298 2862 
Q 3072 2584 2669 2484 
Q 3125 2378 3379 2068 
Q 3634 1759 3634 1313 
Q 3634 634 3220 271 
Q 2806 -91 2034 -91 
Q 1263 -91 848 271 
Q 434 634 434 1313 
Q 434 1759 690 2068 
Q 947 2378 1403 2484 
z
M 1172 3481 
Q 1172 3119 1398 2916 
Q 1625 2713 2034 2713 
Q 2441 2713 2670 2916 
Q 2900 3119 2900 3481 
Q 2900 3844 2670 4047 
Q 2441 4250 2034 4250 
Q 1625 4250 1398 4047 
Q 1172 3844 1172 3481 
z
" transform="scale(0.015625)"/>
       </defs>
       <use xlink:href="#DejaVuSans-38"/>
       <use xlink:href="#DejaVuSans-30" x="63.623047"/>
      </g>
     </g>
    </g>
    <g id="xtick_4">
     <g id="line2d_4">
      <g>
       <use xlink:href="#me0d4c19294" x="408.967949" y="299.518125" style="stroke: #000000; stroke-width: 0.8"/>
      </g>
     </g>
     <g id="text_4">
      <!-- 100 -->
      <g transform="translate(399.424199 314.116563) scale(0.1 -0.1)">
       <defs>
        <path id="DejaVuSans-31" d="M 794 531 
L 1825 531 
L 1825 4091 
L 703 3866 
L 703 4441 
L 1819 4666 
L 2450 4666 
L 2450 531 
L 3481 531 
L 3481 0 
L 794 0 
L 794 531 
z
" transform="scale(0.015625)"/>
       </defs>
       <use xlink:href="#DejaVuSans-31"/>
       <use xlink:href="#DejaVuSans-30" x="63.623047"/>
       <use xlink:href="#DejaVuSans-30" x="127.246094"/>
      </g>
     </g>
    </g>
    <g id="xtick_5">
     <g id="line2d_5">
      <g>
       <use xlink:href="#me0d4c19294" x="495.312243" y="299.518125" style="stroke: #000000; stroke-width: 0.8"/>
      </g>
     </g>
     <g id="text_5">
      <!-- 120 -->
      <g transform="translate(485.768493 314.116563) scale(0.1 -0.1)">
       <defs>
        <path id="DejaVuSans-32" d="M 1228 531 
L 3431 531 
L 3431 0 
L 469 0 
L 469 531 
Q 828 903 1448 1529 
Q 2069 2156 2228 2338 
Q 2531 2678 2651 2914 
Q 2772 3150 2772 3378 
Q 2772 3750 2511 3984 
Q 2250 4219 1831 4219 
Q 1534 4219 1204 4116 
Q 875 4013 500 3803 
L 500 4441 
Q 881 4594 1212 4672 
Q 1544 4750 1819 4750 
Q 2544 4750 2975 4387 
Q 3406 4025 3406 3419 
Q 3406 3131 3298 2873 
Q 3191 2616 2906 2266 
Q 2828 2175 2409 1742 
Q 1991 1309 1228 531 
z
" transform="scale(0.015625)"/>
       </defs>
       <use xlink:href="#DejaVuSans-31"/>
       <use xlink:href="#DejaVuSans-32" x="63.623047"/>
       <use xlink:href="#DejaVuSans-30" x="127.246094"/>
      </g>
     </g>
    </g>
    <g id="text_6">
     <!-- Echo (Samples) -->
     <g transform="translate(249.105469 327.794688) scale(0.1 -0.1)">
      <defs>
       <path id="DejaVuSans-45" d="M 628 4666 
L 3578 4666 
L 3578 4134 
L 1259 4134 
L 1259 2753 
L 3481 2753 
L 3481 2222 
L 1259 2222 
L 1259 531 
L 3634 531 
L 3634 0 
L 628 0 
L 628 4666 
z
" transform="scale(0.015625)"/>
       <path id="DejaVuSans-63" d="M 3122 3366 
L 3122 2828 
Q 2878 2963 2633 3030 
Q 2388 3097 2138 3097 
Q 1578 3097 1268 2742 
Q 959 2388 959 1747 
Q 959 1106 1268 751 
Q 1578 397 2138 397 
Q 2388 397 2633 464 
Q 2878 531 3122 666 
L 3122 134 
Q 2881 22 2623 -34 
Q 2366 -91 2075 -91 
Q 1284 -91 818 406 
Q 353 903 353 1747 
Q 353 2603 823 3093 
Q 1294 3584 2113 3584 
Q 2378 3584 2631 3529 
Q 2884 3475 3122 3366 
z
" transform="scale(0.015625)"/>
       <path id="DejaVuSans-68" d="M 3513 2113 
L 3513 0 
L 2938 0 
L 2938 2094 
Q 2938 2591 2744 2837 
Q 2550 3084 2163 3084 
Q 1697 3084 1428 2787 
Q 1159 2491 1159 1978 
L 1159 0 
L 581 0 
L 581 4863 
L 1159 4863 
L 1159 2956 
Q 1366 3272 1645 3428 
Q 1925 3584 2291 3584 
Q 2894 3584 3203 3211 
Q 3513 2838 3513 2113 
z
" transform="scale(0.015625)"/>
       <path id="DejaVuSans-6f" d="M 1959 3097 
Q 1497 3097 1228 2736 
Q 959 2375 959 1747 
Q 959 1119 1226 758 
Q 1494 397 1959 397 
Q 2419 397 2687 759 
Q 2956 1122 2956 1747 
Q 2956 2369 2687 2733 
Q 2419 3097 1959 3097 
z
M 1959 3584 
Q 2709 3584 3137 3096 
Q 3566 2609 3566 1747 
Q 3566 888 3137 398 
Q 2709 -91 1959 -91 
Q 1206 -91 779 398 
Q 353 888 353 1747 
Q 353 2609 779 3096 
Q 1206 3584 1959 3584 
z
" transform="scale(0.015625)"/>
       <path id="DejaVuSans-20" transform="scale(0.015625)"/>
       <path id="DejaVuSans-28" d="M 1984 4856 
Q 1566 4138 1362 3434 
Q 1159 2731 1159 2009 
Q 1159 1288 1364 580 
Q 1569 -128 1984 -844 
L 1484 -844 
Q 1016 -109 783 600 
Q 550 1309 550 2009 
Q 550 2706 781 3412 
Q 1013 4119 1484 4856 
L 1984 4856 
z
" transform="scale(0.015625)"/>
       <path id="DejaVuSans-53" d="M 3425 4513 
L 3425 3897 
Q 3066 4069 2747 4153 
Q 2428 4238 2131 4238 
Q 1616 4238 1336 4038 
Q 1056 3838 1056 3469 
Q 1056 3159 1242 3001 
Q 1428 2844 1947 2747 
L 2328 2669 
Q 3034 2534 3370 2195 
Q 3706 1856 3706 1288 
Q 3706 609 3251 259 
Q 2797 -91 1919 -91 
Q 1588 -91 1214 -16 
Q 841 59 441 206 
L 441 856 
Q 825 641 1194 531 
Q 1563 422 1919 422 
Q 2459 422 2753 634 
Q 3047 847 3047 1241 
Q 3047 1584 2836 1778 
Q 2625 1972 2144 2069 
L 1759 2144 
Q 1053 2284 737 2584 
Q 422 2884 422 3419 
Q 422 4038 858 4394 
Q 1294 4750 2059 4750 
Q 2388 4750 2728 4690 
Q 3069 4631 3425 4513 
z
" transform="scale(0.015625)"/>
       <path id="DejaVuSans-61" d="M 2194 1759 
Q 1497 1759 1228 1600 
Q 959 1441 959 1056 
Q 959 750 1161 570 
Q 1363 391 1709 391 
Q 2188 391 2477 730 
Q 2766 1069 2766 1631 
L 2766 1759 
L 2194 1759 
z
M 3341 1997 
L 3341 0 
L 2766 0 
L 2766 531 
Q 2569 213 2275 61 
Q 1981 -91 1556 -91 
Q 1019 -91 701 211 
Q 384 513 384 1019 
Q 384 1609 779 1909 
Q 1175 2209 1959 2209 
L 2766 2209 
L 2766 2266 
Q 2766 2663 2505 2880 
Q 2244 3097 1772 3097 
Q 1472 3097 1187 3025 
Q 903 2953 641 2809 
L 641 3341 
Q 956 3463 1253 3523 
Q 1550 3584 1831 3584 
Q 2591 3584 2966 3190 
Q 3341 2797 3341 1997 
z
" transform="scale(0.015625)"/>
       <path id="DejaVuSans-6d" d="M 3328 2828 
Q 3544 3216 3844 3400 
Q 4144 3584 4550 3584 
Q 5097 3584 5394 3201 
Q 5691 2819 5691 2113 
L 5691 0 
L 5113 0 
L 5113 2094 
Q 5113 2597 4934 2840 
Q 4756 3084 4391 3084 
Q 3944 3084 3684 2787 
Q 3425 2491 3425 1978 
L 3425 0 
L 2847 0 
L 2847 2094 
Q 2847 2600 2669 2842 
Q 2491 3084 2119 3084 
Q 1678 3084 1418 2786 
Q 1159 2488 1159 1978 
L 1159 0 
L 581 0 
L 581 3500 
L 1159 3500 
L 1159 2956 
Q 1356 3278 1631 3431 
Q 1906 3584 2284 3584 
Q 2666 3584 2933 3390 
Q 3200 3197 3328 2828 
z
" transform="scale(0.015625)"/>
       <path id="DejaVuSans-70" d="M 1159 525 
L 1159 -1331 
L 581 -1331 
L 581 3500 
L 1159 3500 
L 1159 2969 
Q 1341 3281 1617 3432 
Q 1894 3584 2278 3584 
Q 2916 3584 3314 3078 
Q 3713 2572 3713 1747 
Q 3713 922 3314 415 
Q 2916 -91 2278 -91 
Q 1894 -91 1617 61 
Q 1341 213 1159 525 
z
M 3116 1747 
Q 3116 2381 2855 2742 
Q 2594 3103 2138 3103 
Q 1681 3103 1420 2742 
Q 1159 2381 1159 1747 
Q 1159 1113 1420 752 
Q 1681 391 2138 391 
Q 2594 391 2855 752 
Q 3116 1113 3116 1747 
z
" transform="scale(0.015625)"/>
       <path id="DejaVuSans-6c" d="M 603 4863 
L 1178 4863 
L 1178 0 
L 603 0 
L 603 4863 
z
" transform="scale(0.015625)"/>
       <path id="DejaVuSans-65" d="M 3597 1894 
L 3597 1613 
L 953 1613 
Q 991 1019 1311 708 
Q 1631 397 2203 397 
Q 2534 397 2845 478 
Q 3156 559 3463 722 
L 3463 178 
Q 3153 47 2828 -22 
Q 2503 -91 2169 -91 
Q 1331 -91 842 396 
Q 353 884 353 1716 
Q 353 2575 817 3079 
Q 1281 3584 2069 3584 
Q 2775 3584 3186 3129 
Q 3597 2675 3597 1894 
z
M 3022 2063 
Q 3016 2534 2758 2815 
Q 2500 3097 2075 3097 
Q 1594 3097 1305 2825 
Q 1016 2553 972 2059 
L 3022 2063 
z
" transform="scale(0.015625)"/>
       <path id="DejaVuSans-73" d="M 2834 3397 
L 2834 2853 
Q 2591 2978 2328 3040 
Q 2066 3103 1784 3103 
Q 1356 3103 1142 2972 
Q 928 2841 928 2578 
Q 928 2378 1081 2264 
Q 1234 2150 1697 2047 
L 1894 2003 
Q 2506 1872 2764 1633 
Q 3022 1394 3022 966 
Q 3022 478 2636 193 
Q 2250 -91 1575 -91 
Q 1294 -91 989 -36 
Q 684 19 347 128 
L 347 722 
Q 666 556 975 473 
Q 1284 391 1588 391 
Q 1994 391 2212 530 
Q 2431 669 2431 922 
Q 2431 1156 2273 1281 
Q 2116 1406 1581 1522 
L 1381 1569 
Q 847 1681 609 1914 
Q 372 2147 372 2553 
Q 372 3047 722 3315 
Q 1072 3584 1716 3584 
Q 2034 3584 2315 3537 
Q 2597 3491 2834 3397 
z
" transform="scale(0.015625)"/>
       <path id="DejaVuSans-29" d="M 513 4856 
L 1013 4856 
Q 1481 4119 1714 3412 
Q 1947 2706 1947 2009 
Q 1947 1309 1714 600 
Q 1481 -109 1013 -844 
L 513 -844 
Q 928 -128 1133 580 
Q 1338 1288 1338 2009 
Q 1338 2731 1133 3434 
Q 928 4138 513 4856 
z
" transform="scale(0.015625)"/>
      </defs>
      <use xlink:href="#DejaVuSans-45"/>
      <use xlink:href="#DejaVuSans-63" x="63.183594"/>
      <use xlink:href="#DejaVuSans-68" x="118.164062"/>
      <use xlink:href="#DejaVuSans-6f" x="181.542969"/>
      <use xlink:href="#DejaVuSans-20" x="242.724609"/>
      <use xlink:href="#DejaVuSans-28" x="274.511719"/>
      <use xlink:href="#DejaVuSans-53" x="313.525391"/>
      <use xlink:href="#DejaVuSans-61" x="377.001953"/>
      <use xlink:href="#DejaVuSans-6d" x="438.28125"/>
      <use xlink:href="#DejaVuSans-70" x="535.693359"/>
      <use xlink:href="#DejaVuSans-6c" x="599.169922"/>
      <use xlink:href="#DejaVuSans-65" x="626.953125"/>
      <use xlink:href="#DejaVuSans-73" x="688.476562"/>
      <use xlink:href="#DejaVuSans-29" x="740.576172"/>
     </g>
    </g>
   </g>
   <g id="matplotlib.axis_2">
    <g id="ytick_1">
     <g id="line2d_6">
      <defs>
       <path id="ma2cfeeab3a" d="M 0 0 
L -3.5 0 
" style="stroke: #000000; stroke-width: 0.8"/>
      </defs>
      <g>
       <use xlink:href="#ma2cfeeab3a" x="64.885938" y="269.329904" style="stroke: #000000; stroke-width: 0.8"/>
      </g>
     </g>
     <g id="text_7">
      <!-- −0.025 -->
      <g transform="translate(20.878125 273.129123) scale(0.1 -0.1)">
       <defs>
        <path id="DejaVuSans-2212" d="M 678 2272 
L 4684 2272 
L 4684 1741 
L 678 1741 
L 678 2272 
z
" transform="scale(0.015625)"/>
        <path id="DejaVuSans-2e" d="M 684 794 
L 1344 794 
L 1344 0 
L 684 0 
L 684 794 
z
" transform="scale(0.015625)"/>
        <path id="DejaVuSans-35" d="M 691 4666 
L 3169 4666 
L 3169 4134 
L 1269 4134 
L 1269 2991 
Q 1406 3038 1543 3061 
Q 1681 3084 1819 3084 
Q 2600 3084 3056 2656 
Q 3513 2228 3513 1497 
Q 3513 744 3044 326 
Q 2575 -91 1722 -91 
Q 1428 -91 1123 -41 
Q 819 9 494 109 
L 494 744 
Q 775 591 1075 516 
Q 1375 441 1709 441 
Q 2250 441 2565 725 
Q 2881 1009 2881 1497 
Q 2881 1984 2565 2268 
Q 2250 2553 1709 2553 
Q 1456 2553 1204 2497 
Q 953 2441 691 2322 
L 691 4666 
z
" transform="scale(0.015625)"/>
       </defs>
       <use xlink:href="#DejaVuSans-2212"/>
       <use xlink:href="#DejaVuSans-30" x="83.789062"/>
       <use xlink:href="#DejaVuSans-2e" x="147.412109"/>
       <use xlink:href="#DejaVuSans-30" x="179.199219"/>
       <use xlink:href="#DejaVuSans-32" x="242.822266"/>
       <use xlink:href="#DejaVuSans-35" x="306.445312"/>
      </g>
     </g>
    </g>
    <g id="ytick_2">
     <g id="line2d_7">
      <g>
       <use xlink:href="#ma2cfeeab3a" x="64.885938" y="235.799916" style="stroke: #000000; stroke-width: 0.8"/>
      </g>
     </g>
     <g id="text_8">
      <!-- 0.000 -->
      <g transform="translate(29.257813 239.599135) scale(0.1 -0.1)">
       <use xlink:href="#DejaVuSans-30"/>
       <use xlink:href="#DejaVuSans-2e" x="63.623047"/>
       <use xlink:href="#DejaVuSans-30" x="95.410156"/>
       <use xlink:href="#DejaVuSans-30" x="159.033203"/>
       <use xlink:href="#DejaVuSans-30" x="222.65625"/>
      </g>
     </g>
    </g>
    <g id="ytick_3">
     <g id="line2d_8">
      <g>
       <use xlink:href="#ma2cfeeab3a" x="64.885938" y="202.269927" style="stroke: #000000; stroke-width: 0.8"/>
      </g>
     </g>
     <g id="text_9">
      <!-- 0.025 -->
      <g transform="translate(29.257813 206.069146) scale(0.1 -0.1)">
       <use xlink:href="#DejaVuSans-30"/>
       <use xlink:href="#DejaVuSans-2e" x="63.623047"/>
       <use xlink:href="#DejaVuSans-30" x="95.410156"/>
       <use xlink:href="#DejaVuSans-32" x="159.033203"/>
       <use xlink:href="#DejaVuSans-35" x="222.65625"/>
      </g>
     </g>
    </g>
    <g id="ytick_4">
     <g id="line2d_9">
      <g>
       <use xlink:href="#ma2cfeeab3a" x="64.885938" y="168.739939" style="stroke: #000000; stroke-width: 0.8"/>
      </g>
     </g>
     <g id="text_10">
      <!-- 0.050 -->
      <g transform="translate(29.257813 172.539157) scale(0.1 -0.1)">
       <use xlink:href="#DejaVuSans-30"/>
       <use xlink:href="#DejaVuSans-2e" x="63.623047"/>
       <use xlink:href="#DejaVuSans-30" x="95.410156"/>
       <use xlink:href="#DejaVuSans-35" x="159.033203"/>
       <use xlink:href="#DejaVuSans-30" x="222.65625"/>
      </g>
     </g>
    </g>
    <g id="ytick_5">
     <g id="line2d_10">
      <g>
       <use xlink:href="#ma2cfeeab3a" x="64.885938" y="135.20995" style="stroke: #000000; stroke-width: 0.8"/>
      </g>
     </g>
     <g id="text_11">
      <!-- 0.075 -->
      <g transform="translate(29.257813 139.009169) scale(0.1 -0.1)">
       <defs>
        <path id="DejaVuSans-37" d="M 525 4666 
L 3525 4666 
L 3525 4397 
L 1831 0 
L 1172 0 
L 2766 4134 
L 525 4134 
L 525 4666 
z
" transform="scale(0.015625)"/>
       </defs>
       <use xlink:href="#DejaVuSans-30"/>
       <use xlink:href="#DejaVuSans-2e" x="63.623047"/>
       <use xlink:href="#DejaVuSans-30" x="95.410156"/>
       <use xlink:href="#DejaVuSans-37" x="159.033203"/>
       <use xlink:href="#DejaVuSans-35" x="222.65625"/>
      </g>
     </g>
    </g>
    <g id="ytick_6">
     <g id="line2d_11">
      <g>
       <use xlink:href="#ma2cfeeab3a" x="64.885938" y="101.679962" style="stroke: #000000; stroke-width: 0.8"/>
      </g>
     </g>
     <g id="text_12">
      <!-- 0.100 -->
      <g transform="translate(29.257813 105.47918) scale(0.1 -0.1)">
       <use xlink:href="#DejaVuSans-30"/>
       <use xlink:href="#DejaVuSans-2e" x="63.623047"/>
       <use xlink:href="#DejaVuSans-31" x="95.410156"/>
       <use xlink:href="#DejaVuSans-30" x="159.033203"/>
       <use xlink:href="#DejaVuSans-30" x="222.65625"/>
      </g>
     </g>
    </g>
    <g id="ytick_7">
     <g id="line2d_12">
      <g>
       <use xlink:href="#ma2cfeeab3a" x="64.885938" y="68.149973" style="stroke: #000000; stroke-width: 0.8"/>
      </g>
     </g>
     <g id="text_13">
      <!-- 0.125 -->
      <g transform="translate(29.257813 71.949192) scale(0.1 -0.1)">
       <use xlink:href="#DejaVuSans-30"/>
       <use xlink:href="#DejaVuSans-2e" x="63.623047"/>
       <use xlink:href="#DejaVuSans-31" x="95.410156"/>
       <use xlink:href="#DejaVuSans-32" x="159.033203"/>
       <use xlink:href="#DejaVuSans-35" x="222.65625"/>
      </g>
     </g>
    </g>
    <g id="ytick_8">
     <g id="line2d_13">
      <g>
       <use xlink:href="#ma2cfeeab3a" x="64.885938" y="34.619985" style="stroke: #000000; stroke-width: 0.8"/>
      </g>
     </g>
     <g id="text_14">
      <!-- 0.150 -->
      <g transform="translate(29.257813 38.419203) scale(0.1 -0.1)">
       <use xlink:href="#DejaVuSans-30"/>
       <use xlink:href="#DejaVuSans-2e" x="63.623047"/>
       <use xlink:href="#DejaVuSans-31" x="95.410156"/>
       <use xlink:href="#DejaVuSans-35" x="159.033203"/>
       <use xlink:href="#DejaVuSans-30" x="222.65625"/>
      </g>
     </g>
    </g>
    <g id="text_15">
     <!-- Cepstrum Values -->
     <g transform="translate(14.798438 203.244688) rotate(-90) scale(0.1 -0.1)">
      <defs>
       <path id="DejaVuSans-43" d="M 4122 4306 
L 4122 3641 
Q 3803 3938 3442 4084 
Q 3081 4231 2675 4231 
Q 1875 4231 1450 3742 
Q 1025 3253 1025 2328 
Q 1025 1406 1450 917 
Q 1875 428 2675 428 
Q 3081 428 3442 575 
Q 3803 722 4122 1019 
L 4122 359 
Q 3791 134 3420 21 
Q 3050 -91 2638 -91 
Q 1578 -91 968 557 
Q 359 1206 359 2328 
Q 359 3453 968 4101 
Q 1578 4750 2638 4750 
Q 3056 4750 3426 4639 
Q 3797 4528 4122 4306 
z
" transform="scale(0.015625)"/>
       <path id="DejaVuSans-74" d="M 1172 4494 
L 1172 3500 
L 2356 3500 
L 2356 3053 
L 1172 3053 
L 1172 1153 
Q 1172 725 1289 603 
Q 1406 481 1766 481 
L 2356 481 
L 2356 0 
L 1766 0 
Q 1100 0 847 248 
Q 594 497 594 1153 
L 594 3053 
L 172 3053 
L 172 3500 
L 594 3500 
L 594 4494 
L 1172 4494 
z
" transform="scale(0.015625)"/>
       <path id="DejaVuSans-72" d="M 2631 2963 
Q 2534 3019 2420 3045 
Q 2306 3072 2169 3072 
Q 1681 3072 1420 2755 
Q 1159 2438 1159 1844 
L 1159 0 
L 581 0 
L 581 3500 
L 1159 3500 
L 1159 2956 
Q 1341 3275 1631 3429 
Q 1922 3584 2338 3584 
Q 2397 3584 2469 3576 
Q 2541 3569 2628 3553 
L 2631 2963 
z
" transform="scale(0.015625)"/>
       <path id="DejaVuSans-75" d="M 544 1381 
L 544 3500 
L 1119 3500 
L 1119 1403 
Q 1119 906 1312 657 
Q 1506 409 1894 409 
Q 2359 409 2629 706 
Q 2900 1003 2900 1516 
L 2900 3500 
L 3475 3500 
L 3475 0 
L 2900 0 
L 2900 538 
Q 2691 219 2414 64 
Q 2138 -91 1772 -91 
Q 1169 -91 856 284 
Q 544 659 544 1381 
z
M 1991 3584 
L 1991 3584 
z
" transform="scale(0.015625)"/>
       <path id="DejaVuSans-56" d="M 1831 0 
L 50 4666 
L 709 4666 
L 2188 738 
L 3669 4666 
L 4325 4666 
L 2547 0 
L 1831 0 
z
" transform="scale(0.015625)"/>
      </defs>
      <use xlink:href="#DejaVuSans-43"/>
      <use xlink:href="#DejaVuSans-65" x="69.824219"/>
      <use xlink:href="#DejaVuSans-70" x="131.347656"/>
      <use xlink:href="#DejaVuSans-73" x="194.824219"/>
      <use xlink:href="#DejaVuSans-74" x="246.923828"/>
      <use xlink:href="#DejaVuSans-72" x="286.132812"/>
      <use xlink:href="#DejaVuSans-75" x="327.246094"/>
      <use xlink:href="#DejaVuSans-6d" x="390.625"/>
      <use xlink:href="#DejaVuSans-20" x="488.037109"/>
      <use xlink:href="#DejaVuSans-56" x="519.824219"/>
      <use xlink:href="#DejaVuSans-61" x="580.482422"/>
      <use xlink:href="#DejaVuSans-6c" x="641.761719"/>
      <use xlink:href="#DejaVuSans-75" x="669.544922"/>
      <use xlink:href="#DejaVuSans-65" x="732.923828"/>
      <use xlink:href="#DejaVuSans-73" x="794.447266"/>
     </g>
    </g>
   </g>
   <g id="line2d_14">
    <path d="M 85.176847 182.145265 
L 89.494061 207.615708 
L 93.811276 195.289336 
L 98.128491 195.023594 
L 102.445705 221.321225 
L 106.76292 211.13299 
L 111.080135 199.243101 
L 115.397349 219.817552 
L 119.714564 218.263129 
L 124.031779 216.921897 
L 128.348994 216.860502 
L 132.666208 207.37887 
L 136.983423 172.619607 
L 141.300638 214.128591 
L 145.617852 195.264661 
L 149.935067 235.913412 
L 154.252282 243.477495 
L 158.569496 238.155722 
L 162.886711 226.027327 
L 167.203926 221.996723 
L 171.521141 212.735799 
L 175.838355 233.914917 
L 180.15557 228.863548 
L 184.472785 267.374438 
L 188.789999 198.540691 
L 193.107214 34.918125 
L 197.424429 197.669389 
L 201.741643 263.237731 
L 206.058858 233.718683 
L 210.376073 257.527559 
L 214.693288 219.337576 
L 219.010502 234.654896 
L 223.327717 219.777907 
L 227.644932 202.020791 
L 231.962146 215.547717 
L 236.279361 230.370219 
L 240.596576 224.392155 
L 244.91379 235.679585 
L 249.231005 215.116542 
L 253.54822 236.157953 
L 257.865435 225.486327 
L 262.182649 215.536719 
L 266.499864 238.837924 
L 270.817079 250.511985 
L 275.134293 240.72182 
L 279.451508 257.468902 
L 283.768723 249.966046 
L 288.085938 234.350915 
L 292.403152 218.231154 
L 296.720367 210.640434 
L 301.037582 210.255682 
L 305.354796 217.086179 
L 309.672011 233.26548 
L 313.989226 238.860867 
L 318.30644 230.001031 
L 322.623655 235.440545 
L 326.94087 237.758342 
L 331.258085 242.305512 
L 335.575299 231.159821 
L 339.892514 245.417726 
L 344.209729 228.200584 
L 348.526943 221.075105 
L 352.844158 210.973067 
L 357.161373 219.515444 
L 361.478587 212.358628 
L 365.795802 219.744089 
L 370.113017 224.879012 
L 374.430232 231.418778 
L 378.747446 237.838538 
L 383.064661 247.212946 
L 387.381876 248.103969 
L 391.69909 244.288932 
L 396.016305 230.556543 
L 400.33352 232.236254 
L 404.650734 240.356278 
L 408.967949 258.247226 
L 413.285164 225.068657 
L 417.602379 230.335134 
L 421.919593 235.164888 
L 426.236808 240.559616 
L 430.554023 241.629514 
L 434.871237 248.248495 
L 439.188452 250.368109 
L 443.505667 247.011926 
L 447.822881 236.067687 
L 452.140096 232.84207 
L 456.457311 231.039166 
L 460.774526 235.932097 
L 465.09174 241.997962 
L 469.408955 243.6406 
L 473.72617 241.615131 
L 478.043384 253.222014 
L 482.360599 252.690278 
L 486.677814 255.988514 
L 490.995028 238.071365 
" clip-path="url(#pfcdecfcd18)" style="fill: none; stroke: #1f77b4; stroke-width: 1.5; stroke-linecap: square"/>
   </g>
   <g id="line2d_15">
    <path d="M 85.176847 194.352021 
L 89.494061 224.822548 
L 93.811276 207.898361 
L 98.128491 195.470621 
L 102.445705 203.117809 
L 106.76292 228.217357 
L 111.080135 260.883628 
L 115.397349 216.175529 
L 119.714564 241.314825 
L 124.031779 235.323504 
L 128.348994 200.293472 
L 132.666208 232.509366 
L 136.983423 206.054371 
L 141.300638 233.921219 
L 145.617852 217.948114 
L 149.935067 211.657121 
L 154.252282 227.783219 
L 158.569496 220.990876 
L 162.886711 218.724392 
L 167.203926 216.618622 
L 171.521141 212.896717 
L 175.838355 246.992427 
L 180.15557 188.095146 
L 184.472785 238.150635 
L 188.789999 286.918125 
L 193.107214 162.59352 
L 197.424429 272.516392 
L 201.741643 235.805606 
L 206.058858 198.066607 
L 210.376073 254.089916 
L 214.693288 225.016781 
L 219.010502 235.67258 
L 223.327717 236.07232 
L 227.644932 225.333398 
L 231.962146 240.119628 
L 236.279361 238.269969 
L 240.596576 242.0054 
L 244.91379 271.298662 
L 249.231005 231.887463 
L 253.54822 256.722073 
L 257.865435 281.104014 
L 262.182649 256.569777 
L 266.499864 269.409718 
L 270.817079 249.915622 
L 275.134293 238.991469 
L 279.451508 241.931875 
L 283.768723 253.824973 
L 288.085938 231.740091 
L 292.403152 215.210632 
L 296.720367 183.105987 
L 301.037582 155.379321 
L 305.354796 188.010091 
L 309.672011 220.180497 
L 313.989226 232.176333 
L 318.30644 237.665101 
L 322.623655 238.888712 
L 326.94087 221.704533 
L 331.258085 236.059118 
L 335.575299 235.630221 
L 339.892514 253.141312 
L 344.209729 244.905619 
L 348.526943 224.437698 
L 352.844158 238.805779 
L 357.161373 229.721958 
L 361.478587 240.618527 
L 365.795802 243.189086 
L 370.113017 244.37632 
L 374.430232 251.039175 
L 378.747446 238.103719 
L 383.064661 260.526705 
L 387.381876 251.673021 
L 391.69909 247.905699 
L 396.016305 237.598938 
L 400.33352 225.401121 
L 404.650734 242.638286 
L 408.967949 249.161848 
L 413.285164 230.751074 
L 417.602379 236.212156 
L 421.919593 256.266023 
L 426.236808 241.893154 
L 430.554023 239.790281 
L 434.871237 253.195365 
L 439.188452 259.680395 
L 443.505667 266.166381 
L 447.822881 261.720286 
L 452.140096 255.665424 
L 456.457311 254.953573 
L 460.774526 237.123838 
L 465.09174 233.427426 
L 469.408955 247.662442 
L 473.72617 250.553094 
L 478.043384 249.124643 
L 482.360599 252.002219 
L 486.677814 245.628983 
L 490.995028 227.592544 
" clip-path="url(#pfcdecfcd18)" style="fill: none; stroke: #ff7f0e; stroke-width: 1.5; stroke-linecap: square"/>
   </g>
   <g id="line2d_16">
    <path d="M 85.176847 259.604334 
L 89.494061 271.643442 
L 93.811276 258.391012 
L 98.128491 270.983151 
L 102.445705 264.060107 
L 106.76292 211.803249 
L 111.080135 248.573274 
L 115.397349 213.205597 
L 119.714564 219.2094 
L 124.031779 227.908569 
L 128.348994 246.660161 
L 132.666208 254.116196 
L 136.983423 235.489077 
L 141.300638 233.769147 
L 145.617852 256.775211 
L 149.935067 276.974635 
L 154.252282 261.544053 
L 158.569496 240.206175 
L 162.886711 247.394851 
L 167.203926 266.482956 
L 171.521141 271.727177 
L 175.838355 277.445108 
L 180.15557 258.117331 
L 184.472785 244.687618 
L 188.789999 266.883139 
L 193.107214 261.003594 
L 197.424429 260.961981 
L 201.741643 227.778088 
L 206.058858 243.012807 
L 210.376073 238.283473 
L 214.693288 247.778855 
L 219.010502 248.906783 
L 223.327717 232.336324 
L 227.644932 251.280718 
L 231.962146 260.270131 
L 236.279361 257.741408 
L 240.596576 257.74711 
L 244.91379 232.437365 
L 249.231005 252.869106 
L 253.54822 268.73952 
L 257.865435 250.803835 
L 262.182649 237.84587 
L 266.499864 235.106808 
L 270.817079 235.142078 
L 275.134293 234.1399 
L 279.451508 210.490622 
L 283.768723 243.865032 
L 288.085938 233.175434 
L 292.403152 245.896246 
L 296.720367 249.387214 
L 301.037582 248.703106 
L 305.354796 245.42141 
L 309.672011 234.614748 
L 313.989226 224.144821 
L 318.30644 250.981127 
L 322.623655 254.819075 
L 326.94087 240.013869 
L 331.258085 250.936416 
L 335.575299 246.184696 
L 339.892514 244.520132 
L 344.209729 250.183989 
L 348.526943 243.18532 
L 352.844158 236.358549 
L 357.161373 239.468076 
L 361.478587 238.096171 
L 365.795802 241.462463 
L 370.113017 253.930519 
L 374.430232 242.515625 
L 378.747446 243.875939 
L 383.064661 243.937254 
L 387.381876 243.326913 
L 391.69909 239.61728 
L 396.016305 251.396963 
L 400.33352 247.270559 
L 404.650734 207.436395 
L 408.967949 132.416907 
L 413.285164 206.803375 
L 417.602379 229.555636 
L 421.919593 241.60552 
L 426.236808 238.633065 
L 430.554023 236.27573 
L 434.871237 235.595562 
L 439.188452 254.837898 
L 443.505667 257.27077 
L 447.822881 251.005482 
L 452.140096 238.968066 
L 456.457311 234.572815 
L 460.774526 246.049871 
L 465.09174 235.103421 
L 469.408955 219.10901 
L 473.72617 230.831391 
L 478.043384 227.316926 
L 482.360599 216.506091 
L 486.677814 227.743441 
L 490.995028 234.661505 
" clip-path="url(#pfcdecfcd18)" style="fill: none; stroke: #2ca02c; stroke-width: 1.5; stroke-linecap: square"/>
   </g>
   <g id="patch_3">
    <path d="M 64.885938 299.518125 
L 64.885938 22.318125 
" style="fill: none; stroke: #000000; stroke-width: 0.8; stroke-linejoin: miter; stroke-linecap: square"/>
   </g>
   <g id="patch_4">
    <path d="M 511.285937 299.518125 
L 511.285937 22.318125 
" style="fill: none; stroke: #000000; stroke-width: 0.8; stroke-linejoin: miter; stroke-linecap: square"/>
   </g>
   <g id="patch_5">
    <path d="M 64.885938 299.518125 
L 511.285937 299.518125 
" style="fill: none; stroke: #000000; stroke-width: 0.8; stroke-linejoin: miter; stroke-linecap: square"/>
   </g>
   <g id="patch_6">
    <path d="M 64.885938 22.318125 
L 511.285937 22.318125 
" style="fill: none; stroke: #000000; stroke-width: 0.8; stroke-linejoin: miter; stroke-linecap: square"/>
   </g>
   <g id="text_16">
    <!-- Cepstra of Demixed Tracks -->
    <g transform="translate(207.76 16.318125) scale(0.12 -0.12)">
     <defs>
      <path id="DejaVuSans-66" d="M 2375 4863 
L 2375 4384 
L 1825 4384 
Q 1516 4384 1395 4259 
Q 1275 4134 1275 3809 
L 1275 3500 
L 2222 3500 
L 2222 3053 
L 1275 3053 
L 1275 0 
L 697 0 
L 697 3053 
L 147 3053 
L 147 3500 
L 697 3500 
L 697 3744 
Q 697 4328 969 4595 
Q 1241 4863 1831 4863 
L 2375 4863 
z
" transform="scale(0.015625)"/>
      <path id="DejaVuSans-44" d="M 1259 4147 
L 1259 519 
L 2022 519 
Q 2988 519 3436 956 
Q 3884 1394 3884 2338 
Q 3884 3275 3436 3711 
Q 2988 4147 2022 4147 
L 1259 4147 
z
M 628 4666 
L 1925 4666 
Q 3281 4666 3915 4102 
Q 4550 3538 4550 2338 
Q 4550 1131 3912 565 
Q 3275 0 1925 0 
L 628 0 
L 628 4666 
z
" transform="scale(0.015625)"/>
      <path id="DejaVuSans-69" d="M 603 3500 
L 1178 3500 
L 1178 0 
L 603 0 
L 603 3500 
z
M 603 4863 
L 1178 4863 
L 1178 4134 
L 603 4134 
L 603 4863 
z
" transform="scale(0.015625)"/>
      <path id="DejaVuSans-78" d="M 3513 3500 
L 2247 1797 
L 3578 0 
L 2900 0 
L 1881 1375 
L 863 0 
L 184 0 
L 1544 1831 
L 300 3500 
L 978 3500 
L 1906 2253 
L 2834 3500 
L 3513 3500 
z
" transform="scale(0.015625)"/>
      <path id="DejaVuSans-64" d="M 2906 2969 
L 2906 4863 
L 3481 4863 
L 3481 0 
L 2906 0 
L 2906 525 
Q 2725 213 2448 61 
Q 2172 -91 1784 -91 
Q 1150 -91 751 415 
Q 353 922 353 1747 
Q 353 2572 751 3078 
Q 1150 3584 1784 3584 
Q 2172 3584 2448 3432 
Q 2725 3281 2906 2969 
z
M 947 1747 
Q 947 1113 1208 752 
Q 1469 391 1925 391 
Q 2381 391 2643 752 
Q 2906 1113 2906 1747 
Q 2906 2381 2643 2742 
Q 2381 3103 1925 3103 
Q 1469 3103 1208 2742 
Q 947 2381 947 1747 
z
" transform="scale(0.015625)"/>
      <path id="DejaVuSans-54" d="M -19 4666 
L 3928 4666 
L 3928 4134 
L 2272 4134 
L 2272 0 
L 1638 0 
L 1638 4134 
L -19 4134 
L -19 4666 
z
" transform="scale(0.015625)"/>
      <path id="DejaVuSans-6b" d="M 581 4863 
L 1159 4863 
L 1159 1991 
L 2875 3500 
L 3609 3500 
L 1753 1863 
L 3688 0 
L 2938 0 
L 1159 1709 
L 1159 0 
L 581 0 
L 581 4863 
z
" transform="scale(0.015625)"/>
     </defs>
     <use xlink:href="#DejaVuSans-43"/>
     <use xlink:href="#DejaVuSans-65" x="69.824219"/>
     <use xlink:href="#DejaVuSans-70" x="131.347656"/>
     <use xlink:href="#DejaVuSans-73" x="194.824219"/>
     <use xlink:href="#DejaVuSans-74" x="246.923828"/>
     <use xlink:href="#DejaVuSans-72" x="286.132812"/>
     <use xlink:href="#DejaVuSans-61" x="327.246094"/>
     <use xlink:href="#DejaVuSans-20" x="388.525391"/>
     <use xlink:href="#DejaVuSans-6f" x="420.3125"/>
     <use xlink:href="#DejaVuSans-66" x="481.494141"/>
     <use xlink:href="#DejaVuSans-20" x="516.699219"/>
     <use xlink:href="#DejaVuSans-44" x="548.486328"/>
     <use xlink:href="#DejaVuSans-65" x="625.488281"/>
     <use xlink:href="#DejaVuSans-6d" x="687.011719"/>
     <use xlink:href="#DejaVuSans-69" x="784.423828"/>
     <use xlink:href="#DejaVuSans-78" x="812.207031"/>
     <use xlink:href="#DejaVuSans-65" x="868.261719"/>
     <use xlink:href="#DejaVuSans-64" x="929.785156"/>
     <use xlink:href="#DejaVuSans-20" x="993.261719"/>
     <use xlink:href="#DejaVuSans-54" x="1025.048828"/>
     <use xlink:href="#DejaVuSans-72" x="1071.382812"/>
     <use xlink:href="#DejaVuSans-61" x="1112.496094"/>
     <use xlink:href="#DejaVuSans-63" x="1173.775391"/>
     <use xlink:href="#DejaVuSans-6b" x="1228.755859"/>
     <use xlink:href="#DejaVuSans-73" x="1286.666016"/>
    </g>
   </g>
   <g id="legend_1">
    <g id="patch_7">
     <path d="M 361.526563 74.3525 
L 504.285938 74.3525 
Q 506.285938 74.3525 506.285938 72.3525 
L 506.285938 29.318125 
Q 506.285938 27.318125 504.285938 27.318125 
L 361.526563 27.318125 
Q 359.526563 27.318125 359.526563 29.318125 
L 359.526563 72.3525 
Q 359.526563 74.3525 361.526563 74.3525 
z
" style="fill: #ffffff; opacity: 0.8; stroke: #cccccc; stroke-linejoin: miter"/>
    </g>
    <g id="line2d_17">
     <path d="M 363.526563 35.416562 
L 373.526563 35.416562 
L 383.526563 35.416562 
" style="fill: none; stroke: #1f77b4; stroke-width: 1.5; stroke-linecap: square"/>
    </g>
    <g id="text_17">
     <!-- Drums ((z[50] = 11.6) -->
     <g transform="translate(391.526563 38.916562) scale(0.1 -0.1)">
      <defs>
       <path id="DejaVuSans-7a" d="M 353 3500 
L 3084 3500 
L 3084 2975 
L 922 459 
L 3084 459 
L 3084 0 
L 275 0 
L 275 525 
L 2438 3041 
L 353 3041 
L 353 3500 
z
" transform="scale(0.015625)"/>
       <path id="DejaVuSans-5b" d="M 550 4863 
L 1875 4863 
L 1875 4416 
L 1125 4416 
L 1125 -397 
L 1875 -397 
L 1875 -844 
L 550 -844 
L 550 4863 
z
" transform="scale(0.015625)"/>
       <path id="DejaVuSans-5d" d="M 1947 4863 
L 1947 -844 
L 622 -844 
L 622 -397 
L 1369 -397 
L 1369 4416 
L 622 4416 
L 622 4863 
L 1947 4863 
z
" transform="scale(0.015625)"/>
       <path id="DejaVuSans-3d" d="M 678 2906 
L 4684 2906 
L 4684 2381 
L 678 2381 
L 678 2906 
z
M 678 1631 
L 4684 1631 
L 4684 1100 
L 678 1100 
L 678 1631 
z
" transform="scale(0.015625)"/>
      </defs>
      <use xlink:href="#DejaVuSans-44"/>
      <use xlink:href="#DejaVuSans-72" x="77.001953"/>
      <use xlink:href="#DejaVuSans-75" x="118.115234"/>
      <use xlink:href="#DejaVuSans-6d" x="181.494141"/>
      <use xlink:href="#DejaVuSans-73" x="278.90625"/>
      <use xlink:href="#DejaVuSans-20" x="331.005859"/>
      <use xlink:href="#DejaVuSans-28" x="362.792969"/>
      <use xlink:href="#DejaVuSans-28" x="401.806641"/>
      <use xlink:href="#DejaVuSans-7a" x="440.820312"/>
      <use xlink:href="#DejaVuSans-5b" x="493.310547"/>
      <use xlink:href="#DejaVuSans-35" x="532.324219"/>
      <use xlink:href="#DejaVuSans-30" x="595.947266"/>
      <use xlink:href="#DejaVuSans-5d" x="659.570312"/>
      <use xlink:href="#DejaVuSans-20" x="698.583984"/>
      <use xlink:href="#DejaVuSans-3d" x="730.371094"/>
      <use xlink:href="#DejaVuSans-20" x="814.160156"/>
      <use xlink:href="#DejaVuSans-31" x="845.947266"/>
      <use xlink:href="#DejaVuSans-31" x="909.570312"/>
      <use xlink:href="#DejaVuSans-2e" x="973.193359"/>
      <use xlink:href="#DejaVuSans-36" x="1004.980469"/>
      <use xlink:href="#DejaVuSans-29" x="1068.603516"/>
     </g>
    </g>
    <g id="line2d_18">
     <path d="M 363.526563 50.094688 
L 373.526563 50.094688 
L 383.526563 50.094688 
" style="fill: none; stroke: #ff7f0e; stroke-width: 1.5; stroke-linecap: square"/>
    </g>
    <g id="text_18">
     <!-- Guitar (z[75] = 4.2) -->
     <g transform="translate(391.526563 53.594688) scale(0.1 -0.1)">
      <defs>
       <path id="DejaVuSans-47" d="M 3809 666 
L 3809 1919 
L 2778 1919 
L 2778 2438 
L 4434 2438 
L 4434 434 
Q 4069 175 3628 42 
Q 3188 -91 2688 -91 
Q 1594 -91 976 548 
Q 359 1188 359 2328 
Q 359 3472 976 4111 
Q 1594 4750 2688 4750 
Q 3144 4750 3555 4637 
Q 3966 4525 4313 4306 
L 4313 3634 
Q 3963 3931 3569 4081 
Q 3175 4231 2741 4231 
Q 1884 4231 1454 3753 
Q 1025 3275 1025 2328 
Q 1025 1384 1454 906 
Q 1884 428 2741 428 
Q 3075 428 3337 486 
Q 3600 544 3809 666 
z
" transform="scale(0.015625)"/>
      </defs>
      <use xlink:href="#DejaVuSans-47"/>
      <use xlink:href="#DejaVuSans-75" x="77.490234"/>
      <use xlink:href="#DejaVuSans-69" x="140.869141"/>
      <use xlink:href="#DejaVuSans-74" x="168.652344"/>
      <use xlink:href="#DejaVuSans-61" x="207.861328"/>
      <use xlink:href="#DejaVuSans-72" x="269.140625"/>
      <use xlink:href="#DejaVuSans-20" x="310.253906"/>
      <use xlink:href="#DejaVuSans-28" x="342.041016"/>
      <use xlink:href="#DejaVuSans-7a" x="381.054688"/>
      <use xlink:href="#DejaVuSans-5b" x="433.544922"/>
      <use xlink:href="#DejaVuSans-37" x="472.558594"/>
      <use xlink:href="#DejaVuSans-35" x="536.181641"/>
      <use xlink:href="#DejaVuSans-5d" x="599.804688"/>
      <use xlink:href="#DejaVuSans-20" x="638.818359"/>
      <use xlink:href="#DejaVuSans-3d" x="670.605469"/>
      <use xlink:href="#DejaVuSans-20" x="754.394531"/>
      <use xlink:href="#DejaVuSans-34" x="786.181641"/>
      <use xlink:href="#DejaVuSans-2e" x="849.804688"/>
      <use xlink:href="#DejaVuSans-32" x="881.591797"/>
      <use xlink:href="#DejaVuSans-29" x="945.214844"/>
     </g>
    </g>
    <g id="line2d_19">
     <path d="M 363.526563 64.772812 
L 373.526563 64.772812 
L 383.526563 64.772812 
" style="fill: none; stroke: #2ca02c; stroke-width: 1.5; stroke-linecap: square"/>
    </g>
    <g id="text_19">
     <!-- Vocals (z[100] = 7.5) -->
     <g transform="translate(391.526563 68.272812) scale(0.1 -0.1)">
      <use xlink:href="#DejaVuSans-56"/>
      <use xlink:href="#DejaVuSans-6f" x="60.658203"/>
      <use xlink:href="#DejaVuSans-63" x="121.839844"/>
      <use xlink:href="#DejaVuSans-61" x="176.820312"/>
      <use xlink:href="#DejaVuSans-6c" x="238.099609"/>
      <use xlink:href="#DejaVuSans-73" x="265.882812"/>
      <use xlink:href="#DejaVuSans-20" x="317.982422"/>
      <use xlink:href="#DejaVuSans-28" x="349.769531"/>
      <use xlink:href="#DejaVuSans-7a" x="388.783203"/>
      <use xlink:href="#DejaVuSans-5b" x="441.273438"/>
      <use xlink:href="#DejaVuSans-31" x="480.287109"/>
      <use xlink:href="#DejaVuSans-30" x="543.910156"/>
      <use xlink:href="#DejaVuSans-30" x="607.533203"/>
      <use xlink:href="#DejaVuSans-5d" x="671.15625"/>
      <use xlink:href="#DejaVuSans-20" x="710.169922"/>
      <use xlink:href="#DejaVuSans-3d" x="741.957031"/>
      <use xlink:href="#DejaVuSans-20" x="825.746094"/>
      <use xlink:href="#DejaVuSans-37" x="857.533203"/>
      <use xlink:href="#DejaVuSans-2e" x="921.15625"/>
      <use xlink:href="#DejaVuSans-35" x="952.943359"/>
      <use xlink:href="#DejaVuSans-29" x="1016.566406"/>
     </g>
    </g>
   </g>
  </g>
 </g>
 <defs>
  <clipPath id="pfcdecfcd18">
   <rect x="64.885938" y="22.318125" width="446.4" height="277.2"/>
  </clipPath>
 </defs>
</svg>
